<?xml version="1.0" encoding="UTF-8"?>
<svg width="86px" height="87px" viewBox="0 0 86 87" version="1.1" xmlns="http://www.w3.org/2000/svg" xmlns:xlink="http://www.w3.org/1999/xlink">
    <!-- Generator: Sketch 51.3 (57544) - http://www.bohemiancoding.com/sketch -->
    <title>Group 21</title>
    <desc>Created with Sketch.</desc>
    <defs>
        <polygon id="path-1" points="0 0.287698996 44.1035678 0.287698996 44.1035678 41.2306562 0 41.2306562"></polygon>
        <polygon id="path-3" points="0 41.8592877 44.1040728 41.8592877 44.1040728 0.916238841 0 0.916238841"></polygon>
    </defs>
    <g id="Page-1" stroke="none" stroke-width="1" fill="none" fill-rule="evenodd">
        <g id="cubix-commerce-copy-2" transform="translate(-657.000000, -1023.000000)">
            <g id="Group-21" transform="translate(657.000000, 1023.000000)">
                <circle id="Oval-6" fill="#E02A28" fill-rule="nonzero" cx="43" cy="43.6835938" r="43"></circle>
                <g id="Group-9" transform="translate(21.552148, 22.250725)">
                    <g id="Group-3" transform="translate(0.000000, 0.628540)">
                        <mask id="mask-2" fill="white">
                            <use xlink:href="#path-1"></use>
                        </mask>
                        <g id="Clip-2"></g>
                        <path d="M18.6634187,14.7376101 L19.0638151,9.37669667 L19.6447105,1.86720313 L24.4091525,1.86720313 L25.4032716,14.7376101 L18.6634187,14.7376101 Z M2.09140678,14.7376101 L8.40704111,1.86720313 L12.3752715,1.86720313 L8.71306488,14.7376101 L2.09140678,14.7376101 Z M10.3366401,14.7376101 L13.9988468,1.86720313 L18.0440412,1.86720313 L17.0215187,14.7376101 L10.3366401,14.7376101 Z M27.0360092,14.7376101 L26.0134867,1.86720313 L30.0595974,1.86720313 L33.721804,14.7376101 L27.0360092,14.7376101 Z M35.4067673,14.7376101 L31.7445606,1.86720313 L35.712791,1.86720313 L41.9670374,14.7376101 L35.4067673,14.7376101 Z M39.5554967,19.0466814 C39.1147859,19.1199805 38.7308818,19.1153993 38.3103282,19.0274404 C38.2920034,19.0237754 38.2736786,19.018278 38.2553538,19.0127806 C38.2351966,19.0063669 38.2150393,18.9999532 38.1957983,18.995372 C37.9859796,18.9431464 37.8183079,18.8890883 37.668961,18.8240354 L37.5984106,18.7910508 C37.4050842,18.7021756 37.2291663,18.6032218 37.0752382,18.4978543 L37.009269,18.5922269 L37.0450023,18.4758646 C36.8727494,18.3558373 36.7096589,18.2184015 36.560312,18.0672221 L36.4787667,18.1478511 L36.5392385,18.0461486 C36.4091326,17.913294 36.2817754,17.7566171 36.1608318,17.5816155 L36.1388421,17.5504634 C36.126931,17.5348873 36.1150199,17.518395 36.104025,17.5019027 C36.027061,17.3837079 35.9647567,17.2572669 35.8914576,17.10792 C35.8767978,17.0767679 35.862138,17.046532 35.8465619,17.0153799 C35.8227397,16.9668192 35.797085,16.9173423 35.7769278,16.8632842 C35.7686816,16.843127 35.7631842,16.8220535 35.7567705,16.80098 C35.7503568,16.7789903 35.7448594,16.7570005 35.7375295,16.7368433 C35.7017962,16.6296433 35.6633141,16.5077836 35.6330783,16.3795101 L42.3115432,16.3795101 C42.019263,17.748371 40.9710857,18.7846371 39.6049736,19.0384352 L39.5554967,19.0466814 Z M33.7043955,16.8495407 C33.6732434,16.9402483 33.6301802,17.0245423 33.5880332,17.10792 L33.5193153,17.2462721 C33.4790007,17.3269011 33.4396025,17.4066139 33.3910418,17.4835779 C33.3681358,17.5211437 33.3415649,17.5577933 33.314994,17.5935266 L33.2783444,17.644836 C33.169312,17.7978479 33.0676095,17.9233726 32.9649908,18.0305725 C32.9494147,18.0479811 32.9320062,18.0653896 32.9145976,18.0818819 L32.8907754,18.1057041 C32.7560883,18.2385587 32.6113226,18.3604185 32.4601432,18.4676185 L32.3932577,18.5152629 C32.2439108,18.6151329 32.0826528,18.7049243 31.899405,18.7873858 L31.8563418,18.8084593 C31.8407657,18.8167054 31.8242734,18.8249516 31.8077811,18.8322815 C31.6584342,18.8945858 31.4935112,18.9458951 31.2891899,18.995372 C31.2690327,18.9999532 31.2488754,19.0063669 31.2287182,19.0127806 C31.2085609,19.018278 31.1884036,19.0246917 31.1664139,19.0292729 C30.7202056,19.1190643 30.2904896,19.121813 29.8397001,19.0274404 C29.8204591,19.0237754 29.801218,19.0173618 29.7838095,19.0118643 C29.7636522,19.0063669 29.7453275,18.9999532 29.7251702,18.995372 C29.5226814,18.9458951 29.3504285,18.8900046 29.1983329,18.8249516 L29.129615,18.791967 C28.9326236,18.7021756 28.7603707,18.6050543 28.6027776,18.4969381 L28.5377247,18.5913107 L28.5762067,18.4786133 C28.3993726,18.3540048 28.2353659,18.2147365 28.0704429,18.0488973 C27.9375882,17.9123777 27.8120635,17.7584496 27.687455,17.5779505 L27.6663815,17.5486309 C27.6563029,17.5348873 27.6462243,17.5211437 27.6361457,17.5046514 C27.5509354,17.3754618 27.4822175,17.234361 27.4162483,17.0978414 L27.3768501,17.0181286 C27.3521116,16.9695679 27.3282894,16.9210073 27.3081322,16.8678654 C27.2980535,16.8440432 27.2916399,16.8183885 27.2843099,16.7927339 C27.27698,16.7679954 27.2696501,16.7423407 27.261404,16.720351 C27.2284194,16.616816 27.1908536,16.5004537 27.1615339,16.3795101 L33.8390826,16.3795101 C33.8070143,16.5316058 33.7621185,16.6855339 33.7043955,16.8495407 Z M25.0715931,17.2004601 L25.040441,17.2618481 C25.0037915,17.3351472 24.9671419,17.4084464 24.9240787,17.4780805 L24.9231625,17.4789967 C24.898424,17.5193113 24.8709368,17.556877 24.8434497,17.5953591 L24.8040514,17.6494172 C24.6895215,17.8088427 24.5951489,17.9252051 24.4980276,18.0269076 L24.4183149,18.1075366 C24.2836277,18.2403912 24.1397782,18.3613347 23.9913476,18.4667022 L23.9217134,18.5161791 C23.7751152,18.6142167 23.6138571,18.7040081 23.4306094,18.7873858 L23.3857137,18.8084593 C23.3701376,18.8167054 23.3536453,18.8249516 23.3362368,18.8322815 C23.1878061,18.8945858 23.0237993,18.9458951 22.8213106,18.9944558 C22.7993208,18.9999532 22.7782473,19.0063669 22.7562576,19.0127806 C22.7370166,19.018278 22.7177756,19.0246917 22.6957858,19.0292729 C22.2486613,19.1199805 21.8226102,19.121813 21.369072,19.0274404 C21.3507472,19.0237754 21.3324224,19.018278 21.3150139,19.0127806 C21.2939404,19.0063669 21.2737831,18.9999532 21.2545421,18.995372 C21.0456397,18.9440626 20.877968,18.8900046 20.7277048,18.8249516 L20.6571544,18.7910508 C20.4629118,18.7021756 20.2869939,18.6032218 20.1330658,18.4978543 L20.0680128,18.5922269 L20.1037461,18.4767808 C19.9296608,18.3549211 19.7665703,18.216569 19.6181396,18.0672221 L19.5365943,18.1478511 L19.5979823,18.0461486 C19.4678764,17.913294 19.3441842,17.7611983 19.2186594,17.5816155 L19.1636851,17.502819 C19.0848886,17.3827917 19.0216681,17.2563507 18.948369,17.1042551 L18.9071382,17.0208773 C18.8814835,16.9704842 18.8558288,16.920091 18.8356716,16.8651167 C18.8265092,16.843127 18.8200955,16.820221 18.8145981,16.7982313 C18.8081844,16.7744091 18.8008545,16.7505869 18.7935246,16.7304296 C18.7522939,16.6039886 18.7174768,16.4912913 18.6909059,16.3795101 L25.3684545,16.3795101 C25.308899,16.6470519 25.2108614,16.9173423 25.0715931,17.2004601 Z M5.65832459,19.0384352 C5.61892632,19.0457652 5.57861181,19.0485139 5.5382973,19.0512626 C5.51081013,19.0540113 5.48240673,19.05676 5.45400332,19.0595087 L5.41002386,19.0650062 C5.28266666,19.0814985 5.16355561,19.0961583 5.03894713,19.0961583 L5.03986337,19.2106882 L4.99863262,19.0952421 C3.39613089,19.083331 2.0236051,17.9490273 1.68551297,16.3795101 L8.36489412,16.3795101 C8.07353017,17.7502034 7.02352046,18.7864696 5.65832459,19.0384352 Z M14.1280364,19.0384352 C14.0895544,19.0457652 14.0492399,19.0485139 14.0089254,19.0512626 C13.9814382,19.0540113 13.9530348,19.05676 13.9246314,19.0595087 L13.8934793,19.0631737 C13.7688708,19.0787498 13.650676,19.0934096 13.5306487,19.0943258 C11.9785401,19.0814985 10.5748622,17.9242888 10.2083667,16.3795101 L16.8355222,16.3795101 C16.5441583,17.7502034 15.4950648,18.7864696 14.1280364,19.0384352 Z M18.9767724,23.6443679 L9.57158067,23.6443679 C9.13636722,23.6443679 8.78178279,23.9989523 8.78178279,24.4341658 L8.78178279,39.6510605 L4.69352509,39.6510605 L4.69352509,20.6592618 L4.70910115,20.660178 C4.81080366,20.6702566 4.90700874,20.6748378 5.02520355,20.6766703 L5.08750779,20.6766703 C6.81736672,20.6766703 8.42719836,19.7860861 9.33060986,18.3411775 C9.34618592,18.3631672 9.36176198,18.3842407 9.37550556,18.404398 L9.4378098,18.4951056 C9.51110891,18.5995568 9.58440802,18.7040081 9.66503704,18.8020456 C9.77681817,18.9403977 9.9023429,19.079666 10.0471086,19.2235155 C10.815833,19.98491 11.78613,20.4677678 12.8773704,20.6253609 L12.9405909,20.6345233 C13.3794693,20.6913301 13.7029016,20.6922464 14.1289527,20.6391045 C14.2361526,20.6281096 14.3415201,20.6088686 14.4642961,20.5859627 L14.6081456,20.5575592 C15.9394406,20.2762739 17.0939016,19.4727325 17.8021542,18.3411775 C17.816814,18.3613347 17.8305576,18.3805758 17.8433849,18.400733 L17.9093541,18.4951056 C17.9826532,18.5995568 18.0550361,18.7030918 18.1347489,18.8002132 C18.2483625,18.9413139 18.3748035,19.0805822 18.5159042,19.2207668 C19.2846286,19.9839937 20.2549256,20.4677678 21.3479985,20.6253609 L21.4121352,20.6345233 C21.860176,20.6913301 22.186357,20.6931626 22.6362303,20.6354395 C22.6673824,20.6326908 22.6976183,20.6271934 22.7287704,20.621696 L22.7580901,20.6171148 C22.9321755,20.5914601 23.1053446,20.556643 23.2968385,20.5062499 L23.3472316,20.4934225 C23.7522092,20.3816414 24.1379458,20.2212996 24.4934464,20.0188108 C24.5136037,20.0068997 24.5337609,19.9940724 24.553002,19.9821613 L24.5896515,19.9592553 C24.7060138,19.8896211 24.8196275,19.8154058 24.9286599,19.7384417 C25.4674083,19.3600351 25.9273602,18.8991669 26.2966045,18.3640835 C27.2311681,19.816322 28.7887741,20.6766703 30.499392,20.6766703 L30.5616963,20.6766703 C32.2924714,20.6766703 33.9013869,19.7870024 34.8047984,18.3411775 C34.8222069,18.3640835 34.8377829,18.3869894 34.8542752,18.4117279 L34.8982547,18.4740321 C34.9770513,18.5876457 35.0558478,18.7003431 35.1419742,18.8038781 C35.2510067,18.9385652 35.3737827,19.076001 35.5277108,19.2290129 C36.2964352,19.9867424 37.2639834,20.4677678 38.324988,20.6207797 L38.4156956,20.6345233 C38.7977672,20.6821677 39.0964611,20.6894976 39.4263071,20.660178 L39.4263071,39.6510605 L19.7665703,39.6510605 L19.7665703,24.4341658 C19.7665703,23.9989523 19.4119858,23.6443679 18.9767724,23.6443679 Z M10.3604623,39.6510605 L18.1869745,39.6510605 L18.1869745,25.2230474 L10.3604623,25.2230474 L10.3604623,39.6510605 Z M44.0340722,15.1764885 L36.9460485,0.756721659 C36.8489272,0.462608991 36.5053376,0.287607372 36.2295497,0.287607372 L7.8902824,0.287607372 C7.55035779,0.287607372 7.27090495,0.465357707 7.18569473,0.726485777 L0.0793462836,15.1911484 L0.0683514175,15.2177193 C0.0225394755,15.3212543 -0.000366495536,15.4247893 -0.000366495536,15.527408 C-0.000366495536,17.5330548 1.22281236,19.4195906 3.05162508,20.2469543 L3.05162508,39.6510605 L0.435763193,39.6510605 L0.435763193,41.2306562 L43.6217647,41.2306562 L43.6217647,39.6510605 L41.0059028,39.6510605 L41.0059028,20.2515355 C42.7275156,19.4828111 43.9131287,17.7941829 44.0404859,15.9241394 L44.0450671,15.9113121 C44.1256961,15.67309 44.1238636,15.4385328 44.0340722,15.1764885 Z" id="Fill-1" fill="#FFFFFF" mask="url(#mask-2)"></path>
                    </g>
                    <mask id="mask-4" fill="white">
                        <use xlink:href="#path-3"></use>
                    </mask>
                    <g id="Clip-5"></g>
                    <path d="M23.1304495,34.7996674 L33.6965158,34.7996674 L33.6965158,25.8525951 L23.1304495,25.8525951 L23.1304495,34.7996674 Z M22.3406517,36.4406512 L34.4853975,36.4406512 C34.9059511,36.4406512 35.2751954,36.0420873 35.2751954,35.5885491 L35.2751954,25.0627973 C35.2751954,24.6275838 34.9215272,24.2729994 34.4853975,24.2729994 L22.3406517,24.2729994 C21.9054382,24.2729994 21.5508538,24.6275838 21.5508538,25.0627973 L21.5508538,35.6517695 C21.5508538,36.0860667 21.9054382,36.4406512 22.3406517,36.4406512 Z" id="Fill-4" fill="#FFFFFF" mask="url(#mask-4)"></path>
                    <polygon id="Fill-6" fill="#FFFFFF" mask="url(#mask-4)" points="15.0107409 34.1986147 17.3993756 34.1986147 17.3993756 32.619019 15.0107409 32.619019"></polygon>
                </g>
            </g>
        </g>
    </g>
</svg>