<?xml version="1.0" encoding="UTF-8"?>
<svg width="70px" height="71px" viewBox="0 0 70 71" version="1.1" xmlns="http://www.w3.org/2000/svg" xmlns:xlink="http://www.w3.org/1999/xlink">
    <!-- Generator: Sketch 51.3 (57544) - http://www.bohemiancoding.com/sketch -->
    <title>Group 51</title>
    <desc>Created with Sketch.</desc>
    <defs>
        <polygon id="path-1" points="0 37.517443 22.5199419 37.517443 22.5199419 0.000352273152 0 0.000352273152"></polygon>
    </defs>
    <g id="Page-1" stroke="none" stroke-width="1" fill="none" fill-rule="evenodd">
        <g id="cubix-commerce-copy-2" transform="translate(-811.000000, -2501.000000)">
            <g id="Group-25" transform="translate(811.000000, 2501.000000)">
                <g id="Group-51">
                    <g id="Group-14" transform="translate(0.000000, 0.173452)" fill="#E02A28" fill-rule="nonzero">
                        <g id="Group-32" transform="translate(0.000000, 0.006957)">
                            <circle id="Oval-6" cx="35" cy="35.370367" r="35"></circle>
                        </g>
                    </g>
                    <g id="Group-9" transform="translate(23.332154, 15.481001)">
                        <path d="M14.7900122,19.500873 C15.7411497,19.5325775 18.1075446,19.4894241 19.0287389,19.6127197 C20.4880304,19.8073506 21.5580601,21.0922669 21.6267534,22.599996 C21.6487704,23.0623545 21.6355602,23.5273551 21.6355602,23.991475 C21.6355602,27.1143765 21.6390829,30.2355166 21.6337988,33.3584181 C21.6320375,34.9260336 20.7108432,36.1369726 19.214563,36.5368026 C18.9485967,36.6081379 18.6614941,36.6310357 18.384079,36.6319164 C13.6371983,36.6372005 8.89119823,36.6380811 4.14519818,36.6345584 C2.28343457,36.632797 0.893716988,35.2598124 0.88843289,33.3971681 C0.878745379,29.859465 0.877864696,26.3208812 0.88843289,22.7840587 C0.89459767,20.9346247 2.20153107,19.6109583 4.0826697,19.536981 C4.81539786,19.5079184 7.26633831,19.5316969 8.02989037,19.5316969 C8.69656731,23.8567305 9.3606022,28.1694346 10.0290405,32.5041557 L10.469382,32.5041557 L12.9458622,32.5041557 C13.5570561,28.1984971 14.1682501,23.885793 14.7900122,19.500873 Z" id="Stroke-1" stroke="#FFFFFF" stroke-width="2"></path>
                        <path d="M11.2568886,8.65746499 C13.2093625,8.65746499 15.1618365,8.66274909 17.1134297,8.65041953 C17.3556175,8.64953885 17.4436858,8.73056167 17.5106177,8.94897103 C18.4740848,12.1185487 16.8113555,15.6007688 13.7333688,16.8442931 C10.1806941,18.2806868 6.21233704,16.4294914 5.05335837,12.7817029 C4.64472151,11.4976673 4.64296015,10.1995407 5.02869925,8.90141415 C5.087705,8.70414118 5.17489261,8.65218089 5.37128489,8.65306158 C7.33344635,8.66098772 9.29472712,8.65746499 11.2568886,8.65746499 Z" id="Stroke-3" stroke="#FFFFFF" stroke-width="2"></path>
                        <path d="M11.2294113,8.60902417 C9.45131254,8.60902417 7.6732138,8.60990485 5.89511507,8.6072628 C5.70224552,8.60638212 5.50673392,8.59845597 5.3173871,8.56675139 C4.87000019,8.49189334 4.53181797,8.28052945 4.36977232,7.82257436 C4.19980052,7.34084082 3.98139117,6.87495958 3.8149421,6.39146467 C3.61766914,5.81814012 3.80349323,5.40421916 4.35832344,5.16819615 C5.66525684,4.61248525 6.97307091,4.05941641 8.28969182,3.52924531 C8.57767512,3.41475654 8.90705052,3.3548701 9.21881226,3.35046669 C10.5715412,3.33197235 11.9251508,3.3293303 13.276999,3.35134737 C13.6160619,3.35751215 13.9736191,3.42884746 14.2880229,3.55478511 C15.5702972,4.06646187 16.8411226,4.60808184 18.1137094,5.14441771 C18.7196192,5.40069643 18.908966,5.79788441 18.692318,6.42228857 C18.5056132,6.95950513 18.2854425,7.48703418 18.0617491,8.00927913 C17.9041068,8.37828525 17.5606405,8.50334222 17.1986798,8.56587071 C17.0005262,8.60109802 16.7953271,8.60638212 16.59277,8.6072628 C14.8049838,8.60990485 13.0171975,8.60902417 11.2294113,8.60902417 Z" id="Stroke-5" stroke="#FFFFFF" stroke-width="2"></path>
                        <mask id="mask-2" fill="white">
                            <use xlink:href="#path-1"></use>
                        </mask>
                        <g id="Clip-8"></g>
                        <polygon id="Fill-7" fill="#FFFFFF" mask="url(#mask-2)" points="16.2547639 26.8039358 19.6110464 26.8039358 19.6110464 24.0826257 16.2547639 24.0826257"></polygon>
                    </g>
                </g>
            </g>
        </g>
    </g>
</svg>