<?xml version="1.0" encoding="UTF-8"?>
<svg width="86px" height="87px" viewBox="0 0 86 87" version="1.1" xmlns="http://www.w3.org/2000/svg" xmlns:xlink="http://www.w3.org/1999/xlink">
    <!-- Generator: Sketch 51.3 (57544) - http://www.bohemiancoding.com/sketch -->
    <title>Group 43</title>
    <desc>Created with Sketch.</desc>
    <defs></defs>
    <g id="Page-1" stroke="none" stroke-width="1" fill="none" fill-rule="evenodd">
        <g id="cubix-commerce-copy-2" transform="translate(-1046.000000, -1428.000000)">
            <g id="Group-43" transform="translate(1046.000000, 1426.000000)">
                <g id="Group-47" fill="#E02A28" fill-rule="nonzero">
                    <g id="Group-32-Copy" transform="translate(0.000000, 0.734375)">
                        <g id="Group-31-Copy" transform="translate(0.000000, 0.824219)">
                            <circle id="Oval-6" cx="43" cy="43.859375" r="43"></circle>
                        </g>
                    </g>
                </g>
                <g id="Group" transform="translate(44.000000, 46.058594) scale(-1, 1) translate(-44.000000, -46.058594) translate(19.000000, 28.558594)" fill="#FFFFFF">
                    <path d="M40.8058761,24.9003008 C39.5866507,24.9003008 38.4277704,25.3782341 37.5539731,26.241614 C36.6795406,27.1160465 36.1916979,28.2539648 36.1916979,29.4738255 C36.1916979,30.6935591 36.6696313,31.8314774 37.5539731,32.7059099 C38.4378067,33.5694168 39.5866507,34.0473501 40.8058761,34.0473501 C43.3060696,34.0473501 45.3387472,31.9943457 45.3387472,29.4738255 C45.3387472,26.9533052 43.3060696,24.9003008 40.8058761,24.9003008 Z M40.8058761,32.0146725 C39.4034556,32.0146725 38.2243756,30.8559192 38.2243756,29.4738255 C38.2243756,28.0917317 39.4034556,26.9329784 40.8058761,26.9329784 C42.1879699,26.9329784 43.3060696,28.0714049 43.3060696,29.4738255 C43.3060696,30.876246 42.1879699,32.0146725 40.8058761,32.0146725 Z" id="Fill-1"></path>
                    <path d="M41.9849562,9.66563616 C41.8018882,9.49247743 41.5582209,9.40113398 41.3041362,9.40113398 L36.089937,9.40113398 C35.5312048,9.40113398 35.0735982,9.85861349 35.0735982,10.4174728 L35.0735982,18.7515781 C35.0735982,19.3104374 35.5312048,19.7679169 36.089937,19.7679169 L44.363062,19.7679169 C44.9224294,19.7679169 45.3794008,19.3104374 45.3794008,18.7515781 L45.3794008,13.171751 C45.3794008,12.8873031 45.2573131,12.6128917 45.044009,12.4199143 L41.9849562,9.66563616 Z M43.3467232,17.7352393 L37.1062758,17.7352393 L37.1062758,11.4239023 L40.9076371,11.4239023 L43.3467232,13.618813 L43.3467232,17.7352393 Z" id="Fill-2"></path>
                    <path d="M15.9870095,24.9003008 C14.7671488,24.9003008 13.6089037,25.3782341 12.7344712,26.241614 C11.8605469,27.1160465 11.3728313,28.2539648 11.3728313,29.4738255 C11.3728313,30.6935591 11.8506376,31.8314774 12.7344712,32.7059099 C13.618813,33.5694168 14.7671488,34.0473501 15.9870095,34.0473501 C18.4872029,34.0473501 20.5198806,31.9943457 20.5198806,29.4738255 C20.5198806,26.9533052 18.4872029,24.9003008 15.9870095,24.9003008 Z M15.9870095,32.0146725 C14.584589,32.0146725 13.4055089,30.8559192 13.4055089,29.4738255 C13.4055089,28.0917317 14.584589,26.9329784 15.9870095,26.9329784 C17.3691032,26.9329784 18.4872029,28.0714049 18.4872029,29.4738255 C18.4872029,30.876246 17.3691032,32.0146725 15.9870095,32.0146725 Z" id="Fill-3"></path>
                    <g id="Group-7" transform="translate(0.000000, 19.564522)">
                        <path d="M9.20802961,6.58587548 L7.16493452,6.58587548 L7.16493452,3.88216017 C7.16493452,3.32342791 6.70796318,2.86582136 6.14859571,2.86582136 C5.58986345,2.86582136 5.1322569,3.32342791 5.1322569,3.88216017 L5.1322569,7.60221429 C5.1322569,8.16094655 5.58986345,8.6185531 6.14859571,8.6185531 L9.20802961,8.6185531 C9.76688891,8.6185531 10.2243684,8.16094655 10.2243684,7.60221429 C10.2243684,7.04335499 9.76688891,6.58587548 9.20802961,6.58587548 Z" id="Fill-4"></path>
                        <path d="M14.3607403,1.04657489 C14.3607403,0.487842628 13.9036419,0.0302360796 13.3444015,0.0302360796 L1.01633881,0.0302360796 C0.457606549,0.0302360796 0,0.487842628 0,1.04657489 C0,1.60581532 0.457606549,2.0629137 1.01633881,2.0629137 L13.3444015,2.0629137 C13.9036419,2.0629137 14.3607403,1.61585166 14.3607403,1.04657489 Z" id="Fill-6"></path>
                    </g>
                    <path d="M3.07925251,16.9422409 L15.4078234,17.0137657 C15.9666827,17.0137657 16.4241622,16.5660685 16.4340715,16.0073362 C16.444489,15.4380595 15.9870095,14.9810881 15.4281502,14.9810881 L3.09957928,14.9095633 L3.08966998,14.9095633 C2.53093772,14.9095633 2.07333117,15.3567524 2.07333117,15.9159928 C2.0629137,16.4852696 2.52052025,16.9422409 3.07925251,16.9422409 Z" id="Fill-8"></path>
                    <path d="M5.15271072,12.3280627 L17.4812816,12.3280627 C18.0400139,12.3280627 18.4976204,11.8709643 18.4976204,11.3117239 C18.4976204,10.7528646 18.0400139,10.2953851 17.4812816,10.2953851 L5.15271072,10.2953851 C4.59385142,10.2953851 4.13637191,10.7528646 4.13637191,11.3117239 C4.13637191,11.8709643 4.59385142,12.3280627 5.15271072,12.3280627 Z" id="Fill-9"></path>
                    <path d="M49.5408387,10.9913097 L42.345688,5.03267828 C42.1645562,4.88194451 41.9437313,4.80155317 41.7024316,4.80155317 L33.2412429,4.80155317 L33.2412429,1.18381715 C33.2412429,0.631377892 32.7889159,0.178925368 32.2363511,0.178925368 L6.64150623,0.178925368 C6.08906697,0.178925368 5.63661445,0.631377892 5.63661445,1.18381715 L5.63661445,8.53949936 C5.63661445,9.09244107 6.08906697,9.54439114 6.64150623,9.54439114 C7.19457354,9.54439114 7.64639801,9.09244107 7.64639801,8.53949936 L7.64639801,2.18870893 L31.241257,2.18870893 L31.241257,26.014693 L23.0015212,26.014693 C22.4484539,26.014693 21.9966295,26.4670199 21.9966295,27.0195848 C21.9966295,27.5720241 22.4484539,28.0244766 23.0015212,28.0244766 L35.2711243,28.0244766 C35.8236891,28.0244766 36.276016,27.5720241 36.276016,27.0195848 C36.276016,26.4670199 35.8236891,26.014693 35.2711243,26.014693 L33.2510406,26.014693 L33.2510406,6.81133673 L41.3505939,6.81133673 L47.9024883,12.2376267 L47.8322715,25.9945952 L46.787184,25.9945952 C46.2347448,25.9945952 45.7822923,26.4469221 45.7822923,26.999487 C45.7822923,27.5524287 46.2347448,28.0043787 46.787184,28.0043787 L48.8268631,28.0043787 C49.3799304,28.0043787 49.8317549,27.5622264 49.8317549,27.0097871 L49.9122719,11.7753765 C49.9024742,11.4741602 49.7719639,11.1827416 49.5408387,10.9913097 Z" id="Fill-10"></path>
                </g>
            </g>
        </g>
    </g>
</svg>