<?xml version="1.0" encoding="UTF-8"?>
<svg width="71px" height="71px" viewBox="0 0 71 71" version="1.1" xmlns="http://www.w3.org/2000/svg" xmlns:xlink="http://www.w3.org/1999/xlink">
    <!-- Generator: Sketch 51.3 (57544) - http://www.bohemiancoding.com/sketch -->
    <title>Group 50</title>
    <desc>Created with Sketch.</desc>
    <defs></defs>
    <g id="Page-1" stroke="none" stroke-width="1" fill="none" fill-rule="evenodd">
        <g id="cubix-commerce-copy-2" transform="translate(-172.000000, -1923.000000)">
            <g id="Group-35" transform="translate(172.638456, 1922.499159)">
                <g id="Group-50">
                    <g id="Group-14" transform="translate(0.000000, 0.759238)" fill="#E02A28" fill-rule="nonzero">
                        <circle id="Oval-6" cx="35" cy="35.3773237" r="35"></circle>
                    </g>
                    <g id="Group-6" transform="translate(22.534445, 18.532525)" stroke="#FFFFFF" stroke-linecap="round" stroke-linejoin="round" stroke-width="1.8">
                        <path d="M13.217166,25.7294447 C13.6281372,25.1745161 14.0154451,24.6813582 14.3707666,24.1661793 C15.4667022,22.5771978 16.3732199,20.8802762 17.1905714,19.1346472 C17.2522302,19.0029693 17.3204579,18.9565013 17.4680358,18.9576956 C18.6435081,18.9672132 19.8248775,18.893051 20.993333,18.9852778 C23.0997328,19.1515175 24.8330823,20.0449347 25.9620492,21.9035052 C26.4230715,22.6624451 26.6177892,23.5101781 26.6192075,24.3963172 C26.6233131,27.0150966 26.6207004,29.6339133 26.6203272,32.2526927 C26.6202525,32.936724 26.3786563,33.2850287 25.7079496,33.4446621 C25.1417865,33.5794379 24.5636425,33.677226 23.9853493,33.7450058 C22.603365,33.9069533 21.2196265,34.057853 19.8337605,34.1816184 C18.8624115,34.2683586 17.8870688,34.3337124 16.9123607,34.3543524 C15.0233714,34.3942888 13.1325905,34.4408687 11.2443477,34.4005218 C9.45012327,34.3621904 7.65574953,34.24742 5.86600393,34.1078294 C4.45550434,33.9977992 3.0510512,33.8065899 1.6460382,33.6339679 C1.31572354,33.593397 0.991604609,33.4915033 0.6690906,33.4017025 C0.238561832,33.2818188 0.061460921,32.9593048 0.0265259468,32.5399732 C0.0146570132,32.3976579 0.0126415339,32.254223 0.0126042102,32.1113106 C0.0118204127,29.8035868 0.0377230539,27.4954151 0.000809924081,25.1882512 C-0.0165455919,24.1043339 0.248265991,23.1126808 0.709736099,22.1573809 C1.13343463,21.2802369 1.69011747,20.5013288 2.46831642,19.8968343 C3.27827782,19.2675942 4.19994903,18.9660188 5.22060267,18.9631449 C6.55798515,18.9593752 7.89536762,18.9644512 9.23275009,18.958778 C9.3736097,18.9581808 9.43388746,19.0018869 9.48576739,19.1333409 C10.2098843,20.9693306 11.0665376,22.7384362 12.1907272,24.3669807 C12.5002526,24.8153876 12.8459446,25.2388248 13.217166,25.7294447" id="Fill-1"></path>
                        <path d="M5.61962651,8.29746071 C5.61902933,4.12344045 9.00581832,0.735270481 13.1488599,0.705486176 C17.2648792,0.675925813 20.7683793,3.9686591 20.813653,8.22538867 C20.8593372,12.5222785 17.3536349,16.0120062 13.0160249,15.9064922 C8.86984812,15.8056436 5.5843183,12.3795901 5.61962651,8.29746071" id="Fill-3"></path>
                    </g>
                </g>
            </g>
        </g>
    </g>
</svg>