<?xml version="1.0" encoding="UTF-8"?>
<svg width="86px" height="87px" viewBox="0 0 86 87" version="1.1" xmlns="http://www.w3.org/2000/svg" xmlns:xlink="http://www.w3.org/1999/xlink">
    <!-- Generator: Sketch 51.3 (57544) - http://www.bohemiancoding.com/sketch -->
    <title>Group 42</title>
    <desc>Created with Sketch.</desc>
    <defs></defs>
    <g id="Page-1" stroke="none" stroke-width="1" fill="none" fill-rule="evenodd">
        <g id="cubix-commerce-copy-2" transform="translate(-657.000000, -1428.000000)">
            <g id="Group-42" transform="translate(657.000000, 1426.000000)">
                <g id="Group-13" fill="#E02A28" fill-rule="nonzero">
                    <g id="Group-32" transform="translate(0.000000, 0.734375)">
                        <g id="Group-31-Copy" transform="translate(0.000000, 0.824219)">
                            <circle id="Oval-6" cx="43" cy="43.859375" r="43"></circle>
                        </g>
                    </g>
                </g>
                <g id="Group-9" transform="translate(26.169499, 25.072373)" stroke="#FFFFFF" stroke-width="2">
                    <path d="M17.5818903,32.7509775 C17.7421886,32.5231025 17.863198,32.3659474 17.9700635,32.1993629 C19.4646091,29.886039 20.9968719,27.5962884 22.4411278,25.253105 C24.1604052,22.4636009 25.7335283,19.5892331 26.9640532,16.5419946 C27.5188109,15.1653155 28.0515668,13.7682061 28.1285729,12.272089 C28.2794418,9.31442898 27.3868005,6.67107925 25.4349335,4.45204843 C22.9455958,1.62011251 19.7867772,0.331440225 16.033912,0.928629821 C12.0343133,1.56667976 9.33124458,3.94600883 7.80369646,7.64858432 C6.85133621,9.96033667 6.70675347,12.3490951 7.56639217,14.7315672 C8.05200161,16.0752438 8.56118431,17.4189204 9.16937477,18.7091642 C11.1966763,23.0010716 13.7158735,27.0085281 16.3497939,30.9484078 C16.7411102,31.5361681 17.1465705,32.1160707 17.5818903,32.7509775 Z" id="Stroke-1"></path>
                    <path d="M24.1319601,27.0526887 C25.972247,27.4000016 27.7748166,27.871467 29.4705208,28.6886739 C30.3867353,29.1271367 31.2400878,29.6583212 31.9409998,30.4079513 C33.2878195,31.8537787 33.2988204,33.615488 31.9551438,35.062887 C30.9540654,36.1409714 29.6669647,36.7727351 28.3217166,37.2866325 C26.0005349,38.171416 23.5803455,38.6193082 21.1192957,38.872328 C20.2785156,38.9603349 19.436164,39.023197 18.5938124,39.0970599 L15.1505429,39.0970599 C14.5564964,39.0467702 13.9608783,39.0011952 13.3668319,38.9461909 C10.2803046,38.6601685 7.2424954,38.1494143 4.39170085,36.8481696 C3.41105268,36.4002774 2.49640966,35.8455197 1.76249508,35.0377422 C0.458107282,33.6076303 0.459678833,31.8647796 1.77349594,30.4393823 C2.65670792,29.4838789 3.76936643,28.8788316 4.95117321,28.3853644 C6.88261009,27.5775869 8.91148316,27.1422671 10.9733588,26.8310999" id="Stroke-3"></path>
                    <path d="M21.8161217,11.0755097 C21.7406872,13.4485525 20.2194253,15.1756877 18.0223962,15.4821403 C16.1522498,15.7430178 14.2396716,14.4889197 13.5670475,12.5653406 C12.8032735,10.3745977 13.8624992,7.88368843 15.9400904,6.99733335 C18.5504375,5.88310329 21.4923821,7.64952725 21.7768329,10.5018933 C21.7972631,10.7250537 21.8082639,10.948214 21.8161217,11.0755097 Z" id="Stroke-7"></path>
                </g>
            </g>
        </g>
    </g>
</svg>