<?xml version="1.0" encoding="UTF-8"?>
<svg width="86px" height="87px" viewBox="0 0 86 87" version="1.1" xmlns="http://www.w3.org/2000/svg" xmlns:xlink="http://www.w3.org/1999/xlink">
    <!-- Generator: Sketch 51.3 (57544) - http://www.bohemiancoding.com/sketch -->
    <title>Group 31</title>
    <desc>Created with Sketch.</desc>
    <defs></defs>
    <g id="Page-1" stroke="none" stroke-width="1" fill="none" fill-rule="evenodd">
        <g id="cubix-commerce-copy-2" transform="translate(-266.000000, -1023.000000)">
            <g id="Group-31" transform="translate(266.000000, 1022.824219)">
                <circle id="Oval-6" fill="#E02A28" fill-rule="nonzero" cx="43" cy="43.859375" r="43"></circle>
                <path d="M66.181547,44.6496874 L61.0456959,38.6589256 L66.181547,32.6672514 C66.3238801,32.5039333 66.3840979,32.279485 66.3457775,32.0650731 C66.3065446,31.8479239 66.1742479,31.6627085 65.9817333,31.5559587 L49.3552251,22.3216455 C49.0742086,22.1647142 48.7211131,22.2112461 48.4893657,22.439344 L43.4392794,27.4465479 L38.4357251,22.4420811 C38.2039777,22.2075966 37.8399335,22.1610646 37.5552674,22.3280322 L20.0054191,32.4856855 C19.8028683,32.603384 19.6669219,32.8141464 19.6459369,33.048631 C19.6240395,33.2876775 19.7171035,33.5157754 19.8986694,33.6727067 L25.8438116,38.7693249 L20.7116101,45.6086107 C20.5866125,45.7764907 20.5364309,45.9936399 20.5829629,46.2007527 C20.6258453,46.4069532 20.758142,46.5812199 20.9433575,46.6852326 L26.0536616,49.5255069 C26.0326766,49.5930239 26.0107792,49.6641904 26.0107792,49.7426561 L26.0107792,56.4934399 C26.0107792,57.3839339 26.4888723,58.2178596 27.2625802,58.6676686 L42.1172243,67.2423228 C42.5159393,67.4704207 42.9648359,67.5881191 43.4146448,67.5881191 C43.4182944,67.5881191 43.4210316,67.5844696 43.4246812,67.5844696 C43.4283307,67.5844696 43.4319803,67.5881191 43.4356298,67.5881191 C43.4465785,67.5881191 43.4502281,67.5844696 43.4602644,67.5844696 C43.8918255,67.5771704 44.3233867,67.4631215 44.7084158,67.2423228 L59.516528,58.6923032 C60.31852,58.2288083 60.8139485,57.3665985 60.8139485,56.4432584 L60.8139485,48.9196791 L66.0063679,45.7472942 C66.1888461,45.6332453 66.3129314,45.4480299 66.3485146,45.2381798 C66.3813607,45.0274174 66.3202305,44.8102683 66.181547,44.6496874 Z M42.7084539,46.6423502 L28.2853709,38.6306414 L42.7084539,29.8160283 L42.7084539,46.6423502 Z M44.1664553,29.7877442 L58.6360703,38.6306414 L44.1664553,46.6669847 L44.1664553,29.7877442 Z M49.1271273,23.8644993 L64.4917982,32.3971835 L59.9371404,37.7109509 L44.6080528,28.344341 L49.1271273,23.8644993 Z M37.8007007,23.8717984 L42.2878415,28.3589393 L26.9094847,37.7611325 L21.627651,33.2347588 L37.8007007,23.8717984 Z M27.0372195,39.6069002 L42.3453221,48.1067383 L37.7158483,54.3338095 L22.3831111,45.8157236 L27.0372195,39.6069002 Z M27.9924933,57.4021817 C27.6722439,57.2133167 27.4687807,56.8675204 27.4687807,56.4934399 L27.4687807,50.3129007 L37.5662161,55.9195457 C37.6766154,55.9834131 37.7970511,56.0116973 37.9183992,56.0116973 C38.1428474,56.0116973 38.3645585,55.9085971 38.5068916,55.719732 L42.7084539,50.0674674 L42.7084539,65.8947207 L27.9924933,57.4021817 Z M59.3559471,56.4432584 C59.3559471,56.845623 59.1387979,57.2242654 58.7857025,57.4268163 L44.1664553,65.8700862 L44.1664553,50.0528692 L48.4181992,55.719732 C48.5605322,55.9122466 48.7822433,56.0116973 49.0030421,56.0116973 C49.1344264,56.0116973 49.2667232,55.976114 49.3844217,55.9049475 L59.3559471,49.8110854 L59.3559471,56.4432584 Z M49.1882575,54.3155617 L44.5478349,48.1249862 L59.919805,39.5859152 L64.5136956,44.9489518 L49.1882575,54.3155617 Z" id="Packaging-Management-" stroke="#FFFFFF" stroke-width="0.4" fill="#FFFFFF"></path>
            </g>
        </g>
    </g>
</svg>