<?xml version="1.0" encoding="utf-8"?>
<!-- Generator: Adobe Illustrator 24.0.3, SVG Export Plug-In . SVG Version: 6.00 Build 0)  -->
<svg version="1.1" id="Layer_1" xmlns="http://www.w3.org/2000/svg" xmlns:xlink="http://www.w3.org/1999/xlink" x="0px" y="0px"
	 viewBox="0 0 97 30" style="enable-background:new 0 0 97 30;" xml:space="preserve">
<style type="text/css">
	.st0{fill:#0643D6;}
</style>
<path class="st0" d="M9,9.2c4.5,0,7.6,2.4,8.6,6.4h-5c-0.5-1.5-1.8-2.5-3.7-2.5c-2.6,0-4.3,2-4.3,5.5S6.3,24,8.9,24
	c1.9,0,3.1-0.9,3.7-2.5h5c-1,3.9-4,6.4-8.6,6.4c-5.3-0.1-9-3.7-9-9.4S3.7,9.2,9,9.2z"/>
<path class="st0" d="M38,27.6h-4.6v-2.3c-1.1,1.5-3.1,2.5-5.4,2.5c-4.2,0-7.3-2.7-7.3-7.7V9.5h4.6v10c0,2.9,1.6,4.5,4,4.5
	c2.5,0,4.1-1.6,4.1-4.5v-10H38V27.6z"/>
<path class="st0" d="M53,9.2c4.6,0,8.3,3.7,8.3,9.3s-3.7,9.4-8.3,9.4c-2.8,0-4.9-1.3-6-2.9v2.6h-4.6V3.3h4.6v8.8
	C48.2,10.5,50.3,9.2,53,9.2z M51.8,13.2c-2.5,0-4.8,1.9-4.8,5.4s2.3,5.4,4.8,5.4c2.5,0,4.9-2,4.9-5.4C56.7,15,54.3,13.2,51.8,13.2z"
	/>
<rect x="64.7" y="9.5" class="st0" width="4.6" height="18.1"/>
<polygon class="st0" points="80.1,22 76.8,27.6 71.9,27.6 77.9,18.5 71.9,9.4 77.1,9.4 80.8,15 84.1,9.4 89,9.4 83,18.5 89,27.6 
	83.7,27.6 "/>
<circle class="st0" cx="66.9" cy="4.7" r="3.1"/>
<circle class="st0" cx="93.6" cy="24.3" r="3.1"/>
</svg>
