<?xml version="1.0" encoding="utf-8"?>
<!-- Generator: Adobe Illustrator 22.0.1, SVG Export Plug-In . SVG Version: 6.00 Build 0)  -->
<svg version="1.1" id="Layer_1" xmlns="http://www.w3.org/2000/svg" xmlns:xlink="http://www.w3.org/1999/xlink" x="0px" y="0px"
	 viewBox="0 0 35 35" style="enable-background:new 0 0 35 35;" xml:space="preserve">
<style type="text/css">
	.st0{fill:url(#SVGID_1_);}
	.st1{fill:url(#SVGID_2_);}
</style>
<title>Header Icons</title>
<g>
	<linearGradient id="SVGID_1_" gradientUnits="userSpaceOnUse" x1="17.505" y1="28.125" x2="17.505" y2="5.7626">
		<stop  offset="0" style="stop-color:#978FE5"/>
		<stop  offset="1" style="stop-color:#7062BF"/>
	</linearGradient>
	<path class="st0" d="M14.8,20.9L14.5,23c-0.1,0.3,0.1,0.6,0.3,0.8c0.2,0.2,0.5,0.2,0.8,0.1l1.9-1l1.9,1c0.3,0.1,0.6,0.1,0.8-0.1
		c0.2-0.2,0.4-0.5,0.3-0.8l-0.4-2.1l1.5-1.5c0.2-0.2,0.3-0.5,0.2-0.8c-0.1-0.3-0.3-0.5-0.6-0.5l-2.1-0.3l-1-1.9
		c-0.2-0.4-0.7-0.5-1.1-0.3c-0.1,0.1-0.2,0.2-0.3,0.3l-0.9,1.9L13.7,18c-0.3,0-0.5,0.3-0.6,0.5c-0.1,0.3,0,0.6,0.2,0.8L14.8,20.9z"
		/>
	<linearGradient id="SVGID_2_" gradientUnits="userSpaceOnUse" x1="17.53" y1="28.125" x2="17.53" y2="5.7626">
		<stop  offset="0" style="stop-color:#978FE5"/>
		<stop  offset="1" style="stop-color:#7062BF"/>
	</linearGradient>
	<path class="st1" d="M26.6,8.4h-2.4V7c0-0.6-0.5-1.1-1.1-1.1l0,0h-0.2c-0.6,0-1.1,0.5-1.1,1.1v1.4h-8.6V7c0-0.6-0.5-1.1-1.1-1.1
		h-0.2c-0.6,0-1.1,0.5-1.1,1.1v1.4H8.4c-1.3,0-2.3,1-2.3,2.3v16.2c0,1.3,1,2.3,2.3,2.3h18.3c1.3,0,2.3-1,2.4-2.3c0,0,0,0,0,0V10.7
		C29,9.4,28,8.4,26.6,8.4L26.6,8.4z M26.3,26.5H8.7V13.9h17.7V26.5z"/>
</g>
</svg>
