<?xml version="1.0" encoding="utf-8"?>
<!-- Generator: Adobe Illustrator 22.0.1, SVG Export Plug-In . SVG Version: 6.00 Build 0)  -->
<svg version="1.1" id="Layer_1" xmlns="http://www.w3.org/2000/svg" xmlns:xlink="http://www.w3.org/1999/xlink" x="0px" y="0px"
	 viewBox="0 0 68 68" style="enable-background:new 0 0 68 68;" xml:space="preserve">
<style type="text/css">
	.st0{fill:#745EC5;}
</style>
<title>icons</title>
<g>
	<path class="st0" d="M60.3,55.5L60.3,55.5l-0.9-2c-0.1-0.3-0.2-0.7-0.3-1c-0.2-0.8-0.4-1.6-0.6-2.3c-0.2-3.4-0.9-6.9-2.1-10.3
		l-0.2-0.5c-0.5-1.7-1-3.5-2.8-4.7c-2.9-1.9-6.8-1.9-10.2-1.8c-0.4,0-0.8,0-1.2,0c-0.3,0-1.3,0.1-3.5,0.4c-1.3,0.2-2.9,0.4-3.7,0.4
		l-1-1.7c-0.5-0.9-1-1.7-1.6-2.5c-0.5-0.8-1-1.7-1.6-2.5l-3.4-5.4c-1-1.6-2.9-2.1-4.5-1.3c-1.6,0.8-2.2,2.9-1.4,4.4
		C24,31,26.8,37.6,29.4,44c0.3,0.8,0.4,1.4,0.4,2c0,1.4-0.3,1.7-0.3,1.7s-0.1,0-0.5-0.2c-0.8-0.3-1.9-1-3-1.6
		c-1.6-0.9-2.6-1.5-3.1-1.6c-1.7-0.6-3.3-0.6-4.8-0.1H18c-0.9,0.5-1.7,1.1-2.1,2c-0.4,0.8-0.5,1.5-0.3,2c0.2,0.6,0.7,1.1,1.5,1.5
		c2.5,1.1,5,2.7,7.4,4.7c0.4,0.3,0.9,0.7,1.4,1c0.6,0.5,1.3,0.9,1.8,1.3c1.3,1.1,2.8,1.9,4.4,2.4c3.7,1.3,7.2,3.3,10.4,6.1
		c1,0.9,2.3,1.4,3.6,1.4c1,0,1.9-0.3,2.8-0.8l10.3-6.7C60.4,58.4,60.8,56.8,60.3,55.5z"/>
	<path class="st0" d="M18.6,33.7c0.3,0.1,0.6,0.2,1,0.2c1.1,0,2-0.7,2.4-1.7c0.5-1.3-0.1-2.9-1.5-3.4c-3.8-1.5-5.9-5.6-4.9-9.3
		c0.6-2.1,2-4,3.9-5.1c1.8-1,3.9-1.3,5.8-0.8c4.2,1.1,6.8,5.5,5.8,9.8c-0.3,1.4,0.5,2.8,2,3.2c1.4,0.3,2.8-0.5,3.2-2
		c0.9-3.8,0-7.7-2.1-10.7l3.4-3.4c0.9-0.9,0.9-2.4,0-3.3s-2.4-0.9-3.3,0l-3.4,3.4c-1.3-0.9-2.7-1.6-4.2-2c-0.3-0.1-0.6-0.1-1-0.2
		V3.6c0-1.3-1-2.3-2.3-2.3s-2.3,1-2.3,2.3v4.6c-1.5,0.3-2.9,0.8-4.2,1.6c-0.3,0.2-0.7,0.4-1,0.7l-3.4-3.4c-0.9-0.9-2.3-0.9-3.2,0
		c-0.9,0.9-0.9,2.4,0,3.3l3.4,3.4c-0.9,1.3-1.7,2.8-2.1,4.4c-0.1,0.3-0.1,0.5-0.2,0.8H5.7c-1.3,0-2.3,1-2.3,2.3s1,2.3,2.3,2.3h4.6
		c0.3,1.9,1.1,3.7,2.2,5.3l-3.2,3.2c-0.4,0.4-0.7,1-0.7,1.6s0.2,1.2,0.7,1.6c0.4,0.4,1,0.7,1.6,0.7s1.2-0.2,1.6-0.7l3.2-3.2
		C16.5,32.7,17.5,33.3,18.6,33.7z"/>
</g>
</svg>
