<?xml version="1.0" encoding="utf-8"?>
<!-- Generator: Adobe Illustrator 22.0.1, SVG Export Plug-In . SVG Version: 6.00 Build 0)  -->
<svg version="1.1" id="Layer_1" xmlns="http://www.w3.org/2000/svg" xmlns:xlink="http://www.w3.org/1999/xlink" x="0px" y="0px"
	 viewBox="0 0 68 68" style="enable-background:new 0 0 68 68;" xml:space="preserve">
<style type="text/css">
	.st0{fill:none;}
	.st1{fill:#745EC5;}
</style>
<g>
	<path class="st0" d="M51.7,32.1h-6.5c-1.7,0-3,1.3-3,3c0,1.6,1.2,2.8,2.7,3L37,47l-8.7-8.2c-0.6-0.6-1.4-0.8-2.2-0.8
		c-0.8,0-1.6,0.4-2.1,1L14,50.3c-1.1,1.2-1,3.1,0.3,4.2c0.6,0.5,1.3,0.8,2,0.8c0.8,0,1.7-0.3,2.2-1l7.9-8.9l8.7,8.2
		c0.6,0.6,1.4,0.8,2.2,0.8c0.8,0,1.6-0.4,2.1-1l9.5-10.8c0.4,1.1,1.5,1.9,2.8,1.9c0,0,0,0,0,0c1.7,0,3-1.3,3-3l0-6.3
		C54.7,33.4,53.4,32.1,51.7,32.1z"/>
	<polygon class="st0" points="7.6,12.5 7.6,9.5 7.6,12.5 	"/>
	<path class="st0" d="M48.2,12.5v0.4c0,1.7-1.3,3-3,3s-3-1.3-3-3v-0.4l-16.4,0v0.4c0,1.7-1.3,3-3,3s-3-1.3-3-3v-0.4l-12.2,0v9.3
		h52.8l0-9.3L48.2,12.5z"/>
	<path class="st1" d="M60.4,6.5H48.2V4.3c0-1.7-1.3-3-3-3s-3,1.3-3,3v2.2H25.8V4.3c0-1.7-1.3-3-3-3s-3,1.3-3,3v2.2H7.6
		c-3.3,0-6,2.7-6,6v45.6c0,3.3,2.7,6,6,6h52.8c3.3,0,6-2.7,6-6V12.5C66.4,9.2,63.7,6.5,60.4,6.5z M51.7,44.4
		C51.7,44.4,51.7,44.4,51.7,44.4c-1.3,0-2.4-0.8-2.8-1.9l-9.5,10.8c-0.5,0.6-1.3,1-2.1,1c-0.8,0-1.6-0.3-2.2-0.8l-8.7-8.2l-7.9,8.9
		c-0.6,0.7-1.4,1-2.2,1c-0.7,0-1.4-0.2-2-0.8c-1.2-1.1-1.4-3-0.3-4.2L24,39c0.5-0.6,1.3-1,2.1-1c0.8,0,1.6,0.3,2.2,0.8L37,47
		l7.9-8.9c-1.5-0.2-2.7-1.4-2.7-3c0-1.7,1.3-3,3-3h6.5c1.7,0,3,1.3,3,3l0,6.3C54.7,43.1,53.4,44.4,51.7,44.4z M7.6,21.8v-9.3l12.2,0
		v0.4c0,1.7,1.3,3,3,3s3-1.3,3-3v-0.4l16.4,0v0.4c0,1.7,1.3,3,3,3s3-1.3,3-3v-0.4l12.2,0l0,9.3H7.6z"/>
</g>
</svg>
