<?xml version="1.0" encoding="utf-8"?>
<!-- Generator: Adobe Illustrator 22.0.1, SVG Export Plug-In . SVG Version: 6.00 Build 0)  -->
<svg version="1.1" id="Layer_1" xmlns="http://www.w3.org/2000/svg" xmlns:xlink="http://www.w3.org/1999/xlink" x="0px" y="0px"
	 viewBox="0 0 68 68" style="enable-background:new 0 0 68 68;" xml:space="preserve">
<style type="text/css">
	.st0{fill:none;}
	.st1{fill:#745EC5;}
</style>
<path class="st0" d="M8.3,27.7v29.8h51.4V27.7H8.3z M45.4,38.5L32.9,51.1c-0.6,0.6-1.4,0.9-2.1,0.9c-0.8,0-1.5-0.3-2.1-0.9L22.6,45
	c-1.2-1.2-1.2-3.1,0-4.2c1.2-1.2,3.1-1.2,4.2,0l4,4l10.4-10.4c1.2-1.2,3.1-1.2,4.2,0C46.6,35.5,46.6,37.4,45.4,38.5z"/>
<path class="st1" d="M59.8,7.1H47.9V4.9c0-1.7-1.3-3-3-3s-3,1.3-3,3v2.1H26.1V4.9c0-1.7-1.3-3-3-3s-3,1.3-3,3v2.1H8.2
	c-3.3,0-5.9,2.6-5.9,5.9v44.6c0,3.3,2.6,5.9,5.9,5.9h51.6c3.3,0,5.9-2.6,5.9-5.9V13C65.7,9.7,63.1,7.1,59.8,7.1z M8.3,57.4V27.7
	h51.4v29.8H8.3z"/>
<path class="st1" d="M41.2,34.3L30.8,44.7l-4-4c-1.2-1.2-3.1-1.2-4.2,0c-1.2,1.2-1.2,3.1,0,4.2l6.1,6.1c0.6,0.6,1.4,0.9,2.1,0.9
	c0.8,0,1.5-0.3,2.1-0.9l12.6-12.6c1.2-1.2,1.2-3.1,0-4.2C44.3,33.1,42.4,33.1,41.2,34.3z"/>
</svg>
