<?xml version="1.0" encoding="utf-8"?>
<!-- Generator: Adobe Illustrator 22.0.1, SVG Export Plug-In . SVG Version: 6.00 Build 0)  -->
<svg version="1.1" id="Layer_1" xmlns="http://www.w3.org/2000/svg" xmlns:xlink="http://www.w3.org/1999/xlink" x="0px" y="0px"
	 viewBox="0 0 68 68" style="enable-background:new 0 0 68 68;" xml:space="preserve">
<style type="text/css">
	.st0{fill:#745EC5;}
</style>
<g>
	<path class="st0" d="M26.8,38.8c-0.2-0.3-0.4-0.6-0.5-0.9H13c-1.4,0-2.5-1.1-2.5-2.5s1.1-2.5,2.5-2.5h23.5c0.3,0,0.6,0.1,0.9,0.2
		l2.2-0.5l1.4-2.4H13c-1.4,0-2.5-1.1-2.5-2.5c0-1.4,1.1-2.5,2.5-2.5h29.8c0.3,0,0.7,0.1,1,0.2l1.8-3.1c0.4-0.7,1.2-1.1,2-1.1
		c0.8,0,1.6,0.4,2,1.1l5.1,8.9V10.7C54.6,8.7,53,7,51,7h-46c-2,0-3.7,1.7-3.7,3.7V59c0,0.3,0.2,0.6,0.5,0.7c0.1,0,0.2,0.1,0.3,0.1
		c0.2,0,0.4-0.1,0.5-0.2l10.2-10.1h21.9l0.2-1.8L26.8,38.8z M13,17.4h15.5c1.4,0,2.5,1.1,2.5,2.5s-1.1,2.5-2.5,2.5H13
		c-1.4,0-2.5-1.1-2.5-2.5S11.7,17.4,13,17.4z"/>
	<path class="st0" d="M37.9,46.6l0,0.3c0,0,0,0,0,0l-0.2,1.7l-1,9.8l10.9-4.9l10.9,4.9l-1.3-11.9l8-8.9L54,35.4
		c-0.2,0-0.3,0-0.4-0.1l0,0l0,0c-0.1-0.1-0.2-0.2-0.3-0.3l-5.7-10l-5.8,10c0,0,0,0,0,0l-0.1,0.2l-0.2,0.1c0,0-0.1,0-0.1,0L39,35.8
		c0,0,0,0,0,0l-9.1,1.9L37.9,46.6z"/>
</g>
</svg>
