<?xml version="1.0" encoding="utf-8"?>
<!-- Generator: Adobe Illustrator 22.0.1, SVG Export Plug-In . SVG Version: 6.00 Build 0)  -->
<svg version="1.1" id="Layer_1" xmlns="http://www.w3.org/2000/svg" xmlns:xlink="http://www.w3.org/1999/xlink" x="0px" y="0px"
	 viewBox="0 0 68 68" style="enable-background:new 0 0 68 68;" xml:space="preserve">
<style type="text/css">
	.st0{fill:#745EC5;}
	.st1{fill:none;}
</style>
<title>icons</title>
<g>
	<path class="st0" d="M65.9,22.1c-1.3-1-3.1-0.7-4.1,0.6l-1.1,1.4C58,16.8,52.4,10.9,44.8,7.8c-9.6-4-20.2-2.7-28.3,3.5
		c-4.4,3.4-7.9,8.2-9.7,13.4c-0.5,1.5,0.3,3.2,1.8,3.7c1.5,0.5,3.2-0.3,3.7-1.8c1.4-4.2,4.2-8,7.7-10.7c6.4-4.9,14.8-5.9,22.5-2.7
		c5.3,2.2,9.4,6,11.8,10.8c-1.3-0.9-3.1-0.5-4,0.9c-0.9,1.3-0.5,3.2,0.9,4l6.6,4.3c0.5,0.3,1,0.5,1.6,0.5c0,0,0,0,0,0c0,0,0,0,0,0
		c0.1,0,0.3,0,0.4,0c0.1,0,0.1,0,0.2,0c0,0,0.1,0,0.1,0c0.8-0.2,1.4-0.7,1.8-1.3l4.5-6C67.4,24.9,67.2,23.1,65.9,22.1z"/>
	<path class="st0" d="M59.1,40.1c-1.5-0.5-3.2,0.2-3.7,1.7c-1.5,4.2-4.3,7.9-7.9,10.6C41,57.1,32.6,58,25.1,54.8
		c-5.3-2.3-9.4-6.2-11.7-11.1l0.3,0.2c1.4,0.8,3.2,0.4,4-1c0.8-1.4,0.4-3.2-1-4l-6.7-4.1c0,0-0.1,0-0.1,0c-0.1-0.1-0.2-0.1-0.3-0.2
		c-0.1,0-0.1-0.1-0.2-0.1c-0.1,0-0.2-0.1-0.3-0.1c-0.1,0-0.2,0-0.2,0c-0.1,0-0.2,0-0.3,0c-0.1,0-0.2,0-0.3,0c-0.1,0-0.1,0-0.2,0
		c0,0-0.1,0-0.1,0c-0.1,0-0.2,0-0.3,0.1c-0.1,0-0.2,0-0.2,0.1c-0.1,0-0.2,0.1-0.3,0.1c-0.1,0-0.2,0.1-0.2,0.1
		c-0.1,0-0.2,0.1-0.2,0.2c-0.1,0.1-0.1,0.1-0.2,0.2c-0.1,0.1-0.1,0.1-0.2,0.2c-0.1,0.1-0.1,0.1-0.2,0.2c0,0,0,0,0,0L1.5,42
		c-0.9,1.3-0.6,3.1,0.7,4.1c0.5,0.4,1.1,0.5,1.7,0.5c0.9,0,1.8-0.4,2.4-1.2l0.9-1.3c2.7,7.1,8.2,12.9,15.6,16.1
		c3.7,1.6,7.6,2.4,11.5,2.4c5.9,0,11.7-1.8,16.6-5.5c4.5-3.3,8-8,9.9-13.3C61.4,42.3,60.6,40.6,59.1,40.1z"/>
	<g>
		<path class="st1" d="M29.5,28.4c0,1.1,0.7,2.1,1.7,2.5v-5C30.3,26.3,29.5,27.2,29.5,28.4z"/>
		<path class="st1" d="M37.1,37.3V42c0.8-0.5,1.4-1.3,1.4-2.4C38.5,38.6,37.9,37.7,37.1,37.3z"/>
		<path class="st0" d="M44.3,39.6c0-4.2-3.1-7.8-7.2-8.4v-5.5h4.3c1.6,0,2.9-1.3,2.9-2.9c0-1.6-1.3-2.9-2.9-2.9h-4.3v-1.1
			c0-1.6-1.3-2.9-2.9-2.9c-1.6,0-2.9,1.3-2.9,2.9v1.2c-4.2,0.5-7.5,4.1-7.5,8.5c0,4.4,3.3,8,7.5,8.5v5.5h-4.6
			c-1.6,0-2.9,1.3-2.9,2.9s1.3,2.9,2.9,2.9h4.6v1.1c0,1.6,1.3,2.9,2.9,2.9c1.6,0,2.9-1.3,2.9-2.9V48C41.1,47.4,44.3,43.9,44.3,39.6z
			 M29.5,28.4c0-1.1,0.7-2.1,1.7-2.5v5C30.3,30.5,29.5,29.5,29.5,28.4z M37.1,42v-4.7c0.8,0.5,1.4,1.3,1.4,2.3
			C38.5,40.6,37.9,41.5,37.1,42z"/>
	</g>
</g>
</svg>
