<?xml version="1.0" encoding="utf-8"?>
<!-- Generator: Adobe Illustrator 22.0.1, SVG Export Plug-In . SVG Version: 6.00 Build 0)  -->
<svg version="1.1" id="Layer_1" xmlns="http://www.w3.org/2000/svg" xmlns:xlink="http://www.w3.org/1999/xlink" x="0px" y="0px"
	 viewBox="0 0 68 68" style="enable-background:new 0 0 68 68;" xml:space="preserve">
<style type="text/css">
	.st0{fill:#745EC5;}
</style>
<title>icons</title>
<g>
	<path class="st0" d="M36.6,32.5h19.9V11c0-2.2-1.8-4.1-4.1-4.1H6.6c-2.2,0-4.1,1.8-4.1,4.1v40.8c0,2.2,1.8,4.1,4.1,4.1h26V36.5
		C32.5,34.3,34.3,32.5,36.6,32.5z M14.5,18.6H30c0.7,0,1.4,0.6,1.4,1.4s-0.6,1.4-1.4,1.4H14.5c-0.7,0-1.4-0.6-1.4-1.4
		S13.8,18.6,14.5,18.6z M14.5,26.3h29.9c0.7,0,1.4,0.6,1.4,1.4c0,0.7-0.6,1.4-1.4,1.4H14.5c-0.7,0-1.4-0.6-1.4-1.4
		C13.2,26.9,13.8,26.3,14.5,26.3z M27.1,44.5H14.5c-0.7,0-1.4-0.6-1.4-1.4s0.6-1.4,1.4-1.4h12.6c0.7,0,1.4,0.6,1.4,1.4
		S27.9,44.5,27.1,44.5z M27.3,36.8H14.5c-0.7,0-1.4-0.6-1.4-1.4s0.6-1.4,1.4-1.4h12.8c0.7,0,1.4,0.6,1.4,1.4S28.1,36.8,27.3,36.8z"
		/>
	<path class="st0" d="M60,35.7h-3.5H40.3c-2.5,0-4.5,2-4.5,4.5v15.7v6.8l4.8-4.8H60c2.5,0,4.5-2,4.5-4.5V40.2
		C64.5,37.7,62.5,35.7,60,35.7z"/>
</g>
</svg>
