<?xml version="1.0" encoding="utf-8"?>
<!-- Generator: Adobe Illustrator 22.0.1, SVG Export Plug-In . SVG Version: 6.00 Build 0)  -->
<svg version="1.1" id="Layer_1" xmlns="http://www.w3.org/2000/svg" xmlns:xlink="http://www.w3.org/1999/xlink" x="0px" y="0px"
	 viewBox="0 0 68 68" style="enable-background:new 0 0 68 68;" xml:space="preserve">
<style type="text/css">
	.st0{fill:#745EC5;}
</style>
<title>icons</title>
<g>
	<path class="st0" d="M66,60.1h-1.4v-7.9c0-5.6-3.7-10.5-8.7-12.2c5.1-1.8,8.7-6.6,8.7-12.3v-7.9H66c0.4,0,0.8-0.3,0.8-0.8
		s-0.3-0.8-0.8-0.8H37.1c-0.4,0-0.8,0.3-0.8,0.8s0.3,0.8,0.8,0.8h1.4v7.9c0,5.7,3.7,10.5,8.7,12.3c-5.1,1.8-8.7,6.6-8.7,12.2v7.9
		h-1.4c-0.4,0-0.8,0.3-0.8,0.8s0.3,0.8,0.8,0.8h26.7c0,0,0,0,0,0s0,0,0,0H66c0.4,0,0.8-0.3,0.8-0.8S66.4,60.1,66,60.1z"/>
	<path class="st0" d="M53.9,6.1H5.1C3,6.1,1.2,7.8,1.2,9.9v51.2c0,0.3,0.2,0.6,0.5,0.7c0.1,0,0.2,0.1,0.3,0.1c0.2,0,0.4-0.1,0.5-0.2
		l10.8-10.8h23.3C37,46.5,39.4,42.5,43,40c-0.4-0.3-0.8-0.6-1.2-0.9H13.7c-1.7,0-3-1.3-3-3s1.3-3,3-3h23.8c-0.3-0.7-0.5-1.4-0.7-2.2
		H13.7c-1.7,0-3-1.3-3-3s1.3-3,3-3h22.8v-3.1c-1.2-0.3-2.2-1.4-2.2-2.7c0-1.5,1.2-2.8,2.8-2.8h20.7V9.9C57.8,7.8,56,6.1,53.9,6.1z
		 M30.1,22.7H13.7c-1.7,0-3-1.3-3-3s1.3-3,3-3h16.4c1.7,0,3,1.3,3,3S31.8,22.7,30.1,22.7z"/>
</g>
</svg>
