<?xml version="1.0" encoding="utf-8"?>
<!-- Generator: Adobe Illustrator 22.0.1, SVG Export Plug-In . SVG Version: 6.00 Build 0)  -->
<svg version="1.1" id="Layer_1" xmlns="http://www.w3.org/2000/svg" xmlns:xlink="http://www.w3.org/1999/xlink" x="0px" y="0px"
	 viewBox="0 0 68 68" style="enable-background:new 0 0 68 68;" xml:space="preserve">
<style type="text/css">
	.st0{fill:#745EC5;}
</style>
<g>
	<path class="st0" d="M34,23.9c-5.6,0-10.2-4.6-10.2-10.2c0-5.6,4.6-10.2,10.2-10.2c5.6,0,10.2,4.6,10.2,10.2
		C44.2,19.3,39.6,23.9,34,23.9z"/>
	<path class="st0" d="M53.2,29c-4.7,0-8.5-3.8-8.5-8.5c0-4.7,3.8-8.5,8.5-8.5s8.5,3.8,8.5,8.5C61.7,25.2,57.9,29,53.2,29z"/>
	<path class="st0" d="M14.8,29c-4.7,0-8.5-3.8-8.5-8.5c0-4.7,3.8-8.5,8.5-8.5c4.7,0,8.5,3.8,8.5,8.5C23.4,25.2,19.5,29,14.8,29z"/>
	<path class="st0" d="M15.5,33H7.2c-3.3,0-6,2.7-6,6v13.2c0,0.4,0.3,0.8,0.8,0.8h13.5c0.4,0,0.8-0.3,0.8-0.8V33.7
		C16.2,33.3,15.9,33,15.5,33z"/>
	<path class="st0" d="M60.8,33h-8.2c-0.4,0-0.8,0.3-0.8,0.8v18.4c0,0.4,0.3,0.8,0.8,0.8H66c0.4,0,0.8-0.3,0.8-0.8V38.9
		C66.7,35.7,64.1,33,60.8,33z"/>
	<path class="st0" d="M43.3,29.1H24.7c-3.9,0-7.1,3.2-7.1,7.1v16c0,0.4,0.3,0.8,0.8,0.8h6.8c-0.3-0.6-0.6-1.2-0.9-1.8
		c-0.6-1.4-0.9-2.8-0.9-4.3c0-5.8,4.8-10.6,10.6-10.6c0,0,0,0,0,0c5.8,0,10.6,4.8,10.6,10.6c0,1.5-0.3,2.9-0.9,4.3
		c-0.3,0.6-0.6,1.2-0.9,1.8h6.8c0.4,0,0.8-0.3,0.8-0.8v-16C50.3,32.3,47.1,29.1,43.3,29.1z"/>
	<path class="st0" d="M34,38.2C34,38.2,34,38.2,34,38.2c-5,0-9.1,4.1-9.1,9.1c0,1.3,0.3,2.5,0.8,3.7c0.2,0.5,0.5,1,0.8,1.5
		c2.3,4.2,5.6,8.3,6.7,9.5c0.2,0.3,0.5,0.4,0.8,0.4c0.3,0,0.5-0.1,0.7-0.3c0,0,0.1-0.1,0.1-0.1c1.1-1.3,4.4-5.3,6.7-9.5
		c0.3-0.5,0.5-1,0.8-1.5c0.5-1.2,0.8-2.4,0.8-3.7C43.1,42.3,39,38.2,34,38.2z M34.1,52.3c0,0-0.1,0-0.1,0c-2.8,0-5-2.3-5-5
		s2.3-5,5-5c2.8,0,5,2.3,5,5C39,50,36.8,52.3,34.1,52.3z"/>
</g>
</svg>
