<?xml version="1.0" encoding="utf-8"?>
<!-- Generator: Adobe Illustrator 22.0.1, SVG Export Plug-In . SVG Version: 6.00 Build 0)  -->
<svg version="1.1" id="Layer_1" xmlns="http://www.w3.org/2000/svg" xmlns:xlink="http://www.w3.org/1999/xlink" x="0px" y="0px"
	 viewBox="0 0 68 68" style="enable-background:new 0 0 68 68;" xml:space="preserve">
<style type="text/css">
	.st0{fill:#745EC5;}
</style>
<title>icons</title>
<g>
	<g>
		<g>
			<path class="st0" d="M23.4,45.5c-0.1,0-0.2,0-0.3-0.1c-0.3-0.1-0.4-0.4-0.4-0.6V25.1c0-1,0.8-1.9,1.9-1.9h18.7
				c1,0,1.9,0.8,1.9,1.9v14.3c0,1-0.8,1.9-1.9,1.9H27.9l-4,4C23.7,45.4,23.5,45.5,23.4,45.5z"/>
		</g>
	</g>
	<path class="st0" d="M65.5,20.6c-1.3-1-3.2-0.7-4.2,0.6l-0.9,1.2c-2.7-7.1-8.3-12.8-15.7-15.9c-9.5-4-20-2.6-28,3.5
		c-4.4,3.4-7.8,8.2-9.6,13.5C6.6,25,7.4,26.7,9,27.3c1.6,0.5,3.3-0.3,3.8-1.9c1.4-4.2,4.1-8,7.6-10.7c6.3-4.8,14.5-5.8,22.1-2.7
		c5,2.1,9,5.7,11.4,10.2c-1.3-0.6-2.9-0.2-3.8,1.1c-0.9,1.4-0.5,3.2,0.9,4.2l6.5,4.2c0.5,0.3,1.1,0.5,1.6,0.5c0,0,0.1,0,0.1,0
		c0.1,0,0.2,0,0.3,0c0,0,0.1,0,0.1,0c0.1,0,0.2,0,0.3-0.1c0.2,0,0.3-0.1,0.4-0.2c0,0,0.1,0,0.1,0c0.5-0.2,0.9-0.6,1.2-1.1l4.5-6
		C67.1,23.4,66.8,21.6,65.5,20.6z"/>
	<path class="st0" d="M58.6,39c-1.5-0.6-3.3,0.2-3.9,1.7c-1.6,4.1-4.4,7.7-8,10.2c-6.3,4.4-14.5,5.1-21.7,1.9
		c-4.9-2.2-8.8-5.9-11.1-10.5c1.4,0.9,3.3,0.4,4.1-1c0.9-1.4,0.4-3.3-1-4.1l-6.6-4c0,0-0.1,0-0.1-0.1c-0.1,0-0.2-0.1-0.2-0.1
		c-0.1,0-0.2-0.1-0.3-0.1c-0.1,0-0.2,0-0.2-0.1c-0.1,0-0.2,0-0.3-0.1c-0.1,0-0.2,0-0.2,0c-0.1,0-0.2,0-0.3,0c0,0-0.1,0-0.1,0
		c0,0-0.1,0-0.1,0c-0.1,0-0.2,0-0.3,0.1c-0.1,0-0.2,0-0.2,0.1c-0.1,0-0.2,0.1-0.3,0.1c-0.1,0-0.2,0.1-0.2,0.1
		c-0.1,0.1-0.2,0.1-0.2,0.2c-0.1,0.1-0.1,0.1-0.2,0.2c-0.1,0.1-0.1,0.1-0.2,0.2c-0.1,0.1-0.1,0.1-0.2,0.2c0,0,0,0,0,0l-4.5,6.3
		c-1,1.3-0.7,3.2,0.7,4.2C3.1,44.8,3.7,45,4.3,45c0.9,0,1.9-0.4,2.4-1.3l0.8-1.1c2.6,6.8,7.9,12.4,15,15.6c3.8,1.7,7.8,2.5,11.8,2.5
		c5.6,0,11.1-1.7,15.8-5c4.5-3.2,8.2-7.8,10.2-12.9C60.9,41.3,60.1,39.6,58.6,39z"/>
</g>
</svg>
