<?xml version="1.0" encoding="utf-8"?>
<!-- Generator: Adobe Illustrator 22.0.1, SVG Export Plug-In . SVG Version: 6.00 Build 0)  -->
<svg version="1.1" id="Layer_1" xmlns="http://www.w3.org/2000/svg" xmlns:xlink="http://www.w3.org/1999/xlink" x="0px" y="0px"
	 viewBox="0 0 68 68" style="enable-background:new 0 0 68 68;" xml:space="preserve">
<style type="text/css">
	.st0{fill:#745EC5;}
</style>
<title>icons</title>
<g>
	<path class="st0" d="M9.3,47.3c-3.6,0-6.4-2.9-6.4-6.4c0-3.6,2.9-6.4,6.4-6.4c3.5,0,6.4,2.9,6.4,6.4C15.8,44.4,12.9,47.3,9.3,47.3z
		"/>
	<path class="st0" d="M25.6,29.2c-3.5,0-6.4-2.9-6.4-6.4c0-3.5,2.9-6.4,6.4-6.4s6.4,2.9,6.4,6.4C32.1,26.3,29.2,29.2,25.6,29.2z"/>
	<path class="st0" d="M58.3,20.1c-3.6,0-6.4-2.9-6.4-6.4c0-3.5,2.9-6.4,6.4-6.4s6.4,2.9,6.4,6.4C64.7,17.2,61.8,20.1,58.3,20.1z"/>
	<path class="st0" d="M42,40.1c-3.6,0-6.4-2.9-6.4-6.4c0-3.5,2.9-6.4,6.4-6.4c3.5,0,6.4,2.9,6.4,6.4C48.4,37.2,45.5,40.1,42,40.1z"
		/>
	<path class="st0" d="M9.3,60c-1.6,0-2.8-1.3-2.8-2.8V44.5c0-1.6,1.3-2.8,2.8-2.8s2.8,1.3,2.8,2.8v12.7C12.2,58.8,10.9,60,9.3,60z"
		/>
	<path class="st0" d="M25.6,60c-1.6,0-2.8-1.3-2.8-2.8V26.4c0-1.6,1.3-2.8,2.8-2.8c1.6,0,2.8,1.3,2.8,2.8v30.8
		C28.5,58.8,27.2,60,25.6,60z"/>
	<path class="st0" d="M42,60c-1.6,0-2.8-1.3-2.8-2.8V37.3c0-1.6,1.3-2.8,2.8-2.8s2.8,1.3,2.8,2.8v19.9C44.8,58.8,43.5,60,42,60z"/>
	<path class="st0" d="M58.3,60c-1.6,0-2.8-1.3-2.8-2.8V17.3c0-1.6,1.3-2.8,2.8-2.8s2.8,1.3,2.8,2.8v39.9C61.1,58.8,59.8,60,58.3,60z
		"/>
	<path class="st0" d="M44.2,33.7c-0.6,0-1.3-0.2-1.8-0.6c-1.2-1-1.4-2.8-0.4-4l11.7-14.3c1-1.2,2.8-1.4,4-0.4c1.2,1,1.4,2.8,0.4,4
		L46.4,32.6C45.9,33.3,45.1,33.7,44.2,33.7z"/>
	<path class="st0" d="M38.9,34.5c-0.5,0-1-0.1-1.5-0.4L27,27.4c-1.3-0.8-1.7-2.6-0.9-3.9c0.8-1.3,2.6-1.7,3.9-0.9l10.4,6.7
		c1.3,0.8,1.7,2.6,0.9,3.9C40.8,34,39.8,34.5,38.9,34.5z"/>
	<path class="st0" d="M11.8,41c-0.7,0-1.4-0.2-1.9-0.7c-1.1-1.1-1.2-2.8-0.2-4l11.6-12.6c1.1-1.1,2.8-1.2,4-0.2
		c1.1,1.1,1.2,2.8,0.2,4L13.9,40.1C13.3,40.7,12.6,41,11.8,41z"/>
</g>
</svg>
