<?xml version="1.0" encoding="utf-8"?>
<!-- Generator: Adobe Illustrator 22.0.1, SVG Export Plug-In . SVG Version: 6.00 Build 0)  -->
<svg version="1.1" id="Layer_1" xmlns="http://www.w3.org/2000/svg" xmlns:xlink="http://www.w3.org/1999/xlink" x="0px" y="0px"
	 viewBox="0 0 68 68" style="enable-background:new 0 0 68 68;" xml:space="preserve">
<style type="text/css">
	.st0{fill:#745EC5;}
</style>
<title>icons</title>
<path class="st0" d="M63.6,21.2c-1.3-1-3.2-0.7-4.2,0.6l-1.1,1.5C55,14,47,7.3,36.5,5.6C25.6,3.9,14.8,8.5,8.3,17.7
	c-6.4,9.1-7.1,20.7-1.8,30.2c5,9.1,14.6,14.6,25.1,14.6c0.5,0,1,0,1.5,0c11.1-0.5,20.7-7,25-17c0.7-1.5,0-3.3-1.6-3.9
	c-1.5-0.7-3.3,0-3.9,1.6c-3.4,7.8-11,13-19.8,13.4c-8.8,0.4-16.9-4-21.1-11.5c-4.2-7.6-3.7-16.5,1.5-23.8c5.2-7.3,13.7-11,22.3-9.7
	c7.2,1.2,13,5.4,16,11.3c-1.3-0.6-2.9-0.1-3.7,1.1c-0.9,1.4-0.5,3.2,0.9,4.1l6.6,4.3c0.5,0.3,1.1,0.5,1.6,0.5c0.9,0,1.8-0.4,2.4-1.2
	l4.8-6.3C65.1,24.1,64.9,22.2,63.6,21.2z"/>
</svg>
