<?xml version="1.0" encoding="utf-8"?>
<!-- Generator: Adobe Illustrator 22.0.1, SVG Export Plug-In . SVG Version: 6.00 Build 0)  -->
<svg version="1.1" id="Layer_1" xmlns="http://www.w3.org/2000/svg" xmlns:xlink="http://www.w3.org/1999/xlink" x="0px" y="0px"
	 viewBox="0 0 68 68" style="enable-background:new 0 0 68 68;" xml:space="preserve">
<style type="text/css">
	.st0{fill:#745EC5;}
</style>
<title>icons</title>
<g>
	<path class="st0" d="M57.5,52.6h-47c-4.6,0-8.3-3.7-8.3-8.3V13.6c0-4.6,3.7-8.3,8.3-8.3h47c4.6,0,8.3,3.7,8.3,8.3v30.6
		C65.8,48.9,62,52.6,57.5,52.6z M10.5,11.4c-1.3,0-2.3,1-2.3,2.3v30.6c0,1.3,1,2.3,2.3,2.3h47c1.3,0,2.3-1,2.3-2.3V13.6
		c0-1.3-1-2.3-2.3-2.3H10.5z"/>
</g>
<g>
	<path class="st0" d="M34,60.4c-1.7,0-3-1.3-3-3v-5.2c0-1.7,1.3-3,3-3c1.7,0,3,1.3,3,3v5.2C37,59.1,35.7,60.4,34,60.4z"/>
</g>
<g>
	<path class="st0" d="M50.4,61.3H17.6c-1.7,0-3-1.3-3-3s1.3-3,3-3h32.8c1.7,0,3,1.3,3,3S52,61.3,50.4,61.3z"/>
</g>
<g>
	<path class="st0" d="M41.8,41.2H26.2c-0.1,0-0.1-0.1-0.1-0.1V33c0-1.8,1.5-3.3,3.3-3.3h9.3c1.8,0,3.3,1.5,3.3,3.3V41
		C42,41.1,41.9,41.2,41.8,41.2z"/>
	<path class="st0" d="M34,26.5c-2.7,0-4.9-2.2-4.9-4.9c0-2.7,2.2-4.9,4.9-4.9s4.9,2.2,4.9,4.9C38.9,24.4,36.7,26.5,34,26.5z"/>
</g>
</svg>
