<?xml version="1.0" encoding="utf-8"?>
<!-- Generator: Adobe Illustrator 22.0.1, SVG Export Plug-In . SVG Version: 6.00 Build 0)  -->
<svg version="1.1" id="Layer_1" xmlns="http://www.w3.org/2000/svg" xmlns:xlink="http://www.w3.org/1999/xlink" x="0px" y="0px"
	 viewBox="0 0 68 68" style="enable-background:new 0 0 68 68;" xml:space="preserve">
<style type="text/css">
	.st0{fill:#745EC5;}
</style>
<title>icons</title>
<path class="st0" d="M60.5,57.4H14.1l7.7-13.3c0.3-0.5,0.8-0.9,1.3-1s1.1-0.1,1.6,0.2l9.1,5.3c1.9,1,4.3,0.4,5.5-1.5l12.1-20.9
	l1.4,0.8c0.8,0.5,1.8,0.5,2.6,0.1c0.9-0.5,1.4-1.4,1.4-2.4V13.9c0-1-0.5-1.8-1.3-2.3s-1.8-0.5-2.7,0L43.4,17
	c-0.8,0.5-1.3,1.4-1.3,2.4c0,0.9,0.5,1.8,1.3,2.2l1.4,0.8l-9.1,16.1c-0.2,0.5-0.7,0.8-1.2,1c-0.5,0.1-1.1,0.1-1.6-0.2L23.8,34
	c-1-0.6-2.1-0.7-3.1-0.5c-1.1,0.3-2,1-2.5,1.9L11.5,47V8.2c-0.2-2.1-1.9-3.7-3.9-3.7c-2.2,0-3.8,1.6-3.8,3.8V65h56.7
	c2.1,0,3.8-1.7,3.8-3.8C64.3,59.1,62.6,57.4,60.5,57.4z"/>
</svg>
