<?xml version="1.0" encoding="utf-8"?>
<!-- Generator: Adobe Illustrator 22.0.1, SVG Export Plug-In . SVG Version: 6.00 Build 0)  -->
<svg version="1.1" id="Layer_1" xmlns="http://www.w3.org/2000/svg" xmlns:xlink="http://www.w3.org/1999/xlink" x="0px" y="0px"
	 viewBox="0 0 68 68" style="enable-background:new 0 0 68 68;" xml:space="preserve">
<style type="text/css">
	.st0{fill:none;}
	.st1{fill:#745EC5;}
</style>
<title>icons</title>
<path class="st0" d="M15.7,11.2c0-0.4-0.2-0.8-0.5-1.1c-0.3-0.3-0.7-0.5-1.1-0.5s-0.8,0.2-1.1,0.5l0,0c-0.3,0.3-0.5,0.7-0.5,1.1
	s0.2,0.8,0.5,1.1c0.6,0.6,1.6,0.6,2.2,0C15.5,12,15.7,11.6,15.7,11.2z"/>
<path class="st0" d="M9.8,54.6C9.8,54.6,9.8,54.5,9.8,54.6c-0.9-0.9-2.5-0.9-3.5,0c-1,1-1,2.5,0,3.5c1,1,2.5,1,3.5,0
	C10.8,57.1,10.8,55.5,9.8,54.6C9.8,54.6,9.8,54.6,9.8,54.6z"/>
<path class="st0" d="M55,9.5C55,9.5,55,9.6,55,9.5c1,0.9,2.6,0.9,3.5,0c0.5-0.5,0.7-1.1,0.7-1.7c0-0.7-0.3-1.3-0.7-1.7
	c-0.5-0.5-1.1-0.7-1.7-0.7c-0.7,0-1.3,0.3-1.7,0.7c0,0,0,0,0,0c-0.5,0.5-0.7,1.1-0.7,1.7C54.2,8.5,54.5,9.1,55,9.5
	C54.9,9.5,54.9,9.5,55,9.5z"/>
<path class="st0" d="M34.1,58c-1.3,0-2.3,1-2.3,2.3s1,2.3,2.3,2.3c1.3,0,2.3-1,2.3-2.3S35.4,58,34.1,58z"/>
<path class="st0" d="M58.7,55.8c-0.5,0.5-0.5,1.3,0,1.9c0.5,0.5,1.4,0.5,1.9,0c0.5-0.5,0.5-1.3,0-1.9C60,55.3,59.2,55.3,58.7,55.8z"
	/>
<path class="st1" d="M34.1,24.5c3.7,0,6.7-3,6.7-6.7c0-3.7-3-6.7-6.7-6.7c-3.7,0-6.7,3-6.7,6.7C27.4,21.4,30.4,24.5,34.1,24.5z"/>
<path class="st1" d="M36.6,53.4v-6.9c0-1.4-1.1-2.5-2.5-2.5s-2.5,1.1-2.5,2.5v6.9c-2.8,1-4.8,3.7-4.8,6.9c0,4,3.3,7.3,7.3,7.3
	c4,0,7.3-3.3,7.3-7.3C41.5,57.1,39.5,54.4,36.6,53.4z M34.1,62.6c-1.3,0-2.3-1-2.3-2.3s1-2.3,2.3-2.3c1.3,0,2.3,1,2.3,2.3
	S35.4,62.6,34.1,62.6z"/>
<path class="st1" d="M24,17.6l-3.8-3.8c0.3-0.8,0.5-1.6,0.5-2.5c0-1.8-0.7-3.4-1.9-4.6c-1.2-1.2-2.9-1.9-4.6-1.9
	c-1.8,0-3.4,0.7-4.6,1.9c0,0,0,0,0,0c-1.2,1.2-1.9,2.9-1.9,4.6c0,1.8,0.7,3.4,1.9,4.6c1.2,1.2,2.9,1.9,4.6,1.9
	c0.9,0,1.7-0.2,2.5-0.5l3.8,3.8c0.5,0.5,1.1,0.7,1.8,0.7c0.6,0,1.3-0.2,1.8-0.7C25,20.1,25,18.5,24,17.6z M13,12.3
	c-0.3-0.3-0.5-0.7-0.5-1.1s0.2-0.8,0.5-1.1l0,0c0.3-0.3,0.7-0.5,1.1-0.5s0.8,0.2,1.1,0.5c0.3,0.3,0.5,0.7,0.5,1.1s-0.2,0.8-0.5,1.1
	C14.6,12.9,13.6,12.9,13,12.3z"/>
<path class="st1" d="M64,52.2c-1.2-1.2-2.8-1.8-4.5-1.8c-0.5,0-1.1,0.1-1.6,0.2l-7.4-7.4c-1-1-2.6-1-3.5,0s-1,2.6,0,3.5l7,7
	c-1.3,2.4-0.9,5.5,1.1,7.5c1.2,1.2,2.8,1.8,4.5,1.8c1.7,0,3.3-0.7,4.5-1.8C66.5,58.7,66.5,54.7,64,52.2z M60.5,57.6
	c-0.5,0.5-1.4,0.5-1.9,0c-0.5-0.5-0.5-1.3,0-1.9c0.5-0.5,1.4-0.5,1.9,0C61,56.3,61,57.1,60.5,57.6z"/>
<path class="st1" d="M53.5,14.5c1,0.5,2.1,0.7,3.2,0.7c2,0,3.9-0.8,5.3-2.2c1.4-1.4,2.2-3.3,2.2-5.3S63.4,4,62,2.5
	c-1.4-1.4-3.3-2.2-5.3-2.2c-2,0-3.9,0.8-5.3,2.2c0,0,0,0,0,0C50,4,49.2,5.8,49.2,7.8c0,1.1,0.3,2.2,0.7,3.2l-6.4,6.4
	c-1,1-1,2.6,0,3.5c0.5,0.5,1.1,0.7,1.8,0.7c0.6,0,1.3-0.2,1.8-0.7L53.5,14.5z M55,6.1C55,6.1,55,6.1,55,6.1c0.5-0.5,1.1-0.7,1.7-0.7
	c0.7,0,1.3,0.3,1.7,0.7c0.5,0.5,0.7,1.1,0.7,1.7c0,0.7-0.3,1.3-0.7,1.7c-0.9,0.9-2.5,0.9-3.4,0c0,0,0,0,0,0c0,0,0,0,0,0
	c-0.4-0.5-0.7-1.1-0.7-1.7C54.2,7.2,54.5,6.5,55,6.1z"/>
<path class="st1" d="M40,27.2H28.3c0,0,0,0,0,0c-2.6,0-4.7,2.1-4.7,4.8v10.2c0,0.4,0.3,0.7,0.7,0.7H44c0.4,0,0.7-0.3,0.7-0.7V32
	C44.8,29.4,42.6,27.2,40,27.2z"/>
<path class="st1" d="M17.4,43.5l-6.1,6.1c-1-0.5-2.1-0.7-3.2-0.7c-2,0-3.9,0.8-5.3,2.2c0,0,0,0,0,0c-2.9,2.9-2.9,7.6,0,10.5
	c1.5,1.5,3.4,2.2,5.3,2.2c1.9,0,3.8-0.7,5.3-2.2c2.3-2.3,2.8-5.7,1.5-8.5l6.1-6.1c1-1,1-2.6,0-3.5C20,42.5,18.4,42.5,17.4,43.5z
	 M9.8,58c-1,1-2.5,1-3.5,0c-1-1-1-2.5,0-3.5c0.9-0.9,2.5-0.9,3.5,0c0,0,0,0,0,0c0,0,0,0,0,0C10.8,55.5,10.8,57.1,9.8,58z"/>
</svg>
