<?xml version="1.0" encoding="utf-8"?>
<!-- Generator: Adobe Illustrator 21.0.2, SVG Export Plug-In . SVG Version: 6.00 Build 0)  -->
<svg version="1.1"
	 id="svg2" inkscape:version="0.48.2 r9819" sodipodi:docname="New document 1" xmlns:cc="http://creativecommons.org/ns#" xmlns:dc="http://purl.org/dc/elements/1.1/" xmlns:inkscape="http://www.inkscape.org/namespaces/inkscape" xmlns:rdf="http://www.w3.org/1999/02/22-rdf-syntax-ns#" xmlns:sodipodi="http://sodipodi.sourceforge.net/DTD/sodipodi-0.dtd" xmlns:svg="http://www.w3.org/2000/svg"
	 xmlns="http://www.w3.org/2000/svg" xmlns:xlink="http://www.w3.org/1999/xlink" x="0px" y="0px" viewBox="0 0 245.7 85.6"
	 style="enable-background:new 0 0 245.7 85.6;" xml:space="preserve">
<style type="text/css">
	.st0{fill:#EE3624;}
</style>
<sodipodi:namedview  bordercolor="#666666" borderopacity="1.0" fit-margin-bottom="0.5" fit-margin-left="0.5" fit-margin-right="0.5" fit-margin-top="0.5" id="base" inkscape:current-layer="layer1" inkscape:cx="624.60355" inkscape:cy="-47.969136" inkscape:document-units="px" inkscape:pageopacity="0.0" inkscape:pageshadow="2" inkscape:window-height="1028" inkscape:window-maximized="1" inkscape:window-width="1920" inkscape:window-x="-8" inkscape:window-y="-8" inkscape:zoom="1" pagecolor="#ffffff" showgrid="false">
	<inkscape:grid  empspacing="5" enabled="true" id="grid2996" snapvisiblegridlinesonly="true" type="xygrid" visible="true">
		</inkscape:grid>
</sodipodi:namedview>
<g>
	<path class="st0" d="M0,21c6.7,0,13.5-0.1,20.2,0.1c5.2,0.1,9.3,3.7,10.1,8.4c0.9,5.5-1.8,10.1-6.2,11.4c-0.1,0-0.2,0.1-0.3,0.2
		c4.2,1.2,6.6,3.9,7.4,8.1c1.2,6.8-2.6,12.4-9.7,13.2c-1.6,0.2-3.2,0.2-4.7,0.2c-5.6,0-11.2,0-16.7,0C0,48.7,0,34.9,0,21z M9,54.7
		c0.1,0,0.2,0.1,0.3,0.1c2.8,0,5.6,0.1,8.4,0c2.8-0.1,4.6-1.9,4.6-4.5c0.1-2.6-1.5-4.5-4.3-4.8c-1.8-0.2-3.6-0.1-5.4-0.1
		c-1.2,0-2.4,0-3.7,0C9,48.4,9,51.4,9,54.7z M9,37.5c2.6,0,5.1,0,7.6,0c0.5,0,0.9,0,1.5-0.1c1.8-0.3,3.1-1.3,3.5-3.1
		c0.7-2.9-1.2-5.4-4.1-5.6c-1.4-0.1-2.8,0-4.2,0s-2.7,0-4.1,0c0,0.3-0.1,0.5-0.1,0.6C9,32.1,9,34.7,9,37.5z"/>
	<path class="st0" d="M160.9,63.3c-1.1-0.2-2.1-0.3-3.2-0.6c-8.1-2-12.3-9-11.6-16.7c0.6-6.5,3.9-11.3,10.1-13.5
		c8.7-3.1,18.8,1.1,20.3,12.6c0.2,1.6,0.2,3.1,0.3,4.7c-3.9,0-7.6,0-11.3,0c-3.7,0-7.4,0-11.2,0c0.5,2.8,2,4.8,4.4,5.9
		c4.1,1.7,7.9,0.8,11.5-1.5c0.2-0.1,0.4-0.3,0.6-0.4c0,0,0.1,0,0.2,0c1.1,1.6,2.2,3.3,3.5,5.2c-1.2,0.7-2.2,1.5-3.4,2.1
		c-2.1,1.1-4.4,1.7-6.8,1.9c-0.3,0-0.5,0.1-0.8,0.2C162.6,63.3,161.7,63.3,160.9,63.3z M169,44.6c0.1-3.7-3.4-6.6-7.9-6.4
		c-3.8,0.1-7.1,3.4-6.6,6.4C159.3,44.6,164.1,44.6,169,44.6z"/>
	<path class="st0" d="M193.1,63.3c-1.3-0.2-2.6-0.4-3.9-0.8c-6.1-1.7-10.2-6.8-10.9-13.1c-0.5-5.9,1.2-11,6-14.6
		c7.2-5.7,21.4-4.4,24.2,9.1c0.2,0.9,0.3,1.9,0.4,2.9c0.1,1.1,0,2.1,0,3.3c-3.8,0-7.5,0-11.2,0s-7.4,0-11.2,0
		c0.2,1.7,0.8,3.1,1.9,4.1c2.4,2.5,5.6,3.1,8.8,2.4c2.1-0.4,4.1-1.2,5.8-2.7c1.2,1.8,2.3,3.5,3.6,5.3c-0.9,0.6-1.8,1.3-2.7,1.8
		c-2.3,1.3-4.8,1.9-7.5,2.2c-0.3,0-0.6,0.1-0.9,0.2C194.9,63.3,194,63.3,193.1,63.3z M186.7,44.6c4.8,0,9.8,0,14.6,0
		c0.2-3.6-3.3-6.5-7.7-6.4C189.7,38.3,186.3,41.3,186.7,44.6z"/>
	<path class="st0" d="M45.3,63.3c-0.9-0.2-1.9-0.3-2.8-0.6c-5.9-1.4-9.4-5.8-9.4-11.8c0-5.8,0-11.6,0-17.4c0-0.3,0-0.6,0-1.1
		c2.6,0,5.2,0,7.9,0c0,0.3,0,0.7,0,1.1c0,5.5,0,11,0,16.4c0,2.5,0.7,4.6,3.1,5.7c2.5,1.2,5.2,1.2,7.5-0.5c1.7-1.3,2.2-3.2,2.2-5.2
		c0-5.5,0-10.9,0-16.3c0-0.4,0-0.7,0-1.2c2.6,0,5.2,0,7.9,0c0,0.3,0,0.7,0,1.1c0,5.7,0,11.5,0,17.2c0,7-4.3,11.7-11.2,12.4
		c-0.3,0-0.6,0.1-1.1,0.2C48.1,63.3,46.7,63.3,45.3,63.3z"/>
	<path class="st0" d="M120.2,62.5c0-13.9,0-27.6,0-41.5c9.6,0,19.2,0,28.9,0c0,1.4,0,2.7,0,4c0,0.8-0.1,1.8,0,2.6
		c0.1,0.8-0.3,1.1-1.1,1.1c-5.7,0-11.4,0-17.1,0c-0.5,0-1.2,0-1.8,0c0,2.8,0,5.7,0,8.7c0.3,0,0.7,0,1.1,0c4.3,0,8.6,0,12.9,0
		c0.8,0,1.1,0.3,1.1,1.1c-0.1,2.2,0,4.4,0,6.6c-5.1,0-10,0-15.1,0c0,5.8,0,11.5,0,17.3C126.1,62.5,123.2,62.5,120.2,62.5z"/>
	<path class="st0" d="M210.9,62.5c0-0.4,0-0.7,0-1.1c0-9.3,0-18.5,0-27.9c0-1.3,0-1.3,1.3-1.3c4.3,0,8.7-0.1,13.1,0.2
		c6.2,0.5,11,3.3,13.3,9.4c2.3,6.2,0.5,13.3-4.2,17.2c-2.7,2.3-6.1,3.4-9.6,3.6c-4.5,0.2-9,0-13.5,0.1
		C211.2,62.6,211.2,62.6,210.9,62.5z M218.5,56.2c1.5,0,2.9,0,4.3,0c5.2,0,8.3-2.8,9-8c0.4-3.7-1.6-7.3-4.7-8.6
		c-2.7-1.2-5.7-0.5-8.5-0.7C218.5,44.7,218.5,50.3,218.5,56.2z"/>
	<path class="st0" d="M77.7,39.3c-4.6,0-9,0-13.5,0c0-2.3,0-4.5,0-6.8c8.1,0,16.1,0,24.3,0c0,1.3-0.1,2.5,0,3.9
		c0.1,1.2-0.3,2.1-1.1,3.1c-4,5.1-8,10.1-12,15.2c-0.2,0.3-0.4,0.5-0.7,0.9c4.7,0,9.3,0,13.9,0c0,2.4,0,4.6,0,7
		c-8.1,0-16.2,0-24.5,0c0-1.9,0-3.8,0-5.7c0-0.3,0.3-0.6,0.5-0.9c4.1-5.3,8.2-10.4,12.3-15.7C77.3,40,77.4,39.8,77.7,39.3z"/>
	<path class="st0" d="M90.9,39.3c0-2.1,0-4.1,0-6.1c0-0.2,0-0.4,0.1-0.7c8,0,16.1,0,24.2,0c0,1.8,0,3.6,0,5.5c0,0.3-0.3,0.5-0.4,0.8
		c-4.2,5.3-8.3,10.5-12.5,15.9c-0.2,0.2-0.4,0.5-0.7,0.9c0.5,0,0.8,0,1.3,0c3.9,0,7.9,0,11.8,0c0.7,0,1.1,0.2,0.9,0.9
		c-0.1,2,0,3.9,0,6c-8.2,0-16.3,0-24.5,0c0-2,0-3.9,0-5.8c0-0.2,0.2-0.5,0.4-0.7c4-5.1,8-10.2,12-15.3c0.3-0.4,0.6-0.7,1.1-1.4
		C99.9,39.3,95.4,39.3,90.9,39.3z"/>
</g>
</svg>
