<?xml version="1.0" encoding="utf-8"?>
<!-- Generator: Adobe Illustrator 21.0.2, SVG Export Plug-In . SVG Version: 6.00 Build 0)  -->
<svg version="1.1" id="Layer_1" xmlns="http://www.w3.org/2000/svg" xmlns:xlink="http://www.w3.org/1999/xlink" x="0px" y="0px"
	 viewBox="0 0 1288 242" style="enable-background:new 0 0 1288 242;" xml:space="preserve">
<style type="text/css">
	.st0{fill:#00AEEF;}
</style>
<title>Mashable</title>
<desc>Created with Sketch.</desc>
<g>
	<polygon class="st0" points="118.3,130.6 76.1,19.7 4,19.7 4,220.7 55.9,220.7 55.9,87.8 106.8,220.7 129.7,220.7 180.4,87.8 
		180.4,220.7 232.2,220.7 232.2,19.7 160.2,19.7 	"/>
	<path class="st0" d="M315.1,71.5c-22.3,0-47.3,6.6-66,22.6l17.2,32.2c11.7-9.9,26.2-15.7,40.7-15.7c18.7,0,29.6,8.7,29.6,21.4v14.5
		c-8.7-10.8-25.9-17.2-45.2-17.2c-22.3,0-50,11.8-50,47c0,32.6,27.7,47.9,50,47.9c18.7,0,36.2-7.3,45.2-18.1v14.5h46.4v-91
		C382.9,84.5,350,71.5,315.1,71.5z M336.5,183.3c-4.8,7-15.7,10.6-25.9,10.6c-12,0-23.2-5.4-23.2-16.9c0-11.5,11.2-16.9,23.2-16.9
		c10.3,0,21.1,3.3,25.9,10.3V183.3z"/>
	<path class="st0" d="M436.2,117.6c0-5.7,7.2-9.9,18.1-9.9c17.5,0,34.1,7.5,42.8,16l17.8-32.9c-15.7-11.5-36.2-19.3-60.9-19.3
		c-40.1,0-62.4,22.3-62.4,47.9c0,59.1,84.7,40.4,84.7,58.5c0,6.3-5.7,10.3-19.6,10.3c-17.2,0-40.4-9.9-51.2-19.6l-19.3,33.1
		c15.4,13.9,42.2,22.6,68.4,22.6c41.6,0,66-19.9,66-47.6C520.6,117,436.2,133.6,436.2,117.6z"/>
	<path class="st0" d="M623.4,71.5c-24.4,0-41.6,11.1-50.3,21.4V19.7h-46.4v201.1h46.4v-94c5.4-6.6,14.5-14.2,28-14.2
		c14.8,0,24.1,5.7,24.1,23.5v84.7h46.4V117C671.6,90.2,656.5,71.5,623.4,71.5z"/>
	<path class="st0" d="M752.1,71.5c-22.3,0-47.3,6.6-66,22.6l17.2,32.2c11.7-9.9,26.2-15.7,40.7-15.7c18.7,0,29.6,8.7,29.6,21.4v14.5
		c-8.7-10.8-25.9-17.2-45.2-17.2c-22.3,0-50,11.8-50,47c0,32.6,27.7,47.9,50,47.9c18.7,0,36.2-7.3,45.2-18.1v14.5h46.4v-91
		C819.9,84.5,787.1,71.5,752.1,71.5z M773.5,183.3c-4.8,7-15.7,10.6-25.9,10.6c-12,0-23.2-5.4-23.2-16.9c0-11.5,11.2-16.9,23.2-16.9
		c10.3,0,21.1,3.3,25.9,10.3V183.3z"/>
	<path class="st0" d="M925.4,71.5c-16,0-31.7,6.3-43.1,20.8V19.7h-46.4v201.1h46.4v-16.9c12.1,13.9,26.8,20.5,43.1,20.5
		c35.9,0,64.2-27.1,64.2-76.6C989.6,100.1,961.9,71.5,925.4,71.5z M910,183.3c-9.9,0-22-5.1-27.7-12.9v-44.6
		c5.7-7.8,17.8-13.3,27.7-13.3c18.4,0,32.2,13.6,32.2,35.3C942.3,169.8,928.4,183.3,910,183.3z"/>
	<rect x="995" y="19.7" class="st0" width="46.4" height="201.1"/>
	<path class="st0" d="M1199.7,152.6c0-49.4-31.3-81.1-74.5-81.1c-45.5,0-77.2,34.1-77.2,76.3c0,47.3,34.4,76.6,79.3,76.6
		c22.3,0,46.4-6.3,60.9-19.3l-20.2-30.4c-8.4,7.8-25.3,12.4-35.6,12.4c-21.1,0-33.1-10.9-36.4-23.8h103.7V152.6z M1095.4,131.5
		c1.8-10.6,9.6-22.6,29.8-22.6c21.4,0,28.9,12.3,30.1,22.6H1095.4z"/>
</g>
</svg>
