<?xml version="1.0" encoding="utf-8"?>
<!-- Generator: Adobe Illustrator 21.0.2, SVG Export Plug-In . SVG Version: 6.00 Build 0)  -->
<svg version="1.1"
	 id="svg2" inkscape:version="0.48.2 r9819" sodipodi:docname="New document 1" xmlns:cc="http://creativecommons.org/ns#" xmlns:dc="http://purl.org/dc/elements/1.1/" xmlns:inkscape="http://www.inkscape.org/namespaces/inkscape" xmlns:rdf="http://www.w3.org/1999/02/22-rdf-syntax-ns#" xmlns:sodipodi="http://sodipodi.sourceforge.net/DTD/sodipodi-0.dtd" xmlns:svg="http://www.w3.org/2000/svg"
	 xmlns="http://www.w3.org/2000/svg" xmlns:xlink="http://www.w3.org/1999/xlink" x="0px" y="0px" viewBox="0 0 245.7 85.6"
	 style="enable-background:new 0 0 245.7 85.6;" xml:space="preserve">
<style type="text/css">
	.st0{fill:#6C139A;}
</style>
<sodipodi:namedview  bordercolor="#666666" borderopacity="1.0" fit-margin-bottom="0.5" fit-margin-left="0.5" fit-margin-right="0.5" fit-margin-top="0.5" id="base" inkscape:current-layer="layer1" inkscape:cx="624.60355" inkscape:cy="-47.969136" inkscape:document-units="px" inkscape:pageopacity="0.0" inkscape:pageshadow="2" inkscape:window-height="1028" inkscape:window-maximized="1" inkscape:window-width="1920" inkscape:window-x="-8" inkscape:window-y="-8" inkscape:zoom="1" pagecolor="#ffffff" showgrid="false">
	<inkscape:grid  empspacing="5" enabled="true" id="grid2996" snapvisiblegridlinesonly="true" type="xygrid" visible="true">
		</inkscape:grid>
</sodipodi:namedview>
<g id="layer1" transform="translate(115.8125,-255.26321)" inkscape:groupmode="layer" inkscape:label="Layer 1">
	<g id="g3018" transform="matrix(1.2509979,0,0,1.2509979,28.943194,-124.83686)">
		<path id="path2998" inkscape:connector-curvature="0" sodipodi:nodetypes="cccccccccc" class="st0" d="M-89.5,360.5h-7.2v-16.7
			l-17.4-23.6h7.6l15,20.5l14.9-20.5h4l-16.9,23.1C-89.5,343.3-89.5,360.5-89.5,360.5z"/>
		<path id="path3000" inkscape:connector-curvature="0" class="st0" d="M-70.4,325.9l-15.1,29.7h2.9l4.8-9.6h13.6l4.6,9.6h5.6
			l-14.8-29.7H-70.4z M-71,332.4l5.6,11.7h-11.5L-71,332.4z"/>
		<path id="path3002" inkscape:connector-curvature="0" class="st0" d="M-51.8,358.4v-34h6.3v15.5h18.2v-15.5h6.3v34h-6.3v-16.4
			h-18.2v16.4H-51.8z"/>
		<path id="path3004" inkscape:connector-curvature="0" class="st0" d="M38.8,323.2c-12.1,0.2-20.1,8.8-20.1,18.1
			c0,12,11.7,18.2,20.7,18.2c9.2,0,20.6-6.1,20.6-18c0-12.6-11.1-18.3-20.6-18.3C39.2,323.2,39,323.2,38.8,323.2z M39.4,324.9
			c7.9,0,13.3,6,13.3,16.4c0,12.1-6.9,16.3-13.2,16.3c-8.5,0-13.4-6.4-13.4-16.5C25.9,331.7,30.8,324.9,39.4,324.9z M-0.9,327.1
			c-9.5,0-17.4,6.5-17.4,15.2c0,9.6,9.2,15.5,17.4,15.5c9.9,0,17.3-7,17.3-15.2C16.3,329.9,4,327.1-0.9,327.1z M-0.9,328.6
			c5.5,0,11.2,3.6,11.2,13.9c0,9.8-5.3,13.7-11.2,13.7c-6.4,0-11.1-3.9-11.1-13.7C-12,331.5-5.6,328.6-0.9,328.6z"/>
		<path id="path3014" inkscape:connector-curvature="0" sodipodi:nodetypes="cccccccccc" class="st0" d="M62.6,352l-0.3,5.3l5.1,0.5
			l0.7-5.6L62.6,352z M68.8,347.6l4.2-32.3l-8.5,2.7l-1.5,29.5L68.8,347.6z"/>
	</g>
</g>
</svg>
