<?xml version="1.0" encoding="utf-8"?>
<!-- Generator: Adobe Illustrator 22.0.1, SVG Export Plug-In . SVG Version: 6.00 Build 0)  -->
<svg version="1.1" id="Layer_1" xmlns="http://www.w3.org/2000/svg" xmlns:xlink="http://www.w3.org/1999/xlink" x="0px" y="0px"
	 viewBox="0 0 68 68" style="enable-background:new 0 0 68 68;" xml:space="preserve">
<style type="text/css">
	.st0{fill:#FFA800;}
</style>
<title>The Chatbot Never Sleeps</title>
<path class="st0" d="M34,1.6C16.1,1.6,1.6,16.1,1.6,34c0,17.9,14.5,32.4,32.4,32.4c17.9,0,32.4-14.5,32.4-32.4
	C66.4,16.1,51.9,1.6,34,1.6z M46.8,47.4c-0.6,0.5-1.3,0.8-2,0.8c-0.8,0-1.5-0.3-2.1-0.9L31.9,36c-0.5-0.5-0.8-1.2-0.8-2l0-18.9
	c0-1.6,1.3-2.9,2.9-2.9c1.6,0,2.9,1.3,2.9,2.9v17.7l10.1,10.5C48,44.5,48,46.3,46.8,47.4z"/>
</svg>
