<?xml version="1.0" encoding="utf-8"?>
<!-- Generator: Adobe Illustrator 22.0.1, SVG Export Plug-In . SVG Version: 6.00 Build 0)  -->
<svg version="1.1" id="Layer_1" xmlns="http://www.w3.org/2000/svg" xmlns:xlink="http://www.w3.org/1999/xlink" x="0px" y="0px"
	 viewBox="0 0 68 68" style="enable-background:new 0 0 68 68;" xml:space="preserve">
<style type="text/css">
	.st0{fill:#FFA800;}
</style>
<title>Call Centers</title>
<path class="st0" d="M61.1,37.3v-5.2c0-7.2-2.8-13.9-7.9-19c-5.1-5.1-11.8-7.9-19-7.9S20.2,8,15.1,13c-5.1,5.1-7.9,11.8-7.9,19v5.2
	c-2.7,0.2-4.9,2.4-4.9,5.1v8.1c0,2.8,2.3,5.1,5.1,5.1h3c0.2,3.1,2.8,5.5,5.9,5.5c3.3,0,5.9-2.7,5.9-5.9V37.7c0-3.3-2.7-5.9-5.9-5.9
	c-0.6,0-1.2,0.1-1.7,0.3c0-10.7,8.7-19.4,19.5-19.4S53.6,21.3,53.6,32c-0.5-0.2-1.1-0.3-1.7-0.3c-3.3,0-5.9,2.7-5.9,5.9v17.5
	c0,3.3,2.7,5.9,5.9,5.9c3.1,0,5.7-2.4,5.9-5.5h3c2.8,0,5.1-2.3,5.1-5.1v-8.1C65.9,39.7,63.8,37.4,61.1,37.3z"/>
</svg>
