<?xml version="1.0" encoding="utf-8"?>
<!-- Generator: Adobe Illustrator 22.0.1, SVG Export Plug-In . SVG Version: 6.00 Build 0)  -->
<svg version="1.1" id="Layer_1" xmlns="http://www.w3.org/2000/svg" xmlns:xlink="http://www.w3.org/1999/xlink" x="0px" y="0px"
	 viewBox="0 0 68 68" style="enable-background:new 0 0 68 68;" xml:space="preserve">
<style type="text/css">
	.st0{fill:#FFA800;}
	.st1{fill:none;}
</style>
<title>Cards &amp;amp; Tiles</title>
<path class="st0" d="M19,16.8h33V7.8c0-2-1.6-3.6-3.6-3.6H4.3c-1.7,0-3,1.4-3,3v39.3c0,2,1.6,3.6,3.6,3.6H15V20.8
	C15,18.6,16.8,16.8,19,16.8z"/>
<g>
	<path class="st1" d="M41.9,45.7c0.7,0,1.2-0.6,1.2-1.2s-0.6-1.2-1.2-1.2H27.2c-0.7,0-1.2,0.6-1.2,1.2s0.6,1.2,1.2,1.2H41.9z"/>
	<path class="st1" d="M27.2,31h14.7c0.7,0,1.2-0.6,1.2-1.2s-0.6-1.2-1.2-1.2H27.2c-0.7,0-1.2,0.6-1.2,1.2S26.5,31,27.2,31z"/>
	<path class="st1" d="M48.6,50.5H27.2c-0.7,0-1.2,0.6-1.2,1.2s0.6,1.2,1.2,1.2h21.4c0.7,0,1.2-0.6,1.2-1.2S49.3,50.5,48.6,50.5z"/>
	<path class="st1" d="M55.5,35.8H52H27.2c-0.7,0-1.2,0.6-1.2,1.2s0.6,1.2,1.2,1.2H52h3.5c0.7,0,1.2-0.6,1.2-1.2S56.2,35.8,55.5,35.8
		z"/>
	<path class="st0" d="M63.1,18.8H52H19c-1.1,0-2,1-2,2v29.4v9.9c0,1.4,1.2,2.6,2.6,2.6h43.5c1.4,0,2.6-1.2,2.6-2.6V21.3
		C65.7,19.9,64.5,18.8,63.1,18.8z M27.2,28.5h14.7c0.7,0,1.2,0.6,1.2,1.2S42.6,31,41.9,31H27.2c-0.7,0-1.2-0.6-1.2-1.2
		S26.5,28.5,27.2,28.5z M26,44.4c0-0.7,0.6-1.2,1.2-1.2h14.7c0.7,0,1.2,0.6,1.2,1.2s-0.6,1.2-1.2,1.2H27.2
		C26.5,45.7,26,45.1,26,44.4z M48.6,53H27.2c-0.7,0-1.2-0.6-1.2-1.2s0.6-1.2,1.2-1.2h21.4c0.7,0,1.2,0.6,1.2,1.2S49.3,53,48.6,53z
		 M55.5,38.2H52H27.2c-0.7,0-1.2-0.6-1.2-1.2s0.6-1.2,1.2-1.2H52h3.5c0.7,0,1.2,0.6,1.2,1.2S56.2,38.2,55.5,38.2z"/>
</g>
</svg>
