<?xml version="1.0" encoding="utf-8"?>
<!-- Generator: Adobe Illustrator 22.0.1, SVG Export Plug-In . SVG Version: 6.00 Build 0)  -->
<svg version="1.1" id="Layer_1" xmlns="http://www.w3.org/2000/svg" xmlns:xlink="http://www.w3.org/1999/xlink" x="0px" y="0px"
	 viewBox="0 0 35 35" style="enable-background:new 0 0 35 35;" xml:space="preserve">
<style type="text/css">
	.st0{fill:url(#SVGID_1_);}
</style>
<title>Header Icons</title>
<linearGradient id="SVGID_1_" gradientUnits="userSpaceOnUse" x1="17.5" y1="2.54" x2="17.5" y2="34.17" gradientTransform="matrix(1 0 0 -1 0 36)">
	<stop  offset="0" style="stop-color:#FB883C"/>
	<stop  offset="1" style="stop-color:#F8CA42"/>
</linearGradient>
<path class="st0" d="M27.5,10.6h-8.8V8.5c0.9-0.7,1-1.9,0.4-2.8s-1.9-1-2.8-0.4c-0.9,0.7-1,1.9-0.4,2.8c0.1,0.2,0.3,0.4,0.5,0.5v2
	H7.5c-1.2,0-2.2,1-2.2,2.1v12.4c0,1.2,1,2.1,2.2,2.1h8l2.7,2.6c1.1,0.5,1.1-0.5,1.1-0.5v-2.1h8.1c1.2,0,2.2-1,2.2-2.1V12.8
	C29.6,11.6,28.7,10.6,27.5,10.6z M17.5,5.9c0.5,0,1,0.5,1,1c-0.1,0.5-0.7,0.8-1.2,0.7c-0.3-0.1-0.6-0.4-0.7-0.7
	C16.5,6.4,16.9,6,17.5,5.9L17.5,5.9z M12.9,14.4c1.3,0,2.4,1.1,2.3,2.4s-1.1,2.4-2.4,2.3s-2.4-1.1-2.3-2.4c0,0,0,0,0,0
	C10.5,15.4,11.6,14.3,12.9,14.4z M24.4,22.6c0,0.3-0.2,0.5-0.5,0.5l0,0H11.1c-0.3,0.1-0.5-0.1-0.6-0.4c-0.1-0.3,0.1-0.5,0.4-0.6
	c0.1,0,0.1,0,0.2,0h12.7C24.2,22.1,24.4,22.3,24.4,22.6L24.4,22.6L24.4,22.6z M22.5,19.2c-1.3,0-2.3-1.1-2.3-2.4
	c0-1.3,1.1-2.3,2.4-2.3c1.3,0,2.3,1.1,2.3,2.4C24.9,18.2,23.8,19.2,22.5,19.2C22.5,19.2,22.5,19.2,22.5,19.2z"/>
</svg>
