<?xml version="1.0" encoding="utf-8"?>
<!-- Generator: Adobe Illustrator 22.0.1, SVG Export Plug-In . SVG Version: 6.00 Build 0)  -->
<svg version="1.1" id="Layer_1" xmlns="http://www.w3.org/2000/svg" xmlns:xlink="http://www.w3.org/1999/xlink" x="0px" y="0px"
	 viewBox="0 0 68 68" style="enable-background:new 0 0 68 68;" xml:space="preserve">
<style type="text/css">
	.st0{fill:#FFA800;}
</style>
<path class="st0" d="M61,67H7c-3.4,0-6-2.6-6-6V7c0-3.4,2.6-6,6-6h54c3.4,0,6,2.6,6,6v54C67,64.4,64.4,67,61,67z M7,7C7,7,7,7,7,7
	v54h54V7H7z"/>
<path class="st0" d="M18.1,45.7c-1.7,0-3-1.3-3-3v-29c0-1.7,1.3-3,3-3s3,1.3,3,3v29C21.1,44.4,19.8,45.7,18.1,45.7z"/>
<path class="st0" d="M18.1,57.3c-4.6,0-8.4-3.8-8.4-8.4s3.8-8.4,8.4-8.4s8.4,3.8,8.4,8.4S22.7,57.3,18.1,57.3z"/>
<path class="st0" d="M34,42.4c-4.6,0-8.4-3.8-8.4-8.4s3.8-8.4,8.4-8.4s8.4,3.8,8.4,8.4S38.6,42.4,34,42.4z"/>
<path class="st0" d="M49.9,27.5c-4.6,0-8.4-3.8-8.4-8.4s3.8-8.4,8.4-8.4s8.4,3.8,8.4,8.4S54.5,27.5,49.9,27.5z"/>
<path class="st0" d="M34,57.3c-1.7,0-3-1.3-3-3V39.4c0-1.7,1.3-3,3-3c1.7,0,3,1.3,3,3v14.9C37,56,35.7,57.3,34,57.3z"/>
<path class="st0" d="M34,31.6c-1.7,0-3-1.3-3-3V13.7c0-1.7,1.3-3,3-3c1.7,0,3,1.3,3,3v14.9C37,30.3,35.7,31.6,34,31.6z"/>
<path class="st0" d="M49.9,57.3c-1.7,0-3-1.3-3-3V24.8c0-1.7,1.3-3,3-3s3,1.3,3,3v29.5C52.9,56,51.6,57.3,49.9,57.3z"/>
</svg>
