<?xml version="1.0" encoding="utf-8"?>
<!-- Generator: Adobe Illustrator 22.0.1, SVG Export Plug-In . SVG Version: 6.00 Build 0)  -->
<svg version="1.1" id="Layer_1" xmlns="http://www.w3.org/2000/svg" xmlns:xlink="http://www.w3.org/1999/xlink" x="0px" y="0px"
	 viewBox="0 0 68 68" style="enable-background:new 0 0 68 68;" xml:space="preserve">
<style type="text/css">
	.st0{fill:#FFA800;}
</style>
<path class="st0" d="M64,23.8h-8.7L47,6.2c-1.1-2.2-3.8-3.1-6.1-2l-0.6,0.3C39.2,4.9,38.4,5.9,38,7c-0.4,1.1-0.3,2.4,0.2,3.5
	L44.6,24h-20L31,10.5c0.5-1.1,0.6-2.3,0.2-3.5C30.8,5.9,30,5,29,4.4l-0.6-0.4c0,0-0.1,0-0.1-0.1c-2.3-1.1-5-0.2-6.1,2.1l-8.5,18H4
	c-1.5,0-2.8,1.2-2.8,2.8v5.9c0,1.5,1.2,2.8,2.8,2.8h3.2l6,24.2c0.1,2.7,2.3,4.9,4.9,4.9H49c2.7,0,4.9-2.2,4.9-4.9l6-24.4h4
	c1.5,0,2.8-1.2,2.8-2.8v-6C66.8,25,65.5,23.8,64,23.8z M22,58.3c-0.2,0-0.4,0.1-0.6,0.1c-1.1,0-2.2-0.8-2.4-1.9l-4.3-18.4
	c-0.3-1.3,0.5-2.7,1.9-3c1.3-0.3,2.7,0.5,3,1.9l4.3,18.4C24.1,56.7,23.3,58,22,58.3z M29.6,58.3c-0.1,0-0.1,0-0.2,0
	c-1.3,0-2.4-1-2.5-2.3l-1.3-18c-0.1-1.4,0.9-2.6,2.3-2.7c1.4-0.1,2.6,0.9,2.7,2.3l1.3,18C32,57,31,58.2,29.6,58.3z M40,56.1
	c-0.1,1.3-1.2,2.3-2.5,2.3c-0.1,0-0.1,0-0.2,0c-1.4-0.1-2.4-1.3-2.3-2.7l1.6-18.4c0.1-1.4,1.3-2.4,2.7-2.3c1.4,0.1,2.4,1.3,2.3,2.7
	L40,56.1z M52.8,38.1l-4.6,18.4c-0.3,1.1-1.3,1.9-2.4,1.9c-0.2,0-0.4,0-0.6-0.1c-1.3-0.3-2.2-1.7-1.8-3L48,36.9
	c0.3-1.3,1.7-2.2,3-1.8C52.3,35.4,53.2,36.8,52.8,38.1z"/>
</svg>
