<?xml version="1.0" encoding="utf-8"?>
<!-- Generator: Adobe Illustrator 22.0.1, SVG Export Plug-In . SVG Version: 6.00 Build 0)  -->
<svg version="1.1" id="Layer_1" xmlns="http://www.w3.org/2000/svg" xmlns:xlink="http://www.w3.org/1999/xlink" x="0px" y="0px"
	 viewBox="0 0 68 68" style="enable-background:new 0 0 68 68;" xml:space="preserve">
<style type="text/css">
	.st0{fill:#FFA800;}
	.st1{fill:none;}
</style>
<title>file shareing</title>
<path class="st0" d="M14.7,10.5h24l0-1.9c0,0,0,0,0,0V4.2c0-1.6-1.3-3-3-3h-30c-1.6,0-2.9,1.3-2.9,3v50.1c0,1.6,1.3,3,2.9,3h5.7
	V13.7C11.5,11.9,12.9,10.5,14.7,10.5z M38,8.6L38,8.6L38,8.6z"/>
<path class="st0" d="M44.8,12.5h-6.1h-24c-0.7,0-1.2,0.5-1.2,1.2v43.5v6.5c0,0.7,0.5,1.2,1.2,1.2h30c0.7,0,1.2-0.5,1.2-1.2V42l0-0.2
	h-7.2h-2.1l2.1,2.2l0.1,0.1c0.5,0.6,0.8,1.4,0.8,2.2c0,0.8-0.4,1.5-0.9,2.1c0,0,0,0,0,0c-0.6,0.5-1.3,0.8-2,0.8
	c-0.8,0-1.6-0.3-2.2-1l-6.9-7.4c-0.1-0.1-0.1-0.1-0.2-0.2c-0.1-0.1-0.1-0.1-0.1-0.2c-0.1-0.1-0.1-0.2-0.1-0.3c0-0.1-0.1-0.2-0.1-0.3
	c0-0.1,0-0.2-0.1-0.2c0-0.1-0.1-0.2-0.1-0.3c0-0.1,0-0.1,0-0.2c0-0.1,0-0.3,0-0.4c0-0.1,0-0.3,0-0.4c0-0.1,0-0.1,0-0.2
	c0-0.1,0.1-0.2,0.1-0.3c0-0.1,0-0.2,0.1-0.2c0-0.1,0.1-0.2,0.1-0.2c0-0.1,0.1-0.2,0.1-0.3c0-0.1,0.1-0.1,0.2-0.2
	c0.1-0.1,0.1-0.1,0.2-0.2l6.9-7.4c1.1-1.2,3-1.3,4.2-0.1c0,0,0,0.1,0.1,0.1c0.5,0.5,0.9,1.2,0.9,2c0,0.8-0.3,1.6-0.8,2.2l-0.1,0.1
	l-2.1,2.3h2.1H46l0-0.8V13.7C46,13,45.5,12.5,44.8,12.5z"/>
<polygon class="st1" points="36.6,46.2 36.6,47.7 36.6,46.2 "/>
<polygon class="st1" points="57.3,46.2 57.3,46.2 62.9,40.3 63.5,39.7 62.9,40.3 "/>
<path class="st0" d="M65.7,38.3C65.7,38.3,65.7,38.3,65.7,38.3c-0.1-0.2-0.2-0.4-0.3-0.5c0,0,0,0,0,0l-6.9-7.4
	c-0.6-0.6-1.5-0.6-2.1-0.1c-0.6,0.6-0.6,1.5-0.1,2.1l4.5,4.9H48h-1h-1h-7.3h-5.6l4.5-4.9c0.6-0.6,0.5-1.6-0.1-2.1
	c-0.6-0.6-1.6-0.5-2.1,0.1l-6.9,7.4c0,0,0,0,0,0c-0.1,0.1-0.2,0.3-0.3,0.4c0,0,0,0,0,0c-0.1,0.2-0.1,0.3-0.1,0.5c0,0,0,0,0,0
	c0,0.2,0,0.3,0.1,0.5c0,0,0,0,0,0c0.1,0.2,0.2,0.3,0.3,0.4c0,0,0,0,0,0l6.9,7.4c0.3,0.3,0.7,0.5,1.1,0.5v-1.5h0l0,1.5
	c0.4,0,0.7-0.1,1-0.4c0.6-0.6,0.6-1.5,0.1-2.1l-4.5-4.9h5.5h7.3h1h1h12.9l-4.6,4.9c-0.6,0.6-0.5,1.6,0.1,2.1c0.3,0.3,0.7,0.4,1,0.4
	c0.4,0,0.8-0.2,1.1-0.5l7-7.4c0,0,0,0,0,0c0.1-0.1,0.2-0.3,0.3-0.4c0,0,0,0,0,0c0.1-0.2,0.1-0.3,0.1-0.5c0,0,0,0,0,0c0,0,0,0,0,0
	C65.8,38.6,65.7,38.5,65.7,38.3z M62.9,40.3l-5.6,5.9c0,0,0,0,0,0L62.9,40.3l0.6-0.6L62.9,40.3z"/>
</svg>
