<?xml version="1.0" encoding="utf-8"?>
<!-- Generator: Adobe Illustrator 22.0.1, SVG Export Plug-In . SVG Version: 6.00 Build 0)  -->
<svg version="1.1" id="Layer_1" xmlns="http://www.w3.org/2000/svg" xmlns:xlink="http://www.w3.org/1999/xlink" x="0px" y="0px"
	 viewBox="0 0 68 68" style="enable-background:new 0 0 68 68;" xml:space="preserve">
<style type="text/css">
	.st0{fill:#FFA800;}
</style>
<g>
	<path class="st0" d="M40.6,42.2c0-2.3-1.5-4.2-3.6-4.9v9.8C39.1,46.4,40.6,44.5,40.6,42.2z"/>
	<path class="st0" d="M27.4,25.8c0,2.3,1.5,4.2,3.6,4.9v-9.8C28.9,21.6,27.4,23.5,27.4,25.8z"/>
	<path class="st0" d="M34,2.2C16.5,2.2,2.2,16.5,2.2,34S16.5,65.8,34,65.8S65.8,51.5,65.8,34S51.5,2.2,34,2.2z M46.6,42.2
		c0,5.6-4.2,10.3-9.6,11.1v2.3c0,1.7-1.3,3-3,3c-1.7,0-3-1.3-3-3v-2.3c-5.4-0.8-9.6-5.4-9.6-11.1c0-1.7,1.3-3,3-3s3,1.3,3,3
		c0,2.3,1.5,4.2,3.6,4.9V36.9c-5.4-0.8-9.6-5.4-9.6-11.1c0-5.6,4.2-10.3,9.6-11.1v-2.3c0-1.7,1.3-3,3-3c1.7,0,3,1.3,3,3v2.3
		c5.4,0.8,9.6,5.4,9.6,11.1c0,1.7-1.3,3-3,3s-3-1.3-3-3c0-2.3-1.5-4.2-3.6-4.9v10.2C42.4,31.9,46.6,36.6,46.6,42.2z"/>
</g>
</svg>
