<?xml version="1.0" encoding="utf-8"?>
<!-- Generator: Adobe Illustrator 22.0.1, SVG Export Plug-In . SVG Version: 6.00 Build 0)  -->
<svg version="1.1" id="Layer_1" xmlns="http://www.w3.org/2000/svg" xmlns:xlink="http://www.w3.org/1999/xlink" x="0px" y="0px"
	 viewBox="0 0 68 68" style="enable-background:new 0 0 68 68;" xml:space="preserve">
<style type="text/css">
	.st0{fill:none;}
	.st1{fill:#FFA800;}
	.st2{fill:#FFFFFF;}
</style>
<title>Healthcare</title>
<g>
	<g>
		<rect x="22.9" y="12.6" class="st0" width="22.2" height="1.8"/>
		<path class="st1" d="M59.9,14.3H51V12c0-3-2.5-5.5-5.5-5.5H22.4c-3,0-5.5,2.5-5.5,5.5v2.3H8.1c-2.6,0-4.6,2.1-4.6,4.6v35.6
			c0,2.6,2.1,4.6,4.6,4.6h51.7c0.1,0,0.2,0,0.2,0c1.1,0,2.1-0.4,3-1.2c1-0.9,1.5-2.2,1.5-3.5V19C64.6,16.4,62.5,14.3,59.9,14.3z
			 M22.9,12.6H45v1.8H22.9V12.6z"/>
	</g>
	<g>
		<g>
			<path class="st2" d="M36.2,47.3h-4.6c-1.1,0-1.9-0.9-1.9-1.9v-4h-4c-1.1,0-1.9-0.9-1.9-1.9v-4.6c0-1.1,0.9-1.9,1.9-1.9h4v-4
				c0-1.1,0.9-1.9,1.9-1.9h4.6c1.1,0,1.9,0.9,1.9,1.9v4h4c1.1,0,1.9,0.8,1.9,2v4.6c0,1.1-0.9,1.9-1.9,1.9h-4v3.9
				C38.2,46.5,37.3,47.3,36.2,47.3z"/>
		</g>
	</g>
</g>
</svg>
