<?xml version="1.0" encoding="utf-8"?>
<!-- Generator: Adobe Illustrator 22.0.1, SVG Export Plug-In . SVG Version: 6.00 Build 0)  -->
<svg version="1.1" id="Layer_1" xmlns="http://www.w3.org/2000/svg" xmlns:xlink="http://www.w3.org/1999/xlink" x="0px" y="0px"
	 viewBox="0 0 68 68" style="enable-background:new 0 0 68 68;" xml:space="preserve">
<style type="text/css">
	.st0{fill:#FFA800;}
</style>
<path class="st0" d="M8.5,36.6c-1.4,0-2.6-0.9-2.9-2.3c-1.4-5.8-0.4-11.8,2.7-16.9c3.1-5,8-8.5,13.7-9.8C34,4.9,45.9,12.3,48.7,24.1
	c0.2,0.8,0.1,1.6-0.4,2.3s-1.1,1.2-1.9,1.3L9.2,36.5C9,36.6,8.8,36.6,8.5,36.6z"/>
<path class="st0" d="M35.3,66.1c-1.4,0-2.6-0.9-2.9-2.3l-7.9-33.2c-0.4-1.6,0.6-3.2,2.2-3.6c1.6-0.4,3.2,0.6,3.6,2.2l7.9,33.2
	c0.4,1.6-0.6,3.2-2.2,3.6C35.7,66.1,35.5,66.1,35.3,66.1z"/>
<path class="st0" d="M22.6,12.9c-1.3,0-2.6-0.9-2.9-2.3l-1.3-5C18.1,4,19,2.4,20.6,2c1.6-0.4,3.2,0.6,3.6,2.2l1.3,5
	c0.4,1.6-0.6,3.2-2.2,3.6C23.1,12.9,22.9,12.9,22.6,12.9z"/>
<path class="st0" d="M47.1,55.4c-0.1,0-0.2,0-0.3,0l-32.9,0c0,0-0.1,0-0.1,0c-3.5-0.2-6.4-3.1-6.6-6.6c-0.1-1.9,0.6-3.6,1.8-5
	c1.2-1.4,3-2.2,4.8-2.2c0,0,0.1,0,0.1,0l29.3,0l7-12c1.9-3.4,6.1-4.5,9.5-2.6c0,0,0.1,0,0.1,0.1c1.6,1,2.8,2.6,3.2,4.5
	c0.4,1.8,0.1,3.6-0.9,5.1L53,52C51.8,54.1,49.5,55.4,47.1,55.4z"/>
<path class="st0" d="M12.8,64.8c-0.4,0-0.9-0.1-1.3-0.3c-1.5-0.7-2.2-2.5-1.5-4l4.4-9.4c0.7-1.5,2.5-2.2,4-1.5
	c1.5,0.7,2.2,2.5,1.5,4l-4.4,9.4C15,64.2,13.9,64.8,12.8,64.8z"/>
<path class="st0" d="M53.5,64.8c-1.1,0-2.2-0.7-2.7-1.8l-4.3-9.4c-0.7-1.5,0-3.3,1.5-4c1.5-0.7,3.3,0,4,1.5l4.3,9.4
	c0.7,1.5,0,3.3-1.5,4C54.4,64.7,54,64.8,53.5,64.8z"/>
</svg>
