<?xml version="1.0" encoding="utf-8"?>
<!-- Generator: Adobe Illustrator 22.0.1, SVG Export Plug-In . SVG Version: 6.00 Build 0)  -->
<svg version="1.1" id="Layer_1" xmlns="http://www.w3.org/2000/svg" xmlns:xlink="http://www.w3.org/1999/xlink" x="0px" y="0px"
	 viewBox="0 0 68 68" style="enable-background:new 0 0 68 68;" xml:space="preserve">
<style type="text/css">
	.st0{fill:#FFA800;}
</style>
<g>
	<path class="st0" d="M37.3,32.8h19.9V11.3c0-2.2-1.8-4.1-4.1-4.1H7.3c-2.2,0-4.1,1.8-4.1,4.1v40.8c0,2.2,1.8,4.1,4.1,4.1h26V36.8
		C33.2,34.6,35,32.8,37.3,32.8z M15.2,18.9h15.5c0.7,0,1.4,0.6,1.4,1.4s-0.6,1.4-1.4,1.4H15.2c-0.7,0-1.4-0.6-1.4-1.4
		S14.5,18.9,15.2,18.9z M15.2,26.6h29.9c0.7,0,1.4,0.6,1.4,1.4c0,0.7-0.6,1.4-1.4,1.4H15.2c-0.7,0-1.4-0.6-1.4-1.4
		C13.9,27.2,14.5,26.6,15.2,26.6z M27.8,44.8H15.2c-0.7,0-1.4-0.6-1.4-1.4s0.6-1.4,1.4-1.4h12.6c0.7,0,1.4,0.6,1.4,1.4
		S28.6,44.8,27.8,44.8z M28,37.1H15.2c-0.7,0-1.4-0.6-1.4-1.4s0.6-1.4,1.4-1.4H28c0.7,0,1.4,0.6,1.4,1.4S28.8,37.1,28,37.1z"/>
	<path class="st0" d="M60.7,36h-3.5H41c-2.5,0-4.5,2-4.5,4.5v15.7V63l4.8-4.8h19.4c2.5,0,4.5-2,4.5-4.5V40.5
		C65.2,38,63.2,36,60.7,36z"/>
</g>
</svg>
