<?xml version="1.0" encoding="utf-8"?>
<!-- Generator: Adobe Illustrator 22.0.1, SVG Export Plug-In . SVG Version: 6.00 Build 0)  -->
<svg version="1.1" id="Layer_1" xmlns="http://www.w3.org/2000/svg" xmlns:xlink="http://www.w3.org/1999/xlink" x="0px" y="0px"
	 viewBox="0 0 68 68" style="enable-background:new 0 0 68 68;" xml:space="preserve">
<style type="text/css">
	.st0{fill:#FFA800;}
</style>
<path class="st0" d="M51.2,38.1h-3.5v0.5c0.1,2.2-0.2,4.3-0.8,6.3l0,0c-0.1,0.3-0.3,0.6-0.5,1V46c-0.9,0-1.5,0.6-1.7,1.5
	c-0.1,0.4-0.2,0.9-0.1,1.4c0.2,1.2-0.4,2-1.9,2.6C42,51.8,41.5,52,41.3,53c-0.1,0.5-0.3,1-0.4,1.5c-0.1,0.2-0.1,0.4-0.2,0.5
	c0,0,0,0-0.1,0.1c-3.1,2.8-6.8,4.5-10.7,5.2C24.2,61.1,19,60,14.2,56.8c-0.3-0.2-0.6-0.4-0.9-0.6L13,56c-0.3-0.2-0.3-0.2-0.3-0.4
	c0-0.3-0.2-0.6-0.5-0.9c-0.5-0.4-0.4-0.5-0.2-0.8c0.8-1.1,1-2,0.5-3.2c-0.2-0.4-0.1-1,0-1.6c0-0.2,0-0.4,0.1-0.6
	c0.2-1.7-0.8-3.1-2.4-3.5c-0.3-0.1-0.6,0-0.9,0.1c-0.5,0.1-0.5,0.1-0.8-0.2c-0.2-0.3-0.4-0.5-0.8-0.8c-0.2-0.2-0.3-0.4-0.3-0.6
	c0-1-0.5-1.6-1.5-1.6c-0.6,0-0.9-0.3-0.9-0.7c-0.1-1.1-0.2-2.4-0.2-3.8c0.1-1.6,0.4-3.3,1-5.2C6,31.6,6.4,31.2,7,31
	c0.8-0.2,1.5-0.6,1.8-1.5c0,0,0-0.1,0.4-0.1s0.9-0.1,1.3-0.1c0.8-0.1,1.3-0.5,1.4-1.4v-0.2c0-0.3,0.1-0.5,0.1-0.8s0.1-0.4,0.4-0.4
	c0.3-0.1,0.5-0.1,0.8-0.2s0.6-0.2,0.9-0.2c0.2,0,0.3,0,0.6,0c0.1,0,0.3,0,0.4,0h0.4l0.1-0.4c0.2-0.7,0-1.5-0.5-2.2
	c-0.2-0.3-0.2-0.4,0-0.6c0.5-0.7,0.2-1.4,0-1.8L15,20.9c0-0.1-0.1-0.2-0.1-0.2c0.1,0,0.1-0.1,0.2-0.1c2.6-1.6,5.5-2.6,8.5-2.9
	c0.6-0.1,1.3-0.1,2.1-0.1h0.5V14h-0.5c-5.5,0.1-10.7,2-15.2,5.7c-4.7,3.8-7.7,8.8-8.7,14.7C0.4,41.5,2,48.1,6.2,53.9
	c3.8,5.2,9,8.4,15.4,9.6c0.8,0.2,1.7,0.2,2.5,0.3c0.4,0,0.8,0.1,1.2,0.1c0.1,0,0.2,0,0.4,0.1H26h0.8H27c0.1,0,0.2,0,0.3-0.1
	c9.2-0.5,16.3-4.9,21-12.9c1.6-2.8,2.6-5.9,2.9-9.4c0.1-0.9,0.1-1.9,0.1-3.1L51.2,38.1z"/>
<path class="st0" d="M41.3,40.6c-0.1-0.2-0.4-0.5-1-0.6c-0.2,0-0.5,0-0.7,0s-0.4,0-0.6,0c-0.4,0-0.8-0.1-1.2-0.2
	c-0.1,0-0.2-0.1-0.3-0.2l-0.4-0.4l-4.5,4.5c-1,1-2.6,1.4-4,0.8c-1.4-0.6-2.3-1.9-2.3-3.4V30.5L26,30.4c-0.4-0.1-0.7-0.2-1.1-0.1
	c-0.3,0-0.6,0-0.8-0.1c0.1,0,0.2-0.1,0.4,0c0.3,0,0.6-0.1,0.9-0.2c0.1,0,0.3-0.1,0.4-0.1l0.6-0.1V19.5l-0.9,1
	c-0.6,0.7-0.8,1.4-0.6,2.1c0.1,0.6,0.1,1.1-0.2,1.6c-0.2,0.4-0.4,0.9-0.7,1.4l-0.1,0.1l0,0c-0.5-0.4-0.8-0.6-0.9-1.1
	c0-0.4-0.2-0.7-0.4-1c-0.1-0.1-0.1-0.2-0.2-0.3l-0.2-0.4L21.8,23c-1.9,0.6-3.1,2-3.1,3.7v0.6l0.7-0.1c0.1,0,0.2,0,0.3-0.1
	c0.2-0.1,0.3-0.1,0.5,0.1s0.4,0.3,0.6,0.4c-0.3,0.4-0.7,0.5-1.3,0.4c-0.3-0.1-0.6-0.1-0.9,0.1s-0.3,0.5-0.3,0.8v0.6
	c0,0.4-0.1,0.9-0.1,1.3c0,0.3,0.2,0.7,0.5,0.8c0.2,0.1,0.3,0.1,0.4,0.2h0.1c0,0,0.1,0.1,0.2,0.1L19.3,32c-0.1,0.1-0.3,0.1-0.6,0.2
	c-0.7,0.1-1.1,0.6-1.3,1c-0.2,0.4-0.5,0.7-0.8,1c-0.5,0.4-0.6,1-0.7,1.4c0,0.1,0,0.2-0.1,0.4c0,0.2-0.1,0.4-0.2,0.5v0.1v0.1
	c-0.1,0.1-0.1,0.3-0.1,0.5v0.2c0,0.8,0,1.6,0,2.3c0,0.3,0,0.5-0.1,0.8c-0.2,0.3-0.2,0.8,0,1.2c0.3,0.7,1,1.2,1.8,1.4h0.2
	c0.9,0.2,1.8,0.4,2.7,0.5c0.6,0.1,1.3-0.1,1.9-0.2c1.1-0.3,1.4-0.2,1.9,0.8c0.1,0.3,0.2,0.5,0.3,0.8c0.1,0.3,0.2,0.6,0.4,0.9
	c0.2,0.4,0.5,1,0.9,1.3c0.9,0.8,1.2,1.8,1,3.1c-0.2,0.9-0.1,1.7,0.2,2.4c0.1,0.3,0.2,0.7,0.2,1.1c0,0.2,0,0.4,0.1,0.6
	c0.2,0.9,0.6,1.7,1.3,2.4c0.2,0.2,0.4,0.3,0.6,0.4c0.1,0.1,0.2,0.1,0.3,0.2L30,58l0.1-0.7c0.1-0.7,0.6-0.9,1.4-1
	c0.2,0,0.4-0.1,0.5-0.1c0.9-0.2,1.6-0.7,2.2-1.5l0.2-0.3c0.3-0.5,0.6-1,0.9-1.5c0,0,0,0,0,0.1c0.4,0.8,0.9,1.1,1.8,1
	c0.2,0,0.3-0.1,0.5-0.2c0.1-0.1,0.2-0.1,0.3-0.2c0.2-0.1,0.3-0.2,0.4-0.2c0.5-0.1,0.9-0.4,1-0.9c0.1-0.6,0.3-1.2,0.4-1.8l0.1-0.4
	c0.1-0.3,0-0.5-0.1-0.7c-0.2-0.3-0.6-0.3-0.7-0.3c-0.1,0-0.3,0-0.4,0c-0.3,0-0.6,0-0.9,0c-0.5-0.1-0.5-0.1-0.6-0.6
	c0-0.9,0.1-1.3,0.7-1.6c0.4-0.2,0.8-0.6,1-0.9c0.4-0.7,0.9-1.3,1.7-1.9c0.3-0.2,0.6-0.6,0.8-0.9c0.2-0.3,0.1-0.8-0.1-1.2
	c0,0,0,0,0-0.1C41.5,41.2,41.4,40.8,41.3,40.6z"/>
<path class="st0" d="M60.8,6.5H32.9c-2.3,0-4.3,1.9-4.3,4.3v29.2c0,1,0.6,1.9,1.5,2.3c0.3,0.1,0.7,0.2,0.9,0.2
	c0.7,0,1.3-0.3,1.8-0.7l5.6-5.6h22.4c2.3,0,4.3-1.9,4.3-5.2V9.8C65.1,8.4,63.1,6.5,60.8,6.5z M37.9,11.9h9.3c1.4,0,2.5,1.1,2.5,2.5
	S48.6,17,47.2,17h-9.3c-1.4,0-2.5-1.1-2.5-2.5S36.5,11.9,37.9,11.9z M55.8,32h-18c-1.4,0-2.5-1.1-2.5-2.5c0-1.4,1.1-2.5,2.5-2.5
	h18.1c1.4,0,2.5,1.1,2.5,2.5C58.4,30.8,57.2,32,55.8,32z M55.8,24.4h-18c-1.4,0-2.5-1.1-2.5-2.5c0-1.4,1.1-2.5,2.5-2.5h18.1
	c1.4,0,2.5,1.1,2.5,2.5C58.4,23.3,57.2,24.4,55.8,24.4z"/>
</svg>
