<?xml version="1.0" encoding="utf-8"?>
<!-- Generator: Adobe Illustrator 22.0.1, SVG Export Plug-In . SVG Version: 6.00 Build 0)  -->
<svg version="1.1" id="Layer_1" xmlns="http://www.w3.org/2000/svg" xmlns:xlink="http://www.w3.org/1999/xlink" x="0px" y="0px"
	 viewBox="0 0 68 68" style="enable-background:new 0 0 68 68;" xml:space="preserve">
<style type="text/css">
	.st0{fill:#FFA800;}
</style>
<title>Multiple Integrations</title>
<g>
	<path class="st0" d="M36.2,63.8c-0.7,0-1.4,0-2.1-0.1c-1.3-0.1-2.6-0.2-3.9-0.4c-1.6-0.3-2.8-1.8-2.5-3.5c0.3-1.6,1.8-2.8,3.5-2.5
		c1.1,0.2,2.2,0.3,3.4,0.4c6.6,0.4,13-1.7,18-6.1c5-4.4,8-10.5,8.4-17.1l0-0.3c0.1-0.4,0.1-0.7,0.1-1.3C60.9,19.1,49.7,7.9,36,7.9
		c-13.7,0-24.9,11.2-24.9,24.9c0,0.8,0,1.5,0.1,2.1c0.2,1.7-1,3.2-2.6,3.4c-1.7,0.2-3.2-1-3.4-2.6c-0.1-1-0.1-2-0.1-2.9
		c0-17.1,13.9-31,31-31c17.1,0,31,13.9,31,31c0,0.6,0,1.3-0.1,2.1c-0.5,8.2-4.2,15.7-10.4,21.2C50.8,61.1,43.7,63.8,36.2,63.8z"/>
</g>
<g>
	<path class="st0" d="M14.3,65.9c-3.4,0-6.5-1.3-8.9-3.7c-2.4-2.4-3.7-5.5-3.7-8.9c0-3.4,1.3-6.5,3.7-8.9l9.7-9.6
		c4.9-4.9,12.8-4.9,17.7,0c0.3,0.3,0.6,0.6,1,1.1c0.9,1.4,0.6,3.3-0.8,4.2c-1.4,0.9-3.3,0.6-4.2-0.8c-0.1-0.1-0.1-0.1-0.2-0.2
		c-2.5-2.5-6.6-2.5-9.2,0l-9.7,9.6c-1.2,1.2-1.9,2.8-1.9,4.6c0,1.7,0.7,3.4,1.9,4.6c1.2,1.2,2.8,1.9,4.6,1.9c1.7,0,3.4-0.7,4.6-1.9
		l7.4-7.4c1.2-1.2,3.1-1.2,4.3,0c1.2,1.2,1.2,3.1,0,4.3l-7.4,7.4C20.8,64.6,17.7,65.9,14.3,65.9z"/>
</g>
<g>
	<path class="st0" d="M31.8,48.5c-3.4,0-6.5-1.3-8.9-3.7c-0.3-0.3-0.6-0.6-1-1.1c-0.9-1.4-0.6-3.3,0.8-4.2c1.4-0.9,3.3-0.6,4.2,0.8
		c0,0.1,0.1,0.1,0.2,0.2c1.2,1.2,2.8,1.9,4.6,1.9c1.7,0,3.4-0.7,4.6-1.9l9.7-9.6c2.5-2.5,2.5-6.6,0-9.2c-2.5-2.5-6.6-2.5-9.2,0
		l-7.4,7.4c-1.2,1.2-3.1,1.2-4.3,0c-1.2-1.2-1.2-3.1,0-4.3l7.4-7.4c4.9-4.9,12.8-4.9,17.7,0c4.9,4.9,4.9,12.8,0,17.7l-9.7,9.6
		C38.3,47.2,35.2,48.5,31.8,48.5z"/>
</g>
</svg>
