<?xml version="1.0" encoding="utf-8"?>
<!-- Generator: Adobe Illustrator 22.0.1, SVG Export Plug-In . SVG Version: 6.00 Build 0)  -->
<svg version="1.1" id="Layer_1" xmlns="http://www.w3.org/2000/svg" xmlns:xlink="http://www.w3.org/1999/xlink" x="0px" y="0px"
	 viewBox="0 0 68 68" style="enable-background:new 0 0 68 68;" xml:space="preserve">
<style type="text/css">
	.st0{fill:#FFA800;}
</style>
<path class="st0" d="M61.5,0.4h-55C2.9,0.4,0,3.3,0,6.9v57.7c0,1.2,0.7,2.3,1.9,2.8c0.4,0.2,0.8,0.2,1.1,0.2c0.8,0,1.5-0.3,2.1-0.9
	l11.5-11.5h44.9c3.6,0,6.5-2.9,6.5-6.5V6.9C68,3.3,65.1,0.4,61.5,0.4z M16.2,14.9h18.5c1.7,0,3,1.3,3,3s-1.3,3-3,3H16.2
	c-1.7,0-3-1.3-3-3S14.5,14.9,16.2,14.9z M51.8,39.4H16.2c-1.7,0-3-1.3-3-3s1.3-3,3-3h35.6c1.7,0,3,1.3,3,3S53.5,39.4,51.8,39.4z
	 M51.8,30.1H16.2c-1.7,0-3-1.3-3-3s1.3-3,3-3h35.6c1.7,0,3,1.3,3,3S53.5,30.1,51.8,30.1z"/>
</svg>
