<?xml version="1.0" encoding="utf-8"?>
<!-- Generator: Adobe Illustrator 22.0.1, SVG Export Plug-In . SVG Version: 6.00 Build 0)  -->
<svg version="1.1" id="Layer_1" xmlns="http://www.w3.org/2000/svg" xmlns:xlink="http://www.w3.org/1999/xlink" x="0px" y="0px"
	 viewBox="0 0 68 68" style="enable-background:new 0 0 68 68;" xml:space="preserve">
<style type="text/css">
	.st0{fill:#FFA800;}
</style>
<title>News Media</title>
<g>
	<path class="st0" d="M56.1,57H12c-4.4,0-8-3.6-8-8V20.2c0-4.4,3.6-8,8-8h44.1c4.4,0,8,3.6,8,8V49C64.1,53.4,60.5,57,56.1,57z
		 M12,18.2c-1.1,0-2,0.9-2,2V49c0,1.1,0.9,2,2,2h44.1c1.1,0,2-0.9,2-2V20.2c0-1.1-0.9-2-2-2H12z"/>
</g>
<g>
	<rect x="31" y="56.9" class="st0" width="6" height="4.9"/>
</g>
<g>
	<path class="st0" d="M49.4,65.8H18.6c-1.7,0-3-1.3-3-3s1.3-3,3-3h30.8c1.7,0,3,1.3,3,3S51.1,65.8,49.4,65.8z"/>
</g>
<g>
	<path class="st0" d="M34,18.1c-0.8,0-1.6-0.3-2.1-0.9l-7.7-7.7c-1.2-1.2-1.2-3.1,0-4.2c1.2-1.2,3.1-1.2,4.2,0l5.5,5.5l8.2-9
		c1.1-1.2,3-1.3,4.2-0.2c1.2,1.1,1.3,3,0.2,4.2L36.2,17.1C35.7,17.7,34.9,18,34,18.1C34.1,18.1,34,18.1,34,18.1z"/>
</g>
</svg>
