<?xml version="1.0" encoding="utf-8"?>
<!-- Generator: Adobe Illustrator 22.0.1, SVG Export Plug-In . SVG Version: 6.00 Build 0)  -->
<svg version="1.1" id="Layer_1" xmlns="http://www.w3.org/2000/svg" xmlns:xlink="http://www.w3.org/1999/xlink" x="0px" y="0px"
	 viewBox="0 0 68 68" style="enable-background:new 0 0 68 68;" xml:space="preserve">
<style type="text/css">
	.st0{fill:#FFA800;}
</style>
<title>No App or Website</title>
<g>
	<g>
		<path class="st0" d="M56.2,62.8H27.4c-1.9,0-3.6-1.5-3.9-3.4c0-0.1,0-0.2,0-0.4V8.9c0-2.1,1.7-3.8,3.8-3.8h28.8
			c2.1,0,3.8,1.7,3.8,3.8v49.9c0,1.7-1.1,3.2-2.6,3.6C57,62.7,56.6,62.8,56.2,62.8z M28.5,57.8h26.4V10.1H28.5V57.8z M56.2,57.7
			C56.2,57.7,56.2,57.7,56.2,57.7C56.2,57.7,56.2,57.7,56.2,57.7z"/>
	</g>
	<g>
		<path class="st0" d="M41.8,55.8c-2.3,0-4.1-1.8-4.1-4.1s1.8-4.1,4.1-4.1s4.1,1.8,4.1,4.1S44.1,55.8,41.8,55.8z M41.8,50.8
			c-0.5,0-0.9,0.4-0.9,0.9s0.4,0.9,0.9,0.9s0.9-0.4,0.9-0.9S42.3,50.8,41.8,50.8z"/>
	</g>
	<g>
		<path class="st0" d="M44.3,16.7h-6.2c-1.4,0-2.5-1.1-2.5-2.5s1.1-2.5,2.5-2.5h6.2c1.4,0,2.5,1.1,2.5,2.5S45.7,16.7,44.3,16.7z"/>
	</g>
	<g>
		<path class="st0" d="M20.8,67.1c-0.5,0-0.9-0.1-1.4-0.4c-1.2-0.7-1.5-2.3-0.7-3.5L58.4,1.8c0.8-1.2,2.3-1.5,3.5-0.7
			c1.2,0.7,1.5,2.3,0.7,3.5L23,65.9C22.5,66.7,21.7,67.1,20.8,67.1z"/>
	</g>
	<g>
		<g>
			<path class="st0" d="M21.1,54.4c-3.4,0-6.5-1-9.4-2.9c-0.2-0.2-0.5-0.3-0.7-0.5l-0.2-0.2c-0.2-0.2-0.2-0.2-0.2-0.3
				c0-0.2-0.2-0.5-0.4-0.7c-0.4-0.3-0.3-0.4-0.2-0.6c0.6-0.9,0.8-1.6,0.4-2.5c-0.2-0.3-0.1-0.8,0-1.3c0-0.2,0-0.3,0.1-0.5
				c0.2-1.3-0.6-2.4-1.9-2.8c-0.2-0.1-0.5,0-0.7,0.1c-0.4,0.1-0.4,0.1-0.6-0.2c-0.2-0.2-0.3-0.4-0.6-0.6c-0.2-0.2-0.2-0.3-0.2-0.5
				c0-0.8-0.4-1.3-1.2-1.3c-0.5,0-0.7-0.2-0.7-0.6c-0.1-0.9-0.2-1.9-0.2-3c0.1-1.3,0.3-2.6,0.8-4.1c0.2-0.5,0.5-0.8,0.9-0.9
				c0.6-0.2,1.2-0.5,1.4-1.2c0,0,0-0.1,0.3-0.1s0.7-0.1,1-0.1c0.6-0.1,1-0.4,1.1-1.1v-0.2c0-0.2,0.1-0.4,0.1-0.6
				c0-0.2,0.1-0.3,0.3-0.3c0.2-0.1,0.4-0.1,0.6-0.2c0.2-0.1,0.5-0.2,0.7-0.2h1.1l0.1-0.3c0.2-0.6,0-1.2-0.4-1.7
				c-0.2-0.2-0.2-0.3,0-0.5c0.4-0.6,0.2-1.1,0-1.4l-0.1-0.2c0-0.1-0.1-0.2-0.1-0.2c0.1,0,0.1-0.1,0.2-0.1c2.1-1.3,4.3-2.1,6.7-2.3
				c0.5-0.1,1-0.1,1.7-0.1h0.3v-2.8h-0.3c-4.3,0.1-8.4,1.6-12,4.5c-3.7,3-6.1,6.9-6.9,11.6c-1.1,5.6,0.2,10.8,3.5,15.4
				c3,4.1,7.1,6.6,12.2,7.6c0.6,0.2,1.3,0.2,2,0.2c0.3,0,0.6,0.1,0.9,0.1c0.1,0,0.2,0,0.3,0.1h0.3V54.4z"/>
		</g>
		<g>
			<path class="st0" d="M21.1,30.6l-0.1,0c-0.3-0.1-0.6-0.2-0.9-0.1c-0.2,0-0.5,0-0.6-0.1c0.1,0,0.2-0.1,0.3,0
				c0.2,0,0.5-0.1,0.7-0.2c0.1,0,0.2-0.1,0.3-0.1l0.3,0v-7.9l-0.5,0.6c-0.5,0.6-0.6,1.1-0.5,1.7c0.1,0.5,0.1,0.9-0.2,1.3
				c-0.2,0.3-0.3,0.7-0.6,1.1l-0.1,0.1c-0.4-0.3-0.6-0.5-0.7-0.9c0-0.3-0.2-0.6-0.3-0.8c-0.1-0.1-0.1-0.2-0.2-0.2L18,24.7l-0.3,0.1
				c-1.5,0.5-2.4,1.6-2.4,2.9v0.5l0.6-0.1c0.1,0,0.2,0,0.2-0.1c0.2-0.1,0.2-0.1,0.4,0.1c0.2,0.2,0.3,0.2,0.5,0.3
				c-0.2,0.3-0.6,0.4-1,0.3c-0.2-0.1-0.5-0.1-0.7,0.1c-0.2,0.2-0.2,0.4-0.2,0.6v0.5c0,0.3-0.1,0.7-0.1,1c0,0.2,0.2,0.6,0.4,0.6
				c0.2,0.1,0.2,0.1,0.3,0.2h0.1c0,0,0.1,0.1,0.2,0.1l-0.1,0.1c-0.1,0.1-0.2,0.1-0.5,0.2c-0.6,0.1-0.9,0.5-1,0.8
				c-0.2,0.3-0.4,0.6-0.6,0.8c-0.4,0.3-0.5,0.8-0.6,1.1c0,0.1,0,0.2-0.1,0.3c0,0.2-0.1,0.3-0.2,0.4v0.2c-0.1,0.1-0.1,0.2-0.1,0.4v2
				c0,0.2,0,0.4-0.1,0.6c-0.2,0.2-0.2,0.6,0,0.9c0.2,0.6,0.8,0.9,1.4,1.1h0.2c0.7,0.2,1.4,0.3,2.1,0.4c0.5,0.1,1-0.1,1.5-0.2
				c0.9-0.2,1.1-0.2,1.5,0.6c0.1,0.2,0.2,0.4,0.2,0.6c0.1,0.2,0.2,0.5,0.3,0.7c0.2,0.3,0.4,0.8,0.7,1c0.2,0.2,0.4,0.4,0.5,0.6V30.6z
				"/>
		</g>
	</g>
</g>
</svg>
