<?xml version="1.0" encoding="utf-8"?>
<!-- Generator: Adobe Illustrator 22.0.1, SVG Export Plug-In . SVG Version: 6.00 Build 0)  -->
<svg version="1.1" id="Layer_1" xmlns="http://www.w3.org/2000/svg" xmlns:xlink="http://www.w3.org/1999/xlink" x="0px" y="0px"
	 viewBox="0 0 68 68" style="enable-background:new 0 0 68 68;" xml:space="preserve">
<style type="text/css">
	.st0{fill:#FFA800;}
</style>
<title>Ongoing Improvisations</title>
<g>
	<g>
		<path class="st0" d="M25.8,64.5h-0.3c-2,0-3.7-1.7-3.7-3.7v-3l-2.9,0.4c-0.1,0-0.2,0-0.4,0c-3.7,0-6.7-3-6.7-6.7v-4.9
			c-1.7-0.1-3.1-0.9-3.9-2.2c-0.9-1.4-0.9-3.2,0-5l3.9-7.3v-2.7c0-8.7,5.1-16.7,13.1-20.4c1.3-0.6,2.7,0,3.3,1.2
			c0.6,1.3,0,2.7-1.2,3.3c-6.2,2.9-10.2,9.1-10.2,15.9v3.3c0,0.4-0.1,0.8-0.3,1.2l-4.1,7.7h1.9c1.4,0,2.5,1.1,2.5,2.5v7.4
			c0,0.9,0.7,1.6,1.6,1.7l5.6-0.8c0.7-0.1,1.4,0.1,2,0.6c0.5,0.5,0.9,1.2,0.9,1.9v4.3L45.6,56V44.2c0-0.7,0.3-1.3,0.8-1.8
			c1.7-1.6,3-3.4,4-5.3c0.6-1.2,2.1-1.8,3.3-1.2c1.2,0.6,1.8,2.1,1.2,3.3c-1,2.1-2.5,4.2-4.2,6v11.3c0,0.1,0,0.2,0,0.3
			c-0.2,1.9-1.6,3.5-3.4,3.9c0,0-0.1,0-0.1,0l-20.9,3.7C26.1,64.5,25.9,64.5,25.8,64.5z"/>
	</g>
	<g>
		<path class="st0" d="M59.5,17.2L59.5,17.2c-1-0.3-1.7-0.9-2.3-1.8c-0.2-0.9-0.2-1.9,0.3-2.8c0.6-1.5,0.3-3.2-0.8-4.3
			c-1.1-1.1-2.8-1.4-4.3-0.8c-0.9,0.4-1.8,0.5-2.8,0.2c-0.9-0.5-1.5-1.3-1.8-2.2c-0.4-1-1.1-1.8-2.1-2.2c-1-0.4-2-0.4-3,0
			c-0.9,0.4-1.7,1.1-2.2,2.2c-0.3,0.9-0.9,1.6-1.8,2.2c-0.9,0.2-1.9,0.2-2.8-0.3c-1.5-0.6-3.2-0.3-4.3,0.8c-1.1,1.1-1.4,2.8-0.8,4.3
			c0.4,0.9,0.5,1.8,0.2,2.8c-0.5,0.9-1.3,1.5-2.2,1.8c-1,0.4-1.8,1.1-2.2,2.1c-0.4,1-0.4,2,0,3c0.4,0.9,1.1,1.7,2.2,2.2
			c0.9,0.3,1.6,0.9,2.2,1.8c0.3,0.9,0.2,1.9-0.3,2.8c-0.8,2,0.2,4.3,2.1,5.1c0.9,0.4,2.1,0.4,3,0c0.9-0.4,1.8-0.5,2.8-0.2
			c0.9,0.5,1.5,1.3,1.8,2.2c0.6,1.5,2,2.5,3.6,2.5c0.5,0,1-0.1,1.5-0.3c0.9-0.4,1.7-1.1,2.2-2.2c0.3-0.9,1-1.7,1.8-2.2
			c0.9-0.3,1.9-0.2,2.8,0.3c2,0.8,4.3-0.2,5.1-2.1c0.4-0.9,0.4-2.1,0-3c-0.4-0.9-0.5-1.8-0.2-2.8c0.5-0.9,1.3-1.5,2.2-1.8
			c1.4-0.6,2.3-1.9,2.4-3.5l0,0C61.9,19.3,61,17.9,59.5,17.2z M44,27.8c-3.8,0-7-3.1-7-7s3.1-7,7-7c3.8,0,7,3.1,7,7
			S47.9,27.8,44,27.8z"/>
	</g>
</g>
</svg>
