<?xml version="1.0" encoding="utf-8"?>
<!-- Generator: Adobe Illustrator 22.0.1, SVG Export Plug-In . SVG Version: 6.00 Build 0)  -->
<svg version="1.1" id="Layer_1" xmlns="http://www.w3.org/2000/svg" xmlns:xlink="http://www.w3.org/1999/xlink" x="0px" y="0px"
	 viewBox="0 0 68 68" style="enable-background:new 0 0 68 68;" xml:space="preserve">
<style type="text/css">
	.st0{fill:#FFA800;}
</style>
<title>Personalized Content Feed</title>
<g>
	<path class="st0" d="M24.2,48.4c-0.4,0-0.7-0.1-1.1-0.2c-1-0.4-1.7-1.4-1.7-2.5v-18c0-2.1,1.7-3.9,3.9-3.9h17.2
		c2.1,0,3.9,1.7,3.9,3.9v13c0,2.1-1.7,3.9-3.9,3.9H29.2l-3.1,3.1C25.6,48.1,24.9,48.4,24.2,48.4z"/>
</g>
<g>
	<path class="st0" d="M4.1,48.6c-0.6,0-1.2-0.2-1.7-0.5c-1.4-1-1.7-2.8-0.7-4.2l4.5-6.3c0.9-1.3,2.7-1.7,4-0.8l6.7,4.1
		c1.4,0.9,1.9,2.7,1,4.1c-0.9,1.4-2.7,1.9-4.1,1l-4.3-2.6l-2.9,4C6,48.2,5.1,48.6,4.1,48.6z"/>
</g>
<g>
	<path class="st0" d="M59.2,31.7c-0.6,0-1.1-0.2-1.6-0.5L51,27.1c-1.4-0.9-1.8-2.8-0.9-4.1c0.9-1.4,2.8-1.8,4.1-0.9l4.2,2.7l3-4
		c1-1.3,2.9-1.6,4.2-0.6c1.3,1,1.6,2.9,0.6,4.2l-4.7,6.2C61,31.3,60.1,31.7,59.2,31.7z"/>
</g>
<g>
	<path class="st0" d="M8.7,31.7c-0.1,0-0.3,0-0.4,0c-1.6-0.2-2.8-1.7-2.6-3.4C7.4,15.5,17.5,5.4,30.3,3.7c15.6-2,29.9,9.1,31.9,24.6
		c0.2,1.6-1,3.1-2.6,3.4c-1.6,0.2-3.1-1-3.4-2.6C54.7,16.8,43.3,8.1,31,9.7C21,11,13,19,11.7,29.1C11.5,30.6,10.2,31.7,8.7,31.7z"/>
</g>
<g>
	<path class="st0" d="M34,64.5C19.9,64.5,7.6,54,5.7,39.7c-0.2-1.6,0.9-3.2,2.6-3.4c1.6-0.2,3.2,0.9,3.4,2.6
		c1.6,12.3,13,21,25.2,19.4C46.9,57,54.9,49,56.2,38.9c0.2-1.6,1.7-2.8,3.4-2.6c1.6,0.2,2.8,1.7,2.6,3.4
		c-1.7,12.8-11.8,22.9-24.6,24.6C36.3,64.4,35.1,64.5,34,64.5z"/>
</g>
</svg>
