<?xml version="1.0" encoding="utf-8"?>
<!-- Generator: Adobe Illustrator 22.0.1, SVG Export Plug-In . SVG Version: 6.00 Build 0)  -->
<svg version="1.1" id="Layer_1" xmlns="http://www.w3.org/2000/svg" xmlns:xlink="http://www.w3.org/1999/xlink" x="0px" y="0px"
	 viewBox="0 0 68 68" style="enable-background:new 0 0 68 68;" xml:space="preserve">
<style type="text/css">
	.st0{fill:#FFA800;}
</style>
<title>Pre-built templates</title>
<path class="st0" d="M54.1,16.2H6.9c-2.9,0-5.3,2.4-5.3,5.3v36c0,2.9,2.4,5.3,5.3,5.3h47.2c2.9,0,5.3-2.4,5.3-5.3v-36
	C59.4,18.5,57,16.2,54.1,16.2z M15.7,27.9h15.3c1.7,0,3,1.4,3,3s-1.4,3-3,3H15.7c-1.7,0-3-1.4-3-3S14,27.9,15.7,27.9z M45.4,49.4
	H15.7c-1.7,0-3-1.4-3-3c0-1.7,1.4-3,3-3h29.7c1.7,0,3,1.4,3,3C48.4,48.1,47.1,49.4,45.4,49.4z M45.4,41.7H15.7c-1.7,0-3-1.4-3-3
	c0-1.7,1.4-3,3-3h29.7c1.7,0,3,1.4,3,3C48.4,40.3,47.1,41.7,45.4,41.7z"/>
<path class="st0" d="M60.9,9.9H13.7c-2.4,0-4.4,1.7-4.8,4h46.2c3.5,0,6.3,2.8,6.3,6.3v35.5c2.5-0.2,4.5-2.3,4.5-4.9v-36
	C65.9,12.1,63.7,9.9,60.9,9.9z"/>
</svg>
