<svg xmlns="http://www.w3.org/2000/svg" width="86" height="87" viewBox="0 0 86 87">
    <g fill="none" fill-rule="evenodd">
        <circle cx="43" cy="43.859" r="43" fill="#CE5156" fill-rule="nonzero" transform="translate(0 -.176)"/>
        <path fill="#FFF" d="M68.286 58.046l-11.4-15.901a2.47 2.47 0 0 0-2.027-1.048 2.47 2.47 0 0 0-2.026 1.048l-4.52 6.303-9.897-13.522v-5.45h8.525c1.007 0 1.826-.82 1.826-1.826v-6.515c0-1.006-.819-1.825-1.826-1.825H37.29c-1.006 0-1.826.819-1.826 1.825V34.93l-16.56 22.858a2.81 2.81 0 0 0-.21 2.894 2.63 2.63 0 0 0 2.34 1.448H66.26c.938 0 1.79-.525 2.224-1.37a2.632 2.632 0 0 0-.197-2.714zm-29.87-31.523h7.399v-4.26h-7.399v4.26zM21.542 59.177l15.404-21.26L47.124 51.82l5.104 7.356H21.542zm34.28 0l-5.69-8.199 4.728-6.592 10.604 14.791h-9.642z"/>
    </g>
</svg>
