<svg xmlns="http://www.w3.org/2000/svg" width="86" height="87" viewBox="0 0 86 87">
    <g fill="none" fill-rule="evenodd">
        <circle cx="43" cy="43.859" r="43" fill="#CE5156" fill-rule="nonzero" transform="translate(0 -.441)"/>
        <g fill="#FFF" stroke="#FFF" stroke-width=".5">
            <path d="M61.064 34.992a4.097 4.097 0 0 0-2.357.56v-1.6a4.094 4.094 0 0 0-6.221-3.522 4.075 4.075 0 0 0-6.679-2.728 3.107 3.107 0 0 0-.358-.435l-8.609-8.609a4.016 4.016 0 1 0-5.826 5.528l6.84 7.604c.17.188.264.433.265.687v9.71a11.377 11.377 0 0 1-.49 3.59c-.111.343-.392.605-.743.69a.994.994 0 0 1-.926-.242 14.669 14.669 0 0 1-2.129-2.55c-1.833-2.751-6.498-7.665-9.264-7.665a4.034 4.034 0 0 0-3.72 2.286 3.224 3.224 0 0 0 .933 3.59c1.879 1.879 6.11 8.877 8.184 14.066 1.365 3.411 4.363 6.76 6.636 8.969a5.11 5.11 0 0 1 1.519 3.653v2.436a3.088 3.088 0 0 0 3.088 3.088h16.47a3.088 3.088 0 0 0 3.089-3.088v-5.221a.942.942 0 0 1 .274-.702c3.8-3.474 3.843-9.273 3.843-9.518V39.272a4.227 4.227 0 0 0-3.819-4.28zm1.76 20.577c0 .05-.053 5.146-3.174 8a3.005 3.005 0 0 0-.943 2.22v5.22c0 .569-.461 1.03-1.03 1.03h-16.47a1.03 1.03 0 0 1-1.03-1.03v-2.435a7.185 7.185 0 0 0-2.15-5.13c-1.744-1.693-4.863-5.02-6.157-8.258-2.021-5.049-6.382-12.497-8.641-14.756-.49-.49-.654-.943-.487-1.347a2.03 2.03 0 0 1 1.817-1.014c1.43 0 5.456 3.595 7.557 6.748a16.693 16.693 0 0 0 2.432 2.908 3.04 3.04 0 0 0 2.839.74 3.1 3.1 0 0 0 2.192-2.03 13.39 13.39 0 0 0 .599-4.248v-9.712a3.07 3.07 0 0 0-.794-2.064l-6.84-7.602a1.958 1.958 0 1 1 2.84-2.695l8.61 8.608c.193.193.302.455.301.728v10.678a1.029 1.029 0 0 0 2.059 0v-9.264a2.059 2.059 0 0 1 4.117 0v9.264a1.03 1.03 0 0 0 2.06 0v-6.176a2.06 2.06 0 0 1 4.117 0v7.205a1.03 1.03 0 1 0 2.059 0V39.1a2.041 2.041 0 0 1 .604-1.455 2.077 2.077 0 0 1 1.606-.6 2.193 2.193 0 0 1 1.907 2.228V55.57zM46.354 16.202c-.569 0-1.03.46-1.03 1.03v4.367a1.028 1.028 0 0 0 .637.95c.124.052.258.079.393.08h4.367a1.03 1.03 0 1 0 0-2.06h-1.882l6.478-6.477a1.03 1.03 0 0 0-1.456-1.456l-6.478 6.478V17.23c0-.568-.46-1.03-1.03-1.03zM12.384 57.628c.273 0 .535-.11.728-.302l6.477-6.478v1.883a1.03 1.03 0 0 0 2.06 0v-4.368a1.03 1.03 0 0 0-1.03-1.03h-4.366a1.029 1.029 0 0 0 0 2.06h1.882l-6.479 6.477a1.03 1.03 0 0 0 .728 1.758z"/>
        </g>
    </g>
</svg>
