<svg xmlns="http://www.w3.org/2000/svg" width="86" height="87" viewBox="0 0 86 87">
    <g fill="none" fill-rule="evenodd">
        <circle cx="43" cy="43.859" r="43" fill="#CE5156" fill-rule="nonzero" transform="translate(0 -.441)"/>
        <g fill="#FFF" stroke="#FFF">
            <path d="M28.54 52.154h-.827a.769.769 0 1 0 0 1.538h.827a.766.766 0 0 0 .767-.772.765.765 0 0 0-.767-.766zM24.41 52.154h-.822a.769.769 0 1 0 0 1.538h.823c.429 0 .77-.342.77-.772a.766.766 0 0 0-.77-.766zM20.605 52.221a.778.778 0 0 0-.703-.455.772.772 0 0 0-.77.771v1.155h1.153a.77.77 0 0 0 .32-1.47zM19.902 46.02a.772.772 0 0 0 .771-.77v-.81a.772.772 0 0 0-1.542 0v.81c0 .424.346.77.771.77zM19.902 41.973a.772.772 0 0 0 .771-.77v-.812a.769.769 0 0 0-.77-.768.768.768 0 0 0-.772.768v.812c0 .425.346.77.771.77zM19.902 37.923a.772.772 0 0 0 .771-.77v-.809a.772.772 0 0 0-1.542 0v.81c0 .424.346.77.771.77zM19.902 25.78a.772.772 0 0 0 .771-.77v-.813a.769.769 0 0 0-.77-.766.768.768 0 0 0-.772.766v.812c0 .426.346.772.771.772zM19.902 33.877a.772.772 0 0 0 .771-.771v-.812a.769.769 0 0 0-.77-.767.768.768 0 0 0-.772.767v.812c0 .425.346.771.771.771zM19.902 29.827a.77.77 0 0 0 .771-.771v-.808a.772.772 0 0 0-1.542 0v.808c0 .425.346.77.771.77zM19.902 50.07a.773.773 0 0 0 .771-.77v-.813a.77.77 0 0 0-.77-.767.769.769 0 0 0-.772.767v.813c0 .424.346.77.771.77zM20.285 19.805h-1.154v1.154a.772.772 0 0 0 1.474.32.773.773 0 0 0-.32-1.474zM27.574 21.347h.808a.77.77 0 0 0 .77-.77.77.77 0 0 0-.77-.772h-.808a.772.772 0 0 0 0 1.542zM35.67 21.347h.81a.77.77 0 0 0 .77-.77.769.769 0 0 0-.77-.772h-.81a.772.772 0 0 0 0 1.542zM43.767 21.347h.809a.772.772 0 0 0 0-1.542h-.81a.772.772 0 0 0 0 1.542zM39.717 21.347h.812a.772.772 0 0 0 0-1.542h-.812a.768.768 0 0 0-.768.771c0 .425.342.771.768.771zM47.813 21.347h.813a.772.772 0 0 0 0-1.542h-.813a.769.769 0 0 0-.767.771.77.77 0 0 0 .767.771zM23.523 21.347h.813a.772.772 0 0 0 0-1.542h-.813a.768.768 0 0 0-.766.771c0 .425.341.771.766.771zM31.62 21.347h.812a.772.772 0 0 0 0-1.542h-.812a.768.768 0 0 0-.767.771c0 .425.342.771.767.771zM51.547 21.279a.77.77 0 0 0 1.47-.32v-1.154h-1.154a.772.772 0 0 0-.77.771c0 .312.188.579.454.703zM53.018 24.261a.77.77 0 1 0-1.538 0v.824c0 .429.342.77.766.77.43 0 .772-.341.772-.77v-.824zM52.246 27.616a.769.769 0 0 0-.766.77v.828c0 .425.342.767.766.767.43 0 .772-.342.772-.767v-.827a.77.77 0 0 0-.772-.771zM52.901 32.129a.761.761 0 0 0-.655-.388.758.758 0 0 0-.65.388h-.116v20.025H31.455v.117a.758.758 0 0 0-.388.65c0 .281.162.52.388.654v12.44H65.34V32.13h-12.44zM63.8 64.473H32.992V53.692h20.026V33.666h10.78v30.807z"/>
        </g>
    </g>
</svg>
