<svg xmlns="http://www.w3.org/2000/svg" width="86" height="87" viewBox="0 0 86 87">
    <g fill="none" fill-rule="evenodd">
        <circle cx="43" cy="43.859" r="43" fill="#CE5156" fill-rule="nonzero" transform="translate(0 -.176)"/>
        <path fill="#FFF" stroke="#FFF" stroke-width="1.5" d="M54.005 43.969a.767.767 0 0 1 0 1.083l-5.537 5.537a.767.767 0 0 1-1.084-1.084l5-4.996-5-4.994a.767.767 0 0 1 1.084-1.083l5.537 5.537zm-16.248-4.454l-4.995 4.994 4.995 4.997a.768.768 0 0 1-.541 1.307.767.767 0 0 1-.542-.224l-5.537-5.537a.767.767 0 0 1 0-1.083l5.537-5.537a.766.766 0 0 1 1.083 1.083zm17.567 26.048H29.818a5.362 5.362 0 0 1-5.353-5.358V24.882a5.36 5.36 0 0 1 5.353-5.354h17.727v8.286c0 3.796 3.09 6.885 6.886 6.885h6.25v25.506a5.367 5.367 0 0 1-5.357 5.358zm-6.25-44.75l10.695 12.359h-5.338a5.362 5.362 0 0 1-5.357-5.358v-7.001zm12.949 12.624L48.886 18.26a.757.757 0 0 0-.578-.266h-18.49c-3.796 0-6.885 3.09-6.885 6.887v35.323c0 3.795 3.089 6.886 6.885 6.886h25.506c3.796 0 6.885-3.09 6.885-6.886V33.937a.76.76 0 0 0-.186-.5z"/>
    </g>
</svg>
