<svg xmlns="http://www.w3.org/2000/svg" width="86" height="87" viewBox="0 0 86 87">
    <g fill="none" fill-rule="evenodd">
        <circle cx="43" cy="43.859" r="43" fill="#CE5156" fill-rule="nonzero" transform="translate(0 -.176)"/>
        <g fill="#FFF" stroke="#FFF" stroke-width=".5">
            <path d="M63.743 37.914h-9.54a.872.872 0 0 0-.876.875c0 .484.39.872.877.872h7.966l2.534 23.635H20.483l2.979-23.635h7.983a.874.874 0 1 0 0-1.747H21.92L18.5 65.047h48.153l-2.91-27.133z"/>
            <path d="M41.83 51.875c-.127.078-.269.146-.388.227-.192.125-.38.253-.569.39a.88.88 0 0 0-.188 1.222.878.878 0 0 0 1.226.188c.155-.116.313-.222.48-.33.282-.183.58-.354.888-.508a.87.87 0 0 0 .403-1.11c.007-.01.016-.014.02-.023 1.586-1.675 6.92-7.962 9.13-18.433.448-2.12.551-4.158.298-6.056-.751-5.753-4.325-8.795-10.338-8.795-6.009 0-9.586 3.042-10.338 8.795-.248 1.898-.15 3.937.299 6.056 2.188 10.373 7.44 16.63 9.078 18.377zm-7.64-24.202c.64-4.893 3.457-7.274 8.602-7.274 5.15 0 7.962 2.381 8.603 7.274.227 1.697.134 3.54-.273 5.466-1.987 9.411-6.723 15.386-8.33 17.198-1.607-1.816-6.342-7.79-8.325-17.198-.406-1.927-.5-3.77-.278-5.466z"/>
            <path d="M42.792 35.208a6.435 6.435 0 0 0 6.432-6.428 6.435 6.435 0 0 0-6.432-6.428 6.434 6.434 0 0 0-6.428 6.428 6.434 6.434 0 0 0 6.428 6.428zm0-11.107a4.684 4.684 0 0 1 4.68 4.68 4.684 4.684 0 0 1-4.68 4.679 4.684 4.684 0 0 1-4.68-4.68 4.687 4.687 0 0 1 4.68-4.68zM46.007 50.303a.877.877 0 0 0-.672 1.039c.085.414.45.692.856.692.059 0 .123-.004.183-.017.512-.11 1.068-.2 1.65-.274a.873.873 0 0 0 .76-.978.87.87 0 0 0-.974-.762c-.633.082-1.24.18-1.803.3zM50.532 50.658c.022.47.41.838.876.838h.039l1.752-.074a.875.875 0 0 0 .834-.914c-.022-.483-.475-.859-.915-.833l-1.748.072a.879.879 0 0 0-.838.91zM38.134 54.688c-.449.337-.915.662-1.38.965a.882.882 0 0 0-.262 1.215.892.892 0 0 0 .74.397.888.888 0 0 0 .475-.141c.5-.325 1-.675 1.482-1.038a.877.877 0 0 0-1.055-1.398zM57.644 48.914c-.3.21-.68.359-1.18.461a.874.874 0 0 0 .175 1.731c.06 0 .12-.004.18-.016.735-.154 1.333-.394 1.833-.748l.12-.086a.877.877 0 0 0-1.06-1.394l-.068.052zM26.257 55.76a.88.88 0 0 0-.62-1.076.875.875 0 0 0-1.072.62c-.112.405-.175.82-.197 1.226-.005.103-.005.205-.005.312 0 .171.009.342.022.513a.88.88 0 0 0 .872.786c.03 0 .06-.004.09-.004a.875.875 0 0 0 .782-.962 3.024 3.024 0 0 1-.017-.341c0-.073.004-.146.008-.219.014-.281.06-.572.137-.854zM57.623 42.11a5.228 5.228 0 0 0-2.09.158.878.878 0 0 0-.603 1.081.878.878 0 0 0 1.081.603 3.44 3.44 0 0 1 1.376-.107.876.876 0 0 0 .235-1.734zM59.367 46.448a.871.871 0 0 0 .832 1.133c.377 0 .722-.24.838-.616.086-.278.142-.564.158-.846.004-.073.009-.145.009-.218 0-.41-.077-.821-.222-1.218a.876.876 0 0 0-1.641.612c.073.2.111.405.111.606v.102a2.145 2.145 0 0 1-.085.445zM33.8 57.299c-.512.244-1.034.466-1.552.667a.87.87 0 0 0-.5 1.133.872.872 0 0 0 1.13.5c.559-.214 1.119-.453 1.666-.714a.868.868 0 0 0 .419-1.163.872.872 0 0 0-1.163-.423zM27.428 53.658a.877.877 0 0 0 .419-.106 2.15 2.15 0 0 1 .799-.253 1.21 1.21 0 0 1 .355 0 .868.868 0 0 0 .983-.752.882.882 0 0 0-.756-.983 3.432 3.432 0 0 0-.778-.01c-.505.057-.988.21-1.441.458a.879.879 0 0 0-.35 1.188.88.88 0 0 0 .769.458zM27.248 60.522c.189.047.381.085.574.106a5.69 5.69 0 0 0 1.495-.012.876.876 0 0 0-.222-1.735c-.351.043-.71.055-1.064.012a2.962 2.962 0 0 1-.343-.068.877.877 0 0 0-.44 1.697z"/>
        </g>
    </g>
</svg>
