<svg xmlns="http://www.w3.org/2000/svg" width="86" height="87" viewBox="0 0 86 87">
    <g fill="none" fill-rule="evenodd">
        <circle cx="43" cy="43.859" r="43" fill="#CE5156" fill-rule="nonzero" transform="translate(0 -.441)"/>
        <g fill="#FFF">
            <path d="M48.513 32.875a1.21 1.21 0 0 0-1.712 0l-7.53 7.53a1.213 1.213 0 0 0-.54.54L22.276 57.4a4.932 4.932 0 0 0-1.454 3.51c0 1.325.517 2.572 1.454 3.508l.053.054a4.932 4.932 0 0 0 3.51 1.454 4.931 4.931 0 0 0 3.51-1.454l24.523-24.523a1.21 1.21 0 0 0 0-1.713l-5.36-5.36zM27.637 62.758c-.48.48-1.118.745-1.797.745a2.522 2.522 0 0 1-1.796-.745l-.054-.053a2.524 2.524 0 0 1-.744-1.797c0-.678.264-1.316.744-1.796l15.867-15.868 3.647 3.647-15.867 15.867zm17.58-17.58l-3.647-3.646 6.087-6.087 3.647 3.646-6.087 6.088zM42.856 29.028h6.14a1.21 1.21 0 0 0 1.21-1.211v-6.14c0-.67-.541-1.212-1.21-1.212h-6.14a1.21 1.21 0 0 0-1.211 1.212v6.14c0 .67.541 1.21 1.21 1.21zm1.21-2.422h3.719v-3.718h-3.718v3.718zM63.92 26.978h-6.142c-.668 0-1.21.542-1.21 1.21v6.142c0 .668.542 1.21 1.21 1.21h6.141c.669 0 1.211-.542 1.211-1.21v-6.141c0-.669-.542-1.211-1.21-1.211zm-4.93 6.14h3.718V29.4h-3.719v3.718zM62.517 42.338h-6.14a1.21 1.21 0 0 0-1.211 1.21v6.14a1.21 1.21 0 0 0 1.211 1.212h6.14a1.21 1.21 0 0 0 1.211-1.211v-6.14c0-.67-.542-1.211-1.21-1.211zm-4.929 6.14h3.718V44.76h-3.718v3.718z"/>
        </g>
    </g>
</svg>
