<?xml version="1.0" encoding="utf-8"?>
<!-- Generator: Adobe Illustrator 22.0.1, SVG Export Plug-In . SVG Version: 6.00 Build 0)  -->
<svg xmlns="http://www.w3.org/2000/svg" xmlns:xlink="http://www.w3.org/1999/xlink" version="1.1" id="Layer_1" x="0px" y="0px" width="720.24px" height="257.774px" viewBox="0 0 720.24 257.774" enable-background="new 0 0 720.24 257.774" xml:space="preserve">
<style type="text/css">
	.st0{fill:#479bbb;}
</style>
<g>
	<path class="st0" d="M108.4,99.9h-3.1c0-4.9-4-8.8-8.8-8.8c-3.3,0-6.2,1.8-7.8,4.7l-2.7-1.5C88,90.4,92.1,88,96.5,88
		C103,88,108.4,93.3,108.4,99.9z"/>
	<path class="st0" d="M108.4,99.9h-3.1c0-6.6,5.3-11.9,11.9-11.9c4.4,0,8.4,2.4,10.5,6.3l-2.7,1.5c-1.5-2.9-4.5-4.7-7.8-4.7
		C112.4,91.1,108.4,95,108.4,99.9z"/>
</g>
<g>
	<path class="st0" d="M627.4,120.4h-3.1c0-4.9-4-8.8-8.8-8.8c-3.3,0-6.2,1.8-7.8,4.7l-2.7-1.5c2.1-3.9,6.1-6.3,10.5-6.3
		C622.1,108.5,627.4,113.8,627.4,120.4z"/>
	<path class="st0" d="M627.4,120.4h-3.1c0-6.6,5.3-11.9,11.9-11.9c4.4,0,8.4,2.4,10.5,6.3l-2.7,1.5c-1.5-2.9-4.5-4.7-7.8-4.7
		C631.4,111.6,627.4,115.6,627.4,120.4z"/>
</g>
<g>
	<path class="st0" d="M429.1,50.9H426c0-4.9-4-8.8-8.8-8.8v-3.1C423.7,38.9,429.1,44.3,429.1,50.9z"/>
	<path class="st0" d="M429.1,50.9H426c0-6.6,5.4-11.9,11.9-11.9v3.1C433,42.1,429.1,46,429.1,50.9z"/>
</g>
</svg>
