<?xml version="1.0" encoding="utf-8"?>
<!-- Generator: Adobe Illustrator 22.0.1, SVG Export Plug-In . SVG Version: 6.00 Build 0)  -->
<svg version="1.1" id="Layer_1" xmlns="http://www.w3.org/2000/svg" xmlns:xlink="http://www.w3.org/1999/xlink" x="0px" y="0px"
	 viewBox="0 0 720.2 315.1" style="enable-background:new 0 0 720.2 315.1;" xml:space="preserve">
<style type="text/css">
	.st0{fill:none;stroke:#FFFFFF;stroke-width:1.5;stroke-miterlimit:10;}
	.st1{fill:#FFFFFF;stroke:#FFFFFF;stroke-width:1.5;stroke-miterlimit:10;}
	.st2{fill:none;stroke:#FFFFFF;stroke-miterlimit:10;}
</style>
<g id="Layer_4">
</g>
<g id="Layer_3">
</g>
<g id="Layer_2_1_">
</g>
<g>
	<path class="st0" d="M310.1,302.3c0-12.8,1.8-150.7-6.6-197.3c-0.1-0.5-0.6-0.9-1.1-0.8c-3.3,0.7-14,3.1-21.9,8.6
		c-0.1,0-0.1,0.1-0.2,0.2c-0.4,0.5-2.2,2.8-2.1,7.1l-0.6,22.3c0,0.7-0.7,1.1-1.3,0.9l-4.7-1.6c-0.6-0.2-1.2,0.2-1.3,0.8
		c-1.2,9.9-9.2,81.5-6.2,160.9"/>
	<line class="st0" x1="303.4" y1="104.4" x2="303.4" y2="84.6"/>
	<path class="st0" d="M266,145.9"/>
	<path class="st1" d="M277.5,142.4c0,0-1.5,145.4-2.1,161"/>
	<line class="st0" x1="268.6" y1="154" x2="277.5" y2="150.4"/>
	<line class="st0" x1="268.1" y1="164.1" x2="277.4" y2="160.2"/>
	<line class="st0" x1="267.2" y1="174.3" x2="277" y2="170.2"/>
	<line class="st0" x1="266.4" y1="184.4" x2="277.1" y2="179.9"/>
	<line class="st0" x1="265.4" y1="194.6" x2="276.9" y2="189.9"/>
	<line class="st0" x1="265.1" y1="204.5" x2="276.9" y2="199.6"/>
	<line class="st0" x1="264.6" y1="214.5" x2="276.8" y2="209.8"/>
	<line class="st0" x1="264.2" y1="224.5" x2="276.5" y2="219.5"/>
	<line class="st0" x1="264.2" y1="234.3" x2="276.6" y2="229.2"/>
	<line class="st0" x1="263.2" y1="244.5" x2="276.5" y2="239.1"/>
	<line class="st0" x1="263.2" y1="254.4" x2="276.3" y2="248.9"/>
	<line class="st0" x1="263.2" y1="264.2" x2="276.2" y2="258.8"/>
	<line class="st0" x1="263.2" y1="274" x2="276.1" y2="268.7"/>
	<line class="st0" x1="263.2" y1="283.8" x2="275.9" y2="278.5"/>
	<line class="st0" x1="263.2" y1="293.6" x2="275.8" y2="288.4"/>
	<path class="st0" d="M323.2,313.9l6.6-9.7c0.4-0.6,0-1.5-0.8-1.5h-91.1c-0.8,0-1.2,0.8-0.8,1.5l6.5,9.7"/>
	<circle class="st2" cx="97" cy="276.3" r="16"/>
	<line class="st0" x1="97" y1="314.1" x2="97" y2="292.4"/>
	<circle class="st0" cx="97" cy="276.3" r="16"/>
	<circle class="st2" cx="626" cy="276.4" r="16"/>
	<line class="st0" x1="626" y1="314.1" x2="626" y2="292.4"/>
	<circle class="st0" cx="626" cy="276.3" r="16"/>
	<line class="st0" x1="0" y1="314.1" x2="720.2" y2="314.1"/>
	<polygon class="st0" points="378.1,313.8 378.1,274 382.6,274 382.6,242.7 382.6,194.1 386.7,194.1 386.7,124.6 390.6,124.6 
		390.6,45.5 394.6,45.5 394.6,2.4 399,2.4 399,87 402.5,87 402.5,158.3 406.5,158.3 406.5,230.6 410.8,230.6 410.8,314.1 	"/>
	<line class="st0" x1="383.4" y1="313.3" x2="383.4" y2="299.1"/>
	<line class="st0" x1="388.9" y1="313.5" x2="388.9" y2="241.5"/>
	<line class="st0" x1="400" y1="313.5" x2="400" y2="226.5"/>
	<line class="st0" x1="405.6" y1="313.5" x2="405.6" y2="253.1"/>
	<line class="st0" x1="394.5" y1="313.5" x2="394.5" y2="186"/>
	<polyline class="st0" points="339.7,65.2 361.8,65.2 361.8,76.7 363.9,76.7 363.9,313.9 337.9,313.9 337.9,76.7 339.7,76.7 
		339.7,65.2 	"/>
	<line class="st0" x1="339.7" y1="76.7" x2="362.2" y2="76.7"/>
	<line class="st0" x1="343.5" y1="305.9" x2="358" y2="305.9"/>
	<line class="st0" x1="343.5" y1="296.7" x2="358" y2="296.7"/>
	<line class="st0" x1="343.5" y1="288.6" x2="358" y2="288.6"/>
	<line class="st0" x1="343.5" y1="280.5" x2="358" y2="280.5"/>
	<line class="st0" x1="343.5" y1="272.4" x2="358" y2="272.4"/>
	<line class="st0" x1="343.5" y1="264.3" x2="358" y2="264.3"/>
	<line class="st0" x1="343.5" y1="256.2" x2="358" y2="256.2"/>
	<line class="st0" x1="343.5" y1="248.1" x2="358" y2="248.1"/>
	<line class="st0" x1="343.5" y1="240" x2="358" y2="240"/>
	<line class="st0" x1="343.5" y1="231.8" x2="358" y2="231.8"/>
	<line class="st0" x1="343.5" y1="223.7" x2="358" y2="223.7"/>
	<line class="st0" x1="343.5" y1="215.6" x2="358" y2="215.6"/>
	<line class="st0" x1="343.5" y1="207.5" x2="358" y2="207.5"/>
	<line class="st0" x1="343.5" y1="199.4" x2="358" y2="199.4"/>
	<line class="st0" x1="343.5" y1="191.3" x2="358" y2="191.3"/>
	<line class="st0" x1="343.5" y1="183.2" x2="358" y2="183.2"/>
	<line class="st0" x1="343.5" y1="175.1" x2="358" y2="175.1"/>
	<line class="st0" x1="343.5" y1="167" x2="358" y2="167"/>
	<line class="st0" x1="343.5" y1="158.9" x2="358" y2="158.9"/>
	<line class="st0" x1="343.5" y1="150.8" x2="358" y2="150.8"/>
	<line class="st0" x1="343.5" y1="142.6" x2="358" y2="142.6"/>
	<line class="st0" x1="343.5" y1="134.5" x2="358" y2="134.5"/>
	<line class="st0" x1="343.5" y1="126.4" x2="358" y2="126.4"/>
	<line class="st0" x1="342.2" y1="117.8" x2="348.7" y2="117.8"/>
	<line class="st0" x1="353" y1="117.8" x2="359.5" y2="117.8"/>
	<line class="st0" x1="342.2" y1="112.7" x2="348.7" y2="112.7"/>
	<line class="st0" x1="353" y1="112.7" x2="359.5" y2="112.7"/>
	<line class="st0" x1="342.2" y1="107.7" x2="348.7" y2="107.7"/>
	<line class="st0" x1="353" y1="107.7" x2="359.5" y2="107.7"/>
	<line class="st0" x1="342.2" y1="102.6" x2="348.7" y2="102.6"/>
	<line class="st0" x1="353" y1="102.6" x2="359.5" y2="102.6"/>
	<line class="st0" x1="342.2" y1="97.5" x2="348.7" y2="97.5"/>
	<line class="st0" x1="353" y1="97.5" x2="359.5" y2="97.5"/>
	<line class="st0" x1="342.2" y1="92.5" x2="348.7" y2="92.5"/>
	<line class="st0" x1="353" y1="92.5" x2="359.5" y2="92.5"/>
	<line class="st0" x1="342.2" y1="87.4" x2="348.7" y2="87.4"/>
	<line class="st0" x1="353" y1="87.4" x2="359.5" y2="87.4"/>
	<line class="st0" x1="342.2" y1="82.3" x2="348.7" y2="82.3"/>
	<line class="st0" x1="353" y1="82.3" x2="359.5" y2="82.3"/>
	<path class="st0" d="M350.9,51.3c0,0,11.6,5,10.9,13.9"/>
	<path class="st0" d="M339.7,65.7c-0.1-8.7,11.2-14.4,11.2-14.4V39.9"/>
	<line class="st0" x1="424.3" y1="151.7" x2="424.3" y2="131.5"/>
	<path class="st0" d="M424.3,313.9h55.2c13.2-59.7-5.1-98.2-5.1-98.2c-19.3-47-50.1-64.3-50.1-64.3V313.9z"/>
	<path class="st0" d="M433,313.9V187.6h15.2c0,0,38,44.4,21.9,126.1L433,313.9z"/>
	<polygon class="st0" points="433,171 433,182.8 444.1,182.8 	"/>
	<line class="st0" x1="433" y1="196.7" x2="450.7" y2="191"/>
	<line class="st0" x1="433" y1="203.9" x2="454.5" y2="197"/>
	<line class="st0" x1="432.6" y1="211.3" x2="458" y2="203.1"/>
	<line class="st0" x1="432.7" y1="218.5" x2="460.9" y2="209.4"/>
	<line class="st0" x1="433" y1="225.7" x2="463.6" y2="215.8"/>
	<line class="st0" x1="433" y1="232.9" x2="465.9" y2="222.3"/>
	<line class="st0" x1="433" y1="240.2" x2="467.9" y2="228.9"/>
	<line class="st0" x1="433" y1="247.4" x2="469.7" y2="235.6"/>
	<line class="st0" x1="433" y1="254.7" x2="471.1" y2="242.3"/>
	<line class="st0" x1="433" y1="261.2" x2="472.2" y2="249.1"/>
	<line class="st0" x1="433" y1="269.2" x2="473.1" y2="256.2"/>
	<line class="st0" x1="432.5" y1="276.6" x2="473.7" y2="263.2"/>
	<line class="st0" x1="432.8" y1="283.7" x2="474" y2="270.4"/>
	<line class="st0" x1="433" y1="290.9" x2="474" y2="277.6"/>
	<line class="st0" x1="433" y1="298.1" x2="474.1" y2="284.9"/>
	<line class="st0" x1="433" y1="305.4" x2="473.2" y2="292.4"/>
	<line class="st0" x1="433" y1="312.5" x2="472.4" y2="299.5"/>
	<line class="st0" x1="451.5" y1="313.9" x2="471.2" y2="307.5"/>
	<g id="Layer_5">
	</g>
</g>
</svg>
