<?xml version="1.0" encoding="utf-8"?>
<!-- Generator: Adobe Illustrator 17.0.0, SVG Export Plug-In . SVG Version: 6.00 Build 0)  -->
<!DOCTYPE svg PUBLIC "-//W3C//DTD SVG 1.1//EN" "http://www.w3.org/Graphics/SVG/1.1/DTD/svg11.dtd">
<svg version="1.1" id="Layer_1" xmlns="http://www.w3.org/2000/svg" xmlns:xlink="http://www.w3.org/1999/xlink" x="0px" y="0px"
	 width="300px" height="131px" viewBox="0 0 300 131" enable-background="new 0 0 300 131" xml:space="preserve">
<g display="none">
	<g display="inline">
		<defs>
			<rect id="SVGID_1_" x="-1.553" y="-1.088" width="302.106" height="132.176"/>
		</defs>
		<clipPath id="SVGID_2_">
			<use xlink:href="#SVGID_1_"  overflow="visible"/>
		</clipPath>
		
			<rect x="-4.189" y="-1.555" display="none" clip-path="url(#SVGID_2_)" fill="#050505" stroke="#000000" stroke-miterlimit="10" width="307.978" height="152.259"/>
	</g>
	<g display="inline">
		<defs>
			<rect id="SVGID_3_" x="-1.553" y="-1.088" width="302.106" height="132.176"/>
		</defs>
		<clipPath id="SVGID_4_">
			<use xlink:href="#SVGID_3_"  overflow="visible"/>
		</clipPath>
		<g clip-path="url(#SVGID_4_)">
			<path fill="none" stroke="#FFFFFF" stroke-miterlimit="10" d="M39.136,121.525c3.707,0,6.711-3.005,6.711-6.712
				c0-3.707-3.005-6.712-6.711-6.712c-3.707,0-6.712,3.005-6.712,6.712C32.424,118.52,35.429,121.525,39.136,121.525z"/>
			<path fill="none" stroke="#FFFFFF" stroke-width="1.5" stroke-miterlimit="10" d="M39.136,130.669v-9.103"/>
			<path fill="none" stroke="#FFFFFF" stroke-width="1.5" stroke-miterlimit="10" d="M39.136,121.525
				c3.707,0,6.711-3.005,6.711-6.712c0-3.707-3.005-6.712-6.711-6.712c-3.707,0-6.712,3.005-6.712,6.712
				C32.424,118.52,35.429,121.525,39.136,121.525z"/>
			<path fill="none" stroke="#FFFFFF" stroke-miterlimit="10" d="M261.038,121.566c3.707,0,6.712-3.005,6.712-6.712
				c0-3.707-3.005-6.712-6.712-6.712c-3.706,0-6.712,3.005-6.712,6.712C254.327,118.562,257.332,121.566,261.038,121.566z"/>
			<path fill="none" stroke="#FFFFFF" stroke-width="1.5" stroke-miterlimit="10" d="M261.038,130.669v-9.103"/>
			<path fill="none" stroke="#FFFFFF" stroke-width="1.5" stroke-miterlimit="10" d="M261.038,121.525
				c3.707,0,6.712-3.005,6.712-6.712c0-3.707-3.005-6.712-6.712-6.712c-3.706,0-6.712,3.005-6.712,6.712
				C254.327,118.52,257.332,121.525,261.038,121.525z"/>
			<path fill="none" stroke="#FFFFFF" stroke-width="1.5" stroke-miterlimit="10" d="M-1.553,130.669h302.105"/>
			<g>
				<g>
					<defs>
						<rect id="SVGID_5_" x="109.63" y="2.268" width="88.509" height="130.037"/>
					</defs>
					<clipPath id="SVGID_6_">
						<use xlink:href="#SVGID_5_"  overflow="visible"/>
					</clipPath>
					<g clip-path="url(#SVGID_6_)">
						<path fill="#FFFFFF" d="M154.128,30.075c-3.349,0-6.074,2.722-6.074,6.068c0,3.346,2.725,6.068,6.074,6.068
							c3.349,0,6.074-2.722,6.074-6.068S157.477,30.075,154.128,30.075z M154.128,41.807c-3.126,0-5.67-2.541-5.67-5.663
							s2.543-5.664,5.67-5.664c3.126,0,5.669,2.541,5.669,5.664S157.254,41.807,154.128,41.807z"/>
						<path fill="#FFFFFF" d="M154.331,35.338v-2.052c0-0.112-0.091-0.202-0.202-0.202c-0.112,0-0.203,0.09-0.203,0.202v2.052
							c-0.283,0.074-0.505,0.295-0.579,0.578h-1.446c-0.112,0-0.203,0.09-0.203,0.202c0,0.112,0.091,0.202,0.203,0.202h1.446
							c0.091,0.348,0.405,0.607,0.781,0.607c0.446,0,0.809-0.363,0.809-0.809C154.938,35.743,154.679,35.429,154.331,35.338z
							 M154.128,36.524c-0.224,0-0.405-0.182-0.405-0.405c0-0.223,0.182-0.405,0.405-0.405c0.223,0,0.405,0.182,0.405,0.405
							C154.533,36.342,154.351,36.524,154.128,36.524z"/>
						<path fill="#FFFFFF" d="M154.128,32.073c0.112,0,0.202-0.09,0.202-0.202v-0.202c0-0.112-0.091-0.202-0.202-0.202
							c-0.112,0-0.203,0.091-0.203,0.202v0.202C153.926,31.983,154.016,32.073,154.128,32.073z"/>
						<path fill="#FFFFFF" d="M154.128,40.165c-0.112,0-0.203,0.09-0.203,0.202v0.202c0,0.112,0.091,0.202,0.203,0.202
							c0.112,0,0.202-0.091,0.202-0.202v-0.202C154.331,40.255,154.24,40.165,154.128,40.165z"/>
						<path fill="#FFFFFF" d="M158.583,35.917h-0.203c-0.112,0-0.203,0.09-0.203,0.202c0,0.112,0.091,0.202,0.203,0.202h0.203
							c0.112,0,0.202-0.09,0.202-0.202C158.785,36.007,158.694,35.917,158.583,35.917z"/>
						<path fill="#FFFFFF" d="M149.876,35.917h-0.203c-0.112,0-0.202,0.09-0.202,0.202c0,0.112,0.091,0.202,0.202,0.202h0.203
							c0.112,0,0.203-0.09,0.203-0.202C150.079,36.007,149.988,35.917,149.876,35.917z"/>
						<path fill="#FFFFFF" d="M157.135,32.829l-0.143,0.143c-0.079,0.079-0.079,0.207,0,0.286c0.039,0.04,0.091,0.059,0.143,0.059
							c0.052,0,0.104-0.02,0.143-0.059l0.143-0.143c0.079-0.079,0.079-0.207,0-0.286C157.341,32.75,157.214,32.75,157.135,32.829z"
							/>
						<path fill="#FFFFFF" d="M150.978,38.98l-0.143,0.143c-0.079,0.079-0.079,0.207,0,0.286c0.04,0.04,0.092,0.059,0.143,0.059
							c0.052,0,0.104-0.02,0.143-0.059l0.143-0.143c0.079-0.079,0.079-0.207,0-0.286C151.186,38.901,151.057,38.901,150.978,38.98z"
							/>
						<path fill="#FFFFFF" d="M157.278,38.98c-0.079-0.079-0.207-0.079-0.286,0c-0.079,0.079-0.079,0.207,0,0.286l0.143,0.143
							c0.039,0.04,0.092,0.059,0.143,0.059c0.052,0,0.104-0.02,0.143-0.059c0.079-0.079,0.079-0.207,0-0.286L157.278,38.98z"/>
						<path fill="#FFFFFF" d="M151.122,32.829c-0.079-0.079-0.207-0.079-0.287,0c-0.079,0.079-0.079,0.207,0,0.286l0.143,0.143
							c0.039,0.04,0.091,0.059,0.143,0.059c0.052,0,0.104-0.02,0.143-0.059c0.079-0.079,0.079-0.207,0-0.286L151.122,32.829z"/>
						<path fill="none" stroke="#FFFFFF" stroke-width="1.5" d="M130.217,81.313c0.18-0.612,0.349-1.443,0.474-2.525
							c0.25-2.164,0.327-5.353-0.045-9.849l-0.001-0.016l-0.003-0.016l-0.352-1.856h5.114h0.315v-0.315V26.261
							c0.033-0.69,0.111-1.803,0.237-2.902c0.127-1.114,0.301-2.18,0.516-2.789l0.01-0.027l0.005-0.028
							c0.709-4.434,4.511-12.458,15.171-13.994l5.03-0.119c5.241,0.579,8.867,3.398,11.296,6.527
							c2.436,3.138,3.656,6.574,4.073,8.323l0,0l0.526,45.741 M127.893,82.682l0.319,0.904l0.005,0.013l0.003,0.013l0.546,2.108
							l0.01,0.038v0.039c0.016,2.876,0.04,9.172,0,11.326c-0.023,1.26-0.909,1.97-1.886,2.341c-0.944,0.358-2.048,0.436-2.805,0.4
							c-0.702,0.313-1.14,1.015-1.393,1.844c-0.256,0.838-0.301,1.743-0.264,2.323c0.248,1.239,0.854,1.948,1.491,2.344
							c0.653,0.405,1.359,0.494,1.794,0.455l0.31-0.028l0.031,0.309c0.99,9.622-3.166,13.829-5.689,14.824v3.294v0.311l-0.311,0.003
							c-1.936,0.019-3.445,0.869-4.553,1.937c-0.941,0.907-1.583,1.963-1.938,2.776h28.885V114.97v-0.315h0.315h0.401v-1.117h-0.401
							h-0.315v-0.315v-0.788c-0.095-2.978,0.731-5.15,2.13-6.688c1.393-1.533,3.325-2.403,5.386-2.839
							c4.11-0.87,8.839-0.036,11.201,0.869c1.968,0.754,3.164,2.451,3.864,4.213c0.7,1.764,0.922,3.637,0.911,4.832l-0.003,0.312
							h-0.312h-0.322v1.465h0.322h0.315v0.315v15.338h28.398c-0.119-1.214-0.914-2.356-1.931-3.231
							c-0.547-0.471-1.146-0.853-1.71-1.116c-0.569-0.266-1.078-0.399-1.451-0.399c-0.429,0-0.8-0.015-1.089-0.121
							c-0.154-0.057-0.291-0.141-0.404-0.265c-0.112-0.122-0.188-0.269-0.242-0.433c-0.102-0.316-0.133-0.74-0.143-1.281
							c-0.006-0.341-0.004-0.747-0.002-1.225c0.001-0.23,0.003-0.477,0.003-0.741c-2.341-1.028-3.754-3.682-4.584-6.492
							c-0.86-2.911-1.129-6.097-1.113-8.146l0.004-0.523l0.46,0.248c0.231,0.125,0.592,0.208,1.018,0.2
							c0.422-0.007,0.884-0.102,1.309-0.31c0.83-0.405,1.551-1.252,1.529-2.816c-0.014-0.988-0.231-1.706-0.56-2.23
							c-0.329-0.523-0.783-0.875-1.309-1.11c-1.068-0.478-2.407-0.467-3.496-0.404l-0.226,0.014l-0.084-0.21l0.292-0.117
							c-0.166,0.067-0.238,0.095-0.268,0.107c-0.024,0.009-0.024,0.009-0.024,0.009l0,0l0-0.002l-0.002-0.005l-0.006-0.017
							c-0.006-0.015-0.014-0.036-0.024-0.064c-0.02-0.056-0.05-0.138-0.086-0.245c-0.072-0.215-0.171-0.531-0.28-0.944
							c-0.219-0.825-0.48-2.032-0.655-3.575c-0.34-3.01-0.347-7.293,0.942-12.488h-2.352h-0.315v-0.315V66.993 M177.537,66.992
							H172.9h-0.317l0.003-0.318l0.314,0.003L177.537,66.992z M160.417,80.752h0.311l0.003-0.311l0.249-21.151l0.004-0.318h-0.053
							c-0.262-3.561-3.147-6.386-6.705-6.386c-3.731,0-6.741,3.1-6.741,6.908c0,0.064,0.008,0.123,0.014,0.161
							c0.006,0.04,0.009,0.061,0.01,0.079v20.704v0.315h0.315L160.417,80.752L160.417,80.752z M146.203,36.236
							c0,4.41,3.487,8,7.805,8c4.318,0,7.806-3.592,7.806-8.002s-3.487-8-7.806-8C149.689,28.234,146.203,31.826,146.203,36.236z"/>
						<path fill="none" stroke="#FFFFFF" stroke-width="1.5" d="M155.887,5.844l-3.359,0.037c0.536-0.632,0.984-1.591,0.842-2.978
							c0.166-0.131,0.405-0.262,0.67-0.305c0.286-0.047,0.621,0.003,0.964,0.308c-0.011,0.492,0.03,1.173,0.243,1.817
							C155.379,5.122,155.582,5.519,155.887,5.844z"/>
						<path fill="none" stroke="#FFFFFF" stroke-width="1.5" d="M172.577,23.074h-12.006l-6.452-3.353"/>
						<path fill="none" stroke="#FFFFFF" stroke-width="1.5" d="M135.662,23.074h11.867l6.59-3.353"/>
						<path fill="none" stroke="#FFFFFF" stroke-width="1.5" d="M172.577,24.902h-12.006l-6.452-3.447"/>
						<path fill="none" stroke="#FFFFFF" stroke-width="1.5" d="M135.662,24.902h11.867l6.59-3.447"/>
						<path fill="none" stroke="#FFFFFF" stroke-width="1.5" d="M147.811,73.181h12.692"/>
						<path fill="none" stroke="#FFFFFF" stroke-width="1.5" d="M147.811,78.383h12.636"/>
						<path fill="none" stroke="#FFFFFF" stroke-width="1.5" d="M149.729,71.621v8.818"/>
						<path fill="none" stroke="#FFFFFF" stroke-width="1.5" d="M151.455,71.621v8.818"/>
						<path fill="none" stroke="#FFFFFF" stroke-width="1.5" d="M153.854,71.621v8.818"/>
						<path fill="none" stroke="#FFFFFF" stroke-width="1.5" d="M156.432,71.621v8.818"/>
						<path fill="none" stroke="#FFFFFF" stroke-width="1.5" d="M158.615,71.621v8.818"/>
						<path fill="none" stroke="#FFFFFF" stroke-width="1.5" d="M147.811,71.447h12.711"/>
					</g>
				</g>
			</g>
			<g>
				<defs>
					<rect id="SVGID_7_" x="-1.553" y="-1.088" width="302.106" height="132.176"/>
				</defs>
				<clipPath id="SVGID_8_">
					<use xlink:href="#SVGID_7_"  overflow="visible"/>
				</clipPath>
				
					<line clip-path="url(#SVGID_8_)" fill="none" stroke="#FFFFFF" stroke-width="1.5" x1="130.297" y1="81.203" x2="127.772" y2="82.993"/>
			</g>
		</g>
	</g>
</g>
<rect display="none" fill="#020202" width="300" height="131"/>
<g>
	<g>
		<defs>
			<rect id="SVGID_9_" y="0.377" width="300" height="130.623"/>
		</defs>
		<clipPath id="SVGID_10_">
			<use xlink:href="#SVGID_9_"  overflow="visible"/>
		</clipPath>
		
			<rect x="-2.618" y="-0.084" display="none" clip-path="url(#SVGID_10_)" fill="#050505" stroke="#000000" stroke-width="0.5" stroke-miterlimit="10" width="305.831" height="150.469"/>
	</g>
	<g>
		<defs>
			<rect id="SVGID_11_" y="0.377" width="300" height="130.623"/>
		</defs>
		<clipPath id="SVGID_12_">
			<use xlink:href="#SVGID_11_"  overflow="visible"/>
		</clipPath>
		<g clip-path="url(#SVGID_12_)">
			<path fill="none" stroke="#FFFFFF" stroke-width="0.5" stroke-miterlimit="10" d="M40.405,121.549
				c3.681,0,6.665-2.969,6.665-6.633c0-3.663-2.984-6.633-6.665-6.633s-6.665,2.969-6.665,6.633
				C33.74,118.579,36.724,121.549,40.405,121.549z"/>
			<path fill="none" stroke="#FFFFFF" stroke-width="0.5" stroke-miterlimit="10" d="M40.405,130.586v-8.996"/>
			<path fill="none" stroke="#FFFFFF" stroke-width="0.5" stroke-miterlimit="10" d="M40.405,121.549
				c3.681,0,6.665-2.969,6.665-6.633c0-3.663-2.984-6.633-6.665-6.633s-6.665,2.969-6.665,6.633
				C33.74,118.579,36.724,121.549,40.405,121.549z"/>
			<path fill="none" stroke="#FFFFFF" stroke-width="0.5" stroke-miterlimit="10" d="M260.761,121.59
				c3.681,0,6.665-2.969,6.665-6.633c0-3.663-2.984-6.633-6.665-6.633c-3.681,0-6.665,2.969-6.665,6.633
				C254.096,118.621,257.08,121.59,260.761,121.59z"/>
			<path fill="none" stroke="#FFFFFF" stroke-width="0.5" stroke-miterlimit="10" d="M260.761,130.586v-8.996"/>
			<path fill="none" stroke="#FFFFFF" stroke-width="0.5" stroke-miterlimit="10" d="M260.761,121.549
				c3.681,0,6.665-2.969,6.665-6.633c0-3.663-2.984-6.633-6.665-6.633c-3.681,0-6.665,2.969-6.665,6.633
				C254.096,118.579,257.08,121.549,260.761,121.549z"/>
			<path fill="none" stroke="#FFFFFF" stroke-width="0.5" stroke-miterlimit="10" d="M0,130.586h300"/>
			<g>
				<g>
					<defs>
						<rect id="SVGID_13_" x="110.408" y="3.694" width="87.892" height="128.509"/>
					</defs>
					<clipPath id="SVGID_14_">
						<use xlink:href="#SVGID_13_"  overflow="visible"/>
					</clipPath>
					<g clip-path="url(#SVGID_14_)">
						<path fill="#FFFFFF" d="M154.596,31.174c-3.326,0-6.032,2.69-6.032,5.997s2.706,5.997,6.032,5.997
							c3.326,0,6.032-2.69,6.032-5.997S157.922,31.174,154.596,31.174z M154.596,42.768c-3.105,0-5.63-2.511-5.63-5.597
							s2.526-5.597,5.63-5.597c3.104,0,5.63,2.511,5.63,5.597C160.226,40.258,157.7,42.768,154.596,42.768z"/>
						<path fill="#FFFFFF" d="M154.797,36.376v-2.028c0-0.11-0.09-0.2-0.201-0.2c-0.111,0-0.201,0.089-0.201,0.2v2.028
							c-0.281,0.073-0.501,0.292-0.575,0.571h-1.436c-0.111,0-0.201,0.089-0.201,0.2c0,0.11,0.09,0.2,0.201,0.2h1.436
							c0.09,0.344,0.402,0.6,0.776,0.6c0.443,0,0.804-0.359,0.804-0.8C155.4,36.776,155.142,36.465,154.797,36.376z M154.596,37.547
							c-0.222,0-0.402-0.179-0.402-0.4c0-0.22,0.18-0.4,0.402-0.4c0.221,0,0.402,0.179,0.402,0.4
							C154.998,37.368,154.818,37.547,154.596,37.547z"/>
						<path fill="#FFFFFF" d="M154.596,33.149c0.111,0,0.201-0.089,0.201-0.2v-0.2c0-0.11-0.09-0.2-0.201-0.2
							c-0.111,0-0.201,0.09-0.201,0.2v0.2C154.395,33.06,154.485,33.149,154.596,33.149z"/>
						<path fill="#FFFFFF" d="M154.596,41.145c-0.111,0-0.201,0.089-0.201,0.2v0.2c0,0.11,0.09,0.2,0.201,0.2
							c0.111,0,0.201-0.09,0.201-0.2v-0.2C154.797,41.234,154.707,41.145,154.596,41.145z"/>
						<path fill="#FFFFFF" d="M159.02,36.947h-0.201c-0.111,0-0.201,0.089-0.201,0.2c0,0.11,0.09,0.2,0.201,0.2h0.201
							c0.111,0,0.201-0.089,0.201-0.2C159.22,37.036,159.13,36.947,159.02,36.947z"/>
						<path fill="#FFFFFF" d="M150.373,36.947h-0.201c-0.111,0-0.201,0.089-0.201,0.2c0,0.11,0.09,0.2,0.201,0.2h0.201
							c0.111,0,0.201-0.089,0.201-0.2C150.575,37.036,150.485,36.947,150.373,36.947z"/>
						<path fill="#FFFFFF" d="M157.582,33.896l-0.142,0.141c-0.079,0.078-0.079,0.205,0,0.283c0.039,0.039,0.09,0.058,0.142,0.058
							c0.051,0,0.103-0.02,0.142-0.058l0.142-0.141c0.079-0.078,0.079-0.205,0-0.283C157.787,33.818,157.66,33.818,157.582,33.896z"
							/>
						<path fill="#FFFFFF" d="M151.468,39.974l-0.142,0.141c-0.078,0.078-0.078,0.205,0,0.283c0.04,0.039,0.091,0.058,0.142,0.058
							c0.051,0,0.103-0.02,0.142-0.058l0.142-0.141c0.079-0.078,0.079-0.205,0-0.283C151.674,39.896,151.546,39.896,151.468,39.974z
							"/>
						<path fill="#FFFFFF" d="M157.723,39.974c-0.079-0.078-0.206-0.078-0.284,0c-0.079,0.078-0.079,0.205,0,0.283l0.142,0.141
							c0.039,0.039,0.091,0.058,0.142,0.058c0.052,0,0.103-0.02,0.142-0.058c0.079-0.078,0.079-0.205,0-0.283L157.723,39.974z"/>
						<path fill="#FFFFFF" d="M151.61,33.896c-0.079-0.078-0.205-0.078-0.285,0c-0.078,0.078-0.078,0.205,0,0.283l0.142,0.141
							c0.039,0.039,0.09,0.058,0.142,0.058c0.052,0,0.103-0.02,0.142-0.058c0.079-0.078,0.079-0.205,0-0.283L151.61,33.896z"/>
						<path fill="none" stroke="#FFFFFF" stroke-width="0.5" d="M130.852,81.81c0.179-0.605,0.346-1.426,0.471-2.495
							c0.249-2.139,0.325-5.29-0.045-9.734l-0.001-0.016l-0.003-0.016l-0.35-1.834h5.079h0.312v-0.311V27.405
							c0.033-0.682,0.11-1.781,0.235-2.868c0.127-1.101,0.299-2.154,0.513-2.756l0.01-0.027l0.005-0.028
							c0.704-4.382,4.479-12.312,15.065-13.83l4.995-0.118c5.205,0.572,8.805,3.358,11.217,6.45
							c2.419,3.101,3.631,6.497,4.044,8.225l0,0l0.523,45.204 M128.543,83.162l0.316,0.894l0.005,0.013l0.003,0.012l0.543,2.083
							l0.01,0.037v0.039c0.016,2.842,0.04,9.064,0,11.193c-0.023,1.245-0.902,1.947-1.873,2.314
							c-0.937,0.354-2.034,0.431-2.785,0.396c-0.697,0.31-1.132,1.003-1.383,1.822c-0.254,0.828-0.299,1.722-0.262,2.296
							c0.246,1.225,0.848,1.925,1.481,2.316c0.648,0.4,1.349,0.488,1.782,0.449l0.307-0.027l0.031,0.305
							c0.983,9.509-3.144,13.667-5.649,14.65v3.255v0.307l-0.309,0.003c-1.923,0.019-3.421,0.859-4.521,1.914
							c-0.934,0.896-1.572,1.94-1.924,2.744h28.684v-15.106v-0.311h0.312h0.398v-1.104h-0.398h-0.312v-0.311v-0.778
							c-0.094-2.943,0.726-5.089,2.115-6.609c1.383-1.515,3.302-2.375,5.348-2.806c4.082-0.86,8.777-0.035,11.123,0.859
							c1.954,0.745,3.142,2.422,3.837,4.164c0.695,1.743,0.915,3.594,0.905,4.776l-0.003,0.308h-0.31h-0.32v1.447h0.32h0.312v0.311
							v15.158h28.2c-0.118-1.2-0.908-2.328-1.918-3.193c-0.544-0.465-1.138-0.843-1.698-1.103c-0.565-0.262-1.071-0.395-1.441-0.395
							c-0.426,0-0.795-0.015-1.082-0.119c-0.152-0.056-0.289-0.139-0.401-0.261c-0.112-0.121-0.187-0.266-0.24-0.428
							c-0.102-0.312-0.132-0.731-0.142-1.266c-0.006-0.337-0.004-0.738-0.002-1.211c0.001-0.228,0.002-0.471,0.003-0.732
							c-2.325-1.016-3.728-3.639-4.552-6.416c-0.854-2.877-1.121-6.025-1.106-8.051l0.004-0.517l0.457,0.245
							c0.229,0.123,0.588,0.205,1.011,0.198c0.419-0.007,0.878-0.101,1.3-0.306c0.824-0.4,1.54-1.237,1.518-2.782
							c-0.014-0.977-0.229-1.686-0.556-2.204c-0.326-0.516-0.778-0.864-1.3-1.097c-1.061-0.473-2.39-0.462-3.472-0.399l-0.225,0.013
							l-0.084-0.208l0.29-0.116c-0.165,0.066-0.236,0.094-0.266,0.106c-0.023,0.009-0.023,0.009-0.023,0.009l0,0l0-0.002
							l-0.002-0.005l-0.006-0.017c-0.006-0.015-0.014-0.036-0.024-0.063c-0.02-0.055-0.05-0.136-0.085-0.242
							c-0.071-0.212-0.17-0.525-0.278-0.933c-0.217-0.815-0.477-2.008-0.65-3.533c-0.337-2.974-0.345-7.207,0.936-12.341h-2.336
							h-0.312v-0.311V67.658 M177.841,67.658h-4.605h-0.315l0.003-0.314l0.312,0.003L177.841,67.658z M160.841,81.255h0.309
							l0.003-0.307l0.247-20.902l0.004-0.315h-0.053c-0.26-3.519-3.125-6.311-6.658-6.311c-3.705,0-6.694,3.064-6.694,6.827
							c0,0.064,0.008,0.122,0.013,0.159c0.006,0.04,0.009,0.06,0.01,0.078v20.461v0.311h0.312L160.841,81.255L160.841,81.255z
							 M146.726,37.262c0,4.358,3.462,7.906,7.751,7.906c4.288,0,7.752-3.55,7.752-7.908s-3.462-7.906-7.752-7.906
							C150.188,29.354,146.726,32.904,146.726,37.262z"/>
						<path fill="none" stroke="#FFFFFF" stroke-width="0.5" d="M156.343,7.228l-3.336,0.037c0.532-0.625,0.977-1.572,0.837-2.943
							c0.165-0.129,0.402-0.259,0.666-0.302c0.284-0.046,0.616,0.003,0.957,0.305c-0.011,0.486,0.03,1.16,0.241,1.796
							C155.838,6.515,156.039,6.907,156.343,7.228z"/>
						<path fill="none" stroke="#FFFFFF" stroke-width="0.5" d="M172.916,24.255h-11.922l-6.407-3.313"/>
						<path fill="none" stroke="#FFFFFF" stroke-width="0.5" d="M136.259,24.255h11.785l6.544-3.313"/>
						<path fill="none" stroke="#FFFFFF" stroke-width="0.5" d="M172.916,26.062h-11.922l-6.407-3.406"/>
						<path fill="none" stroke="#FFFFFF" stroke-width="0.5" d="M136.259,26.062h11.785l6.544-3.406"/>
						<path fill="none" stroke="#FFFFFF" stroke-width="0.5" d="M148.322,73.774h12.603"/>
						<path fill="none" stroke="#FFFFFF" stroke-width="0.5" d="M148.322,78.914h12.548"/>
						<path fill="none" stroke="#FFFFFF" stroke-width="0.5" d="M150.227,72.232v8.714"/>
						<path fill="none" stroke="#FFFFFF" stroke-width="0.5" d="M151.941,72.232v8.714"/>
						<path fill="none" stroke="#FFFFFF" stroke-width="0.5" d="M154.324,72.232v8.714"/>
						<path fill="none" stroke="#FFFFFF" stroke-width="0.5" d="M156.884,72.232v8.714"/>
						<path fill="none" stroke="#FFFFFF" stroke-width="0.5" d="M159.051,72.232v8.714"/>
						<path fill="none" stroke="#FFFFFF" stroke-width="0.5" d="M148.322,72.06h12.622"/>
					</g>
				</g>
			</g>
			<g>
				<defs>
					<rect id="SVGID_15_" y="0.377" width="300" height="130.623"/>
				</defs>
				<clipPath id="SVGID_16_">
					<use xlink:href="#SVGID_15_"  overflow="visible"/>
				</clipPath>
				
					<line clip-path="url(#SVGID_16_)" fill="none" stroke="#FFFFFF" stroke-width="0.5" x1="130.931" y1="81.701" x2="128.424" y2="83.47"/>
			</g>
		</g>
	</g>
</g>
</svg>
