<?xml version="1.0" encoding="utf-8"?>
<!-- Generator: Adobe Illustrator 24.0.3, SVG Export Plug-In . SVG Version: 6.00 Build 0)  -->
<svg version="1.1" id="Layer_1" xmlns="http://www.w3.org/2000/svg" xmlns:xlink="http://www.w3.org/1999/xlink" x="0px" y="0px"
	 viewBox="0 0 720.2 315.1" style="enable-background:new 0 0 720.2 315.1;" xml:space="preserve">
<style type="text/css">
	.st0{fill:none;stroke:#FFFFFF;stroke-miterlimit:10;}
	.st1{fill:none;stroke:#FFFFFF;stroke-width:1.5;stroke-miterlimit:10;}
	.st2{fill:none;stroke:#FFFFFF;stroke-width:1.5;stroke-linejoin:round;stroke-miterlimit:10;}
</style>
<g>
	<circle class="st0" cx="97" cy="276.3" r="16"/>
	<line class="st1" x1="97" y1="314.2" x2="97" y2="292.5"/>
	<circle class="st1" cx="97" cy="276.3" r="16"/>
</g>
<g>
	<circle class="st0" cx="626" cy="276.5" r="16"/>
	<line class="st1" x1="626" y1="314.2" x2="626" y2="292.5"/>
	<circle class="st1" cx="626" cy="276.3" r="16"/>
</g>
<polyline class="st2" points="0,314.2 201.7,314.2 201.7,305.2 519.5,305.2 519.5,314.2 720.2,314.2 "/>
<line class="st2" x1="201.7" y1="314.2" x2="519.3" y2="314.2"/>
<g id="Layer_4">
</g>
<g id="Layer_3">
</g>
<g id="Ikqn9t_1_">
	
		<image style="overflow:visible;" width="641" height="900" id="Ikqn9t_2_" xlink:href="FCD8F4A81641591C.jpg"  transform="matrix(0.4234 0 0 0.4234 1048.7142 -18.0359)">
	</image>
</g>
<g>
	<g>
		<path class="st1" d="M320.8,257.2h-9.9c0,0-13.4,0.9-15.2,17.9l-0.2,20.8h-23l-0.4-20.8c0,0-1.8-17.9-17.1-17.9h-10.3l-3.7-4.7
			l3.7-4.7h4.2c0,0,21.3,1.4,22.9-10.4c0,0,2.9-18.9,2.9-30L278.6,76l6-11.5l6.3,11.4l1.7,131.4c0,0,0.5,19.3,5.3,30.2
			c3,6.7,9.5,10.6,19,10.6h3.8"/>
		<line class="st1" x1="284.6" y1="64.5" x2="284.6" y2="295.9"/>
		<line class="st1" x1="241" y1="252.5" x2="320.8" y2="252.5"/>
	</g>
	<g>
		<path class="st1" d="M395.7,257.2h9.9c0,0,13.4,0.9,15.2,17.9l0.2,20.8h23l0.4-20.8c0,0,1.8-17.9,17.1-17.9h10.3l3.7-4.7l-3.7-4.7
			h-4.2c0,0-21.3,1.4-22.9-10.4c0,0-2.9-18.9-2.9-30L437.9,76l-6-11.5l-6.3,11.4l-1.7,131.4c0,0-0.5,19.3-5.3,30.2
			c-3,6.7-9.5,10.6-19,10.6h-3.8"/>
		<line class="st1" x1="431.9" y1="64.5" x2="431.9" y2="295.9"/>
		<line class="st1" x1="475.5" y1="252.5" x2="395.7" y2="252.5"/>
	</g>
	<g>
		<path class="st1" d="M320.3,248.2h4.2c0,0,21.3,1,22.9-10.8c0,0,2.9-18.9,2.9-30L354.2,76l6-11.5l6.3,11.4l1.7,131.4
			c0,0,0.5,19.3,5.3,30.2c3,6.7,9.5,10.6,19,10.6h3.8"/>
		<path class="st1" d="M396.4,257.2h-8.9c0,0-13.4,0.9-15.2,17.9l-0.2,20.8h-24l-0.4-20.8c0,0-1.8-17.9-17.1-17.9h-10.3"/>
		<line class="st1" x1="360.2" y1="64.5" x2="360.2" y2="295.9"/>
		<line class="st1" x1="316.6" y1="252.5" x2="396.4" y2="252.5"/>
	</g>
</g>
<rect x="221" y="296" class="st2" width="279.7" height="9.2"/>
</svg>
