<svg xmlns="http://www.w3.org/2000/svg" width="93" height="94" viewBox="0 0 93 94">
    <g fill="none" fill-rule="evenodd">
        <circle cx="46.357" cy="46.926" r="46.357" fill="#F4AC00"/>
        <path fill="#FFF" stroke="#F4AC00" d="M65.028 61.653V44.358c0-4.985-1.935-9.67-5.451-13.194-.321-.321-.652-.63-.992-.925l1.945-2.805a2.98 2.98 0 1 0-3.266-2.263l-1.94 2.798a18.53 18.53 0 0 0-8.931-2.272c-3.205 0-6.223.809-8.863 2.23l-1.889-2.726a2.98 2.98 0 1 0-3.29 2.228l1.902 2.743c-4.017 3.426-6.568 8.514-6.568 14.186V61.58c0 3.75-3.03 6.801-6.754 6.801v3.972h50.851v-3.972c-3.724 0-6.754-3.019-6.754-6.729zm-11.42-.03h-3.974c0 2.717.518 4.986 1.536 6.759h-9.548c1.032-1.774 1.557-4.043 1.557-6.76h-3.973c0 4.485-1.604 6.76-4.767 6.76H29.26a10.737 10.737 0 0 0 2.398-6.801V44.358c0-8.099 6.61-14.688 14.735-14.688 8.085 0 14.663 6.589 14.663 14.688v17.295c0 2.547.897 4.889 2.392 6.729h-5.173c-3.098 0-4.668-2.275-4.668-6.76zM48.441 44.34a1.986 1.986 0 1 1-3.972 0 1.986 1.986 0 0 1 3.972 0zm-1.986-9.932c-5.476 0-9.932 4.456-9.932 9.932s4.456 9.932 9.932 9.932 9.932-4.456 9.932-9.932-4.456-9.932-9.932-9.932zm0 15.89a5.965 5.965 0 0 1-5.959-5.958 5.966 5.966 0 0 1 5.96-5.96 5.966 5.966 0 0 1 5.958 5.96 5.966 5.966 0 0 1-5.959 5.959z"/>
    </g>
</svg>
