<svg xmlns="http://www.w3.org/2000/svg" width="86" height="87" viewBox="0 0 86 87">
    <g fill="none" fill-rule="evenodd">
        <circle cx="43" cy="43.859" r="43" fill="#FF7851" fill-rule="nonzero" transform="translate(0 -.176)"/>
        <g fill="#FFF">
            <path d="M42.834 46.217c6.828 0 12.364-5.536 12.364-12.362 0-6.825-5.536-12.325-12.364-12.325-6.825 0-12.362 5.537-12.362 12.325 0 6.789 5.537 12.362 12.362 12.362zm0-21.463c5.007 0 9.103 4.096 9.103 9.101 0 5.006-4.096 9.102-9.103 9.102-5.005 0-9.101-4.096-9.101-9.102 0-5.005 4.096-9.1 9.101-9.1zM21.447 65.522h42.928c.911 0 1.632-.72 1.632-1.632 0-8.533-6.94-15.51-15.512-15.51h-15.17c-8.532 0-15.51 6.94-15.51 15.51 0 .911.721 1.632 1.632 1.632zm13.879-13.88h15.169c6.22 0 11.34 4.627 12.136 10.619H23.19c.797-5.955 5.917-10.62 12.135-10.62z"/>
        </g>
    </g>
</svg>
