<svg xmlns="http://www.w3.org/2000/svg" width="86" height="87" viewBox="0 0 86 87">
    <g fill="none" fill-rule="evenodd">
        <circle cx="43" cy="43.418" r="43" fill="#FF7851" fill-rule="nonzero"/>
        <path fill="#FFF" stroke="#FFF" d="M24.182 45.542a1.935 1.935 0 0 0-1.933 1.934c0 .529.202 1.015.567 1.378l13.739 13.737a14.208 14.208 0 0 0 10.123 4.196c6.443 0 11.686-5.241 11.686-11.685V37.045c0-1.171-.951-2.125-2.124-2.125a2.127 2.127 0 0 0-2.124 2.125v5.31a1.063 1.063 0 0 1-2.125 0V34.92c0-1.17-.952-2.124-2.124-2.124a2.127 2.127 0 0 0-2.125 2.124v7.436a1.063 1.063 0 0 1-2.124 0v-9.56c0-1.17-.952-2.125-2.125-2.125a2.127 2.127 0 0 0-2.124 2.125v9.56a1.063 1.063 0 0 1-2.125 0V22.174c0-1.171-.951-2.125-2.124-2.125a2.127 2.127 0 0 0-2.124 2.125v26.555a1.063 1.063 0 0 1-1.536.95L26.08 45.99a4.275 4.275 0 0 0-1.899-.449zm22.498 23.37c-4.393 0-8.525-1.71-11.63-4.817L21.315 50.36a4.03 4.03 0 0 1-1.19-2.87c0-2.25 1.819-4.071 4.058-4.071.984 0 1.97.232 2.849.671l5.84 2.921V22.174a4.253 4.253 0 0 1 4.249-4.25 4.253 4.253 0 0 1 4.249 4.25v6.944a4.214 4.214 0 0 1 2.124-.571 4.26 4.26 0 0 1 4.011 2.842 4.235 4.235 0 0 1 2.363-.718 4.26 4.26 0 0 1 4.01 2.843 4.235 4.235 0 0 1 2.363-.718 4.253 4.253 0 0 1 4.249 4.249v18.057c0 7.614-6.195 13.81-13.809 13.81z"/>
    </g>
</svg>
