<svg xmlns="http://www.w3.org/2000/svg" width="86" height="87" viewBox="0 0 86 87">
    <g fill="none" fill-rule="evenodd">
        <circle cx="43" cy="43.859" r="43" fill="#FF7851" fill-rule="nonzero" transform="translate(0 -.176)"/>
        <path fill="#FFF" stroke="#FF7851" d="M60.825 56.67V39.374c0-4.985-1.936-9.67-5.452-13.194-.32-.321-.652-.63-.992-.925l1.945-2.805a2.98 2.98 0 1 0-3.265-2.263l-1.94 2.798a18.53 18.53 0 0 0-8.932-2.272c-3.204 0-6.222.81-8.862 2.231l-1.89-2.726a2.98 2.98 0 1 0-3.29 2.228l1.902 2.743c-4.016 3.425-6.568 8.513-6.568 14.185v17.223c0 3.75-3.03 6.801-6.753 6.801v3.973h50.85v-3.973c-3.723 0-6.753-3.018-6.753-6.728zm-11.421-.032H45.43c0 2.718.517 4.987 1.536 6.76h-9.548c1.032-1.774 1.556-4.043 1.556-6.76h-3.973c0 4.486-1.603 6.76-4.767 6.76h-5.178a10.737 10.737 0 0 0 2.397-6.801V39.374c0-8.099 6.61-14.688 14.735-14.688 8.086 0 14.664 6.59 14.664 14.688V56.67c0 2.547.897 4.888 2.392 6.728H54.07c-3.097 0-4.667-2.274-4.667-6.76zm-5.165-17.28a1.986 1.986 0 1 1-3.973 0 1.986 1.986 0 0 1 3.973 0zm-1.986-9.933c-5.477 0-9.932 4.456-9.932 9.932s4.455 9.932 9.932 9.932c5.476 0 9.931-4.456 9.931-9.932s-4.455-9.932-9.931-9.932zm0 15.891a5.965 5.965 0 0 1-5.96-5.959 5.966 5.966 0 0 1 5.96-5.959 5.966 5.966 0 0 1 5.959 5.96 5.966 5.966 0 0 1-5.96 5.958z"/>
    </g>
</svg>
