<svg xmlns="http://www.w3.org/2000/svg" width="86" height="87" viewBox="0 0 86 87">
    <g fill="none" fill-rule="evenodd">
        <circle cx="43" cy="43.859" r="43" fill="#FF7851" fill-rule="nonzero" transform="translate(0 -.176)"/>
        <path fill="#FFF" stroke="#FF7851" d="M66.237 51.78a24.503 24.503 0 0 0 1.37-8.097c0-2.835-.483-5.559-1.37-8.095a1.636 1.636 0 0 0-.078-.222C62.742 25.878 53.651 19.076 43 19.076s-19.742 6.802-23.16 16.29a1.597 1.597 0 0 0-.077.222 24.495 24.495 0 0 0-1.37 8.095c0 2.835.483 5.56 1.37 8.096.021.076.047.15.078.222 3.418 9.488 12.508 16.29 23.159 16.29s19.742-6.802 23.16-16.29c.03-.071.056-.146.077-.222zM43 64.763c-.937 0-2.448-1.696-3.711-5.485-.61-1.828-1.097-3.93-1.453-6.217h10.328c-.355 2.286-.843 4.387-1.453 6.217-1.263 3.789-2.774 5.485-3.711 5.485zm-5.592-15.23c-.17-1.88-.26-3.843-.26-5.851s.09-3.97.26-5.85h11.184c.169 1.88.258 3.842.258 5.85 0 2.008-.09 3.97-.258 5.851H37.408zM21.92 43.683c0-2.029.288-3.992.827-5.85H33.87a68.503 68.503 0 0 0-.249 5.85c0 1.965.084 3.932.25 5.851H22.746a20.995 20.995 0 0 1-.827-5.851zM43 22.603c.937 0 2.448 1.696 3.711 5.485.61 1.829 1.098 3.93 1.453 6.217H37.836c.355-2.287.843-4.388 1.453-6.217 1.263-3.789 2.774-5.485 3.711-5.485zm9.13 15.23h11.123a21.02 21.02 0 0 1 .827 5.85c0 2.03-.29 3.994-.827 5.851H52.13c.165-1.92.248-3.886.248-5.851 0-1.964-.083-3.93-.248-5.85zm9.745-3.528h-10.15c-.627-4.326-1.703-8.207-3.213-10.97 5.853 1.588 10.704 5.64 13.363 10.97zm-24.387-10.97c-1.51 2.763-2.586 6.644-3.214 10.97H24.125c2.66-5.33 7.51-9.382 13.363-10.97zM24.125 53.063h10.15c.627 4.327 1.703 8.208 3.213 10.97-5.853-1.589-10.704-5.64-13.363-10.97zm24.387 10.97c1.51-2.762 2.586-6.643 3.214-10.97h10.149c-2.66 5.33-7.51 9.381-13.363 10.97z"/>
    </g>
</svg>
