<svg xmlns="http://www.w3.org/2000/svg" width="93" height="93" viewBox="0 0 93 93">
    <g fill="none" fill-rule="evenodd">
        <circle cx="46.357" cy="46.357" r="46.357" fill="#1588D1"/>
        <g fill="#FFF">
            <path d="M46.349 48.812c6.827 0 12.364-5.536 12.364-12.362 0-6.825-5.537-12.325-12.364-12.325-6.826 0-12.363 5.537-12.363 12.325 0 6.789 5.537 12.362 12.363 12.362zm0-21.463c5.007 0 9.103 4.096 9.103 9.101 0 5.006-4.096 9.101-9.103 9.101-5.006 0-9.102-4.095-9.102-9.1 0-5.006 4.096-9.102 9.102-9.102zM24.961 68.117H67.89c.91 0 1.63-.72 1.63-1.632 0-8.533-6.94-15.51-15.51-15.51H38.84c-8.533 0-15.51 6.94-15.51 15.51 0 .911.72 1.632 1.631 1.632zm13.879-13.88h15.17c6.22 0 11.34 4.626 12.135 10.619h-39.44c.797-5.956 5.917-10.62 12.135-10.62z"/>
        </g>
    </g>
</svg>
