<?xml version="1.0" encoding="UTF-8"?>
<svg width="86px" height="87px" viewBox="0 0 86 87" version="1.1" xmlns="http://www.w3.org/2000/svg" xmlns:xlink="http://www.w3.org/1999/xlink">
    <!-- Generator: Sketch 51.3 (57544) - http://www.bohemiancoding.com/sketch -->
    <title>cubix-hero-easy-to-use</title>
    <desc>Created with Sketch.</desc>
    <defs>
        <linearGradient x1="50%" y1="0%" x2="50%" y2="100%" id="linearGradient-1">
            <stop stop-color="#FD8463" offset="0%"></stop>
            <stop stop-color="#9A2235" offset="100%"></stop>
        </linearGradient>
    </defs>
    <g id="Page-1" stroke="none" stroke-width="1" fill="none" fill-rule="evenodd">
        <g id="cubix-commerce-copy-2" transform="translate(-266.000000, -1398.000000)">
            <g id="cubix-hero-easy-to-use" transform="translate(266.000000, 1397.000000)">
                <g id="Group-31" transform="translate(0.000000, 0.558594)" fill="url(#linearGradient-1)" fill-rule="nonzero">
                    <circle id="Oval-6" cx="43" cy="43.859375" r="43"></circle>
                </g>
                <g id="Group-9" transform="translate(11.254094, 13.347200)" fill="#FFFFFF" stroke="#FFFFFF" stroke-width="0.5">
                    <g id="Group-21">
                        <path d="M49.8102067,22.6443207 C48.9860606,22.5890957 48.1642105,22.7844981 47.452448,23.2050301 L47.452448,21.6043498 C47.4609069,20.120766 46.6660047,18.7489615 45.3754064,18.0182267 C44.0848081,17.2876127 42.4992332,17.3126271 41.2318366,18.0829983 C41.0869464,16.5757293 40.1182726,15.2734093 38.7168617,14.7007365 C37.3153299,14.1286679 35.7117495,14.3807454 34.5529904,15.354978 C34.4467698,15.1996953 34.3272565,15.053355 34.1946922,14.919824 L25.5859906,6.31124325 C24.0595077,4.70198317 21.5179474,4.63539893 19.9088082,6.16151935 C18.3001523,7.68763976 18.2335681,10.2295626 19.7596885,11.8388226 L26.6004638,19.4429602 C26.769885,19.6312329 26.8643839,19.8761807 26.8647464,20.1301917 L26.8647464,29.839648 C26.8941111,31.0545989 26.728436,32.2664078 26.3743674,33.4290339 C26.2639173,33.7730726 25.9830792,34.0346967 25.6322733,34.1204949 C25.3023732,34.2036346 24.9530174,34.1115526 24.7061361,33.8779639 C23.9022916,33.1108555 23.1876288,32.2550486 22.5772531,31.326978 C20.7438301,28.5764809 16.0791873,23.6629025 13.3129808,23.6629025 C11.732602,23.6303958 10.2782621,24.523543 9.59380996,25.9485183 C9.11648194,27.2221986 9.48940201,28.6580497 10.5259893,29.538025 C12.4047282,31.4176099 16.6356672,38.4160846 18.7098085,43.6043382 C20.0749667,47.0162064 23.0724658,50.3643906 25.346239,52.5736339 C26.3224051,53.5379573 26.8695801,54.8545368 26.8647464,56.2267038 L26.8647464,58.662406 C26.8647464,60.3679776 28.2474267,61.7505371 29.9528775,61.7505371 L46.4228695,61.7505371 C48.1288036,61.7505371 49.511484,60.3679776 49.511484,58.662406 L49.511484,53.4416458 C49.5015749,53.1796592 49.6011491,52.925769 49.7861591,52.7402758 C53.5852068,49.2660528 53.6285892,43.4664568 53.6285892,43.2219924 L53.6285892,26.9251677 C53.6667755,24.7207581 52.0048281,22.8571244 49.8102067,22.6443207 Z M51.5700366,43.2219924 C51.5700366,43.2720212 51.5171076,48.3681927 48.3955031,51.2221309 C47.7852483,51.7980665 47.4430222,52.6023944 47.452448,53.4416458 L47.452448,58.662406 C47.452448,59.2307285 46.9916754,59.6915011 46.4228695,59.6915011 L29.9528775,59.6915011 C29.3840716,59.6915011 28.9234199,59.2307285 28.9234199,58.662406 L28.9234199,56.2267038 C28.9247491,54.2969693 28.1496651,52.4480785 26.7732686,51.0960922 C25.0290274,49.4033299 21.9102023,46.0768973 20.6154954,42.8386798 C18.5946456,37.7897577 14.2334384,30.3418696 11.9747705,28.0827183 C11.4857207,27.5927018 11.3210124,27.1395423 11.4875334,26.7359282 C11.8609368,26.0892998 12.559165,25.6998243 13.3053677,25.7219385 C14.7348141,25.7219385 18.7612874,29.3166415 20.8614099,32.4697858 C21.5590339,33.5281248 22.3752044,34.5038074 23.2938494,35.3776198 C24.0504445,36.0945786 25.1220761,36.3740874 26.1326823,36.1177804 C27.1631066,35.86099 27.9896696,35.0953317 28.3252493,34.0875049 C28.7515818,32.7134044 28.9536305,31.2783993 28.9234199,29.839648 L28.9234199,20.1282582 C28.9247491,19.3650168 28.6416151,18.6290857 28.1298469,18.0635426 L21.289555,10.4613385 C20.545165,9.67682879 20.578155,8.4377094 21.3626648,7.69331936 C22.1471745,6.94892932 23.3867773,6.98191934 24.1308048,7.76654994 L32.7393855,16.3751307 C32.9328544,16.5681162 33.0419753,16.8301028 33.0410085,17.1029653 L33.0410085,27.7810954 C33.0410085,28.3494178 33.5016603,28.8100696 34.0704661,28.8100696 C34.6389094,28.8100696 35.0995612,28.3494178 35.0995612,27.7810954 L35.0995612,18.5163396 C35.0995612,17.3795739 36.0214689,16.4576661 37.1581138,16.4576661 C38.2952421,16.4576661 39.2171498,17.3795739 39.2171498,18.5163396 L39.2171498,27.7810954 C39.2171498,28.3494178 39.6779224,28.8100696 40.2467282,28.8100696 C40.8150507,28.8100696 41.2761858,28.3494178 41.2761858,27.7810954 L41.2761858,21.6043498 C41.2761858,20.4672216 42.1980935,19.5453138 43.3352218,19.5453138 C44.4719876,19.5453138 45.3938953,20.4672216 45.3938953,21.6043498 L45.3938953,28.8100696 C45.3938953,29.3788754 45.8545471,29.839648 46.4228695,29.839648 C46.9916754,29.839648 47.452448,29.3788754 47.452448,28.8100696 L47.452448,26.7515169 C47.4509978,26.2053087 47.6686353,25.6814562 48.0566606,25.2966936 C48.4805763,24.8756782 49.0658167,24.6565907 49.6625371,24.6976771 C50.774651,24.8435341 51.597347,25.8041114 51.5700366,26.9251677 L51.5700366,43.2219924 Z" id="Fill-1"></path>
                        <path d="M35.0995612,3.85463529 C34.5312387,3.85463529 34.0704661,4.31540789 34.0704661,4.88421371 L34.0704661,9.25194642 C34.0709495,9.38656501 34.0978974,9.52057938 34.1498597,9.64468467 C34.2541468,9.89676221 34.454262,10.0978442 34.7068229,10.2017688 C34.8309282,10.2537311 34.9650634,10.2805581 35.0995612,10.2810415 L39.466448,10.2810415 C40.0352538,10.2810415 40.4959056,9.82038972 40.4959056,9.25194642 C40.4959056,8.68314059 40.0352538,8.22200547 39.466448,8.22200547 L37.5848088,8.22200547 L44.0626939,1.74472457 C44.4525319,1.34062712 44.4469732,0.698107344 44.0498846,0.301622976 C43.6529169,-0.0958281329 43.0110013,-0.101507732 42.6069039,0.288934509 L36.1291396,6.76669878 L36.1291396,4.88421371 C36.1291396,4.31540789 35.668367,3.85463529 35.0995612,3.85463529 Z" id="Fill-9"></path>
                        <path d="M1.13011942,45.280545 C1.40286103,45.2800616 1.66484765,45.171545 1.85747066,44.978922 L8.33535577,38.5006744 L8.33535577,40.3836428 C8.33535577,40.9519653 8.79649089,41.412617 9.36529672,41.412617 C9.93313581,41.412617 10.3948751,40.9519653 10.3948751,40.3836428 L10.3948751,36.0157893 C10.3939084,35.5999701 10.143281,35.2246332 9.75803497,35.0656044 C9.63392968,35.0141255 9.49979447,34.9871776 9.36529672,34.9863317 L4.99840991,34.9863317 C4.43008746,34.9863317 3.9694357,35.4469835 3.9694357,36.0157893 C3.9694357,36.5841117 4.43008746,37.0453677 4.99840991,37.0453677 L6.88053245,37.0453677 L0.402163968,43.523132 C0.108154072,43.8172627 0.0198181763,44.2605131 0.179330327,44.6446716 C0.33847995,45.0294342 0.713696031,45.2800616 1.13011942,45.280545 Z" id="Fill-11"></path>
                    </g>
                </g>
            </g>
        </g>
    </g>
</svg>