<?xml version="1.0" encoding="UTF-8"?>
<svg width="86px" height="87px" viewBox="0 0 86 87" version="1.1" xmlns="http://www.w3.org/2000/svg" xmlns:xlink="http://www.w3.org/1999/xlink">
    <!-- Generator: Sketch 51.3 (57544) - http://www.bohemiancoding.com/sketch -->
    <title>cubix-hero-mapworld-engine</title>
    <desc>Created with Sketch.</desc>
    <defs>
        <linearGradient x1="50%" y1="0%" x2="50%" y2="100%" id="linearGradient-1">
            <stop stop-color="#FD8463" offset="0%"></stop>
            <stop stop-color="#9A2235" offset="100%"></stop>
        </linearGradient>
    </defs>
    <g id="Page-1" stroke="none" stroke-width="1" fill="none" fill-rule="evenodd">
        <g id="cubix-commerce-copy-2" transform="translate(-657.000000, -993.000000)">
            <g id="cubix-hero-mapworld-engine" transform="translate(657.000000, 992.000000)">
                <g id="Group-32" fill="url(#linearGradient-1)" fill-rule="nonzero">
                    <g id="Group-31-Copy" transform="translate(0.000000, 0.824219)">
                        <circle id="Oval-6" cx="43" cy="43.859375" r="43"></circle>
                    </g>
                </g>
                <g id="Group-22" transform="translate(18.500000, 19.000000)" fill="#FFFFFF" stroke="#FFFFFF" stroke-width="0.5">
                    <path d="M45.2431083,19.9136635 L35.7036747,19.9136635 C35.2168014,19.9136635 34.8273028,20.3020681 34.8273028,20.7889413 C34.8273028,21.2725323 35.2168014,21.6609368 35.7036747,21.6609368 L43.6697965,21.6609368 L46.2037257,45.295625 L1.98250417,45.295625 L4.9617309,21.6609368 L12.9453583,21.6609368 C13.4278552,21.6609368 13.8217302,21.2725323 13.8217302,20.7889413 C13.8217302,20.3020681 13.4278552,19.9136635 12.9453583,19.9136635 L3.41905382,19.9136635 L0,47.0472747 L48.1534069,47.0472747 L45.2431083,19.9136635 Z" id="Fill-1"></path>
                    <path d="M23.3305292,33.8754382 C23.2025198,33.9531191 23.0613813,34.0209531 22.9421247,34.1019163 C22.7495635,34.2266434 22.5613788,34.3546528 22.3731941,34.4914149 C21.9847896,34.7780684 21.9038264,35.325117 22.1850094,35.7135215 C22.3567826,35.9487524 22.6259306,36.0723854 22.8950785,36.0723854 C23.0745104,36.0723854 23.2539424,36.0165865 23.4114924,35.9017063 C23.5657601,35.7857319 23.7244042,35.6796045 23.8907069,35.572383 C24.172984,35.3885747 24.4716726,35.2178955 24.7791139,35.0636278 C25.1894003,34.8546552 25.3524208,34.3710642 25.1817417,33.9531191 C25.1894003,33.9443663 25.1981531,33.9399899 25.2025295,33.9312372 C26.7878764,32.2561743 32.1216003,25.9694917 34.3316767,15.4978872 C34.7802566,13.3786208 34.8831017,11.3403177 34.6303653,9.44205903 C33.8787205,3.68929583 30.305399,0.646611458 24.2922406,0.646611458 C18.2834587,0.646611458 14.7057608,3.68929583 13.954116,9.44205903 C13.7057559,11.3403177 13.8042247,13.3786208 14.2528045,15.4978872 C16.440999,25.8710229 21.6937597,32.1281649 23.3305292,33.8754382 Z M15.6893542,9.67291354 C16.3304951,4.78011076 19.1467014,2.39935521 24.2922406,2.39935521 C29.4421563,2.39935521 32.2539861,4.78011076 32.8951271,9.67291354 C33.1216052,11.3698583 33.0286069,13.2123181 32.6216028,15.1390233 C30.6347222,24.5504476 25.8994694,30.5253125 24.2922406,32.3371375 C22.6850118,30.5209361 17.949759,24.5460712 15.9672549,15.1390233 C15.5613448,13.2123181 15.4672524,11.3698583 15.6893542,9.67291354 Z" id="Fill-4"></path>
                    <path d="M24.2922406,17.2079611 C27.8393038,17.2079611 30.7244382,14.3272031 30.7244382,10.7801399 C30.7244382,7.23307674 27.8393038,4.35231875 24.2922406,4.35231875 C20.7495538,4.35231875 17.8644194,7.23307674 17.8644194,10.7801399 C17.8644194,14.3272031 20.7495538,17.2079611 24.2922406,17.2079611 Z M24.2922406,6.10068611 C26.873216,6.10068611 28.9716944,8.19916458 28.9716944,10.7801399 C28.9716944,13.3611153 26.873216,15.4595937 24.2922406,15.4595937 C21.7112653,15.4595937 19.6127868,13.3611153 19.6127868,10.7801399 C19.6127868,8.19916458 21.7156417,6.10068611 24.2922406,6.10068611 Z" id="Fill-5"></path>
                    <path d="M27.5066983,32.3032205 C27.0362365,32.4060656 26.7331715,32.8710569 26.8349226,33.3415187 C26.9202622,33.7561816 27.2845965,34.0340823 27.6905066,34.0340823 C27.7495878,34.0340823 27.8141396,34.0297059 27.8743149,34.0165767 C28.3863524,33.9060729 28.9421538,33.8163569 29.5231194,33.7430524 C30.0067104,33.6839712 30.3436924,33.2474264 30.2846111,32.7649295 C30.2244358,32.2857149 29.7922674,31.9399802 29.3097705,32.0034378 C28.6773823,32.0854951 28.0701583,32.1828698 27.5066983,32.3032205 Z" id="Fill-6"></path>
                    <path d="M32.0318844,32.657708 C32.0537663,33.1281698 32.4421708,33.4957865 32.9082563,33.4957865 C32.9213854,33.4957865 32.9345146,33.4957865 32.9465497,33.4957865 L34.6992934,33.4224819 C35.1817903,33.4016941 35.5537833,32.9914076 35.5329955,32.5078167 C35.5111135,32.0253198 35.0581573,31.6489503 34.6183302,31.6752087 L32.8699628,31.7474191 C32.387466,31.769301 32.0154729,32.1752111 32.0318844,32.657708 Z" id="Fill-7"></path>
                    <path d="M19.6335747,36.6883622 C19.1849948,37.0253441 18.7189094,37.350291 18.2539181,37.6533559 C17.8469139,37.9192215 17.7320337,38.4618937 17.9924288,38.8678038 C18.1642021,39.1238226 18.4453851,39.2649611 18.7320385,39.2649611 C18.895059,39.2649611 19.0569854,39.2179149 19.2068767,39.1238226 C19.7068792,38.7988757 20.2068816,38.4487646 20.6893785,38.0855243 C21.0745007,37.7944944 21.1510875,37.2430694 20.8600576,36.8590413 C20.5701219,36.4739191 20.0230733,36.3929559 19.6335747,36.6883622 Z" id="Fill-8"></path>
                    <path d="M39.1435163,30.913717 C38.8448278,31.1237837 38.4640819,31.2725809 37.9640795,31.375426 C37.4903354,31.4738948 37.1861764,31.9356038 37.2846451,32.4093479 C37.3699847,32.8240108 37.733225,33.1062878 38.1391351,33.1062878 C38.1993104,33.1062878 38.2594858,33.1019115 38.318567,33.0898764 C39.0538003,32.9356087 39.6522715,32.6960014 40.152274,32.3415139 L40.2726247,32.2561743 C40.6566528,31.9651444 40.7332396,31.4180958 40.4389274,31.0296913 C40.1478976,30.6445691 39.600849,30.5723587 39.2124444,30.8622944 L39.1435163,30.913717 Z" id="Fill-9"></path>
                    <path d="M7.75714931,37.7605774 C7.88078229,37.2901156 7.60725799,36.8119951 7.13679618,36.6839858 C6.67618125,36.5559764 6.19259028,36.832783 6.0645809,37.3032448 C5.95298299,37.7091549 5.88952535,38.1238177 5.8676434,38.5297278 C5.86326701,38.6325729 5.86326701,38.7354181 5.86326701,38.8415455 C5.86326701,39.0133188 5.87201979,39.1839979 5.88514896,39.3546771 C5.93219514,39.8032569 6.31294097,40.141333 6.75714444,40.141333 C6.78668507,40.141333 6.81622569,40.1369566 6.84686042,40.1369566 C7.32935729,40.085534 7.6805625,39.657742 7.62913993,39.1752451 C7.61601076,39.0603649 7.61163438,38.9443906 7.61163438,38.8338868 C7.61163438,38.7605823 7.61601076,38.6883719 7.62038715,38.6150674 C7.63351632,38.3338844 7.6805625,38.0428545 7.75714931,37.7605774 Z" id="Fill-10"></path>
                    <path d="M39.1227285,24.1106205 C38.4301649,24.0198104 37.7211899,24.0756094 37.0330028,24.2681705 C36.5712937,24.4005562 36.2977694,24.8841472 36.4301552,25.3491385 C36.540659,25.7342608 36.8918642,25.9859031 37.271516,25.9859031 C37.3535733,25.9859031 37.4301601,25.9782444 37.5111233,25.9519861 C37.9640795,25.8239767 38.4345413,25.7856833 38.8874976,25.8447646 C39.3787472,25.9093163 39.8109156,25.5756167 39.8743733,25.0974962 C39.938925,24.6139052 39.600849,24.1740781 39.1227285,24.1106205 Z" id="Fill-11"></path>
                    <path d="M40.8667194,28.4476219 C40.7212045,28.9093309 40.9815997,29.4005806 41.4433087,29.5417191 C41.5286483,29.5679774 41.6139878,29.5811066 41.6993274,29.5811066 C42.0756969,29.5811066 42.4214316,29.3414993 42.5374059,28.9651299 C42.6227455,28.6872292 42.6785444,28.4005757 42.6949559,28.1193927 C42.6993323,28.0460882 42.7037087,27.9738778 42.7037087,27.9005733 C42.7037087,27.4902868 42.6271219,27.0800003 42.4816069,26.6828431 C42.3109278,26.2298868 41.806549,25.9990323 41.3579691,26.1653351 C40.9006365,26.3371083 40.6697819,26.8414872 40.8404611,27.2944434 C40.9137656,27.4946632 40.952059,27.7003535 40.952059,27.9005733 L40.952059,28.0034184 C40.9389299,28.1489333 40.9137656,28.2944483 40.8667194,28.4476219 Z" id="Fill-12"></path>
                    <path d="M15.2998556,39.2988781 C14.7878181,39.5428618 14.2659337,39.7649635 13.7484257,39.9662774 C13.2954694,40.1369566 13.0733677,40.6457118 13.2484233,41.0986681 C13.380809,41.4444028 13.7101323,41.6588458 14.0646198,41.6588458 C14.1674649,41.6588458 14.2746865,41.6369639 14.3775316,41.5986705 C14.9366153,41.3853215 15.4967931,41.1457142 16.0438417,40.8853191 C16.4836688,40.6840052 16.6718535,40.1577444 16.4628809,39.7222937 C16.261567,39.2824667 15.7407767,39.0942819 15.2998556,39.2988781 Z" id="Fill-13"></path>
                    <path d="M8.92783333,35.6577226 C9.06897187,35.6577226 9.21448681,35.6238056 9.34687257,35.5515951 C9.59851493,35.414833 9.86875694,35.3283993 10.1455635,35.2988587 C10.2615378,35.2813531 10.3851708,35.2813531 10.5011451,35.2988587 C10.9923948,35.3634104 11.4201868,35.0253344 11.4836444,34.5472139 C11.5438198,34.0679993 11.2057437,33.6281722 10.7276233,33.5636205 C10.466134,33.5297035 10.2013625,33.5297035 9.94972014,33.5548677 C9.44534132,33.6106667 8.96175035,33.7649344 8.5087941,34.0122003 C8.08647257,34.2430549 7.92782847,34.7780684 8.15868299,35.2003899 C8.31732708,35.4914198 8.62039201,35.6577226 8.92783333,35.6577226 Z" id="Fill-14"></path>
                    <path d="M8.74840139,42.5220885 C8.93658611,42.5691347 9.12914722,42.6074281 9.32170833,42.628216 C9.54381007,42.6544743 9.76591181,42.6708858 9.99238993,42.6708858 C10.2659142,42.6708858 10.5394385,42.6500979 10.8173392,42.6161809 C11.2954597,42.5560056 11.6335358,42.1161785 11.5733604,41.6369639 C11.5131851,41.1588434 11.0777344,40.8207674 10.5952375,40.8809427 C10.2440323,40.9236125 9.8851684,40.9356476 9.5306809,40.8929778 C9.4147066,40.8765663 9.29982639,40.8546844 9.18822847,40.8251438 C8.71886076,40.7015108 8.23964618,40.9826938 8.12038958,41.4531556 C8.00003889,41.9236174 8.27793958,42.3973615 8.74840139,42.5220885 Z" id="Fill-15"></path>
                </g>
            </g>
        </g>
    </g>
</svg>