<?xml version="1.0" encoding="UTF-8"?>
<svg width="86px" height="87px" viewBox="0 0 86 87" version="1.1" xmlns="http://www.w3.org/2000/svg" xmlns:xlink="http://www.w3.org/1999/xlink">
    <!-- Generator: Sketch 51.3 (57544) - http://www.bohemiancoding.com/sketch -->
    <title>cubix-hero-talent-system</title>
    <desc>Created with Sketch.</desc>
    <defs>
        <linearGradient x1="50%" y1="0%" x2="50%" y2="100%" id="linearGradient-1">
            <stop stop-color="#FD8463" offset="0%"></stop>
            <stop stop-color="#9A2235" offset="100%"></stop>
        </linearGradient>
    </defs>
    <g id="Page-1" stroke="none" stroke-width="1" fill="none" fill-rule="evenodd">
        <g id="cubix-commerce-copy-2" transform="translate(-1046.000000, -1398.000000)">
            <g id="cubix-hero-talent-system" transform="translate(1046.000000, 1396.000000)">
                <g id="Group-32-Copy" transform="translate(0.000000, 0.734375)" fill="url(#linearGradient-1)" fill-rule="nonzero">
                    <g id="Group-31-Copy" transform="translate(0.000000, 0.824219)">
                        <circle id="Oval-6" cx="43" cy="43.859375" r="43"></circle>
                    </g>
                </g>
                <g id="Talent-System" transform="translate(20.823463, 22.305201)" fill="#FFFFFF">
                    <g id="Group-8">
                        <path d="M27.6899065,12.5696221 C27.4628176,12.3425332 27.1551878,12.2155653 26.83363,12.2155653 C26.5126777,12.2155653 26.2042405,12.3425332 25.9771516,12.5696221 L18.4470861,20.0998894 C18.3342481,20.1566112 18.2278696,20.2315001 18.1331988,20.3261709 C18.038528,20.4208417 17.9636391,20.5272203 17.9069173,20.6400582 L1.45397443,37.0936067 C0.516551515,38.0312314 0,39.277899 0,40.6032906 C0,41.9286823 0.516551515,43.1753498 1.453167,44.1121671 L1.50686091,44.165861 C2.44428382,45.1032839 3.69095133,45.6198355 5.01654484,45.6198355 C6.3419365,45.6198355 7.58860401,45.1032839 8.52602692,44.165861 L33.049406,19.642482 C33.5223564,19.1693297 33.5223564,18.4022739 33.049406,17.929929 L27.6899065,12.5696221 Z M6.81347395,42.4531062 C6.33325665,42.9333235 5.69538921,43.197554 5.01654484,43.197554 C4.33830604,43.197554 3.69963117,42.9333235 3.2202213,42.4531062 L3.16672926,42.3996141 C2.68651196,41.9193969 2.42228143,41.2813276 2.42228143,40.6032906 C2.42228143,39.9244462 2.68651196,39.2865788 3.16672926,38.8063615 L19.0336819,22.939207 L22.6804266,26.5861535 L6.81347395,42.4531062 Z M24.3931814,24.8733987 L20.7462349,21.226654 L26.83363,15.1394608 L30.4803747,18.7862055 L24.3931814,24.8733987 Z" id="Fill-1"></path>
                        <path d="M22.0322645,8.72263543 L28.1723442,8.72263543 C28.8410957,8.72263543 29.3834849,8.18085182 29.3834849,7.51149471 L29.3834849,1.371415 C29.3834849,0.702663471 28.8410957,0.160274288 28.1723442,0.160274288 L22.0322645,0.160274288 C21.3629074,0.160274288 20.8211237,0.702663471 20.8211237,1.371415 L20.8211237,7.51149471 C20.8211237,8.18085182 21.3629074,8.72263543 22.0322645,8.72263543 Z M23.2434052,6.300354 L26.9612035,6.300354 L26.9612035,2.58255572 L23.2434052,2.58255572 L23.2434052,6.300354 Z" id="Fill-4"></path>
                        <path d="M43.0956163,6.67237606 L36.9547292,6.67237606 C36.2861795,6.67237606 35.7435885,7.2149671 35.7435885,7.88351677 L35.7435885,14.0244039 C35.7435885,14.6931554 36.2861795,15.2355446 36.9547292,15.2355446 L43.0956163,15.2355446 C43.7643679,15.2355446 44.3067571,14.6931554 44.3067571,14.0244039 L44.3067571,7.88351677 C44.3067571,7.2149671 43.7643679,6.67237606 43.0956163,6.67237606 Z M38.1658699,12.8132632 L41.8844756,12.8132632 L41.8844756,9.09465748 L38.1658699,9.09465748 L38.1658699,12.8132632 Z" id="Fill-5"></path>
                        <path d="M41.693721,22.0324663 L35.5536413,22.0324663 C34.8840823,22.0324663 34.3425005,22.5742499 34.3425005,23.243607 L34.3425005,29.3836867 C34.3425005,30.0524383 34.8840823,30.5948275 35.5536413,30.5948275 L41.693721,30.5948275 C42.3630781,30.5948275 42.9048617,30.0524383 42.9048617,29.3836867 L42.9048617,23.243607 C42.9048617,22.5742499 42.3622706,22.0324663 41.693721,22.0324663 Z M36.764782,28.172546 L40.4825803,28.172546 L40.4825803,24.4547477 L36.764782,24.4547477 L36.764782,28.172546 Z" id="Fill-6"></path>
                    </g>
                </g>
            </g>
        </g>
    </g>
</svg>