<?xml version="1.0" encoding="UTF-8"?>
<svg width="86px" height="87px" viewBox="0 0 86 87" version="1.1" xmlns="http://www.w3.org/2000/svg" xmlns:xlink="http://www.w3.org/1999/xlink">
    <!-- Generator: Sketch 51.3 (57544) - http://www.bohemiancoding.com/sketch -->
    <title>cubix-hero-lots-of-handy-built-in-editors</title>
    <desc>Created with Sketch.</desc>
    <defs>
        <linearGradient x1="50%" y1="0%" x2="50%" y2="100%" id="linearGradient-1">
            <stop stop-color="#FD8463" offset="0%"></stop>
            <stop stop-color="#9A2235" offset="100%"></stop>
        </linearGradient>
    </defs>
    <g id="Page-1" stroke="none" stroke-width="1" fill="none" fill-rule="evenodd">
        <g id="cubix-commerce-copy-2" transform="translate(-657.000000, -1398.000000)">
            <g id="cubix-hero-lots-of-handy-built-in-editors" transform="translate(657.000000, 1396.000000)">
                <g id="Group-13" fill="url(#linearGradient-1)" fill-rule="nonzero">
                    <g id="Group-32" transform="translate(0.000000, 0.734375)">
                        <g id="Group-31-Copy" transform="translate(0.000000, 0.824219)">
                            <circle id="Oval-6" cx="43" cy="43.859375" r="43"></circle>
                        </g>
                    </g>
                </g>
                <g id="Drag-and-Drop" transform="translate(19.000000, 21.673956)" fill="#FFFFFF" stroke="#FFFFFF">
                    <g id="Group-20" transform="translate(0.131127, 0.131127)">
                        <g id="Group-28">
                            <path d="M9.40856293,32.3489749 L8.58159521,32.3489749 C8.15704018,32.3489749 7.81046465,32.6907369 7.81046465,33.1152919 C7.81046465,33.5446605 8.15704018,33.8864224 8.58159521,33.8864224 L9.40856293,33.8864224 C9.83408066,33.8864224 10.1758426,33.5446605 10.1758426,33.1152919 C10.1758426,32.6907369 9.83408066,32.3489749 9.40856293,32.3489749 Z" id="Fill-1"></path>
                            <path d="M5.27950057,32.3489749 L4.45638369,32.3489749 C4.03182867,32.3489749 3.68525314,32.6907369 3.68525314,33.1152919 C3.68525314,33.5446605 4.03182867,33.8864224 4.45638369,33.8864224 L5.27950057,33.8864224 C5.70886915,33.8864224 6.05063113,33.5446605 6.05063113,33.1152919 C6.05063113,32.6907369 5.70886915,32.3489749 5.27950057,32.3489749 Z" id="Fill-2"></path>
                            <path d="M1.47390871,32.4163646 C1.34971915,32.149694 1.08304853,31.9610028 0.771130554,31.9610028 C0.34561282,31.9610028 0,32.3075784 0,32.7321334 L0,33.8864224 L1.15428906,33.8864224 C1.57980679,33.8864224 1.92541961,33.5446605 1.92541961,33.1152919 C1.92541961,32.8033739 1.74154204,32.5367033 1.47390871,32.4163646 Z" id="Fill-3"></path>
                            <path d="M0.771130554,26.214588 C1.19568558,26.214588 1.54226111,25.8689752 1.54226111,25.4444202 L1.54226111,24.6357439 C1.54226111,24.2102262 1.19568558,23.8646134 0.771130554,23.8646134 C0.34561282,23.8646134 0,24.2102262 0,24.6357439 L0,25.4444202 C0,25.8689752 0.34561282,26.214588 0.771130554,26.214588 Z" id="Fill-4"></path>
                            <path d="M0.771130554,22.1683187 C1.19568558,22.1683187 1.54226111,21.8227059 1.54226111,21.3981508 L1.54226111,20.5856238 C1.54226111,20.160106 1.19568558,19.8183441 0.771130554,19.8183441 C0.34561282,19.8183441 0,20.160106 0,20.5856238 L0,21.3981508 C0,21.8227059 0.34561282,22.1683187 0.771130554,22.1683187 Z" id="Fill-5"></path>
                            <path d="M0.771130554,18.1181985 C1.19568558,18.1181985 1.54226111,17.7725857 1.54226111,17.3480307 L1.54226111,16.5393545 C1.54226111,16.1138367 1.19568558,15.7682239 0.771130554,15.7682239 C0.34561282,15.7682239 0,16.1138367 0,16.5393545 L0,17.3480307 C0,17.7725857 0.34561282,18.1181985 0.771130554,18.1181985 Z" id="Fill-6"></path>
                            <path d="M0.771130554,5.97553976 C1.19568558,5.97553976 1.54226111,5.62992694 1.54226111,5.20440921 L1.54226111,4.39188213 C1.54226111,3.96732711 1.19568558,3.62556513 0.771130554,3.62556513 C0.34561282,3.62556513 0,3.96732711 0,4.39188213 L0,5.20440921 C0,5.62992694 0.34561282,5.97553976 0.771130554,5.97553976 Z" id="Fill-7"></path>
                            <path d="M0.771130554,14.0719292 C1.19568558,14.0719292 1.54226111,13.7263164 1.54226111,13.3007987 L1.54226111,12.4892343 C1.54226111,12.0637166 1.19568558,11.7219546 0.771130554,11.7219546 C0.34561282,11.7219546 0,12.0637166 0,12.4892343 L0,13.3007987 C0,13.7263164 0.34561282,14.0719292 0.771130554,14.0719292 Z" id="Fill-8"></path>
                            <path d="M0.771130554,10.0218091 C1.19568558,10.0218091 1.54226111,9.6800471 1.54226111,9.25067852 L1.54226111,8.442965 C1.54226111,8.01744726 1.19568558,7.67183444 0.771130554,7.67183444 C0.34561282,7.67183444 0,8.01744726 0,8.442965 L0,9.25067852 C0,9.67619626 0.34561282,10.0218091 0.771130554,10.0218091 Z" id="Fill-9"></path>
                            <path d="M0.771130554,30.2656709 C1.19568558,30.2656709 1.54226111,29.9190953 1.54226111,29.4945403 L1.54226111,28.6820132 C1.54226111,28.2574582 1.19568558,27.9147335 0.771130554,27.9147335 C0.34561282,27.9147335 0,28.2574582 0,28.6820132 L0,29.4945403 C0,29.9190953 0.34561282,30.2656709 0.771130554,30.2656709 Z" id="Fill-10"></path>
                            <path d="M1.15428906,0 L0,0 L0,1.15428906 C0,1.57980679 0.34561282,1.92541961 0.771130554,1.92541961 C1.08304853,1.92541961 1.34971915,1.74154204 1.47390871,1.47390871 C1.74154204,1.34971915 1.92541961,1.08304853 1.92541961,0.771130554 C1.92541961,0.34561282 1.57980679,0 1.15428906,0 Z" id="Fill-11"></path>
                            <path d="M8.442965,1.54226111 L9.25067852,1.54226111 C9.6800471,1.54226111 10.0218091,1.19568558 10.0218091,0.771130554 C10.0218091,0.34561282 9.6800471,0 9.25067852,0 L8.442965,0 C8.01744726,0 7.67183444,0.34561282 7.67183444,0.771130554 C7.67183444,1.19568558 8.01744726,1.54226111 8.442965,1.54226111 Z" id="Fill-12"></path>
                            <path d="M16.5393545,1.54226111 L17.3480307,1.54226111 C17.7764366,1.54226111 18.1181985,1.19568558 18.1181985,0.771130554 C18.1181985,0.34561282 17.7764366,0 17.3480307,0 L16.5393545,0 C16.1138367,0 15.7682239,0.34561282 15.7682239,0.771130554 C15.7682239,1.19568558 16.1138367,1.54226111 16.5393545,1.54226111 Z" id="Fill-13"></path>
                            <path d="M24.6357439,1.54226111 L25.4444202,1.54226111 C25.8689752,1.54226111 26.214588,1.19568558 26.214588,0.771130554 C26.214588,0.34561282 25.8689752,0 25.4444202,0 L24.6357439,0 C24.2102262,0 23.8646134,0.34561282 23.8646134,0.771130554 C23.8646134,1.19568558 24.2102262,1.54226111 24.6357439,1.54226111 Z" id="Fill-14"></path>
                            <path d="M20.5856238,1.54226111 L21.3981508,1.54226111 C21.8227059,1.54226111 22.1683187,1.19568558 22.1683187,0.771130554 C22.1683187,0.34561282 21.8227059,0 21.3981508,0 L20.5856238,0 C20.160106,0 19.8183441,0.34561282 19.8183441,0.771130554 C19.8183441,1.19568558 20.160106,1.54226111 20.5856238,1.54226111 Z" id="Fill-15"></path>
                            <path d="M28.6820132,1.54226111 L29.4945403,1.54226111 C29.9190953,1.54226111 30.2656709,1.19568558 30.2656709,0.771130554 C30.2656709,0.34561282 29.9190953,0 29.4945403,0 L28.6820132,0 C28.2574582,0 27.9147335,0.34561282 27.9147335,0.771130554 C27.9147335,1.19568558 28.2574582,1.54226111 28.6820132,1.54226111 Z" id="Fill-16"></path>
                            <path d="M4.39188213,1.54226111 L5.20440921,1.54226111 C5.62992694,1.54226111 5.97553976,1.19568558 5.97553976,0.771130554 C5.97553976,0.34561282 5.62992694,0 5.20440921,0 L4.39188213,0 C3.96732711,0 3.62556513,0.34561282 3.62556513,0.771130554 C3.62556513,1.19568558 3.96732711,1.54226111 4.39188213,1.54226111 Z" id="Fill-17"></path>
                            <path d="M12.4892343,1.54226111 L13.3007987,1.54226111 C13.7263164,1.54226111 14.0719292,1.19568558 14.0719292,0.771130554 C14.0719292,0.34561282 13.7263164,0 13.3007987,0 L12.4892343,0 C12.0637166,0 11.7219546,0.34561282 11.7219546,0.771130554 C11.7219546,1.19568558 12.0637166,1.54226111 12.4892343,1.54226111 Z" id="Fill-18"></path>
                            <path d="M32.4163646,1.47390871 C32.5367033,1.74154204 32.8033739,1.92541961 33.1152919,1.92541961 C33.5446605,1.92541961 33.8864224,1.57980679 33.8864224,1.15428906 L33.8864224,0 L32.7321334,0 C32.3075784,0 31.9610028,0.34561282 31.9610028,0.771130554 C31.9610028,1.08304853 32.149694,1.34971915 32.4163646,1.47390871 Z" id="Fill-19"></path>
                            <path d="M33.8864224,4.45638369 C33.8864224,4.03182867 33.5446605,3.68525314 33.1152919,3.68525314 C32.6907369,3.68525314 32.3489749,4.03182867 32.3489749,4.45638369 L32.3489749,5.27950057 C32.3489749,5.70886915 32.6907369,6.05063113 33.1152919,6.05063113 C33.5446605,6.05063113 33.8864224,5.70886915 33.8864224,5.27950057 L33.8864224,4.45638369 Z" id="Fill-20"></path>
                            <path d="M33.1152919,7.81046465 C32.6907369,7.81046465 32.3489749,8.15704018 32.3489749,8.58159521 L32.3489749,9.40856293 C32.3489749,9.83408066 32.6907369,10.1758426 33.1152919,10.1758426 C33.5446605,10.1758426 33.8864224,9.83408066 33.8864224,9.40856293 L33.8864224,8.58159521 C33.8864224,8.15704018 33.5446605,7.81046465 33.1152919,7.81046465 Z" id="Fill-21"></path>
                            <path d="M33.7699346,12.3236482 C33.6351552,12.0974114 33.4012167,11.9356762 33.1152919,11.9356762 C32.8332179,11.9356762 32.6002421,12.0974114 32.4654628,12.3236482 L32.3489749,12.3236482 L32.3489749,32.3489749 L12.3236482,32.3489749 L12.3236482,32.4654628 C12.0974114,32.6002421 11.9356762,32.8332179 11.9356762,33.1152919 C11.9356762,33.3973659 12.0974114,33.6351552 12.3236482,33.7699346 L12.3236482,46.2100707 L46.2100707,46.2100707 L46.2100707,12.3236482 L33.7699346,12.3236482 Z M44.6678096,44.6678096 L13.8610958,44.6678096 L13.8610958,33.8864224 L33.8864224,33.8864224 L33.8864224,13.8610958 L44.6678096,13.8610958 L44.6678096,44.6678096 Z" id="Fill-23"></path>
                        </g>
                    </g>
                </g>
            </g>
        </g>
    </g>
</svg>