<?xml version="1.0" encoding="UTF-8"?>
<svg width="86px" height="87px" viewBox="0 0 86 87" version="1.1" xmlns="http://www.w3.org/2000/svg" xmlns:xlink="http://www.w3.org/1999/xlink">
    <!-- Generator: Sketch 51.3 (57544) - http://www.bohemiancoding.com/sketch -->
    <title>cubix-hero-simple-scripting</title>
    <desc>Created with Sketch.</desc>
    <defs>
        <linearGradient x1="50%" y1="0%" x2="50%" y2="100%" id="linearGradient-1">
            <stop stop-color="#FD8463" offset="0%"></stop>
            <stop stop-color="#9A2235" offset="100%"></stop>
        </linearGradient>
    </defs>
    <g id="Page-1" stroke="none" stroke-width="1" fill="none" fill-rule="evenodd">
        <g id="cubix-commerce-copy-2" transform="translate(-266.000000, -993.000000)">
            <g id="cubix-hero-simple-scripting" transform="translate(266.000000, 992.000000)">
                <g id="Group-31" transform="translate(0.000000, 0.824219)" fill="url(#linearGradient-1)" fill-rule="nonzero">
                    <circle id="Oval-6" cx="43" cy="43.859375" r="43"></circle>
                </g>
                <g id="Group-3" transform="translate(22.932421, 18.995117)" fill="#FFFFFF" stroke="#FFFFFF" stroke-width="1.5">
                    <path d="M31.0726182,25.9738216 C31.3710228,26.2722261 31.3710228,26.7571335 31.0726182,27.0564945 L25.5358746,32.5941945 C25.3866723,32.7433968 25.1925181,32.8179979 24.9945381,32.8179979 C24.7994275,32.8179979 24.6014475,32.7433968 24.4522452,32.5941945 C24.1538407,32.2938771 24.1538407,31.8089697 24.4522452,31.5105651 L29.451478,26.5142016 L24.4522452,21.5197509 C24.1538407,21.2213464 24.1538407,20.7354825 24.4522452,20.437078 C24.7516062,20.137717 25.2365136,20.137717 25.5358746,20.437078 L31.0726182,25.9738216 Z M14.8248725,21.5197509 L9.82946535,26.5142016 L14.8248725,31.5105651 C15.123277,31.8089697 15.123277,32.2938771 14.8248725,32.5941945 C14.6747138,32.7433968 14.4776902,32.8179979 14.283536,32.8179979 C14.0884253,32.8179979 13.8904454,32.7433968 13.7412431,32.5941945 L8.20449949,27.0564945 C7.90609493,26.7571335 7.90609493,26.2722261 8.20449949,25.9738216 L13.7412431,20.437078 C14.0406041,20.137717 14.5264679,20.137717 14.8248725,20.437078 C15.123277,20.7354825 15.123277,21.2213464 14.8248725,21.5197509 Z M32.3915281,47.5679823 L6.88558959,47.5679823 C3.93406243,47.5679823 1.53247957,45.1644866 1.53247957,42.2100902 L1.53247957,6.88645037 C1.53247957,3.93492321 3.93406243,1.53238393 6.88558959,1.53238393 L24.6129246,1.53238393 L24.6129246,9.81884903 C24.6129246,13.6148993 27.7031334,16.7041517 31.4982273,16.7041517 L37.7484638,16.7041517 L37.7484638,42.2100902 C37.7455945,45.1644866 35.3430553,47.5679823 32.3915281,47.5679823 Z M26.1412916,2.81781896 L36.8369909,15.1767412 L31.4982273,15.1767412 C28.5428744,15.1767412 26.1412916,12.7742019 26.1412916,9.81884903 L26.1412916,2.81781896 Z M39.0903279,15.4416709 L25.9538323,0.2660774 C25.8122814,0.097746622 25.5989986,0.000191284975 25.3751952,0.000191284975 L6.88558959,0.000191284975 C3.08953927,0.000191284975 0.000286927462,3.09040005 0.000286927462,6.88645037 L0.000286927462,42.2100902 C0.000286927462,46.0051841 3.08953927,49.0953929 6.88558959,49.0953929 L32.3915281,49.0953929 C36.1875784,49.0953929 39.2768308,46.0051841 39.2768308,42.2100902 L39.2768308,15.9418811 C39.2768308,15.7553782 39.209881,15.579396 39.0903279,15.4416709 Z" id="Fill-1"></path>
                </g>
            </g>
        </g>
    </g>
</svg>