<?xml version="1.0" encoding="UTF-8"?>
<svg width="86px" height="87px" viewBox="0 0 86 87" version="1.1" xmlns="http://www.w3.org/2000/svg" xmlns:xlink="http://www.w3.org/1999/xlink">
    <!-- Generator: Sketch 51.3 (57544) - http://www.bohemiancoding.com/sketch -->
    <title>cubix-hero-missions-engine</title>
    <desc>Created with Sketch.</desc>
    <defs>
        <linearGradient x1="50%" y1="0%" x2="50%" y2="100%" id="linearGradient-1">
            <stop stop-color="#FD8463" offset="0%"></stop>
            <stop stop-color="#9A2235" offset="100%"></stop>
        </linearGradient>
    </defs>
    <g id="Page-1" stroke="none" stroke-width="1" fill="none" fill-rule="evenodd">
        <g id="cubix-commerce-copy-2" transform="translate(-1046.000000, -993.000000)">
            <g id="cubix-hero-missions-engine" transform="translate(1046.000000, 992.000000)">
                <g id="Group-32-Copy" fill="url(#linearGradient-1)" fill-rule="nonzero">
                    <g id="Group-31-Copy" transform="translate(0.000000, 0.824219)">
                        <circle id="Oval-6" cx="43" cy="43.859375" r="43"></circle>
                    </g>
                </g>
                <path d="M68.2858271,59.0458661 L56.8853288,43.1448364 C56.4077488,42.4785511 55.6694913,42.0965068 54.8591629,42.0965068 C54.049229,42.0965068 53.3105771,42.4789455 52.832997,43.1448364 L48.3139303,49.4478283 L38.4162712,35.9264171 L38.4162712,30.4765425 L46.9413314,30.4765425 C47.9480551,30.4765425 48.7672567,29.6569465 48.7672567,28.6503214 L48.7672567,22.1354552 C48.7672567,21.1287314 47.9480551,20.3096284 46.9413314,20.3096284 L37.2893637,20.3096284 C36.2826399,20.3096284 35.4634383,21.1287314 35.4634383,22.1354552 L35.4634383,35.9302622 L18.9023346,58.788245 C18.3023032,59.6250946 18.2202746,60.7612697 18.6932208,61.6821198 C19.1518712,62.5751669 20.048862,63.1301417 21.0332053,63.1301417 L66.2592669,63.1301417 C67.1966804,63.1301417 68.048516,62.6048431 68.4826169,61.7591202 C68.9262813,60.8960451 68.8491823,59.831152 68.2858271,59.0458661 Z M38.4162712,27.5234139 L45.8145225,27.5234139 L45.8145225,23.2623627 L38.4162712,23.2623627 L38.4162712,27.5234139 Z M21.5423348,60.1774074 L36.9461646,38.9169121 L47.1239239,52.8211564 L52.2283318,60.1774074 L21.5423348,60.1774074 Z M55.8224076,60.1774074 L50.1328557,51.9784898 L54.8595573,45.3863274 L65.4639245,60.1774074 L55.8224076,60.1774074 Z" id="Fill-1" fill="#FFFFFF"></path>
            </g>
        </g>
    </g>
</svg>