<svg xmlns="http://www.w3.org/2000/svg" xmlns:xlink="http://www.w3.org/1999/xlink" viewBox="0 0 51.6 64"><defs><style>.cls-1{fill:url(#New_Gradient_Swatch_1);}</style><linearGradient id="New_Gradient_Swatch_1" x1="25.8" x2="25.8" y2="64" gradientUnits="userSpaceOnUse"><stop offset="0" stop-color="#780bee"/><stop offset="1" stop-color="#1de1d1"/></linearGradient></defs><title>Applicaton</title><g id="Layer_2" data-name="Layer 2"><g id="Layer_1-2" data-name="Layer 1"><path class="cls-1" d="M6.17,64A6.18,6.18,0,0,1,0,57.83V6.17A6.18,6.18,0,0,1,6.17,0h27.9a1.05,1.05,0,0,1,.71.29L51.31,16.83a1,1,0,0,1,.29.7v40.3A6.18,6.18,0,0,1,45.43,64Zm0-62A4.16,4.16,0,0,0,2,6.17V57.83A4.16,4.16,0,0,0,6.17,62H45.43a4.16,4.16,0,0,0,4.16-4.16V18.54H39.23a6.18,6.18,0,0,1-6.17-6.17V2Zm28.9,10.36a4.17,4.17,0,0,0,4.16,4.16h9L35.07,3.42Zm7.26,43.36a1,1,0,1,0,0-2H9.27a1,1,0,0,0,0,2Zm0-8.26a1,1,0,1,0,0-2H9.27a1,1,0,0,0,0,2Zm0-8.27a1,1,0,1,0,0-2H9.27a1,1,0,1,0,0,2Zm-8.26-8.26a1,1,0,0,0,0-2H9.27a1,1,0,0,0,0,2ZM9.27,22.67a1,1,0,0,1-1-1V9.27a1,1,0,0,1,1-1h12.4a1,1,0,0,1,1,1v12.4a1,1,0,0,1-1,1Zm1-2H20.66V10.27H10.27Z"/></g></g></svg>