<svg xmlns="http://www.w3.org/2000/svg" xmlns:xlink="http://www.w3.org/1999/xlink" viewBox="0 0 63.99 64"><defs><style>.cls-1{fill:url(#New_Gradient_Swatch_1);}</style><linearGradient id="New_Gradient_Swatch_1" x1="32" x2="32" y2="64" gradientUnits="userSpaceOnUse"><stop offset="0" stop-color="#780bee"/><stop offset="1" stop-color="#1de1d1"/></linearGradient></defs><title>Interview</title><g id="Layer_2" data-name="Layer 2"><g id="Layer_1-2" data-name="Layer 1"><path class="cls-1" d="M63.3,64a3.35,3.35,0,0,1-1.74-1c-.62-.57-1.22-1.18-1.82-1.79l-.82-.83L57,58.47,53.54,55l-.43-.43a3.16,3.16,0,0,0-2.1-.88l-33.3,0a7.3,7.3,0,0,1-7.29-7.34v-1.7S3.18,52,1.92,53.14a2,2,0,0,1-.85.5H.86a.67.67,0,0,1-.56-.23,1.61,1.61,0,0,1-.3-1V6.7A6.31,6.31,0,0,1,6.65,0l23,0Q38.34,0,47,0a6.61,6.61,0,0,1,5.69,3,6.37,6.37,0,0,1,.92,3.7c0,.43,0,.87,0,1.33v2.32h3a7.3,7.3,0,0,1,7.3,7.3V51.31c0,3.4,0,6.8,0,10.2,0,.72,0,1.91-.44,2.36a.35.35,0,0,1-.21.13ZM12.37,46.59a5.09,5.09,0,0,0,5.1,5.09H51.84a3.19,3.19,0,0,1,2.26.94L62,60.56V17.48a5.1,5.1,0,0,0-5.09-5.09H53.64v7.66q0,8.32,0,16.67a8.22,8.22,0,0,1-.33,2.35,6.16,6.16,0,0,1-6.21,4.29H12.37ZM6.63,2C3.73,2,2,3.77,2,6.7V50.09s7-6.77,8.11-8a2.32,2.32,0,0,1,1.92-.8l19,0h16a4.59,4.59,0,0,0,4.59-4.57c0-1.64,0-3.28,0-4.92V6.56A4.23,4.23,0,0,0,48.16,2.1a5.36,5.36,0,0,0-1-.08H6.63ZM37.2,17.52a.95.95,0,1,0,0-1.9H16.42a1,1,0,0,0,0,1.9Zm0,10.29a.95.95,0,1,0,0-1.89H16.42a.95.95,0,1,0,0,1.89Z"/></g></g></svg>