<svg xmlns="http://www.w3.org/2000/svg" xmlns:xlink="http://www.w3.org/1999/xlink" viewBox="0 0 64 56.47"><defs><style>.cls-1{fill:url(#New_Gradient_Swatch_1);}</style><linearGradient id="New_Gradient_Swatch_1" x1="32" x2="32" y2="56.47" gradientUnits="userSpaceOnUse"><stop offset="0" stop-color="#780bee"/><stop offset="1" stop-color="#1de1d1"/></linearGradient></defs><title>job offer</title><g id="Layer_2" data-name="Layer 2"><g id="Layer_1-2" data-name="Layer 1"><path class="cls-1" d="M62,9.47v45H2v-45H62m2-2H0v49H64v-49ZM38.13,32.28v7.2H25.87v-7.2H38.13m2-2H23.87v11.2H40.13V30.28ZM0,7.47V19.76A17.14,17.14,0,0,0,17.14,36.9h7.44v-2H17.14A15.15,15.15,0,0,1,2,19.76V9.47H62V19.76A15.15,15.15,0,0,1,46.86,34.9H39.33v2h7.53A17.14,17.14,0,0,0,64,19.76V7.47ZM21,8.72V2H43V8.72h2V0H19V8.72Z"/></g></g></svg>