<?xml version="1.0" encoding="UTF-8"?>
<svg width="70px" height="71px" viewBox="0 0 70 71" version="1.1" xmlns="http://www.w3.org/2000/svg" xmlns:xlink="http://www.w3.org/1999/xlink">
    <!-- Generator: Sketch 51.3 (57544) - http://www.bohemiancoding.com/sketch -->
    <title>leaderboard</title>
    <desc>Created with Sketch.</desc>
    <defs>
        <linearGradient x1="50%" y1="0%" x2="50%" y2="99.0403721%" id="linearGradient-1">
            <stop stop-color="#00FCD5" offset="0%"></stop>
            <stop stop-color="#00DCE2" offset="100%"></stop>
        </linearGradient>
    </defs>
    <g id="Page-1" stroke="none" stroke-width="1" fill="none" fill-rule="evenodd">
        <g id="cubix-commerce-copy-2" transform="translate(-174.000000, -3791.000000)">
            <g id="leaderboard" transform="translate(174.000000, 3791.000000)">
                <circle id="Oval-6" fill="url(#linearGradient-1)" cx="35" cy="35.8640062" r="35"></circle>
                <g id="Group-10" transform="translate(18.000000, 18.000000)" fill="#FFFFFF" stroke="#FFFFFF">
                    <path d="M14.2675013,13.4326264 L14.7195279,10.9462927 C14.7760406,10.7767546 14.6630152,10.5507038 14.5499898,10.4376784 L12.7417335,8.68593477 L15.2281422,8.34685857 C15.3976053,8.34685857 15.5671434,8.17739551 15.6801688,8.06437011 L16.8103477,5.80401218 L17.9405267,8.06437011 C17.9970394,8.23390821 18.1665775,8.34685857 18.3925533,8.34685857 L20.878962,8.68593477 L19.0707057,10.4376784 C18.9576803,10.5507038 18.9011676,10.7767546 18.9011676,10.9462927 L19.3531941,13.4326264 L17.1494239,12.2459347 C17.0929112,12.189422 16.9798858,12.189422 16.8668604,12.189422 C16.753835,12.189422 16.6973223,12.189422 16.5842969,12.2459347 L14.2675013,13.4326264 Z M19.748783,14.9583943 C19.9183211,15.0713446 20.1442969,15.0148319 20.3703477,14.9018816 C20.5398858,14.7888562 20.6529112,14.5628054 20.5963985,14.3367546 L20.0313465,11.0028054 L22.4611675,8.68593477 C22.6307056,8.51639667 22.6872183,8.29034587 22.6307056,8.12088281 C22.5741929,7.89483201 22.4046548,7.78180661 22.178604,7.72529391 L18.8446549,7.21675465 L17.3753997,4.22180665 C17.2059366,3.82621775 16.5277842,3.82621775 16.3582461,4.22180665 L14.889066,7.21675465 L11.5550418,7.72529391 C11.329066,7.78180661 11.1595279,7.89483201 11.1030152,8.12088281 C11.0465025,8.34685857 11.1030152,8.57290937 11.2725533,8.68593477 L13.7023743,11.0028054 L13.1373224,14.3367546 C13.0808097,14.5628054 13.1938351,14.7888562 13.3633732,14.9018816 C13.5328362,15.0148319 13.758887,15.0713446 13.9849378,14.9583943 L16.9798858,13.3761137 L19.748783,14.9583943 Z" id="Fill-1"></path>
                    <path d="M8.89917001,36.2619564 L8.89917001,31.6282901 C13.8153997,31.6282901 11.8376053,31.6282901 24.6650128,31.6282901 L24.6650128,36.2619564 L8.89917001,36.2619564 Z M12.0071434,30.5546239 L21.444014,30.5546239 L21.444014,28.2378283 L12.0071434,28.2378283 L12.0071434,30.5546239 Z M14.7760406,19.4225224 C12.2897069,18.6879323 10.0858617,16.6536252 8.6166065,13.7151899 C7.31696448,11.1158308 6.58237442,7.89483201 6.58237442,4.39134475 C6.58237442,3.60016694 6.63888712,2.07447412 6.69539982,1.22685866 L26.8123453,1.22685866 C26.8687829,2.13098682 26.9252956,3.65667964 26.9252956,4.39134475 C26.9252956,7.89483201 26.2472183,11.1158308 24.9475012,13.7151899 C23.4783211,16.6536252 21.2744758,18.6879323 18.7881422,19.4225224 C18.1665775,19.5920605 17.7709886,20.1005997 17.7709886,20.6657268 L17.7709886,27.0511366 L15.7931942,27.0511366 L15.7931942,20.6657268 C15.7366815,20.1005997 15.3410926,19.5920605 14.7760406,19.4225224 Z M2.96578671,4.61732051 L2.96578671,4.39134475 L5.45219545,4.39134475 C5.45219545,7.329705 5.96073471,10.0986772 6.86486287,12.4719855 C4.43504189,10.6637292 2.96578671,7.78180661 2.96578671,4.61732051 Z M30.5418833,4.61732051 C30.5418833,7.78180661 29.0726282,10.7202419 26.6428072,12.5284982 C27.5469353,10.1551899 28.0554746,7.3862177 28.0554746,4.39134475 L30.5418833,4.39134475 L30.5418833,4.61732051 Z M32.5196778,36.2619564 L25.738679,36.2619564 L25.738679,31.0632382 C25.738679,30.724162 25.5126282,30.4981112 25.173552,30.4981112 L22.5741929,30.4981112 L22.5741929,27.6161886 C22.5741929,27.2771874 22.3481421,27.0511366 22.009141,27.0511366 L18.8446549,27.0511366 L18.8446549,20.6657268 C18.8446549,20.6092141 18.9576803,20.4961887 19.014193,20.4961887 C21.7265775,19.7050859 24.1563984,17.5012407 25.738679,14.3367546 C29.3551917,12.4154728 31.5590369,8.68593477 31.5590369,4.56080781 L31.5590369,3.82621775 C31.5590369,3.48721659 31.3329861,3.26116579 30.9939099,3.26116579 L27.9424492,3.26116579 C27.9424492,2.35703762 27.8859365,1.17034595 27.8294238,0.605218945 C27.7729862,0.322730491 27.5469353,0.0966796875 27.2643718,0.0966796875 L6.18678551,0.0966796875 C5.90422201,0.0966796875 5.6781712,0.322730491 5.62173355,0.605218945 C5.56522085,1.17034595 5.50870815,2.35703762 5.50870815,3.26116579 L2.40073475,3.26116579 C2.06165855,3.26116579 1.83568279,3.48721659 1.83568279,3.82621775 L1.83568279,4.61732051 C1.83568279,8.79896017 4.03945298,12.5284982 7.65604069,14.3932673 C9.29475891,17.5577534 11.6680672,19.7050859 14.3804517,20.5527014 C14.4934771,20.5527014 14.5499898,20.6657268 14.5499898,20.7221644 L14.5499898,27.1076493 L11.3855787,27.1076493 C11.0465025,27.1076493 10.8204517,27.3337001 10.8204517,27.6727013 L10.8204517,30.5546239 L8.22109264,30.5546239 C7.88201644,30.5546239 7.65604069,30.7806747 7.65604069,31.1197509 L7.65604069,36.2619564 L0.987992282,36.2619564 C0.648991126,36.2619564 0.422940323,36.4880072 0.422940323,36.8270834 C0.422940323,37.1660845 0.648991126,37.3921353 0.987992282,37.3921353 C4.88706844,37.3921353 28.6771143,37.3921353 32.5196778,37.3921353 C32.8586789,37.3921353 33.0847297,37.1660845 33.0847297,36.8270834 C33.0847297,36.4880072 32.8021662,36.2619564 32.5196778,36.2619564 Z" id="Fill-3"></path>
                </g>
            </g>
        </g>
    </g>
</svg>