<?xml version="1.0" encoding="UTF-8"?>
<svg width="86px" height="87px" viewBox="0 0 86 87" version="1.1" xmlns="http://www.w3.org/2000/svg" xmlns:xlink="http://www.w3.org/1999/xlink">
    <!-- Generator: Sketch 51.3 (57544) - http://www.bohemiancoding.com/sketch -->
    <title>Performance Management</title>
    <desc>Created with Sketch.</desc>
    <defs>
        <linearGradient x1="0%" y1="50%" x2="100%" y2="50%" id="linearGradient-1">
            <stop stop-color="#FEA673" offset="0%"></stop>
            <stop stop-color="#FF8989" offset="100%"></stop>
        </linearGradient>
    </defs>
    <g id="Page-1" stroke="none" stroke-width="1" fill="none" fill-rule="evenodd">
        <g id="cubix-commerce-copy-2" transform="translate(-657.000000, -2111.000000)">
            <g id="Performance-Management" transform="translate(657.000000, 2109.000000)">
                <g id="Group-13" transform="translate(0.000000, 0.324219)" fill="url(#linearGradient-1)" fill-rule="nonzero">
                    <g id="Group-32" transform="translate(0.000000, 0.734375)">
                        <g id="Group-31-Copy" transform="translate(0.000000, 0.824219)">
                            <circle id="Oval-6" cx="43" cy="43.859375" r="43"></circle>
                        </g>
                    </g>
                </g>
                <g id="Performance-Management-" transform="translate(22.500000, 22.000000)" fill="#FFFFFF">
                    <g id="Group-3">
                        <path d="M33.5755132,39.1007441 C33.4934718,39.0597234 33.4114305,39.0187027 33.3293891,39.0187027 C32.8781615,38.9366613 32.4269339,39.2648268 32.3448925,39.7570751 L31.6065201,44.6385373 L25.6995407,34.342344 C28.1607821,33.6039716 30.3758994,32.3323302 32.2218304,30.6915026 L38.1288098,40.9056545 L33.5755132,39.1007441 Z M20.6129751,33.3988681 C16.2647819,33.3988681 12.3267956,31.6349784 9.49636797,28.8045508 C6.66594034,25.9741232 4.90205065,22.0361369 4.90205065,17.6879437 C4.90205065,13.3397505 6.66594034,9.40176426 9.49636797,6.57133662 C12.3267956,3.65886761 16.2647819,1.89497792 20.6129751,1.89497792 C24.9611682,1.89497792 28.8991545,3.65886761 31.7295822,6.48929524 C34.5600098,9.31972288 36.3238995,13.2577092 36.3238995,17.6059023 C36.3238995,21.9540955 34.5600098,25.8920818 31.7295822,28.7225094 C28.8991545,31.6349784 24.9611682,33.3988681 20.6129751,33.3988681 Z M9.61943005,44.6385373 L8.88105762,39.7570751 C8.79901624,39.3058475 8.38880933,38.977682 7.89656105,39.0187027 C7.81451967,39.0187027 7.73247829,39.0597234 7.65043691,39.1007441 L3.09714028,40.9056545 L9.00411969,30.6915026 C10.8500508,32.3323302 13.065168,33.6039716 15.5264095,34.342344 L9.61943005,44.6385373 Z M40.8361754,42.1772959 L33.4934718,29.4608818 C36.3649202,26.3433094 38.0877892,22.2002197 38.0877892,17.646923 C38.0877892,12.8064816 36.118796,8.45828838 32.9602029,5.29969522 C29.8016097,2.14110206 25.4534165,0.172108926 20.6129751,0.172108926 C15.7725336,0.172108926 11.4243404,2.14110206 8.26574726,5.29969522 C5.10715411,8.45828838 3.13816097,12.8064816 3.13816097,17.646923 C3.13816097,22.2002197 4.86102996,26.3433094 7.73247829,29.4608818 L0.389774713,42.1772959 C0.266712642,42.3823993 0.225691952,42.6695441 0.307733333,42.956689 C0.471816094,43.4079166 0.964064378,43.61302 1.41529197,43.4489373 L7.28125069,41.1107579 L8.18370588,47.3869235 C8.22472657,47.6330477 8.34778864,47.8791718 8.59391279,48.0022339 C9.00411969,48.248358 9.53738866,48.0842753 9.78351281,47.6740684 L17.2082578,34.8345923 C18.2747957,35.0396957 19.423375,35.1627578 20.5309337,35.1627578 C21.679513,35.1627578 22.7870717,35.0396957 23.8536096,34.8345923 L31.2783546,47.6740684 C31.5244787,48.0842753 32.0577477,48.2073373 32.4679546,48.0022339 C32.7140787,47.8791718 32.8371408,47.6330477 32.8781615,47.3869235 L33.7806167,41.1107579 L39.6465754,43.4489373 C40.097803,43.61302 40.5900513,43.4079166 40.754134,42.956689 C41.0002582,42.6695441 40.9592375,42.3823993 40.8361754,42.1772959 Z" id="Fill-1"></path>
                    </g>
                    <path d="M26.9635547,16.2392776 L26.9241069,16.2787253 L23.7288356,18.6061452 C23.4527011,18.8033841 23.2949099,19.1978621 23.4132533,19.5134444 L24.6361349,23.2609848 L24.6361349,23.3004326 C24.6361349,23.3398804 24.6361349,23.3793282 24.6361349,23.418776 C24.6361349,23.4582238 24.6361349,23.4976716 24.5966871,23.4976716 C24.5572393,23.5371194 24.5177915,23.5765672 24.4388959,23.5765672 C24.3994481,23.5765672 24.3205525,23.5765672 24.2811047,23.5371194 L21.0463857,21.1702517 C20.8885945,21.0519084 20.7308033,21.0124606 20.5335644,21.0124606 C20.3757732,21.0124606 20.1785342,21.0519084 20.020743,21.1702517 L16.786024,23.5371194 C16.7465762,23.5765672 16.6676806,23.5765672 16.6282328,23.5765672 C16.588785,23.5765672 16.5098894,23.5371194 16.4704416,23.4976716 C16.4309938,23.4582238 16.4309938,23.418776 16.4309938,23.418776 C16.4309938,23.3793282 16.4309938,23.3398804 16.4309938,23.3004326 L16.4309938,23.2609848 L17.6538754,19.5134444 C17.7722188,19.1584143 17.6538754,18.8033841 17.3382931,18.6061452 L14.300813,16.2787253 L14.2613652,16.2392776 C14.2219174,16.1998298 14.1824696,16.160382 14.1824696,16.1209342 C14.1824696,16.0814864 14.1824696,16.0025908 14.2219174,15.963143 C14.2219174,15.963143 14.2219174,15.9236952 14.2613652,15.9236952 C14.300813,15.8842474 14.300813,15.8842474 14.3402608,15.8842474 C14.3797086,15.8842474 14.4191564,15.8447996 14.4586042,15.8447996 C14.4980519,15.8447996 14.5374997,15.8447996 14.5769475,15.8447996 L18.4428313,15.8447996 C18.7978614,15.8447996 19.1134438,15.6081129 19.2317872,15.2530827 L20.4546688,11.4660945 C20.4546688,11.4266467 20.4941166,11.3477512 20.5730122,11.3477512 C20.6124599,11.3477512 20.6519077,11.3083034 20.6519077,11.3083034 C20.6913555,11.3083034 20.7308033,11.3083034 20.7308033,11.3477512 C20.7702511,11.3871989 20.8096989,11.4266467 20.8491467,11.4660945 L22.0720283,15.2530827 C22.1903717,15.5686651 22.505954,15.8447996 22.8609842,15.8447996 L26.7268679,15.8447996 C26.7663157,15.8447996 26.8057635,15.8447996 26.8452113,15.8447996 C26.8846591,15.8447996 26.9241069,15.8447996 26.9635547,15.8842474 C27.0030025,15.8842474 27.0030025,15.9236952 27.0424503,15.9236952 C27.0424503,15.9236952 27.0424503,15.963143 27.0818981,15.963143 C27.1213459,16.0025908 27.1213459,16.0420386 27.1213459,16.1209342 C27.0424503,16.160382 27.0030025,16.1998298 26.9635547,16.2392776 Z M28.3442275,14.9769482 C28.1469885,14.7008136 27.9103018,14.5035746 27.6341672,14.3852313 C27.3580326,14.2668879 27.0424503,14.1879923 26.7268679,14.2274401 L23.4527011,14.2274401 L22.4270584,10.992721 C22.2692673,10.5193475 21.9142371,10.1248696 21.5197592,9.88818279 C21.2436246,9.76983941 20.9674901,9.69094382 20.6519077,9.69094382 C20.3363254,9.69094382 20.0601908,9.76983941 19.7840563,9.88818279 C19.3501306,10.1248696 19.0345482,10.4798997 18.876757,10.992721 L17.8511144,14.2274401 L14.5769475,14.2274401 C14.2613652,14.1879923 13.9457828,14.2668879 13.6696483,14.3852313 C13.3935137,14.5035746 13.156827,14.7008136 12.959588,14.9769482 C12.6440056,15.4108739 12.5651101,15.8842474 12.6440056,16.3576209 C12.7229012,16.8309945 12.959588,17.2649202 13.3935137,17.5805025 L16.1548593,19.5528922 L15.0897688,22.7876113 C15.0897688,22.8270591 15.0897688,22.8665069 15.0503211,22.8665069 C14.9714255,23.1031936 14.9714255,23.3793282 15.0108733,23.6554627 C15.0503211,23.9315973 15.1686644,24.2077318 15.3659034,24.4444186 C15.6814858,24.8783443 16.1154115,25.1150311 16.588785,25.1939267 C17.0621585,25.2728223 17.5749798,25.1544789 17.9694578,24.8388965 L20.7308033,22.8270591 L23.4921489,24.8388965 C23.9260746,25.1544789 24.3994481,25.2333745 24.8728216,25.1939267 C25.3461952,25.1150311 25.7801209,24.8783443 26.0957032,24.4444186 C26.2929422,24.2077318 26.3718378,23.9315973 26.4507334,23.6554627 C26.4901812,23.3793282 26.4901812,23.1426414 26.4112856,22.8665069 C26.4112856,22.8270591 26.4112856,22.7876113 26.3718378,22.7876113 L25.3067474,19.5528922 L28.0680929,17.5805025 C28.5020187,17.2649202 28.7387054,16.8309945 28.817601,16.3576209 C28.7781532,15.9236952 28.6598098,15.4108739 28.3442275,14.9769482 Z" id="Fill-4"></path>
                    <path d="M28.7387054,25.9828826 C26.6479724,28.0736156 23.7682834,29.335945 20.6124599,29.335945 C17.4566365,29.335945 14.5769475,28.0341678 12.5256623,25.9828826 C10.4349292,23.8921495 9.17259981,21.0519084 9.17259981,17.8960849 C9.17259981,14.7402614 10.474377,11.8605725 12.5256623,9.8092872 C14.5769475,7.71855414 17.4566365,6.41677696 20.6124599,6.41677696 C23.7682834,6.41677696 26.6479724,7.71855414 28.6992576,9.76983941 C30.7899907,11.8605725 32.0523201,14.7008136 32.0523201,17.8566371 C32.0523201,21.0124606 30.7899907,23.9315973 28.7387054,25.9828826 Z M29.8826914,8.6258534 C27.5158238,6.25898578 24.241657,4.79941742 20.6124599,4.79941742 C16.9832629,4.79941742 13.7090961,6.25898578 11.3422285,8.6258534 C8.97536085,10.992721 7.51579248,14.2668879 7.51579248,17.8960849 C7.51579248,21.5252819 8.97536085,24.7994488 11.3422285,27.1663164 C13.7090961,29.533184 16.9832629,30.9927523 20.6124599,30.9927523 C24.241657,30.9927523 27.5158238,29.533184 29.8826914,27.1663164 C32.249559,24.7994488 33.7091274,21.5252819 33.7091274,17.8960849 C33.7091274,14.2668879 32.249559,10.992721 29.8826914,8.6258534 Z" id="Fill-5"></path>
                </g>
            </g>
        </g>
    </g>
</svg>