<?xml version="1.0" encoding="UTF-8"?>
<svg width="70px" height="71px" viewBox="0 0 70 71" version="1.1" xmlns="http://www.w3.org/2000/svg" xmlns:xlink="http://www.w3.org/1999/xlink">
    <!-- Generator: Sketch 51.3 (57544) - http://www.bohemiancoding.com/sketch -->
    <title>Integrated Social Media Platform</title>
    <desc>Created with Sketch.</desc>
    <defs>
        <linearGradient x1="0%" y1="50%" x2="100%" y2="50%" id="linearGradient-1">
            <stop stop-color="#FEA673" offset="0%"></stop>
            <stop stop-color="#FF8989" offset="100%"></stop>
        </linearGradient>
    </defs>
    <g id="Page-1" stroke="none" stroke-width="1" fill="none" fill-rule="evenodd">
        <g id="cubix-commerce-copy-2" transform="translate(-811.000000, -4441.000000)">
            <g id="Integrated-Social-Media-Platform" transform="translate(811.000000, 4440.000000)">
                <g id="Group-32" transform="translate(0.000000, 0.159538)" fill="url(#linearGradient-1)" fill-rule="nonzero">
                    <g id="Group-31-Copy" transform="translate(0.000000, 0.670876)">
                        <circle id="Oval-6" cx="35" cy="35.6994913" r="35"></circle>
                    </g>
                </g>
                <path d="M41.7735365,41.1438786 C39.8960756,41.1438786 38.2221192,42.0383837 37.1512209,43.4210625 L28.1841423,38.4124949 C28.3942552,37.8091827 28.5094785,37.1585103 28.5094785,36.4874197 C28.5094785,35.809636 28.3942552,35.1659109 28.1775339,34.5559903 L37.1376653,29.5536922 C38.2016163,30.9433183 39.8828588,31.8448554 41.7669281,31.8448554 C44.9794535,31.8448554 47.6025612,29.228356 47.6025612,26.0088833 C47.6025612,22.7894107 44.9864008,20.1732502 41.7669281,20.1732502 C38.5474554,20.1732502 35.931295,22.7894107 35.931295,26.0088833 C35.931295,26.6866671 36.0465182,27.3373394 36.2632395,27.9406517 L27.3098013,32.9426108 C26.2457656,31.5462916 24.5648619,30.6517866 22.6804537,30.6517866 C19.4679283,30.6517866 16.8448206,33.267947 16.8448206,36.4874197 C16.8448206,39.7068924 19.4679283,42.323307 22.687401,42.323307 C24.5714703,42.323307 26.2523739,41.4218547 27.323357,40.0255355 L36.2837425,45.0344419 C36.0666823,45.6444473 35.9448506,46.3016433 35.9448506,46.979427 C35.9448506,50.1922913 38.5610111,52.8153991 41.7804838,52.8153991 C44.9999565,52.8153991 47.6161169,50.1988997 47.6161169,46.979427 C47.6161169,43.7599543 44.9930092,41.1438786 41.7735365,41.1438786 Z M41.7735365,22.0100441 C43.9832809,22.0100441 45.7794077,23.8060862 45.7794077,26.0158306 C45.7794077,28.2252361 43.9832809,30.0212783 41.7735365,30.0212783 C39.564131,30.0212783 37.7680889,28.2252361 37.7680889,26.0158306 C37.7680889,23.8060862 39.5707394,22.0100441 41.7735365,22.0100441 Z M22.687401,40.4932062 C20.4776566,40.4932062 18.6816145,38.6971641 18.6816145,36.4874197 C18.6816145,34.2779295 20.4776566,32.4818874 22.687401,32.4818874 C24.8968065,32.4818874 26.6928486,34.2779295 26.6928486,36.4874197 C26.6928486,38.6971641 24.8901981,40.4932062 22.687401,40.4932062 Z M41.7735365,50.9786899 C39.564131,50.9786899 37.7680889,49.1822241 37.7680889,46.9728186 C37.7680889,44.7630743 39.564131,42.9670321 41.7735365,42.9670321 C43.9832809,42.9670321 45.7794077,44.7630743 45.7794077,46.9728186 C45.7794077,49.1822241 43.9832809,50.9786899 41.7735365,50.9786899 Z" id="Fill-1" stroke="#FFFFFF" stroke-width="0.7" fill="#FFFFFF"></path>
            </g>
        </g>
    </g>
</svg>