<?xml version="1.0" encoding="UTF-8"?>
<svg width="70px" height="71px" viewBox="0 0 70 71" version="1.1" xmlns="http://www.w3.org/2000/svg" xmlns:xlink="http://www.w3.org/1999/xlink">
    <!-- Generator: Sketch 51.3 (57544) - http://www.bohemiancoding.com/sketch -->
    <title>Task Management</title>
    <desc>Created with Sketch.</desc>
    <defs>
        <linearGradient x1="0%" y1="50%" x2="100%" y2="50%" id="linearGradient-1">
            <stop stop-color="#FEA673" offset="0%"></stop>
            <stop stop-color="#FF8989" offset="100%"></stop>
        </linearGradient>
    </defs>
    <g id="Page-1" stroke="none" stroke-width="1" fill="none" fill-rule="evenodd">
        <g id="cubix-commerce-copy-2" transform="translate(-811.000000, -3255.000000)">
            <g id="Task-Management" transform="translate(811.000000, 3253.916370)">
                <g id="Group-32" transform="translate(0.000000, 0.006957)" fill="url(#linearGradient-1)" fill-rule="nonzero">
                    <g id="Group-31-Copy" transform="translate(0.000000, 0.670876)">
                        <circle id="Oval-6" cx="35" cy="35.6994913" r="35"></circle>
                    </g>
                </g>
                <g id="Group-8" transform="translate(20.500000, 18.506957)" fill="#FFFFFF">
                    <path d="M19.5577014,3.96011684 L24.5354053,8.93782075 L19.5577014,8.93782075 L19.5577014,3.96011684 Z M27.9229792,9.25584675 L19.2396754,0.572542946 C19.0367032,0.368485307 18.7610083,0.254516945 18.4722884,0.254516945 L14.1306365,0.254516945 L14.1306365,2.4253429 L17.3868754,2.4253429 L17.3868754,10.0232337 C17.3868754,10.6223817 17.872055,11.1086467 18.4722884,11.1086467 L26.0701792,11.1086467 L26.0701792,32.8169062 L2.19109379,32.8169062 L2.19109379,2.4253429 L3.27650677,2.4253429 L3.27650677,0.254516945 L1.10568082,0.254516945 C0.50544744,0.254516945 0.0202678405,0.740781958 0.0202678405,1.33992992 L0.0202678405,33.9023192 C0.0202678405,34.5014671 0.50544744,34.9877322 1.10568082,34.9877322 L27.1555922,34.9877322 C27.7558256,34.9877322 28.2410052,34.5014671 28.2410052,33.9023192 L28.2410052,10.0232337 C28.2410052,9.73559928 28.1270368,9.45881898 27.9229792,9.25584675 Z" id="Fill-1"></path>
                    <path d="M7.61815867,4.59616885 L9.78898462,4.59616885 L9.78898462,2.4253429 L7.61815867,2.4253429 L7.61815867,4.59616885 Z M8.70357164,20.621206 L7.61815867,18.4503801 L7.61815867,6.7669948 L9.78898462,6.7669948 L9.78898462,18.4503801 L8.70357164,20.621206 Z M7.73212703,23.533369 C7.91664724,23.901324 8.29220013,24.1336024 8.70357164,24.1336024 C9.11494316,24.1336024 9.49049605,23.901324 9.67501626,23.533369 L11.8458422,19.1917171 C11.9207357,19.0419301 11.9598106,18.8747765 11.9598106,18.7065375 L11.9598106,1.33992992 C11.9598106,0.740781958 11.474631,0.254516945 10.8743976,0.254516945 L6.53274569,0.254516945 C5.93251232,0.254516945 5.44733272,0.740781958 5.44733272,1.33992992 L5.44733272,18.7065375 C5.44733272,18.8747765 5.48640758,19.0419301 5.56130108,19.1917171 L7.73212703,23.533369 Z" id="Fill-4"></path>
                    <polygon id="Fill-5" points="13.0452235 24.1336024 23.8993533 24.1336024 23.8993533 21.9627765 13.0452235 21.9627765"></polygon>
                    <polygon id="Fill-6" points="15.2160495 19.7919505 23.8993533 19.7919505 23.8993533 17.6211245 15.2160495 17.6211245"></polygon>
                    <polygon id="Fill-7" points="15.2160495 15.4502986 23.8993533 15.4502986 23.8993533 13.2794726 15.2160495 13.2794726"></polygon>
                    <polygon id="Fill-8" points="8.70357164 28.4752543 23.8993533 28.4752543 23.8993533 26.3044284 8.70357164 26.3044284"></polygon>
                    <polygon id="Fill-9" points="4.36191974 28.4752543 6.53274569 28.4752543 6.53274569 26.3044284 4.36191974 26.3044284"></polygon>
                </g>
            </g>
        </g>
    </g>
</svg>