<?xml version="1.0" encoding="UTF-8"?>
<svg width="86px" height="87px" viewBox="0 0 86 87" version="1.1" xmlns="http://www.w3.org/2000/svg" xmlns:xlink="http://www.w3.org/1999/xlink">
    <!-- Generator: Sketch 51.3 (57544) - http://www.bohemiancoding.com/sketch -->
    <title>Announcements</title>
    <desc>Created with Sketch.</desc>
    <defs>
        <linearGradient x1="0%" y1="50%" x2="100%" y2="50%" id="linearGradient-1">
            <stop stop-color="#FEA673" offset="0%"></stop>
            <stop stop-color="#FF8989" offset="100%"></stop>
        </linearGradient>
    </defs>
    <g id="Page-1" stroke="none" stroke-width="1" fill="none" fill-rule="evenodd">
        <g id="cubix-commerce-copy-2" transform="translate(-1046.000000, -2111.000000)">
            <g id="Announcements" transform="translate(1046.000000, 2110.000000)">
                <g id="Group-32-Copy" transform="translate(0.000000, 0.058594)" fill="url(#linearGradient-1)" fill-rule="nonzero">
                    <g id="Group-31-Copy" transform="translate(0.000000, 0.824219)">
                        <circle id="Oval-6" cx="43" cy="43.859375" r="43"></circle>
                    </g>
                </g>
                <path d="M59.1944218,25.6928711 C57.0549838,25.6928711 55.3168721,27.4309828 55.3168721,29.5704208 L55.3168721,31.3279202 L25.0419333,40.9267946 C24.9023415,39.3476624 23.5839746,38.1019996 21.9670363,38.1019996 C20.2560675,38.1019996 18.8659659,39.4911318 18.8659659,41.20307 L18.8659659,49.7346488 C18.8659659,51.4456176 20.2560675,52.8357192 21.9670363,52.8357192 C23.5839746,52.8357192 24.9023415,51.5900563 25.0419333,50.0109242 L27.6544324,50.8368423 C27.2608611,51.1887299 26.9467796,51.6356175 26.7722898,52.1726582 C26.5192797,52.9607701 26.5832593,53.7973515 26.9622898,54.5399023 C27.3403509,55.2785755 27.9801466,55.8272488 28.764381,56.0812283 L39.8328467,59.6631148 C40.1469282,59.7649005 40.4648873,59.8143393 40.7867239,59.8143393 C41.2714176,59.8143393 41.7522338,59.7009209 42.1952438,59.4740843 C42.9377946,59.0989313 43.4835597,58.4552581 43.7404474,57.6710237 C43.9226923,57.1068402 43.9333555,56.5164832 43.7860086,55.9522997 L55.3168721,59.605921 L55.3168721,61.3672979 C55.3168721,63.5028584 57.0549838,65.2448477 59.1944218,65.2448477 C61.3299823,65.2448477 63.0719716,63.5028584 63.0719716,61.3672979 L63.0719716,29.5704208 C63.0719716,27.4309828 61.3299823,25.6928711 59.1944218,25.6928711 Z M42.2640704,57.1902075 C42.1390194,57.5837788 41.862744,57.9027073 41.4914686,58.0917378 C41.1240707,58.2807684 40.7033566,58.3146969 40.3136628,58.1896459 L29.2451972,54.6038818 C28.8516259,54.4749533 28.5336668,54.2025554 28.3436669,53.83128 C28.1546363,53.460974 28.1207077,53.0402599 28.2457587,52.6505662 C28.4609627,51.9952603 29.0707074,51.5784237 29.7260133,51.5784237 C29.8811153,51.5784237 30.0439724,51.601689 30.1990744,51.6540359 L41.2675401,55.2368918 C42.0818255,55.5015346 42.5287131,56.3759221 42.2640704,57.1902075 Z M23.519995,49.7346488 C23.519995,50.5906179 22.8230054,51.2827605 21.9670363,51.2827605 C21.1110672,51.2827605 20.4189246,50.5906179 20.4189246,49.7346488 L20.4189246,41.20307 C20.4189246,40.3471009 21.1110672,39.6501113 21.9670363,39.6501113 C22.8230054,39.6501113 23.519995,40.3471009 23.519995,41.20307 L23.519995,49.7346488 Z M25.0681067,48.3901084 L25.0681067,42.5476104 L55.3168721,32.9555217 L55.3168721,57.982197 L25.0681067,48.3901084 Z M61.5190129,61.3672979 C61.5190129,62.6507669 60.4740132,63.691889 59.1944218,63.691889 C57.9099835,63.691889 56.8649838,62.6507669 56.8649838,61.3672979 L56.8649838,29.5704208 C56.8649838,28.2869519 57.9099835,27.2458298 59.1944218,27.2458298 C60.4740132,27.2458298 61.5190129,28.2869519 61.5190129,29.5704208 L61.5190129,61.3672979 Z" stroke="#FFFFFF" stroke-width="0.5" fill="#FFFFFF"></path>
            </g>
        </g>
    </g>
</svg>