<?xml version="1.0" encoding="UTF-8"?>
<svg width="86px" height="87px" viewBox="0 0 86 87" version="1.1" xmlns="http://www.w3.org/2000/svg" xmlns:xlink="http://www.w3.org/1999/xlink">
    <!-- Generator: Sketch 51.3 (57544) - http://www.bohemiancoding.com/sketch -->
    <title>Employees</title>
    <desc>Created with Sketch.</desc>
    <defs>
        <linearGradient x1="0%" y1="50%" x2="100%" y2="50%" id="linearGradient-1">
            <stop stop-color="#FEA673" offset="0%"></stop>
            <stop stop-color="#FF8989" offset="100%"></stop>
        </linearGradient>
    </defs>
    <g id="Page-1" stroke="none" stroke-width="1" fill="none" fill-rule="evenodd">
        <g id="cubix-commerce-copy-2" transform="translate(-266.000000, -2111.000000)">
            <g id="Employees" transform="translate(266.000000, 2110.000000)">
                <g id="Group-31" transform="translate(0.000000, 0.882812)" fill="url(#linearGradient-1)" fill-rule="nonzero">
                    <circle id="Oval-6" cx="43" cy="43.859375" r="43"></circle>
                </g>
                <g transform="translate(18.644531, 28.005859)" fill="#FFFFFF" stroke="#FFFFFF" stroke-width="0.7">
                    <path d="M24.1401507,2.15054413 C27.9176514,2.15054413 30.9910116,5.38789963 30.9910116,9.36676023 C30.9910116,13.3464324 27.9176514,16.5840584 24.1401507,16.5840584 C20.3631635,16.5840584 17.2903169,13.3464324 17.2903169,9.36676023 C17.2903169,5.38789963 20.3631635,2.15054413 24.1401507,2.15054413 Z M24.1401507,17.9366762 C28.6259007,17.9366762 32.2750023,14.0922659 32.2750023,9.36676023 C32.2750023,4.64206617 28.6259007,0.797926311 24.1401507,0.797926311 C19.655171,0.797926311 16.0063262,4.64206617 16.0063262,9.36676023 C16.0063262,14.0922659 19.655171,17.9366762 24.1401507,17.9366762 Z" id="Fill-38"></path>
                    <path d="M39.4062869,4.56444671 C41.7223494,4.56444671 43.6064774,6.54927811 43.6064774,8.98885961 C43.6064774,11.4287116 41.7223494,13.413543 39.4062869,13.413543 C37.0902244,13.413543 35.2063532,11.4287116 35.2063532,8.98885961 C35.2063532,6.54927811 37.0902244,4.56444671 39.4062869,4.56444671 Z M39.4062869,14.7661609 C42.4303419,14.7661609 44.8904681,12.1745451 44.8904681,8.98885961 C44.8904681,5.80344464 42.4303419,3.21182889 39.4062869,3.21182889 C36.3824887,3.21182889 33.9223625,5.80344464 33.9223625,8.98885961 C33.9223625,12.1745451 36.3824887,14.7661609 39.4062869,14.7661609 Z" id="Fill-39"></path>
                    <path d="M46.8696114,27.156806 L36.3457666,27.156806 C36.2774583,26.1932011 36.0525031,25.2753146 35.6970944,24.4307401 C34.9454463,22.5116459 33.4942799,20.957488 31.6255598,20.1521394 C32.5243533,19.4417445 33.6257606,19.0478622 34.765174,19.0478622 L41.637606,19.0478622 C44.5224764,19.0478622 46.8696114,21.520177 46.8696114,24.5595093 L46.8696114,27.156806 Z M13.4221664,31.1413476 L13.4221664,27.7833386 C13.4221664,23.9511018 16.3817651,20.8333177 20.0195676,20.8333177 L28.4892841,20.8333177 C29.049104,20.8333177 29.5930025,20.9079822 30.1125052,21.0467608 C30.1515385,21.0662385 30.1910854,21.0851751 30.2339707,21.0959961 C30.3970375,21.1376567 30.5567659,21.186892 30.71444,21.2412672 C32.382344,21.8726692 33.7400358,23.1930948 34.478844,24.8746692 C34.8016393,25.6705496 34.9808844,26.5427175 34.9808844,27.454382 L34.9808844,27.8331149 C34.9808844,27.9702704 35.0201745,28.0971459 35.0866853,28.2040028 L35.0866853,31.1413476 L13.4221664,31.1413476 Z M1.4117171,27.1627576 L1.4117171,24.5654608 C1.4117171,21.5261286 3.77426005,19.0538137 6.67787669,19.0538137 L13.590626,19.0538137 C14.7372297,19.0538137 15.8455705,19.447696 16.7505272,20.1580909 C14.0410499,21.3197191 12.201348,24.0360462 12.0911816,27.1627576 L1.4117171,27.1627576 Z M41.637606,17.6952444 L34.765174,17.6952444 C33.048992,17.6952444 31.4034294,18.4134844 30.1882606,19.6771 C29.640767,19.5499539 29.0724727,19.4806999 28.4892841,19.4806999 L20.0195676,19.4806999 C19.3973457,19.4806999 18.7928429,19.5594222 18.2117086,19.7038818 C16.9880655,18.4267401 15.3247839,17.7011959 13.590626,17.7011959 L6.67787669,17.7011959 C3.06601076,17.7011959 0.127726366,20.7805656 0.127726366,24.5654608 L0.127726366,27.8390665 C0.127726366,28.2126595 0.415083492,28.5153754 0.769721732,28.5153754 L12.1381757,28.5153754 L12.1381757,31.8176565 C12.1381757,32.1912496 12.4255328,32.4939654 12.780171,32.4939654 L35.7286806,32.4939654 C36.0833189,32.4939654 36.370676,32.1912496 36.370676,31.8176565 L36.370676,28.5094239 L47.5116068,28.5094239 C47.866245,28.5094239 48.1536021,28.206708 48.1536021,27.8331149 L48.1536021,24.5595093 C48.1536021,20.7746141 45.2304688,17.6952444 41.637606,17.6952444 Z" id="Fill-40"></path>
                    <path d="M8.05431476,4.56444671 C10.3857851,4.56444671 12.282753,6.54927811 12.282753,8.98913014 C12.282753,11.4287116 10.3857851,13.413543 8.05431476,13.413543 C5.72258759,13.413543 3.82561968,11.4287116 3.82561968,8.98913014 C3.82561968,6.54927811 5.72258759,4.56444671 8.05431476,4.56444671 Z M8.05431476,14.7661609 C11.0940344,14.7661609 13.5667438,12.1745451 13.5667438,8.98913014 C13.5667438,5.80344464 11.0940344,3.21182889 8.05431476,3.21182889 C5.0145951,3.21182889 2.54162894,5.80344464 2.54162894,8.98913014 C2.54162894,12.1745451 5.0145951,14.7661609 8.05431476,14.7661609 Z" id="Fill-41"></path>
                </g>
            </g>
        </g>
    </g>
</svg>