<?xml version="1.0" encoding="UTF-8"?>
<svg width="86px" height="86px" viewBox="0 0 86 86" version="1.1" xmlns="http://www.w3.org/2000/svg" xmlns:xlink="http://www.w3.org/1999/xlink">
    <!-- Generator: Sketch 51.3 (57544) - http://www.bohemiancoding.com/sketch -->
    <title>Reports</title>
    <desc>Created with Sketch.</desc>
    <defs>
        <linearGradient x1="0%" y1="50%" x2="100%" y2="50%" id="linearGradient-1">
            <stop stop-color="#FEA673" offset="0%"></stop>
            <stop stop-color="#FF8989" offset="100%"></stop>
        </linearGradient>
        <polygon id="path-2" points="0 0 37.5735488 0 37.5735488 45.3400588 0 45.3400588"></polygon>
    </defs>
    <g id="Page-1" stroke="none" stroke-width="1" fill="none" fill-rule="evenodd">
        <g id="cubix-commerce-copy-2" transform="translate(-657.000000, -1707.000000)">
            <g id="Reports" transform="translate(657.000000, 1705.000000)">
                <g id="Group-32" transform="translate(0.000000, 0.324219)" fill="url(#linearGradient-1)" fill-rule="nonzero">
                    <g id="Group-31-Copy" transform="translate(0.000000, 0.824219)">
                        <circle id="Oval-6" cx="43" cy="43.859375" r="43"></circle>
                    </g>
                </g>
                <g transform="translate(24.000000, 21.339844)">
                    <mask id="mask-3" fill="white">
                        <use xlink:href="#path-2"></use>
                    </mask>
                    <g id="Clip-2"></g>
                    <path d="M33.0579,43.4893556 L4.5209013,43.4893556 C3.05384737,43.4893556 1.86036931,42.3021922 1.86036931,40.8429005 L1.86036931,4.4971583 C1.86045834,3.03786656 3.0539364,1.85061464 4.5209013,1.85061464 L24.6968767,1.85061464 L24.6968767,8.31696223 C24.6966986,9.51811723 25.1669322,10.6474544 26.0207774,11.4968704 C26.8747115,12.3462864 28.0100558,12.814032 29.217778,12.814032 L35.718343,12.814032 L35.718343,40.8429005 C35.718343,42.3021922 34.5248649,43.4893556 33.0579,43.4893556 Z M26.557335,3.15954062 L34.4028998,10.9635059 L29.217867,10.9635059 C28.5070861,10.9635059 27.8389485,10.6881895 27.3363986,10.1883872 C26.8338488,9.68858489 26.557246,9.02407095 26.557335,8.31713934 L26.557335,3.15954062 Z M37.3063828,11.2343945 L26.2845604,0.27106572 C26.1100701,0.0974986469 25.8735289,0 25.6268388,0 L4.5209013,0 C2.02800464,0 0,2.01745157 0,4.4971583 L0,40.842989 C0,43.3226072 2.02809367,45.3400588 4.52099033,45.3400588 L33.0579,45.3400588 C35.5507967,45.3400588 37.5788904,43.3226958 37.5788904,40.842989 L37.5788904,11.8887247 C37.5788013,11.6433398 37.4807841,11.4079616 37.3063828,11.2343945 Z" id="Fill-1" stroke="#FFFFFF" stroke-width="0.7" fill="#FFFFFF" mask="url(#mask-3)"></path>
                    <path d="M8.42248519,27.6157612 L8.14697151,27.6157612 C7.80714381,27.6157612 7.53157123,27.9546762 7.53157123,28.372867 C7.53157123,28.7910578 7.80714381,29.1300453 8.14697151,29.1300453 L8.42248519,29.1300453 C8.76231289,29.1300453 9.03788547,28.7910578 9.03788547,28.372867 C9.03788547,27.9547486 8.76231289,27.6157612 8.42248519,27.6157612" id="Fill-4" stroke="#FFFFFF" stroke-width="0.7" fill="#FFFFFF" mask="url(#mask-3)"></path>
                    <path d="M28.4953289,27.6157612 L12.2339679,27.6157612 C11.7330039,27.6157612 11.3267629,27.9546762 11.3267629,28.372867 C11.3267629,28.7910578 11.7330039,29.1300453 12.2339679,29.1300453 L28.4953289,29.1300453 C28.9962929,29.1300453 29.4025339,28.7910578 29.4025339,28.372867 C29.4025339,27.9547486 28.9962929,27.6157612 28.4953289,27.6157612" id="Fill-5" stroke="#FFFFFF" stroke-width="0.7" fill="#FFFFFF" mask="url(#mask-3)"></path>
                    <path d="M8.42248519,22.5947137 L8.14697151,22.5947137 C7.80714381,22.5947137 7.53157123,22.9336849 7.53157123,23.3518558 C7.53157123,23.7700266 7.80714381,24.1089978 8.14697151,24.1089978 L8.42248519,24.1089978 C8.76231289,24.1089978 9.03788547,23.7700266 9.03788547,23.3518558 C9.03788547,22.9336849 8.76231289,22.5947137 8.42248519,22.5947137" id="Fill-6" stroke="#FFFFFF" stroke-width="0.7" fill="#FFFFFF" mask="url(#mask-3)"></path>
                    <path d="M28.4953289,22.5947137 L12.2339679,22.5947137 C11.7330039,22.5947137 11.3267629,22.9336849 11.3267629,23.3518558 C11.3267629,23.7700266 11.7330039,24.1089978 12.2339679,24.1089978 L28.4953289,24.1089978 C28.9962929,24.1089978 29.4025339,23.7700266 29.4025339,23.3518558 C29.4025339,22.9336849 28.9962929,22.5947137 28.4953289,22.5947137" id="Fill-7" stroke="#FFFFFF" stroke-width="0.7" fill="#FFFFFF" mask="url(#mask-3)"></path>
                    <path d="M8.14697151,17.5736662 C7.80714381,17.5736662 7.53157123,17.9126375 7.53157123,18.3308083 C7.53157123,18.7489791 7.80714381,19.0879504 8.14697151,19.0879504 L8.42248519,19.0879504 C8.76231289,19.0879504 9.03788547,18.7489791 9.03788547,18.3308083 C9.03788547,17.9126375 8.76231289,17.5736662 8.42248519,17.5736662 L8.14697151,17.5736662 Z" id="Fill-8" stroke="#FFFFFF" stroke-width="0.7" fill="#FFFFFF" mask="url(#mask-3)"></path>
                    <path d="M12.2339679,17.5736662 C11.7330039,17.5736662 11.3267629,17.9126375 11.3267629,18.3308083 C11.3267629,18.7489791 11.7330039,19.0879504 12.2339679,19.0879504 L28.4953289,19.0879504 C28.9962929,19.0879504 29.4025339,18.7489791 29.4025339,18.3308083 C29.4025339,17.9126375 28.9962929,17.5736662 28.4953289,17.5736662 L12.2339679,17.5736662 Z" id="Fill-9" stroke="#FFFFFF" stroke-width="0.7" fill="#FFFFFF" mask="url(#mask-3)"></path>
                    <g id="Group-44" mask="url(#mask-3)">
                        <g transform="translate(0.000000, -47.699951)"></g>
                    </g>
                </g>
            </g>
        </g>
    </g>
</svg>