<?xml version="1.0" encoding="UTF-8"?>
<svg width="86px" height="86px" viewBox="0 0 86 86" version="1.1" xmlns="http://www.w3.org/2000/svg" xmlns:xlink="http://www.w3.org/1999/xlink">
    <!-- Generator: Sketch 51.3 (57544) - http://www.bohemiancoding.com/sketch -->
    <title>Recruitments</title>
    <desc>Created with Sketch.</desc>
    <defs>
        <linearGradient x1="0%" y1="50%" x2="100%" y2="50%" id="linearGradient-1">
            <stop stop-color="#FEA673" offset="0%"></stop>
            <stop stop-color="#FF8989" offset="100%"></stop>
        </linearGradient>
    </defs>
    <g id="Page-1" stroke="none" stroke-width="1" fill="none" fill-rule="evenodd">
        <g id="cubix-commerce-copy-2" transform="translate(-1046.000000, -1707.000000)">
            <g id="Recruitments" transform="translate(1046.000000, 1705.324219)">
                <g id="Group-31-Copy" transform="translate(0.000000, 0.824219)" fill="url(#linearGradient-1)" fill-rule="nonzero">
                    <circle id="Oval-6" cx="43" cy="43.859375" r="43"></circle>
                </g>
                <g transform="translate(22.297070, 22.375586)" fill="#FFFFFF">
                    <path d="M28.5416393,31.4147697 C30.8178673,33.6940804 33.2226751,36.105297 35.6324315,38.5117273 C35.9887233,38.8674513 36.4305188,39.0619029 36.9364013,39.0932975 C37.7812965,39.1458652 38.5750843,38.6632649 38.9243185,37.8892711 C39.2842609,37.0916706 39.1005174,36.2186257 38.4022925,35.5184538 C36.0734157,33.1834928 33.7394281,30.8534803 31.4068197,28.5221698 C31.3622021,28.477471 31.3108513,28.4395055 31.2625831,28.3983762 C31.3061461,28.4528908 31.3497903,28.5073243 31.3933533,28.5618389 C30.4506238,29.5049739 29.5078133,30.4481901 28.5416393,31.4147697 M1.84789961,17.5159122 C1.90184815,26.1341912 8.7641865,33.152896 17.5057042,33.1626742 C26.1294623,33.1722837 33.1522133,26.2585257 33.1620757,17.5252689 C33.1720225,8.80558352 26.1635173,1.86400825 17.4937343,1.8554945 C8.86761597,1.84689645 1.83769997,8.91508219 1.84789961,17.5159122 M16.3868299,0 L18.6582717,0 C18.7487237,0.0220654343 18.8382023,0.0576783963 18.9297901,0.0642493528 C20.6660639,0.190071002 22.3599105,0.541576615 23.9544626,1.23104031 C30.4152542,4.02442695 34.1448805,8.91500332 34.9318539,15.9217522 C35.3308165,19.4734759 34.567612,22.8521644 32.8216845,25.9862673 C32.6703092,26.2579479 32.7201186,26.3988585 32.9217902,26.5993943 C35.0970202,28.7614013 37.2464531,30.9495298 39.4392056,33.0934463 C40.4330425,34.0652178 41.3086833,35.0772262 41.5349352,36.5053141 L41.5349352,37.641035 C41.5093003,37.7151002 41.4744986,37.7872996 41.4593286,37.8633929 C41.185701,39.238832 40.4555136,40.3004877 39.2191192,40.9613961 C38.7305158,41.2225308 38.1692263,41.3477846 37.641035,41.5349352 L36.5053141,41.5349352 C35.0950733,41.3083588 34.0854985,40.4549457 33.1230562,39.4693022 C31.0277323,37.3233576 28.8916847,35.2171633 26.7665075,33.1005851 C26.2104099,32.5466778 26.4360128,32.5913766 25.7783492,32.9445858 C23.9152803,33.9455615 21.9376657,34.6041985 19.8430719,34.8638729 C15.5571047,35.3951469 11.5508492,34.5622579 7.94039256,32.1648323 C3.83176001,29.4366684 1.26421959,25.6348428 0.315811528,20.7742008 C0.179362777,20.0750023 0.103756215,19.3638788 0,18.6582717 L0,16.3868299 C0.0785269868,15.816049 0.146102379,15.2434023 0.237122296,14.6746495 C1.36675896,7.61330494 6.79436906,1.89430131 13.7957638,0.406912568 C14.6496637,0.225440595 15.5227085,0.133447204 16.3868299,0" id="Fill-1"></path>
                    <path d="M11.2105439,25.8997457 C15.1422299,28.6199972 20.726785,28.2049625 23.7895669,25.8677022 C22.3829064,23.4802245 20.2889851,22.167877 17.5301858,22.1580249 C14.7469952,22.148077 12.6473348,23.4798419 11.2105439,25.8997457 M17.5076053,12.2826791 C15.1956363,12.2800384 13.2726108,14.2050445 13.2846827,16.5101287 C13.2966604,18.8072907 15.1881857,20.6994761 17.4868566,20.7137172 C19.7976939,20.7279584 21.7182673,18.8275678 21.7361866,16.5089969 C21.753823,14.2134382 19.8246672,12.2854142 17.5076053,12.2826791 M25.2336265,24.6327039 C29.1373973,20.421008 28.8865464,13.5927662 24.2921177,9.65602493 C20.0234336,5.99837035 13.3661562,6.27840401 9.47917184,10.9197489 C5.76392656,15.3559539 6.6517185,21.4732217 9.80792947,24.6074811 C10.321511,24.0153903 10.792825,23.3746615 11.3639973,22.840764 C11.9340504,22.3080716 12.604048,21.8824686 13.2256659,21.4133068 C9.78451442,18.1500925 11.0238764,13.7364417 13.0681308,11.864529 C15.4957205,9.64164878 19.1334034,9.49607948 21.6297749,11.5942229 C22.8771428,12.6425629 23.6489786,13.9767903 23.8715076,15.5872636 C24.1905377,17.8954538 23.4252443,19.8383864 21.7553725,21.3867927 C22.4140929,21.8852233 23.0840905,22.3132367 23.6556071,22.8467899 C24.2265211,23.3797405 24.698782,24.018231 25.2336265,24.6327039 M17.4927543,5.21088211 C24.2867989,5.24738742 29.7843369,10.6920333 29.7963431,17.5129296 C29.8080248,24.1288282 24.4182991,29.7837448 17.5260147,29.8012673 C10.8075767,29.8183031 5.24570818,24.3103813 5.21033858,17.5872382 C5.1746445,10.8039018 10.6765632,5.25996147 17.4927543,5.21088211" id="Fill-3"></path>
                </g>
            </g>
        </g>
    </g>
</svg>