<?xml version="1.0" encoding="UTF-8"?>
<svg width="71px" height="71px" viewBox="0 0 71 71" version="1.1" xmlns="http://www.w3.org/2000/svg" xmlns:xlink="http://www.w3.org/1999/xlink">
    <!-- Generator: Sketch 51.3 (57544) - http://www.bohemiancoding.com/sketch -->
    <title>Jon Portal</title>
    <desc>Created with Sketch.</desc>
    <defs>
        <linearGradient x1="50%" y1="0%" x2="50%" y2="99.0403721%" id="linearGradient-1">
            <stop stop-color="#00FCD5" offset="0%"></stop>
            <stop stop-color="#00DCE2" offset="100%"></stop>
        </linearGradient>
    </defs>
    <g id="Page-1" stroke="none" stroke-width="1" fill="none" fill-rule="evenodd">
        <g id="cubix-commerce-copy-2" transform="translate(-172.000000, -2598.000000)">
            <g id="Jon-Portal" transform="translate(172.000000, 2598.000000)">
                <circle id="Oval-6" fill="url(#linearGradient-1)" cx="35.2988281" cy="35.6530687" r="35"></circle>
                <g id="Recruitments-Copy" transform="translate(18.029785, 17.473145)" fill="#FFFFFF" stroke="#FFFFFF" stroke-width="0.7">
                    <path d="M23.0953799,25.973131 C24.9265351,27.8067661 26.8611288,29.7465155 28.7997035,31.6824144 C29.0863293,31.9685834 29.4417401,32.1250138 29.848707,32.1502697 C30.5283991,32.1925588 31.1669769,31.8043218 31.447925,31.1816676 C31.7374876,30.5400226 31.5896717,29.8376849 31.0279712,29.2744182 C29.1544617,27.3960141 27.2768407,25.5215909 25.4003291,23.6461235 C25.3644357,23.6101648 25.3231255,23.5796227 25.2842953,23.5465354 C25.3193404,23.5903907 25.3544507,23.6341808 25.3894958,23.6780361 C24.6310991,24.4367592 23.872637,25.1955475 23.0953799,25.973131 M2.09501374,14.7917221 C2.13678071,21.4639952 7.44960427,26.8978777 14.2172888,26.905448 C20.8938038,26.9128877 26.3308189,21.560255 26.3384544,14.7989661 C26.3461552,8.04818413 20.9201692,2.67401534 14.2080217,2.66742399 C7.52967938,2.66076738 2.08711717,8.13295803 2.09501374,14.7917221 M13.3172106,0.700917677 L15.1445155,0.700917677 C15.2172814,0.718668638 15.2892641,0.747318167 15.3629437,0.752604299 C16.7597224,0.853823935 18.1223698,1.13659936 19.4051377,1.69125164 C24.6026453,3.93844503 27.6030146,7.87276287 28.2361105,13.5094762 C28.5570635,16.3667284 27.9430891,19.0847791 26.5385443,21.6060682 C26.4167675,21.8246269 26.4568376,21.937985 26.6190762,22.09931 C28.3689816,23.8385779 30.0981341,25.5988598 31.8621359,27.3235745 C32.661647,28.1053347 33.366073,28.9194642 33.5480856,30.0683169 L33.5480856,30.9819693 C33.5274632,31.0415525 33.4994663,31.0996347 33.4872625,31.1608494 C33.2671375,32.2673477 32.6797243,33.121417 31.6850831,33.6530974 C31.2920168,33.8631722 30.8404767,33.963935 30.4155631,34.1144919 L29.5019106,34.1144919 C28.3674154,33.9322182 27.5552436,33.2456737 26.7809885,32.4527539 C25.095365,30.7264077 23.3769806,29.0320393 21.6673411,27.3293175 C21.2199778,26.8837161 21.4014683,26.9196749 20.8723983,27.2038208 C19.3736167,28.0090749 17.7826868,28.538928 16.0976507,28.7478281 C12.6497223,29.1752217 9.42681336,28.5051881 6.52231232,26.5765331 C3.21704417,24.3818095 1.15153709,21.323358 0.38857206,17.4131214 C0.278803248,16.8506379 0.217980101,16.2785609 0.134511427,15.7109217 L0.134511427,13.8836169 C0.197683965,13.4244413 0.252046284,12.9637647 0.325269,12.5062206 C1.23402685,6.82558667 5.60037177,2.22482465 11.2327779,1.02826629 C11.919714,0.882277682 12.6220517,0.808271836 13.3172106,0.700917677" id="Fill-1"></path>
                </g>
            </g>
        </g>
    </g>
</svg>