<svg id="Layer_1" data-name="Layer 1" xmlns="http://www.w3.org/2000/svg" viewBox="0 0 128 128"><defs><style>.cls-1{fill:none;stroke:#e22f2c;stroke-miterlimit:10;stroke-width:1.5px;}</style></defs><title>icons</title><path class="cls-1" d="M122.1,106.47H81.2a1.9,1.9,0,0,1-1.9-1.9V39.84a1.9,1.9,0,0,1,1.9-1.9H122a1.9,1.9,0,0,1,1.9,1.9v64.73A1.77,1.77,0,0,1,122.1,106.47Z"/><line class="cls-1" x1="79.3" y1="93.94" x2="124" y2="93.94"/><circle class="cls-1" cx="101.7" cy="100.3" r="2.28"/><line class="cls-1" x1="96.48" y1="43.16" x2="105.21" y2="43.16"/><line class="cls-1" x1="4.27" y1="37.94" x2="74.58" y2="37.94"/><line class="cls-1" x1="27.87" y1="38.76" x2="27.87" y2="99.79"/><circle class="cls-1" cx="12.27" cy="29.81" r="2.58"/><circle class="cls-1" cx="21.36" cy="29.81" r="2.58"/><circle class="cls-1" cx="30.31" cy="29.81" r="2.58"/><path class="cls-1" d="M74.58,99.79H6.85A2.86,2.86,0,0,1,4,96.94V24.38a2.86,2.86,0,0,1,2.85-2.85h92a2.86,2.86,0,0,1,2.85,2.85v8.84"/></svg>