<svg id="Layer_1" data-name="Layer 1" xmlns="http://www.w3.org/2000/svg" viewBox="0 0 128 128"><defs><style>.cls-1{fill:none;stroke:#e22f2c;stroke-miterlimit:10;stroke-width:1.5px;}</style></defs><title>icons</title><path class="cls-1" d="M69.25,4A46.13,46.13,0,0,0,23.17,49.89h0V57.5L13.83,75.33c-2.36,4.51-.12,8.18,5,8.18h4.38v16.95a9.66,9.66,0,0,0,9.63,9.63l13.23-2,0,13.23v.1h0A2.66,2.66,0,0,0,49.32,124L97,115.53a4.12,4.12,0,0,0,3.28-3.89v-28A45.83,45.83,0,0,0,69.25,4Z"/><path class="cls-1" d="M85.78,45a1.05,1.05,0,0,0-1-.66H71.9L84.69,24.1a1,1,0,0,0,0-1.09,1.15,1.15,0,0,0-1-.55H66.22a1.15,1.15,0,0,0-1,.55L48.85,55.78a1,1,0,0,0,0,1.09,1.3,1.3,0,0,0,1,.55H61.09L48.85,86.59a1.09,1.09,0,0,0,.44,1.31.82.82,0,0,0,.55.11,1.24,1.24,0,0,0,.87-.33l35-41.52A1.17,1.17,0,0,0,85.78,45Z"/></svg>