<svg id="Layer_1" data-name="Layer 1" xmlns="http://www.w3.org/2000/svg" viewBox="0 0 128 128"><defs><style>.cls-1{fill:none;stroke:#e22f2c;stroke-miterlimit:10;stroke-width:1.5px;}</style></defs><title>icons</title><path class="cls-1" d="M70.11,87.23a5.1,5.1,0,0,1-5.1,5.1H63a5.1,5.1,0,0,1-5.1-5.1V46.61a1,1,0,0,0-.51-.88,13.26,13.26,0,0,1-.51-22.61v9.12a1,1,0,0,0,.56.91l6.11,3.05a1,1,0,0,0,.91,0l6.11-3.05a1,1,0,0,0,.56-.91V23.12a13.23,13.23,0,0,1-.51,22.61,1,1,0,0,0-.51.88Z"/><path class="cls-1" d="M24.9,46.69h7a0,0,0,0,1,0,0V92.93a0,0,0,0,1,0,0h-7A11.63,11.63,0,0,1,13.26,81.29v-23A11.63,11.63,0,0,1,24.9,46.69Z"/><path class="cls-1" d="M107.71,46.69h7a0,0,0,0,1,0,0V92.93a0,0,0,0,1,0,0h-7A11.63,11.63,0,0,1,96.08,81.29v-23A11.63,11.63,0,0,1,107.71,46.69Z" transform="translate(210.82 139.61) rotate(180)"/><path class="cls-1" d="M105.41,92.93v3.75a20.7,20.7,0,0,1-20.64,20.64H75.84"/><rect class="cls-1" x="56.92" y="111.44" width="18.92" height="12.56" rx="3.67" ry="3.67"/><path class="cls-1" d="M24.52,46.69V44.44A40.56,40.56,0,0,1,65,4h0a40.56,40.56,0,0,1,40.44,40.44v2.47"/></svg>