<?xml version="1.0" standalone="no"?>
<!DOCTYPE svg PUBLIC "-//W3C//DTD SVG 1.1//EN" "http://www.w3.org/Graphics/SVG/1.1/DTD/svg11.dtd" >
<svg xmlns="http://www.w3.org/2000/svg" xmlns:xlink="http://www.w3.org/1999/xlink" version="1.1">
<metadata>
Created by FontForge 20170731 at Thu Dec 13 01:45:13 2018
 By Aleksey,,,
</metadata>
<defs>
<font id="CopyrightKlimTypeFoundry" horiz-adv-x="269" >
  <font-face 
    font-family="Copyright Klim Type Foundry"
    font-weight="400"
    font-stretch="normal"
    units-per-em="1000"
    panose-1="2 2 5 3 3 2 2 6 2 3"
    ascent="800"
    descent="-200"
    x-height="450"
    cap-height="690"
    bbox="-105 -290 1155 810"
    underline-thickness="42"
    underline-position="-235"
    unicode-range="U+000D-2026"
  />
<missing-glyph horiz-adv-x="1036" 
 />
    <glyph glyph-name="f_i.liga" unicode="fi" horiz-adv-x="583" 
d="M258 40v-40h-232v40h72v321l-87 48l87 51q17 139 100 229.5t196 90.5q39 0 63 -18t24 -47q0 -24 -20 -42.5t-46 -18.5l-84 82q-68 -24 -106.5 -104t-38.5 -195h218l85 33v-430h72v-40h-232v40h72v347h-215v-347h72z" />
    <glyph glyph-name="f_l.liga" unicode="fl" horiz-adv-x="584" 
d="M186 40h72v-40h-232v40h72v321l-87 48l87 51q17 142 96.5 231t190.5 89q28 0 49.5 -3.5t54.5 -15.5v-721h72v-40h-232v40h72v673q-10 9 -23.5 14t-30.5 5q-75 0 -118 -79t-43 -216h144l-30 -50h-114v-347z" />
    <glyph glyph-name="f_b.liga" unicode="fb" horiz-adv-x="872" 
d="M401 33v680q-10 9 -23.5 14t-30.5 5q-75 0 -118 -79t-43 -216h144l-30 -50h-114v-347h102v-40h-262v40h72v321l-87 48l87 51q17 142 96.5 231t190.5 89q26 0 51 -4.5t53 -14.5v-355h19q34 27 68 40.5t67 13.5q87 0 141.5 -61.5t54.5 -158.5q0 -108 -76.5 -179t-187.5 -71
q-45 0 -94.5 12t-79.5 31zM577 401q-28 0 -53 -12t-35 -29v-276q12 -24 39.5 -38t63.5 -14q70 0 111 48.5t41 134.5t-45 136t-122 50z" />
    <glyph glyph-name="f_f_b.liga" unicode="ffb" horiz-adv-x="1175" 
d="M946 460q87 0 141.5 -61.5t54.5 -158.5q0 -108 -76.5 -179t-187.5 -71q-45 0 -94.5 12t-79.5 31v680q-10 9 -23.5 14t-30.5 5q-75 0 -118 -79t-43 -216h144l-30 -50h-114v-347h102v-40h-262v40h72v347h-215v-347h72v-40h-232v40h72v321l-87 48l87 51q17 132 83 216
t153 84q35 0 55.5 -15.5t20.5 -41.5q0 -22 -15.5 -37t-39.5 -15l-68 63q-51 -22 -76 -91t-25 -186h215v23q17 142 96.5 231t190.5 89q26 0 51 -4.5t53 -14.5v-355h19q34 27 68 40.5t67 13.5zM880 401q-28 0 -53 -12t-35 -29v-276q12 -24 39.5 -38t63.5 -14q70 0 111 48.5
t41 134.5t-45 136t-122 50z" />
    <glyph glyph-name="f_f.liga" unicode="ff" horiz-adv-x="620" 
d="M186 40h72v-40h-232v40h72v321l-87 48l87 51q17 132 83 216t153 84q35 0 55.5 -15.5t20.5 -41.5q0 -22 -15.5 -37t-39.5 -15l-68 63q-51 -22 -76 -91t-25 -186h215v23q17 140 94.5 230t182.5 90q36 0 58.5 -17t22.5 -44q0 -23 -16 -38t-41 -15l-80 67q-65 -20 -99 -95.5
t-34 -200.5h144l-30 -50h-114v-347h102v-40h-262v40h72v347h-215v-347z" />
    <glyph glyph-name="f_h.liga" unicode="fh" horiz-adv-x="870" 
d="M186 40h72v-40h-232v40h72v321l-87 48l87 51q17 142 96.5 231t190.5 89q28 0 49.5 -3.5t54.5 -15.5v-377h23q45 43 78.5 59.5t69.5 16.5q58 0 89 -38.5t31 -108.5v-273h72v-40h-232v40h72v248q0 49 -25.5 75.5t-72.5 26.5q-25 0 -51.5 -13.5t-53.5 -39.5v-297h72v-40
h-232v40h72v673q-10 9 -23.5 14t-30.5 5q-75 0 -118 -79t-43 -216h144l-30 -50h-114v-347z" />
    <glyph glyph-name="f_f_h.liga" unicode="ffh" horiz-adv-x="1173" 
d="M186 40h72v-40h-232v40h72v321l-87 48l87 51q17 132 83 216t153 84q35 0 55.5 -15.5t20.5 -41.5q0 -22 -15.5 -37t-39.5 -15l-68 63q-51 -22 -76 -91t-25 -186h215v23q17 142 96.5 231t190.5 89q28 0 49.5 -3.5t54.5 -15.5v-377h23q45 43 78.5 59.5t69.5 16.5
q58 0 89 -38.5t31 -108.5v-273h72v-40h-232v40h72v248q0 49 -25.5 75.5t-72.5 26.5q-25 0 -51.5 -13.5t-53.5 -39.5v-297h72v-40h-232v40h72v673q-10 9 -23.5 14t-30.5 5q-75 0 -118 -79t-43 -216h144l-30 -50h-114v-347h72v-40h-232v40h72v347h-215v-347z" />
    <glyph glyph-name="f_f_i.liga" unicode="ffi" horiz-adv-x="886" 
d="M186 40h72v-40h-232v40h72v321l-87 48l87 51q17 132 83 216t153 84q35 0 55.5 -15.5t20.5 -41.5q0 -22 -15.5 -37t-39.5 -15l-68 63q-51 -22 -76 -91t-25 -186h215v23q17 139 100 229.5t196 90.5q39 0 63 -18t24 -47q0 -24 -20 -42.5t-46 -18.5l-84 82
q-68 -24 -106.5 -104t-38.5 -195h218l85 33v-430h72v-40h-232v40h72v347h-215v-347h72v-40h-232v40h72v347h-215v-347z" />
    <glyph glyph-name="f_j.liga" unicode="fj" horiz-adv-x="563" 
d="M186 437h218l85 33v-522q-30 -82 -103 -160t-126 -78q-24 0 -40 16t-16 39q0 16 8 29t22 21l94 -34q35 31 54 77t19 103v426h-215v-347h102v-40h-262v40h72v321l-87 48l87 51q17 139 100 229.5t196 90.5q39 0 63 -18t24 -47q0 -24 -20 -42.5t-46 -18.5l-84 82
q-68 -24 -106.5 -104t-38.5 -195z" />
    <glyph glyph-name="f_f_j.liga" unicode="ffj" horiz-adv-x="866" 
d="M489 437h218l85 33v-522q-30 -82 -103 -160t-126 -78q-24 0 -40 16t-16 39q0 16 8 29t22 21l94 -34q35 31 54 77t19 103v426h-215v-347h102v-40h-262v40h72v347h-215v-347h72v-40h-232v40h72v321l-87 48l87 51q17 132 83 216t153 84q35 0 55.5 -15.5t20.5 -41.5
q0 -22 -15.5 -37t-39.5 -15l-68 63q-51 -22 -76 -91t-25 -186h215v23q17 139 100 229.5t196 90.5q39 0 63 -18t24 -47q0 -24 -20 -42.5t-46 -18.5l-84 82q-68 -24 -106.5 -104t-38.5 -195z" />
    <glyph glyph-name="f_k.liga" unicode="fk" horiz-adv-x="852" 
d="M186 40h72v-40h-232v40h72v321l-87 48l87 51q17 142 96.5 231t190.5 89q28 0 49.5 -3.5t54.5 -15.5v-493h34l165 132v10h-83v40h222v-40h-61l-183 -143l269 -267h-124l-239 253v-213h72v-40h-232v40h72v673q-10 9 -23.5 14t-30.5 5q-75 0 -118 -79t-43 -216h144l-30 -50
h-114v-347z" />
    <glyph glyph-name="f_f_k.liga" unicode="ffk" horiz-adv-x="1155" 
d="M186 40h72v-40h-232v40h72v321l-87 48l87 51q17 132 83 216t153 84q35 0 55.5 -15.5t20.5 -41.5q0 -22 -15.5 -37t-39.5 -15l-68 63q-51 -22 -76 -91t-25 -186h215v23q17 142 96.5 231t190.5 89q28 0 49.5 -3.5t54.5 -15.5v-493h34l165 132v10h-83v40h222v-40h-61
l-183 -143l269 -267h-124l-239 253v-213h72v-40h-232v40h72v673q-10 9 -23.5 14t-30.5 5q-75 0 -118 -79t-43 -216h144l-30 -50h-114v-347h72v-40h-232v40h72v347h-215v-347z" />
    <glyph glyph-name="f_f_l.liga" unicode="ffl" horiz-adv-x="887" 
d="M186 40h72v-40h-232v40h72v321l-87 48l87 51q17 132 83 216t153 84q35 0 55.5 -15.5t20.5 -41.5q0 -22 -15.5 -37t-39.5 -15l-68 63q-51 -22 -76 -91t-25 -186h215v23q17 142 96.5 231t190.5 89q28 0 49.5 -3.5t54.5 -15.5v-721h72v-40h-232v40h72v673q-10 9 -23.5 14
t-30.5 5q-75 0 -118 -79t-43 -216h144l-30 -50h-114v-347h72v-40h-232v40h72v347h-215v-347z" />
    <glyph glyph-name=".notdef" horiz-adv-x="1036" 
 />
    <glyph glyph-name="glyph1" horiz-adv-x="500" 
 />
    <glyph glyph-name="glyph1" horiz-adv-x="500" 
 />
    <glyph glyph-name="uni000D" unicode="&#xd;" horiz-adv-x="500" 
 />
    <glyph glyph-name="space" unicode=" " horiz-adv-x="200" 
 />
    <glyph glyph-name="exclam" unicode="!" horiz-adv-x="310" 
d="M155 700q27 0 45 -20t18 -51l-63 -443l-63 443q0 31 18 51t45 20zM85 60q0 30 20.5 51t49.5 21q30 0 50.5 -21t20.5 -51q0 -29 -20 -49t-51 -20q-30 0 -50 20t-20 49z" />
    <glyph glyph-name="quotedbl" unicode="&#x22;" horiz-adv-x="354" 
d="M304 699l-47 -304l-47 304q0 22 12.5 36.5t34.5 14.5t34.5 -14.5t12.5 -36.5zM144 699l-47 -304l-47 304q0 22 12.5 36.5t34.5 14.5t34.5 -14.5t12.5 -36.5z" />
    <glyph glyph-name="numbersign" unicode="#" horiz-adv-x="660" 
d="M123 0h-42l73 208h-104v39h118l69 196h-127v39h141l73 208h42l-73 -208h171l73 208h42l-73 -208h104v-39h-118l-69 -196h127v-39h-141l-73 -208h-42l73 208h-171zM279 443l-69 -196h171l69 196h-171z" />
    <glyph glyph-name="dollar" unicode="$" horiz-adv-x="555" 
d="M279 695l8 115h38l-8 -121q25 -5 48.5 -17t40.5 -27l69 52v-225q-38 71 -78 113t-84 57l-16 -239q67 -26 92 -39t43 -26q35 -25 51.5 -56.5t16.5 -71.5q0 -89 -65.5 -149.5t-166.5 -65.5l-8 -121h-38l8 122q-51 4 -100 23.5t-80 48.5v167q33 -81 79.5 -129.5t104.5 -60.5
l19 277q-57 22 -82 34.5t-43 26.5q-31 23 -45.5 52.5t-14.5 67.5q0 80 57 136t142 56h12zM263 650q-51 0 -84 -32t-33 -82q0 -37 25.5 -64.5t88.5 -53.5l16 231q-2 1 -5 1h-8zM413 171q0 45 -27.5 77t-95.5 59l-18 -266h2q61 0 100 35.5t39 94.5z" />
    <glyph glyph-name="percent" unicode="%" horiz-adv-x="697" 
d="M40 557q0 59 41.5 101t100.5 42q57 0 98.5 -42t41.5 -101t-41.5 -101t-98.5 -42q-59 0 -100.5 42t-41.5 101zM552 690h78l-471 -643l-15 -47h-78l471 643zM272 557q0 39 -26.5 67t-63.5 28q-38 0 -65 -28t-27 -67t27 -66.5t65 -27.5q37 0 63.5 27.5t26.5 66.5zM375 133
q0 59 41.5 101t100.5 42q57 0 98.5 -42t41.5 -101t-41.5 -101t-98.5 -42q-59 0 -100.5 42t-41.5 101zM607 133q0 39 -26.5 67t-63.5 28q-38 0 -65 -28t-27 -67t27 -66.5t65 -27.5q37 0 63.5 27.5t26.5 66.5z" />
    <glyph glyph-name="ampersand" unicode="&#x26;" horiz-adv-x="837" 
d="M567 195l198 -195h-129l-126 124q-62 -69 -121 -101.5t-121 -32.5q-89 0 -150.5 55.5t-61.5 140.5q0 62 37 113t120 98v22q-31 34 -44.5 63.5t-13.5 62.5q0 63 46 109t112 46q60 0 103.5 -37.5t43.5 -91.5q0 -44 -31 -79t-87 -54v-22l193 -190q22 29 45.5 65.5
t80.5 131.5v20h-99v45h258v-45h-93q-53 -88 -90 -146t-70 -102zM308 662q-35 0 -57 -22t-22 -59q0 -29 18 -59.5t65 -75.5q36 16 56.5 50t20.5 75q0 38 -23 64.5t-58 26.5zM245 386q-53 -32 -79 -73t-26 -92q0 -67 46 -108t116 -41q45 0 88 21t87 65l-197 194
q-14 14 -21.5 21t-13.5 13z" />
    <glyph glyph-name="quotesingle" unicode="'" horiz-adv-x="194" 
d="M144 699l-47 -304l-47 304q0 22 12.5 36.5t34.5 14.5t34.5 -14.5t12.5 -36.5z" />
    <glyph glyph-name="parenleft" unicode="(" horiz-adv-x="405" 
d="M345 -177q-121 100 -183 217t-62 245t62 245t183 217q-78 -121 -115.5 -234t-37.5 -228t37.5 -228t115.5 -234z" />
    <glyph glyph-name="parenright" unicode=")" horiz-adv-x="405" 
d="M60 747q121 -100 183 -217t62 -245t-62 -245t-183 -217q78 121 115.5 234t37.5 228t-37.5 228t-115.5 234z" />
    <glyph glyph-name="asterisk" unicode="*" horiz-adv-x="470" 
d="M285 594l128 -102l-153 59l-25 -162l-25 162l-153 -59l128 102l-128 102l153 -60l25 163l25 -163l153 60z" />
    <glyph glyph-name="plus" unicode="+" horiz-adv-x="600" 
d="M274 313h-230v53h230v230h52v-230h230v-53h-230v-230h-52v230z" />
    <glyph glyph-name="comma" unicode="," 
d="M55 65q0 26 20 44.5t49 18.5q45 0 72.5 -36t27.5 -94q0 -81 -60 -142.5t-136 -61.5q62 41 93.5 86.5t31.5 93.5q0 15 -3 24.5t-9 17.5h-61q-11 6 -18 19.5t-7 29.5z" />
    <glyph glyph-name="hyphen" unicode="-" horiz-adv-x="403" 
d="M90 282h243l-20 -58h-243z" />
    <glyph glyph-name="period" unicode="." 
d="M64 60q0 30 20.5 51t49.5 21q30 0 50.5 -21t20.5 -51q0 -29 -20 -49t-51 -20q-30 0 -50 20t-20 49z" />
    <glyph glyph-name="slash" unicode="/" horiz-adv-x="437" 
d="M40 -145l307 915h50l-307 -915h-50z" />
    <glyph glyph-name="zero" unicode="0" horiz-adv-x="600" 
d="M108 573q38 60 88.5 93.5t103.5 33.5t103.5 -33.5t88.5 -93.5q31 -49 47.5 -108t16.5 -120t-16.5 -120t-47.5 -108q-38 -60 -88.5 -93.5t-103.5 -33.5t-103.5 33.5t-88.5 93.5q-31 49 -47.5 108t-16.5 120t16.5 120t47.5 108zM457 345q0 125 -46 218.5t-111 93.5
t-111 -93.5t-46 -218.5t46 -218.5t111 -93.5t111 93.5t46 218.5z" />
    <glyph glyph-name="one" unicode="1" horiz-adv-x="432" 
d="M181 44v524h-171l261 132v-656h131v-44h-352v44h131z" />
    <glyph glyph-name="two" unicode="2" horiz-adv-x="527" 
d="M514 90l-72 -90h-430q121 119 153 152t58 62q74 82 108 144.5t34 112.5q0 67 -37 105t-103 38q-55 0 -99.5 -29t-91.5 -101q25 99 89 157.5t150 58.5q81 0 133 -54t52 -137q0 -52 -26.5 -106.5t-82.5 -118.5q-28 -32 -66.5 -69.5t-117.5 -109.5v-15h349z" />
    <glyph glyph-name="three" unicode="3" horiz-adv-x="490" 
d="M77 129l116 -100q29 4 60 17t56 34t41 49.5t16 63.5q0 73 -73 112.5t-192 39.5q50 26 91 48t70 43.5t45 45t16 53.5q0 43 -29 66t-75 23q-51 0 -94.5 -28.5t-72.5 -63.5q9 31 28 61t46.5 53.5t63 38.5t76.5 15q67 0 109.5 -37t42.5 -89q0 -30 -13 -54t-34 -43.5t-49 -36
t-57 -30.5v-12q84 -16 138.5 -54.5t54.5 -104.5q0 -49 -26.5 -94t-70 -79.5t-100 -55t-115.5 -20.5q-50 0 -81 21.5t-31 54.5q0 18 11.5 36t31.5 27z" />
    <glyph glyph-name="four" unicode="4" horiz-adv-x="633" 
d="M526 44v-44h-292v44h103v180h-315l401 476v-426h200l-41 -50h-159v-180h103zM115 274h222v261z" />
    <glyph glyph-name="five" unicode="5" horiz-adv-x="499" 
d="M161 600l-22 -154q11 1 22.5 1.5t22.5 0.5q54 0 101.5 -13t82.5 -37.5t55.5 -60.5t20.5 -82q0 -55 -25.5 -103.5t-67.5 -84.5t-97.5 -56.5t-114.5 -20.5q-49 0 -79 21.5t-30 54.5q0 18 12 36t31 27l114 -98q30 4 61 17t56 34.5t41 53t16 73.5q0 75 -52.5 118.5
t-159.5 43.5q-14 0 -28.5 -1t-30.5 -2l50 322h305l-46 -90h-238z" />
    <glyph glyph-name="six" unicode="6" horiz-adv-x="565" 
d="M513 214q0 -93 -64.5 -158.5t-158.5 -65.5q-101 0 -170.5 78.5t-69.5 193.5q0 88 42 170.5t119 144.5q68 56 154.5 87t183.5 36q-154 -53 -249.5 -136.5t-130.5 -195.5h20q35 24 65 34t63 10q84 0 140 -57t56 -141zM159 330q-5 -23 -7 -46t-2 -48q0 -91 40 -148.5
t104 -57.5q56 0 91.5 43t35.5 111q0 76 -48.5 124.5t-122.5 48.5q-23 0 -46.5 -7t-44.5 -20z" />
    <glyph glyph-name="seven" unicode="7" horiz-adv-x="525" 
d="M511 690l-299 -690h-73l284 600h-411l46 90h453z" />
    <glyph glyph-name="eight" unicode="8" horiz-adv-x="555" 
d="M510 184q0 -76 -69 -135t-163 -59q-96 0 -164.5 53t-68.5 127q0 55 39.5 96t115.5 65v21q-69 41 -97.5 79.5t-28.5 83.5q0 77 60 131t146 54q90 0 150.5 -48.5t60.5 -120.5q0 -49 -31.5 -86t-101.5 -66v-17q86 -49 119 -89.5t33 -88.5zM280 661q-55 0 -88.5 -32.5
t-33.5 -83.5q0 -39 31 -73t133 -90q42 33 62.5 71t20.5 83q0 56 -34.5 90.5t-90.5 34.5zM237 330q-54 -31 -78 -68.5t-24 -89.5q0 -61 43 -102.5t104 -41.5q59 0 97 37t38 94q0 28 -16.5 53.5t-51.5 51.5q-13 9 -29 19t-83 47z" />
    <glyph glyph-name="nine" unicode="9" horiz-adv-x="565" 
d="M52 476q0 93 64.5 158.5t158.5 65.5q101 0 170.5 -78.5t69.5 -193.5q0 -88 -42 -170.5t-119 -144.5q-68 -56 -154.5 -87t-183.5 -36q154 53 249.5 136.5t130.5 195.5h-20q-35 -24 -65 -34t-63 -10q-84 0 -140 57t-56 141zM406 360q5 23 7 46t2 48q0 91 -40 148.5
t-104 57.5q-56 0 -91.5 -43t-35.5 -111q0 -76 48.5 -124.5t122.5 -48.5q23 0 46.5 7t44.5 20z" />
    <glyph glyph-name="colon" unicode=":" 
d="M64 60q0 30 20.5 51t49.5 21q30 0 50.5 -21t20.5 -51q0 -29 -20 -49t-51 -20q-30 0 -50 20t-20 49zM64 358q0 30 20.5 51t49.5 21q30 0 50.5 -21t20.5 -51q0 -29 -20 -49t-51 -20q-30 0 -50 20t-20 49z" />
    <glyph glyph-name="semicolon" unicode=";" 
d="M55 65q0 26 20 44.5t49 18.5q45 0 72.5 -36t27.5 -94q0 -81 -60 -142.5t-136 -61.5q62 41 93.5 86.5t31.5 93.5q0 15 -3 24.5t-9 17.5h-61q-11 6 -18 19.5t-7 29.5zM64 358q0 30 20.5 51t49.5 21q30 0 50.5 -21t20.5 -51q0 -29 -20 -49t-51 -20q-30 0 -50 20t-20 49z" />
    <glyph glyph-name="less" unicode="&#x3c;" horiz-adv-x="599" 
d="M523 88l-447 224v53l447 222v-64l-384 -186l384 -184v-65z" />
    <glyph glyph-name="equal" unicode="=" horiz-adv-x="600" 
d="M556 414h-512v53h512v-53zM556 210h-512v53h512v-53z" />
    <glyph glyph-name="greater" unicode="&#x3e;" horiz-adv-x="599" 
d="M523 365v-53l-447 -224v65l384 184l-384 186v64z" />
    <glyph glyph-name="question" unicode="?" horiz-adv-x="466" 
d="M331 520q0 60 -44.5 101.5t-109.5 41.5l-58 -105q-28 4 -47 22t-19 42q0 34 36 56t94 22q102 0 167.5 -57t65.5 -146q0 -82 -67 -146t-178 -87l-62 73q105 22 163.5 70t58.5 113zM147 60q0 30 20.5 51t49.5 21q30 0 50.5 -21t20.5 -51q0 -29 -20 -49t-51 -20
q-30 0 -50 20t-20 49z" />
    <glyph glyph-name="at" unicode="@" horiz-adv-x="939" 
d="M521 -174q80 0 156.5 17.5t139.5 50.5q-64 -57 -151 -89t-179 -32q-85 0 -164.5 29t-137.5 81q-62 55 -93.5 129.5t-31.5 164.5q0 89 34.5 173t98.5 148q63 65 146 99.5t175 34.5q76 0 141 -24.5t115 -70.5q52 -48 80.5 -113.5t28.5 -135.5q0 -55 -16 -104t-47 -89
q-34 -44 -80.5 -69t-94.5 -25q-36 0 -62 14t-43 43h-17q-32 -29 -60 -42.5t-56 -13.5q-38 0 -64 24.5t-26 62.5q0 37 28.5 67t86.5 52l107 42v56q0 39 -19.5 60t-55.5 21q-12 0 -25 -2t-26 -6v-86h-102q25 61 86.5 104.5t123.5 43.5q43 0 70 -29t27 -78v-299q84 2 136 75
t52 188q0 125 -79 209t-209 84q-82 0 -151.5 -30.5t-121.5 -87.5q-50 -55 -77 -128t-27 -153q0 -81 28.5 -148.5t82.5 -117.5q53 -48 124.5 -74t148.5 -26zM535 96v124l-54 -23q-50 -21 -68 -39.5t-18 -46.5q0 -24 16 -37.5t43 -13.5q22 0 42 9t39 27z" />
    <glyph glyph-name="A" unicode="A" horiz-adv-x="774" 
d="M339 614l-30 76h98l264 -646h83v-44h-309v44h123l-87 217h-238l-88 -217h123v-44h-258v44h83zM363 556l-102 -251h202z" />
    <glyph glyph-name="B" unicode="B" horiz-adv-x="662" 
d="M34 646v44h265q125 0 194 -43t69 -123q0 -59 -48.5 -103.5t-122.5 -56.5q92 -6 157 -53t65 -118q0 -86 -76.5 -139.5t-198.5 -53.5h-304v44h103v602h-103zM289 646h-56v-271h57q76 0 125.5 38.5t49.5 100.5q0 65 -45 98.5t-131 33.5zM233 333v-289h96q86 0 135 39.5
t49 110.5q0 66 -51.5 102.5t-140.5 36.5h-88z" />
    <glyph glyph-name="C" unicode="C" horiz-adv-x="682" 
d="M425 66q67 0 122 23.5t105 74.5q-28 -77 -102 -125.5t-167 -48.5q-142 0 -239.5 96t-97.5 243q0 74 25 139.5t73 117.5q50 54 115.5 84t133.5 30q48 0 90.5 -13t81.5 -39l67 52v-225q-61 97 -119 137t-130 40q-100 0 -171 -80t-71 -199q0 -136 81.5 -221.5t202.5 -85.5z
" />
    <glyph glyph-name="D" unicode="D" horiz-adv-x="789" 
d="M34 690h261q202 0 325 -88.5t123 -237.5q0 -160 -124 -262t-314 -102h-271v44h103v602h-103v44zM635 363q0 134 -92 208.5t-256 74.5h-54v-602h56q159 0 252.5 86.5t93.5 232.5z" />
    <glyph glyph-name="E" unicode="E" horiz-adv-x="654" 
d="M233 375h147l79 107v-259l-79 108h-147v-287h251l142 169l-42 -213h-550v44h103v602h-103v44h479l54 29v-212l-103 139h-231v-271z" />
    <glyph glyph-name="F" unicode="F" horiz-adv-x="610" 
d="M233 331v-287h128v-44h-327v44h103v602h-103v44h479l54 29v-212l-103 139h-231v-271h147l79 107v-259l-79 108h-147z" />
    <glyph glyph-name="G" unicode="G" horiz-adv-x="774" 
d="M558 54v207h-113v44h300v-44h-93v-165h66q-48 -50 -125 -78t-168 -28q-160 0 -267 96.5t-107 249.5q0 73 26.5 138.5t76.5 116.5t116 80t134 29q52 0 100.5 -13.5t88.5 -38.5l70 52v-225q-59 94 -122 135.5t-140 41.5q-106 0 -174.5 -81t-68.5 -209q0 -140 87.5 -231
t213.5 -91q29 0 54.5 3.5t44.5 10.5z" />
    <glyph glyph-name="H" unicode="H" horiz-adv-x="860" 
d="M34 646v44h302v-44h-103v-271h394v271h-103v44h302v-44h-103v-602h103v-44h-302v44h103v287h-394v-287h103v-44h-302v44h103v602h-103z" />
    <glyph glyph-name="I" unicode="I" horiz-adv-x="370" 
d="M34 646v44h302v-44h-103v-602h103v-44h-302v44h103v602h-103z" />
    <glyph glyph-name="J" unicode="J" horiz-adv-x="370" 
d="M233 646v-613q-32 -91 -109.5 -177t-135.5 -86q-27 0 -44.5 16.5t-17.5 41.5q0 18 8.5 33.5t23.5 24.5l107 -40q32 30 52 84t20 118v598h-103v44h302v-44h-103z" />
    <glyph glyph-name="K" unicode="K" horiz-adv-x="724" 
d="M34 646v44h302v-44h-103v-260h37l278 260h-106v44h263v-44h-92l-278 -256l385 -390h-128l-359 371v-327h103v-44h-302v44h103v602h-103z" />
    <glyph glyph-name="L" unicode="L" horiz-adv-x="631" 
d="M137 44v602h-103v44h302v-44h-103v-602h241l142 169l-42 -213h-540v44h103z" />
    <glyph glyph-name="M" unicode="M" horiz-adv-x="962" 
d="M639 44h113l-53 607l-240 -692l-244 692l-46 -607h113v-44h-258v44h93l51 602h-91v44h226l178 -531l184 531h220v-44h-91l51 -602h93v-44h-299v44z" />
    <glyph glyph-name="N" unicode="N" horiz-adv-x="774" 
d="M276 44v-44h-258v44h103v529l-102 117h122l458 -534v490h-103v44h258v-44h-103v-679l-478 547v-470h103z" />
    <glyph glyph-name="O" unicode="O" horiz-adv-x="808" 
d="M656 596q51 -50 78.5 -115t27.5 -136t-27.5 -136t-78.5 -115t-116.5 -77t-135.5 -27t-135.5 27t-116.5 77t-78.5 115t-27.5 136t27.5 136t78.5 115t116.5 77t135.5 27t135.5 -27t116.5 -77zM219 551q-32 -43 -48.5 -95.5t-16.5 -110.5t16.5 -111t48.5 -95q36 -49 85 -76
t100 -27t100 27t85 76q32 42 48.5 95t16.5 111t-16.5 110.5t-48.5 95.5q-36 48 -84.5 75t-100.5 27t-100.5 -27t-84.5 -75z" />
    <glyph glyph-name="P" unicode="P" horiz-adv-x="629" 
d="M137 646h-103v44h274q136 0 211.5 -52t75.5 -148q0 -82 -67 -134.5t-161 -52.5l-77 37q103 0 155 38.5t52 114.5q0 74 -49.5 113.5t-140.5 39.5h-74v-602h128v-44h-327v44h103v602z" />
    <glyph glyph-name="Q" unicode="Q" horiz-adv-x="808" 
d="M762 345q0 -69 -25 -129t-67 -105t-97.5 -73.5t-115.5 -34.5v-22l465 -164l-187 -35l-470 234q-46 23 -86 55.5t-69.5 74t-46.5 92t-17 107.5q0 76 30 141.5t79.5 112.5t114.5 74t134 27t134 -27t114.5 -74t79.5 -112.5t30 -141.5zM154 345q0 -68 21.5 -125t56.5 -97.5
t80 -63.5t92 -23t92 23t80 63.5t56.5 97.5t21.5 125t-21.5 124.5t-56.5 97t-80 63.5t-92 23t-92 -23t-80 -63.5t-56.5 -97t-21.5 -124.5z" />
    <glyph glyph-name="R" unicode="R" horiz-adv-x="703" 
d="M233 44h103v-44h-302v44h103v602h-103v44h273q138 0 212.5 -45.5t74.5 -131.5q0 -67 -50.5 -113.5t-140.5 -64.5l304 -335h-124l-284 326h-66v-282zM306 646h-73v-279h73q88 0 137.5 37t49.5 105q0 66 -48.5 101.5t-138.5 35.5z" />
    <glyph glyph-name="S" unicode="S" horiz-adv-x="555" 
d="M263 652q-51 0 -83 -31t-32 -79q0 -39 29.5 -68.5t127.5 -71.5q58 -25 84.5 -39.5t46.5 -29.5q32 -26 48 -57.5t16 -70.5q0 -93 -71 -154t-177 -61q-55 0 -110.5 20t-91.5 53v167q39 -94 96 -142.5t128 -48.5q61 0 99 34.5t38 91.5q0 31 -13 56t-41 46q-16 11 -37.5 22.5
t-70.5 31.5q-55 23 -80.5 37t-43.5 29q-29 24 -43 54t-14 67q0 80 57 136t142 56q39 0 77 -14t62 -36l69 52v-225q-50 90 -101.5 132.5t-110.5 42.5z" />
    <glyph glyph-name="T" unicode="T" horiz-adv-x="724" 
d="M40 719l54 -29h536l54 29v-222l-103 149h-171v-602h113v-44h-322v44h113v602h-171l-103 -149v222z" />
    <glyph glyph-name="U" unicode="U" horiz-adv-x="780" 
d="M413 53q93 0 144.5 56.5t51.5 159.5v377h-103v44h258v-44h-103v-392q0 -117 -75 -190.5t-190 -73.5q-117 0 -197 71.5t-80 189.5v395h-103v44h302v-44h-103v-376q0 -103 52.5 -160t145.5 -57z" />
    <glyph glyph-name="V" unicode="V" horiz-adv-x="754" 
d="M329 646h-123l193 -511l198 511h-123v44h260v-44h-83l-274 -687l-274 687h-83v44h309v-44z" />
    <glyph glyph-name="W" unicode="W" horiz-adv-x="1074" 
d="M305 646h-103l191 -500l128 336l-58 164h-73v44h294v-44h-123l170 -498l188 498h-123v44h258v-44h-83l-264 -687l-163 460l-177 -460l-264 687h-83v44h285v-44z" />
    <glyph glyph-name="X" unicode="X" horiz-adv-x="809" 
d="M48 646v44h315v-44h-107l157 -219l156 219h-107v44h267v-44h-99l-187 -262l243 -340h103v-44h-315v44h103l-197 275l-196 -275h103v-44h-267v44h103l227 318l-203 284h-99z" />
    <glyph glyph-name="Y" unicode="Y" horiz-adv-x="754" 
d="M538 44v-44h-322v44h113v289l-226 313h-83v44h318v-44h-123l186 -271l193 271h-123v44h263v-44h-83l-226 -313v-289h113z" />
    <glyph glyph-name="Z" unicode="Z" horiz-adv-x="657" 
d="M165 44h324l142 169l-42 -213h-562l451 646h-298l-103 -149v222l54 -29h482z" />
    <glyph glyph-name="bracketleft" unicode="[" horiz-adv-x="435" 
d="M365 -165h-235v905h235v-45h-172v-815h172v-45z" />
    <glyph glyph-name="backslash" unicode="\" horiz-adv-x="437" 
d="M347 -145l-307 915h50l307 -915h-50z" />
    <glyph glyph-name="bracketright" unicode="]" horiz-adv-x="435" 
d="M305 740v-905h-235v45h172v815h-172v45h235z" />
    <glyph glyph-name="asciicircum" unicode="^" horiz-adv-x="392" 
d="M362 346l-166 234l-166 -234l132 323q5 11 14 17.5t20 6.5t20 -6.5t14 -17.5z" />
    <glyph glyph-name="underscore" unicode="_" horiz-adv-x="503" 
d="M90 -75h343l-20 -58h-343z" />
    <glyph glyph-name="grave" unicode="`" horiz-adv-x="500" 
d="M337 492l-174 263h100z" />
    <glyph glyph-name="a" unicode="a" horiz-adv-x="452" 
d="M272 257v60q0 41 -20.5 63.5t-59.5 22.5q-13 0 -26.5 -2t-27.5 -6v-92h-109q26 65 92 111t132 46q45 0 73 -30.5t28 -82.5v-231q0 -27 12 -41.5t35 -14.5q15 0 28 6t23 17q0 -39 -28 -65t-68 -26q-31 0 -52.5 16t-30.5 45h-18q-35 -32 -64.5 -46t-59.5 -14
q-39 0 -67 26.5t-28 66.5q0 39 30 70t92 56zM272 93v132l-57 -24q-54 -22 -73 -42t-19 -50q0 -25 17 -39.5t46 -14.5q23 0 44.5 9.5t41.5 28.5z" />
    <glyph glyph-name="b" unicode="b" horiz-adv-x="548" 
d="M77 33v633l-98 46l186 68v-374h19q34 27 68 40.5t67 13.5q87 0 141.5 -61.5t54.5 -158.5q0 -108 -76.5 -179t-187.5 -71q-45 0 -94.5 12t-79.5 31zM253 401q-28 0 -53 -12t-35 -29v-276q12 -24 39.5 -38t63.5 -14q70 0 111 48.5t41 134.5t-45 136t-122 50z" />
    <glyph glyph-name="c" unicode="c" horiz-adv-x="435" 
d="M399 382q0 -24 -19.5 -41.5t-46.5 -17.5l-55 98q-69 0 -117 -52.5t-48 -129.5q0 -78 44.5 -125.5t116.5 -47.5q40 0 75 18t57 50q-8 -63 -55.5 -103.5t-114.5 -40.5q-86 0 -144.5 62.5t-58.5 155.5q0 105 73 178.5t174 73.5q54 0 86.5 -21.5t32.5 -56.5z" />
    <glyph glyph-name="d" unicode="d" horiz-adv-x="564" 
d="M471 780v-695l88 -46l-176 -58v60h-23q-33 -26 -65.5 -38.5t-65.5 -12.5q-85 0 -140.5 62t-55.5 158q0 106 75 178t177 72q25 0 50 -5t48 -14v225l-98 46zM295 49q28 0 53 12t35 29v275q-10 23 -38.5 38t-64.5 15q-70 0 -111 -48.5t-41 -134.5q0 -85 46 -135.5t121 -50.5
z" />
    <glyph glyph-name="e" unicode="e" horiz-adv-x="454" 
d="M273 69q48 0 83 17t62 53q-12 -70 -59 -109.5t-117 -39.5q-90 0 -149.5 65.5t-59.5 164.5q0 96 64 168t151 72q78 0 127 -53.5t49 -134.5h-320q-1 -3 -1 -7v-12q0 -79 49 -131.5t121 -52.5zM233 411q-43 0 -76.5 -27.5t-46.5 -74.5h222q0 46 -27 74t-72 28z" />
    <glyph glyph-name="f" unicode="f" horiz-adv-x="317" 
d="M26 40h72v321l-87 48l87 51q17 140 94.5 230t182.5 90q36 0 58.5 -17t22.5 -44q0 -23 -16 -38t-41 -15l-80 67q-65 -20 -99 -95.5t-34 -200.5h144l-30 -50h-114v-347h102v-40h-262v40z" />
    <glyph glyph-name="g" unicode="g" horiz-adv-x="519" 
d="M146 156v-112h207q74 0 115.5 -30t41.5 -85q0 -91 -92.5 -155t-214.5 -64q-88 0 -143.5 32.5t-55.5 86.5q0 36 31.5 69t91.5 60v18q-28 10 -43.5 30.5t-15.5 47.5t17 54.5t49 53.5q-40 22 -62.5 58t-22.5 78q0 67 55.5 114.5t131.5 47.5q37 0 71.5 -12.5t61.5 -35.5
l139 61v-91h-112q13 -19 20 -40.5t7 -43.5q0 -68 -55 -115t-132 -47q-24 0 -47 5t-43 15zM236 423q-41 0 -68 -36t-27 -89t27 -89t68 -36t68 36t27 89t-27 89t-68 36zM434 -111q0 38 -30 56.5t-91 18.5h-137q-41 -17 -62.5 -45t-21.5 -64q0 -45 42.5 -72t114.5 -27
q76 0 130.5 38t54.5 95z" />
    <glyph glyph-name="h" unicode="h" horiz-adv-x="562" 
d="M93 40v626l-98 46l186 68v-396h23q45 43 78.5 59.5t69.5 16.5q58 0 89 -38.5t31 -108.5v-273h72v-40h-232v40h72v248q0 49 -25.5 75.5t-72.5 26.5q-25 0 -51.5 -13.5t-53.5 -39.5v-297h72v-40h-232v40h72z" />
    <glyph glyph-name="i" unicode="i" horiz-adv-x="280" 
d="M194 645q0 -25 -18 -42.5t-43 -17.5t-43 17.5t-18 42.5t18 42.5t43 17.5t43 -17.5t18 -42.5zM26 40h72v306l-88 56l176 68v-430h72v-40h-232v40z" />
    <glyph glyph-name="j" unicode="j" horiz-adv-x="254" 
d="M188 645q0 -25 -18 -42.5t-43 -17.5t-43 17.5t-18 42.5t18 42.5t43 17.5t43 -17.5t18 -42.5zM-49 -290q-24 0 -40 16t-16 39q0 16 8 29t22 21l94 -34q35 31 54 77t19 103v385l-88 56l176 68v-522q-30 -82 -103 -160t-126 -78z" />
    <glyph glyph-name="k" unicode="k" horiz-adv-x="544" 
d="M21 40h72v626l-98 46l186 68v-512h34l165 132v10h-83v40h222v-40h-61l-183 -143l269 -267h-124l-239 253v-213h72v-40h-232v40z" />
    <glyph glyph-name="l" unicode="l" horiz-adv-x="276" 
d="M21 40h72v626l-98 46l186 68v-740h72v-40h-232v40z" />
    <glyph glyph-name="m" unicode="m" horiz-adv-x="858" 
d="M98 40v306l-88 56l176 68v-86h23q45 43 78.5 59.5t69.5 16.5q41 0 70 -20.5t45 -60.5h18q43 42 82 61.5t76 19.5q58 0 89 -38.5t31 -108.5v-273h72v-40h-232v40h72v248q0 49 -25.5 75.5t-72.5 26.5q-25 0 -51.5 -13.5t-53.5 -39.5v-297h72v-40h-232v40h72v248
q0 49 -25.5 75.5t-72.5 26.5q-25 0 -51.5 -13.5t-53.5 -39.5v-297h72v-40h-232v40h72z" />
    <glyph glyph-name="n" unicode="n" horiz-adv-x="567" 
d="M98 40v306l-88 56l176 68v-86h23q45 43 78.5 59.5t69.5 16.5q58 0 89 -38.5t31 -108.5v-273h72v-40h-232v40h72v248q0 49 -25.5 75.5t-72.5 26.5q-25 0 -51.5 -13.5t-53.5 -39.5v-297h72v-40h-232v40h72z" />
    <glyph glyph-name="o" unicode="o" horiz-adv-x="538" 
d="M269 -10q-97 0 -166.5 68t-69.5 167t69.5 167t166.5 68t166.5 -68t69.5 -167t-69.5 -167t-166.5 -68zM269 421q-57 0 -98 -57.5t-41 -138.5q0 -82 41 -139t98 -57t98 57t41 139t-41 139t-98 57z" />
    <glyph glyph-name="p" unicode="p" horiz-adv-x="563" 
d="M92 -240v586l-88 56l176 68v-64h19q34 27 68 40.5t67 13.5q87 0 141.5 -61.5t54.5 -158.5q0 -105 -73.5 -177.5t-170.5 -72.5q-31 0 -57 4.5t-49 14.5v-249h102v-40h-262v40h72zM180 360v-276q12 -24 39.5 -38t63.5 -14q70 0 111 48.5t41 134.5t-45 136t-122 50
q-28 0 -53 -12t-35 -29z" />
    <glyph glyph-name="q" unicode="q" horiz-adv-x="544" 
d="M281 -240h102v281h-23q-33 -26 -65.5 -38.5t-65.5 -12.5q-85 0 -140.5 62t-55.5 158q0 106 75 178t177 72q30 0 61 -6.5t59 -17.5l66 37v-713h72v-40h-262v40zM295 49q28 0 53 12t35 29v275q-10 23 -38.5 38t-64.5 15q-70 0 -111 -48.5t-41 -134.5q0 -85 46 -135.5
t121 -50.5z" />
    <glyph glyph-name="r" unicode="r" horiz-adv-x="400" 
d="M98 40v306l-88 56l176 68v-88h21q57 52 80.5 65t45.5 13q25 0 41 -15.5t16 -38.5q0 -19 -13 -36t-34 -26l-78 47l-79 -59v-292h102v-40h-262v40h72z" />
    <glyph glyph-name="s" unicode="s" horiz-adv-x="389" 
d="M179 -10q-41 0 -79.5 14.5t-60.5 36.5v124q27 -62 66.5 -95.5t84.5 -33.5q34 0 55.5 19.5t21.5 51.5q0 26 -18 45.5t-78 45.5q-75 31 -98.5 60t-23.5 70q0 56 41.5 94t99.5 38q24 0 49 -9.5t41 -25.5l50 35v-167q-36 62 -71.5 92.5t-70.5 30.5q-29 0 -46.5 -16.5
t-17.5 -44.5q0 -24 17.5 -42.5t77.5 -43.5q77 -33 102 -63t25 -73q0 -60 -48.5 -101.5t-118.5 -41.5z" />
    <glyph glyph-name="t" unicode="t" horiz-adv-x="369" 
d="M93 373l-86 33l166 140v-109h173l-30 -50h-143v-236q0 -45 22.5 -69.5t61.5 -24.5q29 0 54 10.5t48 33.5q-17 -53 -56 -82t-92 -29q-54 0 -88 33.5t-34 89.5z" />
    <glyph glyph-name="u" unicode="u" horiz-adv-x="555" 
d="M549 39l-176 -58v62h-23q-35 -27 -66.5 -40t-61.5 -13q-61 0 -96.5 39.5t-35.5 107.5v268h-78v40l166 11v-294q0 -53 29 -83t78 -30q28 0 53 12t35 29v315h-78v40l166 11v-371z" />
    <glyph glyph-name="v" unicode="v" horiz-adv-x="496" 
d="M270 107l125 303h-83v40h177v-40h-46l-194 -451l-196 451h-46v40h223v-40h-80z" />
    <glyph glyph-name="w" unicode="w" horiz-adv-x="711" 
d="M495 110l115 300h-83v40h177v-40h-46l-184 -451l-111 301l-129 -301l-181 451h-46v40h201v-40h-61l111 -302l87 202l-37 100h-46v40h211v-40h-80z" />
    <glyph glyph-name="x" unicode="x" horiz-adv-x="516" 
d="M7 40h59l152 187l-139 183h-53v40h223v-40h-73l104 -136l109 136h-77v40h177v-40h-49l-138 -166l155 -204h53v-40h-223v40h73l-118 156l-125 -156h89v-40h-199v40z" />
    <glyph glyph-name="y" unicode="y" horiz-adv-x="496" 
d="M265 74l130 336h-83v40h177v-40h-46l-251 -614q-19 -47 -42.5 -66.5t-55.5 -19.5q-28 0 -46.5 17.5t-18.5 43.5q0 13 5.5 25.5t16.5 22.5l91 -33l75 185l-164 439h-46v40h223v-40h-80z" />
    <glyph glyph-name="z" unicode="z" horiz-adv-x="457" 
d="M424 450l-284 -413h186l111 153l-23 -190h-399l290 413h-149l-124 -122l40 199l38 -40h314z" />
    <glyph glyph-name="braceleft" unicode="{" horiz-adv-x="441" 
d="M211 178q0 37 -43.5 64t-132.5 44q89 17 132.5 44t43.5 64q0 19 -7 43t-29 72q-20 45 -26.5 66.5t-6.5 37.5q0 55 40.5 91t105.5 36q25 0 54 -7t49 -17q-84 -4 -125.5 -31t-41.5 -77q0 -11 3 -29.5t14 -62.5q13 -54 17 -79t4 -42q0 -40 -37 -69t-98 -40q61 -11 98 -40
t37 -69q0 -17 -4 -42t-17 -79q-11 -44 -14 -62.5t-3 -29.5q0 -50 41.5 -77t125.5 -31q-20 -10 -49 -17t-54 -7q-65 0 -105.5 36t-40.5 91q0 16 6.5 37.5t26.5 66.5q22 48 29 72t7 43z" />
    <glyph glyph-name="bar" unicode="|" horiz-adv-x="328" 
d="M140 770h48v-915h-48v915z" />
    <glyph glyph-name="braceright" unicode="}" horiz-adv-x="441" 
d="M230 394q0 -37 43.5 -64t132.5 -44q-89 -17 -132.5 -44t-43.5 -64q0 -19 7 -43t29 -72q20 -45 26.5 -66.5t6.5 -37.5q0 -55 -40.5 -91t-105.5 -36q-25 0 -54 7t-49 17q84 4 125.5 31t41.5 77q0 11 -3 29.5t-14 62.5q-13 54 -17 79t-4 42q0 40 37 69t98 40q-61 11 -98 40
t-37 69q0 17 4 42t17 79q11 44 14 62.5t3 29.5q0 50 -41.5 77t-125.5 31q20 10 49 17t54 7q65 0 105.5 -36t40.5 -91q0 -16 -6.5 -37.5t-26.5 -66.5q-22 -48 -29 -72t-7 -43z" />
    <glyph glyph-name="asciitilde" unicode="~" horiz-adv-x="515" 
d="M445 373l-75 -140q-28 7 -88.5 14.5t-88.5 7.5q-18 0 -44.5 -14.5t-78.5 -55.5l75 140q28 -7 88.5 -14.5t88.5 -7.5q18 0 44.5 14.5t78.5 55.5z" />
    <glyph glyph-name="uni00A0" unicode="&#xa0;" horiz-adv-x="200" 
 />
    <glyph glyph-name="emdash" unicode="&#x2014;" horiz-adv-x="1040" 
d="M70 224l23 49h877l-23 -49h-877z" />
    <glyph glyph-name="quoteleft" unicode="&#x2018;" horiz-adv-x="260" 
d="M199 514q0 -22 -17 -37t-42 -15q-37 0 -60.5 29t-23.5 75q0 67 51.5 119.5t113.5 52.5q-52 -34 -77.5 -71.5t-25.5 -77.5q0 -13 2.5 -20.5t7.5 -13.5h50q10 -6 15.5 -17t5.5 -24z" />
    <glyph glyph-name="quoteright" unicode="&#x2019;" horiz-adv-x="260" 
d="M61 669q0 22 17 37t42 15q37 0 60.5 -29t23.5 -75q0 -67 -51.5 -119.5t-113.5 -52.5q52 34 77.5 71.5t25.5 77.5q0 13 -2.5 20.5t-7.5 13.5h-50q-10 6 -15.5 17t-5.5 24z" />
    <glyph glyph-name="quotedblleft" unicode="&#x201c;" horiz-adv-x="448" 
d="M387 514q0 -22 -17 -37t-42 -15q-37 0 -60.5 29t-23.5 75q0 67 51.5 119.5t113.5 52.5q-52 -34 -77.5 -71.5t-25.5 -77.5q0 -13 2.5 -20.5t7.5 -13.5h50q10 -6 15.5 -17t5.5 -24zM199 514q0 -22 -17 -37t-42 -15q-37 0 -60.5 29t-23.5 75q0 67 51.5 119.5t113.5 52.5
q-52 -34 -77.5 -71.5t-25.5 -77.5q0 -13 2.5 -20.5t7.5 -13.5h50q10 -6 15.5 -17t5.5 -24z" />
    <glyph glyph-name="quotedblright" unicode="&#x201d;" horiz-adv-x="448" 
d="M249 669q0 22 17 37t42 15q37 0 60.5 -29t23.5 -75q0 -67 -51.5 -119.5t-113.5 -52.5q52 34 77.5 71.5t25.5 77.5q0 13 -2.5 20.5t-7.5 13.5h-50q-10 6 -15.5 17t-5.5 24zM61 669q0 22 17 37t42 15q37 0 60.5 -29t23.5 -75q0 -67 -51.5 -119.5t-113.5 -52.5
q52 34 77.5 71.5t25.5 77.5q0 13 -2.5 20.5t-7.5 13.5h-50q-10 6 -15.5 17t-5.5 24z" />
    <glyph glyph-name="bullet" unicode="&#x2022;" horiz-adv-x="418" 
d="M70 253q0 57 41 98t98 41q58 0 98.5 -40.5t40.5 -98.5q0 -57 -41 -98t-98 -41t-98 41t-41 98z" />
    <glyph glyph-name="ellipsis" unicode="&#x2026;" horiz-adv-x="729" 
d="M524 60q0 30 20.5 51t49.5 21q30 0 50.5 -21t20.5 -51q0 -29 -20 -49t-51 -20q-30 0 -50 20t-20 49zM294 60q0 30 20.5 51t49.5 21q30 0 50.5 -21t20.5 -51q0 -29 -20 -49t-51 -20q-30 0 -50 20t-20 49zM64 60q0 30 20.5 51t49.5 21q30 0 50.5 -21t20.5 -51
q0 -29 -20 -49t-51 -20q-30 0 -50 20t-20 49z" />
    <glyph glyph-name="glyph4" horiz-adv-x="600" 
d="M300 283l-180 -180l-40 40l180 180l-180 180l40 40l180 -180l180 180l40 -40l-180 -180l180 -180l-40 -40z" />
    <glyph glyph-name="i.locl" horiz-adv-x="280" 
d="M194 645q0 -25 -18 -42.5t-43 -17.5t-43 17.5t-18 42.5t18 42.5t43 17.5t43 -17.5t18 -42.5zM26 40h72v306l-88 56l176 68v-430h72v-40h-232v40z" />
    <glyph glyph-name="f_t.dlig" horiz-adv-x="685" 
d="M385 780q26 0 51 -4.5t53 -14.5v-324h173l-30 -50h-143v-236q0 -45 22.5 -69.5t61.5 -24.5q29 0 54 10.5t48 33.5q-17 -53 -56 -82t-92 -29q-54 0 -88 33.5t-34 89.5l1 274h-220v-347h102v-40h-262v40h72v321l-87 48l87 51q17 142 96.5 231t190.5 89zM349 732
q-76 0 -119.5 -79.5t-43.5 -215.5h220l1 276q-10 9 -25.5 14t-32.5 5z" />
    <glyph glyph-name="f_f_t.dlig" horiz-adv-x="988" 
d="M876 57q29 0 54 10.5t48 33.5q-17 -53 -56 -82t-92 -29q-54 0 -88 33.5t-34 89.5l1 274h-220v-347h102v-40h-262v40h72v347h-215v-347h72v-40h-232v40h72v321l-87 48l87 51q17 132 83 216t153 84q35 0 55.5 -15.5t20.5 -41.5q0 -22 -15.5 -37t-39.5 -15l-68 63
q-51 -22 -76 -91t-25 -186h215v23q17 142 96.5 231t190.5 89q26 0 51 -4.5t53 -14.5v-324h173l-30 -50h-143v-236q0 -45 22.5 -69.5t61.5 -24.5zM709 437l1 276q-10 9 -25.5 14t-32.5 5q-76 0 -119.5 -79.5t-43.5 -215.5h220z" />
    <glyph glyph-name="c_h.dlig" horiz-adv-x="997" 
d="M688 40v-40h-232v40h72v636q-24 21 -50 30.5t-57 9.5q-72 0 -116 -46.5t-44 -117.5q0 -21 3 -35t10 -30q-21 16 -39 54t-18 75q0 71 50.5 117.5t121.5 46.5q39 0 71.5 -16t54.5 -46h17l84 62v-396h23q45 43 78.5 59.5t69.5 16.5q58 0 89 -38.5t31 -108.5v-273h72v-40
h-232v40h72v248q0 49 -25.5 75.5t-72.5 26.5q-25 0 -51.5 -13.5t-53.5 -39.5v-297h72zM399 382q0 -24 -19.5 -41.5t-46.5 -17.5l-55 98q-69 0 -117 -52.5t-48 -129.5q0 -78 44.5 -125.5t116.5 -47.5q40 0 75 18t57 50q-8 -63 -55.5 -103.5t-114.5 -40.5q-86 0 -144.5 62.5
t-58.5 155.5q0 105 73 178.5t174 73.5q54 0 86.5 -21.5t32.5 -56.5z" />
    <glyph glyph-name="c_k.dlig" horiz-adv-x="979" 
d="M688 40v-40h-232v40h72v636q-24 21 -50 30.5t-57 9.5q-72 0 -116 -46.5t-44 -117.5q0 -21 3 -35t10 -30q-21 16 -39 54t-18 75q0 71 50.5 117.5t121.5 46.5q39 0 71.5 -16t54.5 -46h17l84 62v-512h34l165 132v10h-83v40h222v-40h-61l-183 -143l269 -267h-124l-239 253
v-213h72zM399 382q0 -24 -19.5 -41.5t-46.5 -17.5l-55 98q-69 0 -117 -52.5t-48 -129.5q0 -78 44.5 -125.5t116.5 -47.5q40 0 75 18t57 50q-8 -63 -55.5 -103.5t-114.5 -40.5q-86 0 -144.5 62.5t-58.5 155.5q0 105 73 178.5t174 73.5q54 0 86.5 -21.5t32.5 -56.5z" />
    <glyph glyph-name="c_l.dlig" horiz-adv-x="711" 
d="M688 40v-40h-232v40h72v636q-24 21 -50 30.5t-57 9.5q-72 0 -116 -46.5t-44 -117.5q0 -21 3 -35t10 -30q-21 16 -39 54t-18 75q0 71 50.5 117.5t121.5 46.5q39 0 71.5 -16t54.5 -46h17l84 62v-740h72zM399 382q0 -24 -19.5 -41.5t-46.5 -17.5l-55 98q-69 0 -117 -52.5
t-48 -129.5q0 -78 44.5 -125.5t116.5 -47.5q40 0 75 18t57 50q-8 -63 -55.5 -103.5t-114.5 -40.5q-86 0 -144.5 62.5t-58.5 155.5q0 105 73 178.5t174 73.5q54 0 86.5 -21.5t32.5 -56.5z" />
    <glyph glyph-name="c_t.dlig" horiz-adv-x="804" 
d="M692 57q29 0 54 10.5t48 33.5q-17 -53 -56 -82t-92 -29q-54 0 -88 33.5t-34 89.5l4 260l-86 33l142 119q-10 62 -54.5 100t-109.5 38q-73 0 -119.5 -47.5t-46.5 -118.5q-7 17 -10.5 34t-3.5 34q0 72 51 122.5t129 50.5q86 0 137 -58t51 -149v-94h173l-30 -50h-143v-236
q0 -45 22.5 -69.5t61.5 -24.5zM399 382q0 -24 -19.5 -41.5t-46.5 -17.5l-55 98q-69 0 -117 -52.5t-48 -129.5q0 -78 44.5 -125.5t116.5 -47.5q40 0 75 18t57 50q-8 -63 -55.5 -103.5t-114.5 -40.5q-86 0 -144.5 62.5t-58.5 155.5q0 105 73 178.5t174 73.5q54 0 86.5 -21.5
t32.5 -56.5z" />
    <glyph glyph-name="s_h.dlig" horiz-adv-x="951" 
d="M642 40v-40h-232v40h72v636q-24 21 -50 30.5t-57 9.5q-72 0 -116 -46.5t-44 -117.5q0 -21 3 -35t10 -30q-21 16 -39 54t-18 75q0 71 50.5 117.5t121.5 46.5q39 0 71.5 -16t54.5 -46h17l84 62v-396h23q45 43 78.5 59.5t69.5 16.5q58 0 89 -38.5t31 -108.5v-273h72v-40
h-232v40h72v248q0 49 -25.5 75.5t-72.5 26.5q-25 0 -51.5 -13.5t-53.5 -39.5v-297h72zM179 -10q-41 0 -79.5 14.5t-60.5 36.5v124q27 -62 66.5 -95.5t84.5 -33.5q34 0 55.5 19.5t21.5 51.5q0 26 -18 45.5t-78 45.5q-75 31 -98.5 60t-23.5 70q0 56 41.5 94t99.5 38
q24 0 49 -9.5t41 -25.5l50 35v-167q-36 62 -71.5 92.5t-70.5 30.5q-29 0 -46.5 -16.5t-17.5 -44.5q0 -24 17.5 -42.5t77.5 -43.5q77 -33 102 -63t25 -73q0 -60 -48.5 -101.5t-118.5 -41.5z" />
    <glyph glyph-name="s_k.dlig" horiz-adv-x="933" 
d="M642 40v-40h-232v40h72v636q-24 21 -50 30.5t-57 9.5q-72 0 -116 -46.5t-44 -117.5q0 -21 3 -35t10 -30q-21 16 -39 54t-18 75q0 71 50.5 117.5t121.5 46.5q39 0 71.5 -16t54.5 -46h17l84 62v-512h34l165 132v10h-83v40h222v-40h-61l-183 -143l269 -267h-124l-239 253
v-213h72zM179 -10q-41 0 -79.5 14.5t-60.5 36.5v124q27 -62 66.5 -95.5t84.5 -33.5q34 0 55.5 19.5t21.5 51.5q0 26 -18 45.5t-78 45.5q-75 31 -98.5 60t-23.5 70q0 56 41.5 94t99.5 38q24 0 49 -9.5t41 -25.5l50 35v-167q-36 62 -71.5 92.5t-70.5 30.5q-29 0 -46.5 -16.5
t-17.5 -44.5q0 -24 17.5 -42.5t77.5 -43.5q77 -33 102 -63t25 -73q0 -60 -48.5 -101.5t-118.5 -41.5z" />
    <glyph glyph-name="s_l.dlig" horiz-adv-x="665" 
d="M642 40v-40h-232v40h72v636q-24 21 -50 30.5t-57 9.5q-72 0 -116 -46.5t-44 -117.5q0 -21 3 -35t10 -30q-21 16 -39 54t-18 75q0 71 50.5 117.5t121.5 46.5q39 0 71.5 -16t54.5 -46h17l84 62v-740h72zM179 -10q-41 0 -79.5 14.5t-60.5 36.5v124q27 -62 66.5 -95.5
t84.5 -33.5q34 0 55.5 19.5t21.5 51.5q0 26 -18 45.5t-78 45.5q-75 31 -98.5 60t-23.5 70q0 56 41.5 94t99.5 38q24 0 49 -9.5t41 -25.5l50 35v-167q-36 62 -71.5 92.5t-70.5 30.5q-29 0 -46.5 -16.5t-17.5 -44.5q0 -24 17.5 -42.5t77.5 -43.5q77 -33 102 -63t25 -73
q0 -60 -48.5 -101.5t-118.5 -41.5z" />
    <glyph glyph-name="s_p.dlig" horiz-adv-x="952" 
d="M393 402l155 75q0 71 -42.5 118.5t-109.5 47.5t-109.5 -47.5t-42.5 -118.5q-7 18 -10.5 36.5t-3.5 36.5q0 73 46 120.5t120 47.5q83 0 128 -55t45 -152v-105h19q34 27 68 40.5t67 13.5q87 0 141.5 -61.5t54.5 -158.5q0 -105 -73.5 -177.5t-170.5 -72.5q-31 0 -57 4.5
t-49 14.5v-249h102v-40h-262v40h72v586zM179 -10q-41 0 -79.5 14.5t-60.5 36.5v124q27 -62 66.5 -95.5t84.5 -33.5q34 0 55.5 19.5t21.5 51.5q0 26 -18 45.5t-78 45.5q-75 31 -98.5 60t-23.5 70q0 56 41.5 94t99.5 38q24 0 49 -9.5t41 -25.5l50 35v-167q-36 62 -71.5 92.5
t-70.5 30.5q-29 0 -46.5 -16.5t-17.5 -44.5q0 -24 17.5 -42.5t77.5 -43.5q77 -33 102 -63t25 -73q0 -60 -48.5 -101.5t-118.5 -41.5zM569 360v-276q12 -24 39.5 -38t63.5 -14q70 0 111 48.5t41 134.5t-45 136t-122 50q-28 0 -53 -12t-35 -29z" />
    <glyph glyph-name="s_t.dlig" horiz-adv-x="758" 
d="M646 57q29 0 54 10.5t48 33.5q-17 -53 -56 -82t-92 -29q-54 0 -88 33.5t-34 89.5l4 260l-86 33l142 119q-9 62 -49.5 100t-99.5 38q-67 0 -109.5 -47.5t-42.5 -118.5q-7 18 -10.5 36.5t-3.5 36.5q0 73 46 120.5t120 47.5q83 0 128 -55t45 -152v-94h173l-30 -50h-143v-236
q0 -45 22.5 -69.5t61.5 -24.5zM179 -10q-41 0 -79.5 14.5t-60.5 36.5v124q27 -62 66.5 -95.5t84.5 -33.5q34 0 55.5 19.5t21.5 51.5q0 26 -18 45.5t-78 45.5q-75 31 -98.5 60t-23.5 70q0 56 41.5 94t99.5 38q24 0 49 -9.5t41 -25.5l50 35v-167q-36 62 -71.5 92.5t-70.5 30.5
q-29 0 -46.5 -16.5t-17.5 -44.5q0 -24 17.5 -42.5t77.5 -43.5q77 -33 102 -63t25 -73q0 -60 -48.5 -101.5t-118.5 -41.5z" />
    </font>
</defs>
</svg>
