<?xml version="1.0" encoding="UTF-8"?>
<svg width="86px" height="87px" viewBox="0 0 86 87" version="1.1" xmlns="http://www.w3.org/2000/svg" xmlns:xlink="http://www.w3.org/1999/xlink">
    <!-- Generator: Sketch 51.3 (57544) - http://www.bohemiancoding.com/sketch -->
    <title>Group 47</title>
    <desc>Created with Sketch.</desc>
    <defs>
        <linearGradient x1="16.8296659%" y1="31.5450236%" x2="67.1238341%" y2="61.8586399%" id="linearGradient-1">
            <stop stop-color="#00BB94" offset="0%"></stop>
            <stop stop-color="#0094A0" offset="100%"></stop>
        </linearGradient>
    </defs>
    <g id="Page-1" stroke="none" stroke-width="1" fill="none" fill-rule="evenodd">
        <g id="cubix-commerce-copy-2" transform="translate(-1046.000000, -1398.000000)">
            <g id="Group-47" transform="translate(1046.000000, 1396.000000)">
                <g id="Group-32-Copy" transform="translate(0.000000, 0.734375)" fill="url(#linearGradient-1)">
                    <circle id="Oval-6" cx="43" cy="44.6835938" r="43"></circle>
                </g>
                <g id="Payment" transform="translate(22.500000, 20.734375)" fill="#FFFFFF" stroke="#FFFFFF" stroke-width="0.3">
                    <path d="M38.9919436,11.8639728 L33.60878,21.8452553 L22.5060052,21.8452553 L30.9171982,6.31258541 L38.5433466,10.4621073 C39.1040928,10.6864058 39.2723167,11.3593013 38.9919436,11.8639728 Z M32.1508399,30.7050453 C30.6368251,30.7050453 29.4592581,31.938687 29.4592581,33.3966271 L29.4592581,36.4807313 C29.4592581,37.994746 30.6928998,39.1723131 32.1508399,39.1723131 L35.6274664,39.1723131 L35.6274664,45.0040736 C35.6274664,45.2844467 35.4031679,45.5087452 35.1227948,45.5087452 L2.87988796,45.5087452 C2.59951486,45.5087452 2.37521638,45.2844467 2.37521638,45.0040736 L2.37521638,24.1443147 C2.37521638,23.8639416 2.59951486,23.6396432 2.87988796,23.6396432 L35.0667202,23.6396432 C35.3470933,23.6396432 35.5713917,23.8639416 35.5713917,24.1443147 L35.5713917,30.7050453 L32.1508399,30.7050453 Z M37.4779288,32.4994332 L37.4779288,37.3779252 L32.1508399,37.3779252 C31.6461683,37.3779252 31.253646,36.9854028 31.253646,36.4807313 L31.253646,33.3966271 C31.253646,32.8919555 31.6461683,32.4994332 32.1508399,32.4994332 L37.4779288,32.4994332 Z M2.87988796,19.5461959 L12.0200511,19.5461959 L10.7864095,21.7891807 L2.87988796,21.7891807 C2.7116641,21.7891807 2.54344024,21.7891807 2.37521638,21.8452553 L2.37521638,19.9947928 C2.37521638,19.826569 2.59951486,19.5461959 2.87988796,19.5461959 Z M22.9546021,3.17240666 C23.2349752,2.66773508 23.9078707,2.44343659 24.4125423,2.7238097 L25.8144078,3.50885438 L15.9452745,21.8452553 L12.8611704,21.8452553 L22.9546021,3.17240666 Z M29.3471089,5.41539148 L20.4873188,21.8452553 L17.9639609,21.8452553 L27.4405718,4.40604831 L29.3471089,5.41539148 Z M39.4405406,8.83594334 L25.2536616,1.15372032 C23.9078707,0.424750254 22.0574082,0.985496459 21.3284381,2.33128735 L13.0293943,17.751808 L2.93596258,17.751808 C1.64624631,17.751808 0.636903141,18.7611512 0.636903141,20.0508674 L0.636903141,45.0040736 C0.636903141,46.2937899 1.64624631,47.303133 2.93596258,47.303133 L35.1788694,47.303133 C36.4685857,47.303133 37.4779288,46.2937899 37.4779288,45.0040736 L37.4779288,39.1723131 L38.4311974,39.1723131 C38.935869,39.1723131 39.3283913,38.7797907 39.3283913,38.2751191 L39.3283913,31.6022393 C39.3283913,31.0975677 38.935869,30.7050453 38.4311974,30.7050453 L37.4779288,30.7050453 L37.4779288,24.1443147 C37.4779288,23.078897 36.6928842,22.1256284 35.683541,21.9013299 L40.6181076,12.7611668 C41.3470777,11.3593013 40.8424061,9.62098802 39.4405406,8.83594334 Z" id="Fill-1"></path>
                    <path d="M34.9545709,13.4340622 L34.3938247,14.49948 C34.2256008,14.7798531 33.8330785,14.8920024 33.5527054,14.7237785 L33.1041084,14.4434054 C32.9919592,14.3873308 32.87981,14.2191069 32.8237353,14.1069577 C32.7676607,13.9387338 32.7676607,13.7705099 32.87981,13.6583607 L33.4405562,12.5929429 C33.5527054,12.4247191 33.7770039,12.2564952 34.0013024,12.2564952 C34.1134516,12.2564952 34.1695262,12.2564952 34.2816755,12.3125698 L34.7302724,12.5368683 C34.9545709,12.7611668 35.0667202,13.0976145 34.9545709,13.4340622 Z M35.5713917,11.0228535 L35.1227948,10.7985551 C34.0013024,10.1817342 32.4872876,10.6303312 31.8704668,11.7518236 L31.3097206,12.8172414 C31.0293475,13.3779876 30.9171982,14.050883 31.1414967,14.6677039 C31.3097206,15.2845247 31.7583175,15.7891963 32.3190637,16.0695694 L32.7676607,16.2938679 C33.1041084,16.4620917 33.4966308,16.574241 33.8891531,16.574241 C34.7863471,16.574241 35.5713917,16.0695694 36.0199887,15.3405993 L36.5807349,14.2751815 C37.1414811,13.0976145 36.6928842,11.6396744 35.5713917,11.0228535 Z" id="Fill-4"></path>
                </g>
            </g>
        </g>
    </g>
</svg>