<?xml version="1.0" encoding="UTF-8"?>
<svg width="86px" height="87px" viewBox="0 0 86 87" version="1.1" xmlns="http://www.w3.org/2000/svg" xmlns:xlink="http://www.w3.org/1999/xlink">
    <!-- Generator: Sketch 51.3 (57544) - http://www.bohemiancoding.com/sketch -->
    <title>Group 51</title>
    <desc>Created with Sketch.</desc>
    <defs>
        <linearGradient x1="16.8296659%" y1="31.5450236%" x2="67.1238341%" y2="61.8586399%" id="linearGradient-1">
            <stop stop-color="#00BB94" offset="0%"></stop>
            <stop stop-color="#0094A0" offset="100%"></stop>
        </linearGradient>
        <polygon id="path-2" points="0 9.1480568e-06 54.024 9.1480568e-06 54.024 42.5278 0 42.5278"></polygon>
    </defs>
    <g id="Page-1" stroke="none" stroke-width="1" fill="none" fill-rule="evenodd">
        <g id="cubix-commerce-copy-2" transform="translate(-1046.000000, -993.000000)">
            <g id="Group-51" transform="translate(1046.000000, 992.000000)">
                <g id="Group-32-Copy" fill="url(#linearGradient-1)">
                    <g id="Group-31-Copy" transform="translate(0.000000, 0.824219)">
                        <circle id="Oval-6" cx="43" cy="43.859375" r="43"></circle>
                    </g>
                </g>
                <g id="Group-3" transform="translate(14.500000, 24.824219)">
                    <mask id="mask-3" fill="white">
                        <use xlink:href="#path-2"></use>
                    </mask>
                    <g id="Clip-2"></g>
                    <path d="M50.4365,18.4418 C50.3645,18.5728 50.3035,18.6828 50.2375,18.7878 L49.5605,19.8718 C48.3235,21.8518 47.0865,23.8318 45.8405,25.8058 C45.6395,26.1248 45.3825,26.4048 45.0985,26.6138 C42.1705,28.7678 39.2385,30.9138 36.2925,33.0428 C35.9335,33.3028 35.4585,33.4588 35.0255,33.4598 C31.6895,33.4688 28.3545,33.4708 25.0195,33.4728 C22.2855,33.4738 19.5515,33.4758 16.8175,33.4808 L16.8145,33.4808 C16.1885,33.4808 15.7665,33.2248 15.4835,32.6748 C14.1725,30.1288 12.8485,27.5878 11.5085,25.0568 C11.2075,24.4868 11.2855,23.9928 11.7485,23.5468 L11.8645,23.4358 C12.4215,22.8998 12.9985,22.3458 13.4965,21.7628 C14.6485,20.4148 16.1655,19.6128 18.1315,19.3148 C20.6655,18.9288 22.7155,19.1198 24.5845,19.9138 C25.2115,20.1798 26.0965,20.6438 26.6405,21.6218 C26.6615,21.6278 26.6825,21.6328 26.6955,21.6338 C28.0845,21.6448 29.4775,21.6448 30.8695,21.6458 L33.5585,21.6498 C33.9575,21.6508 34.2965,21.6928 34.5955,21.7778 C35.4635,22.0268 36.0925,22.8548 36.0905,23.7448 C36.0875,25.0738 35.2905,25.5028 34.8145,25.6398 L34.5515,25.7188 C34.1575,25.8388 33.7105,25.9758 33.2425,25.9808 C31.0785,26.0018 28.9145,25.9988 26.7515,25.9968 L24.5585,25.9948 L24.5585,27.9658 L33.5065,27.9668 C35.8285,27.9658 37.1595,27.0278 37.9585,24.8308 C38.1175,24.3928 38.5055,24.1078 38.6655,24.0058 C39.4345,23.5128 40.2075,23.0248 40.9805,22.5378 C41.9885,21.9028 42.9965,21.2678 43.9965,20.6208 C44.3535,20.3898 44.7165,20.0828 45.0755,19.7088 C46.3665,18.3658 47.6315,17.6188 49.0575,17.3558 C49.2385,17.3218 49.4225,17.3058 49.6335,17.2888 L51.1755,17.1358 L50.4365,18.4418 Z M10.0685,39.8728 L2.6925,25.7378 L8.1605,22.8848 L15.5395,37.0138 L10.0685,39.8728 Z M12.1115,7.3418 L12.6795,6.1828 C12.7495,6.0368 12.8115,5.9068 12.8785,5.7808 L13.2325,5.1188 C13.6715,4.2948 14.1105,3.4708 14.5715,2.6598 C14.7835,2.2868 15.2505,2.0038 15.6575,2.0008 C18.6135,1.9838 21.5675,1.9848 24.5225,1.9868 L25.7885,1.9878 C25.8705,1.9878 25.9495,1.9968 26.0565,2.0108 L27.1405,2.1318 L25.9865,4.3278 C25.5715,5.1058 25.1565,5.8838 24.7255,6.6528 C24.5755,6.9218 24.1785,7.3238 23.7035,7.3268 C21.3005,7.3408 18.8975,7.3428 16.4635,7.3428 L14.8205,7.3428 L12.1115,7.3418 Z M28.8645,3.1288 L29.5805,4.3798 C29.6645,4.5268 29.7375,4.6538 29.8075,4.7828 L30.3925,5.8668 C30.9935,6.9778 31.5945,8.0888 32.1735,9.2108 C32.2115,9.2848 32.2365,9.3098 32.2405,9.3148 C32.2395,9.3128 32.2795,9.3238 32.3825,9.3238 L32.3925,9.3238 C34.4045,9.3098 36.4185,9.3098 38.4325,9.3118 L41.7425,9.3118 L41.7905,10.0948 C41.7985,10.2218 41.8065,10.3298 41.8065,10.4378 L41.8075,12.8478 C41.8075,14.8418 41.8085,16.8358 41.8175,18.8288 C41.8195,19.2068 41.7485,19.7528 41.1035,20.1368 C40.4485,20.5278 39.8045,20.9378 39.1565,21.3498 L37.9055,22.1408 L37.3065,21.4308 C37.1595,21.2508 37.0165,21.0748 36.8585,20.9148 C36.0445,20.0888 35.0385,19.6828 33.7805,19.6718 C33.0565,19.6668 32.3325,19.6678 31.5855,19.6688 L29.9085,19.6708 L29.9085,13.1668 L27.9395,13.1668 L27.9395,19.5878 L26.9405,18.9498 C24.1715,17.1848 21.0315,16.7508 16.7555,17.5468 L15.9865,17.6898 L15.9865,9.3118 L19.1215,9.3108 C21.2435,9.3108 23.3645,9.3088 25.4865,9.3198 L25.5795,9.2698 C26.2415,8.0098 26.9155,6.7568 27.6055,5.4738 L28.8645,3.1288 Z M35.0535,1.9868 C37.3605,1.9878 39.6655,1.9888 41.9715,1.9768 L41.9825,1.9768 C42.6015,1.9768 43.0205,2.2328 43.3035,2.7838 C43.7425,3.6378 44.1985,4.4828 44.6685,5.3568 L45.7335,7.3418 L41.9355,7.3418 C39.3885,7.3418 36.8405,7.3398 34.2935,7.3508 L34.2825,7.3508 C33.8955,7.3508 33.3475,7.2668 32.9955,6.5768 C32.5615,5.7288 32.1085,4.8908 31.6345,4.0148 L30.5435,1.9858 L35.0535,1.9868 Z M46.5095,16.1588 C46.1255,16.3538 45.7595,16.5828 45.3795,16.8198 C45.1905,16.9378 44.9985,17.0578 44.7995,17.1768 L43.8155,17.7668 L43.8155,9.3188 L49.0375,9.3188 L47.9405,7.2768 C46.6405,4.8548 45.3405,2.4328 44.0505,0.0058 C44.0365,0.0098 43.9995,0.0078 43.9535,0.0078 C33.9075,0.0108 23.8615,0.0128 13.8145,0.0018 C13.7425,-0.0072 13.7225,0.0168 13.6815,0.0948 C12.4565,2.3978 11.2255,4.6958 9.9935,6.9948 L8.7375,9.3388 L13.9875,9.3388 L13.9805,12.0108 C13.9735,13.6898 13.9655,15.2758 14.0055,16.8918 C14.0295,17.8788 13.9545,18.9928 12.7425,19.7278 C12.5845,19.8228 12.4255,20.0048 12.2575,20.1978 C12.1535,20.3178 12.0495,20.4368 11.9395,20.5468 L10.1245,22.3458 L8.9905,20.2278 L7.6485,20.9278 C5.3215,22.1428 3.0215,23.3428 0.7205,24.5408 C0.4835,24.6638 0.2425,24.7798 -0.0005,24.8938 L1.0715,26.9308 C2.0085,28.7138 2.9465,30.4968 3.8805,32.2818 L9.2295,42.5278 L18.1915,37.8548 L16.9685,35.4388 L22.0765,35.4408 C26.7165,35.4408 31.3575,35.4438 35.9985,35.4298 C36.2105,35.4288 36.4815,35.3398 36.6575,35.2128 C40.0115,32.7908 43.3505,30.3448 46.6845,27.8938 C46.8935,27.7388 47.0825,27.5388 47.2145,27.3288 C48.7395,24.9038 50.2585,22.4748 51.7775,20.0458 L54.0245,16.4528 C53.6315,16.2688 53.2395,16.0858 52.8405,15.9138 C50.7115,14.9988 48.6405,15.0778 46.5095,16.1588 Z" id="Fill-1" fill="#FFFFFF" mask="url(#mask-3)"></path>
                </g>
            </g>
        </g>
    </g>
</svg>