<?xml version="1.0" encoding="UTF-8"?>
<svg width="71px" height="71px" viewBox="0 0 71 71" version="1.1" xmlns="http://www.w3.org/2000/svg" xmlns:xlink="http://www.w3.org/1999/xlink">
    <!-- Generator: Sketch 51.3 (57544) - http://www.bohemiancoding.com/sketch -->
    <title>Group 50</title>
    <desc>Created with Sketch.</desc>
    <defs>
        <linearGradient x1="16.8296659%" y1="31.5450236%" x2="67.1238341%" y2="61.8586399%" id="linearGradient-1">
            <stop stop-color="#00BB94" offset="0%"></stop>
            <stop stop-color="#0094A0" offset="100%"></stop>
        </linearGradient>
    </defs>
    <g id="Page-1" stroke="none" stroke-width="1" fill="none" fill-rule="evenodd">
        <g id="cubix-commerce-copy-2" transform="translate(-172.000000, -1933.000000)">
            <g id="Group-50" transform="translate(172.000000, 1932.505782)">
                <g id="Group-14-Copy-2" transform="translate(0.298828, 0.951526)" fill="url(#linearGradient-1)">
                    <circle id="Oval-6" cx="35" cy="35.3773237" r="35"></circle>
                </g>
                <g id="Group-9" transform="translate(19.298828, 16.951526)" stroke="#FFFFFF" stroke-width="2">
                    <path d="M16.7143116,31.13488 C16.8667,30.9182495 16.9817382,30.7688492 17.0833305,30.6104848 C18.5041276,28.4113119 19.9607809,26.2345491 21.3337699,24.0069901 C22.9682096,21.3551342 24.4637069,18.6226021 25.6335115,15.7257296 C26.1608947,14.4169827 26.6673618,13.0888138 26.740568,11.6665226 C26.8839923,8.85480833 26.0353984,6.34189473 24.1798463,4.23236203 C21.813345,1.54016803 18.8103983,0.315085302 15.2427184,0.882806567 C11.4404799,1.48937192 8.87079417,3.75129296 7.41862293,7.2711648 C6.51325691,9.4688437 6.37580861,11.7397288 7.19302843,14.0046378 C7.65467546,15.2820107 8.13873254,16.5593835 8.71691182,17.7859602 C10.6441761,21.8660833 13.0390635,25.6757918 15.543013,29.4212582 C15.9150199,29.9800154 16.3004727,30.5313026 16.7143116,31.13488 Z" id="Stroke-1"></path>
                    <path d="M22.9411681,25.7177733 C24.690646,26.047948 26.4042678,26.496149 28.0162974,27.2730308 C28.8873014,27.6898577 29.6985452,28.1948308 30.3648707,28.9074704 C31.6452315,30.2819535 31.6556895,31.9567312 30.3783167,33.3327083 C29.4266366,34.3575946 28.2030478,34.9581839 26.924181,35.446723 C24.7175381,36.2878469 22.416773,36.7136378 20.0771637,36.9541723 C19.277872,37.0378365 18.4770862,37.0975967 17.6763004,37.1678148 L14.4029391,37.1678148 C13.8382058,37.1200067 13.2719786,37.0766806 12.7072453,37.0243905 C9.77302278,36.7524819 6.88511434,36.2669308 4.1749923,35.0298961 C3.24273423,34.6041051 2.37322429,34.0767219 1.67552473,33.3088042 C0.43550197,31.9492612 0.436995974,30.2924115 1.68598276,28.9373505 C2.52561263,28.0289965 3.58336698,27.4538052 4.70685749,26.9846881 C6.54298758,26.2167704 8.47174588,25.8029315 10.4318782,25.5071188" id="Stroke-3"></path>
                    <path d="M20.7396048,10.5289885 C20.6678927,12.7849335 19.2216974,14.4268431 17.1330808,14.7181738 C15.3552168,14.9661783 13.5370148,13.7739637 12.8975813,11.9453036 C12.1714957,9.86266298 13.178454,7.4946677 15.1535264,6.65204982 C17.6350659,5.59280146 20.4318401,7.2720612 20.7022547,9.98367725 C20.7216768,10.1958257 20.7321348,10.4079742 20.7396048,10.5289885 Z" id="Stroke-7"></path>
                </g>
            </g>
        </g>
    </g>
</svg>