<?xml version="1.0" encoding="UTF-8"?>
<svg width="86px" height="87px" viewBox="0 0 86 87" version="1.1" xmlns="http://www.w3.org/2000/svg" xmlns:xlink="http://www.w3.org/1999/xlink">
    <!-- Generator: Sketch 51.3 (57544) - http://www.bohemiancoding.com/sketch -->
    <title>Group 13</title>
    <desc>Created with Sketch.</desc>
    <defs>
        <linearGradient x1="16.8296659%" y1="31.5450236%" x2="67.1238341%" y2="61.8586399%" id="linearGradient-1">
            <stop stop-color="#00BB94" offset="0%"></stop>
            <stop stop-color="#0094A0" offset="100%"></stop>
        </linearGradient>
        <polygon id="path-2" points="0.00500065264 0 34.6711916 0 34.6711916 42.6722358 0.00500065264 42.6722358"></polygon>
    </defs>
    <g id="Page-1" stroke="none" stroke-width="1" fill="none" fill-rule="evenodd">
        <g id="cubix-commerce-copy-2" transform="translate(-657.000000, -1398.000000)">
            <g id="Group-13" transform="translate(657.000000, 1398.000000)">
                <circle id="Oval-6" fill="url(#linearGradient-1)" cx="43" cy="43.4179688" r="43"></circle>
                <g id="CMS" transform="translate(27.000000, 22.349948)">
                    <g id="Group-3" transform="translate(0.053472, 0.031430)">
                        <mask id="mask-3" fill="white">
                            <use xlink:href="#path-2"></use>
                        </mask>
                        <g id="Clip-2"></g>
                        <path d="M24.0031327,4.55259416 L30.1185975,10.668059 L24.0031327,10.668059 L24.0031327,4.55259416 Z M34.280474,11.0587766 L23.612415,0.390717659 C23.3630491,0.140018274 23.0243382,0 22.6696253,0 L17.3355958,0 L17.3355958,2.66701474 L21.3361179,2.66701474 L21.3361179,12.0015663 C21.3361179,12.7376624 21.9321957,13.3350737 22.6696253,13.3350737 L32.0041769,13.3350737 L32.0041769,40.0052211 L2.66701474,40.0052211 L2.66701474,2.66701474 L4.00052211,2.66701474 L4.00052211,0 L1.33350737,0 C0.596077794,0 0,0.597411302 0,1.33350737 L0,41.3387285 C0,42.0748245 0.596077794,42.6722358 1.33350737,42.6722358 L33.3376842,42.6722358 C34.0751138,42.6722358 34.6711916,42.0748245 34.6711916,41.3387285 L34.6711916,12.0015663 C34.6711916,11.6481869 34.5311733,11.3081425 34.280474,11.0587766 Z" id="Fill-1" fill="#0A090B" mask="url(#mask-3)"></path>
                    </g>
                    <path d="M24.0566046,4.58402409 L30.1720694,10.6994889 L24.0566046,10.6994889 L24.0566046,4.58402409 Z M34.3339459,11.0902066 L23.6658869,0.422147594 C23.416521,0.171448208 23.0778102,0.0314299344 22.7230972,0.0314299344 L17.3890677,0.0314299344 L17.3890677,2.69844467 L21.3895898,2.69844467 L21.3895898,12.0329963 C21.3895898,12.7690923 21.9856676,13.3665036 22.7230972,13.3665036 L32.0576488,13.3665036 L32.0576488,40.036651 L2.72048666,40.036651 L2.72048666,2.69844467 L4.05399403,2.69844467 L4.05399403,0.0314299344 L1.38697929,0.0314299344 C0.649549713,0.0314299344 0.0534719183,0.628841236 0.0534719183,1.3649373 L0.0534719183,41.3701584 C0.0534719183,42.1062545 0.649549713,42.7036658 1.38697929,42.7036658 L33.3911562,42.7036658 C34.1285857,42.7036658 34.7246635,42.1062545 34.7246635,41.3701584 L34.7246635,12.0329963 C34.7246635,11.6796168 34.5846453,11.3395724 34.3339459,11.0902066 Z" id="Fill-1" fill="#FFFFFF"></path>
                    <path d="M9.38802351,5.36545941 L12.0550382,5.36545941 L12.0550382,2.69844467 L9.38802351,2.69844467 L9.38802351,5.36545941 Z M10.7215309,25.0533622 L9.38802351,22.3863475 L9.38802351,8.03247415 L12.0550382,8.03247415 L12.0550382,22.3863475 L10.7215309,25.0533622 Z M9.52804178,28.6311625 C9.75473803,29.0832215 10.2161316,29.3685921 10.7215309,29.3685921 C11.2269302,29.3685921 11.6883237,29.0832215 11.91502,28.6311625 L14.5820347,23.297133 C14.6740467,23.113109 14.722053,22.9077489 14.722053,22.7010552 L14.722053,1.3649373 C14.722053,0.628841236 14.1259752,0.0314299344 13.3885456,0.0314299344 L8.05451614,0.0314299344 C7.31708656,0.0314299344 6.72100877,0.628841236 6.72100877,1.3649373 L6.72100877,22.7010552 C6.72100877,22.9077489 6.76901503,23.113109 6.86102704,23.297133 L9.52804178,28.6311625 Z" id="Fill-4" fill="#FFFFFF"></path>
                    <polygon id="Fill-5" fill="#FFFFFF" points="16.0555604 29.3685921 29.3906341 29.3685921 29.3906341 26.7015773 16.0555604 26.7015773"></polygon>
                    <polygon id="Fill-6" fill="#FFFFFF" points="18.7225751 24.0345626 29.3906341 24.0345626 29.3906341 21.3675478 18.7225751 21.3675478"></polygon>
                    <polygon id="Fill-7" fill="#FFFFFF" points="18.7225751 18.7005331 29.3906341 18.7005331 29.3906341 16.0335184 18.7225751 16.0335184"></polygon>
                    <polygon id="Fill-8" fill="#FFFFFF" points="10.7215309 34.7026215 29.3906341 34.7026215 29.3906341 32.0356068 10.7215309 32.0356068"></polygon>
                    <polygon id="Fill-9" fill="#FFFFFF" points="5.3875014 34.7026215 8.05451614 34.7026215 8.05451614 32.0356068 5.3875014 32.0356068"></polygon>
                </g>
            </g>
        </g>
    </g>
</svg>