<?xml version="1.0" encoding="UTF-8"?>
<svg width="86px" height="87px" viewBox="0 0 86 87" version="1.1" xmlns="http://www.w3.org/2000/svg" xmlns:xlink="http://www.w3.org/1999/xlink">
    <!-- Generator: Sketch 51.3 (57544) - http://www.bohemiancoding.com/sketch -->
    <title>Group 31</title>
    <desc>Created with Sketch.</desc>
    <defs>
        <linearGradient x1="16.8296659%" y1="31.5450236%" x2="67.1238341%" y2="61.8586399%" id="linearGradient-1">
            <stop stop-color="#00BB94" offset="0%"></stop>
            <stop stop-color="#0094A0" offset="100%"></stop>
        </linearGradient>
    </defs>
    <g id="Page-1" stroke="none" stroke-width="1" fill="none" fill-rule="evenodd">
        <g id="cubix-commerce-copy-2" transform="translate(-266.000000, -993.000000)">
            <g id="Group-31" transform="translate(266.000000, 992.824219)">
                <circle id="Oval-6" fill="url(#linearGradient-1)" cx="43" cy="43.859375" r="43"></circle>
                <g id="Inventory" transform="translate(19.311877, 23.159372)" fill="#FFFFFF">
                    <path d="M40.4380769,0.928127783 C40.2863417,0.834081991 40.1116045,0.784001878 39.933388,0.784001878 L11.1666055,0.784001878 C8.69341744,0.784001878 6.68123392,2.78497411 6.68123392,5.23715263 L6.51210226,30.1141572 L1.31357492,30.1141572 C0.779795402,30.1141572 0.34749488,30.5482819 0.34749488,31.0843138 L0.34749488,35.5659015 C0.350877513,38.857019 3.00682445,41.5241732 6.28411278,41.5279583 C6.35050904,41.5279583 6.41738853,41.5211645 6.48233509,41.5074798 L30.4838572,41.5074798 C30.626991,41.5176705 30.7711878,41.5245614 30.9161578,41.5245614 C34.2443789,41.518447 36.9395644,38.8081035 36.9407241,35.4658384 L36.9407241,20.9235831 L43.452293,20.9235831 C43.985686,20.9235831 44.4183731,20.4894584 44.4183731,19.9534265 L44.4183731,5.55296791 C44.4066788,3.237248 42.7179717,1.27461228 40.4380769,0.928127783 Z M2.27965496,35.5662897 L2.27965496,32.0548586 L24.891978,32.0548586 L24.891978,35.4662266 C24.8908182,36.986488 25.4601637,38.4506519 26.4870345,39.5671666 L6.1519968,39.5671666 C6.10628292,39.5675548 6.06095564,39.5709517 6.01601494,39.5777456 C3.9147232,39.4344931 2.28236107,37.6817863 2.27965496,35.5662897 Z M35.0085641,5.55296791 L35.0085641,35.4658384 C35.0066311,36.5505192 34.5778099,37.5896816 33.8151711,38.3569943 C33.0850055,39.1091665 32.0929275,39.5481439 31.0475006,39.5815307 C30.995408,39.5724076 30.9425423,39.567846 30.8893866,39.5675548 L30.5499636,39.5675548 C28.4455791,39.3597612 26.8377652,37.5900698 26.8237515,35.4666148 L26.8237515,31.0843138 C26.8237515,30.5486701 26.3915476,30.1141572 25.858058,30.1141572 L8.44426234,30.1141572 L8.613394,5.24394645 C8.62740777,3.84082981 9.76899815,2.71373613 11.1666055,2.72431506 L35.9681688,2.7242412 C35.3460542,3.53491409 35.0081775,4.5293343 35.0085641,5.55296791 Z M42.486213,18.9836582 L36.9407241,18.9836582 L36.9407241,5.55296791 C36.9660456,4.03309474 38.1997402,2.81457573 39.7136135,2.81457573 C41.2271003,2.81457573 42.4608916,4.03309474 42.486213,5.55296791 L42.486213,18.9836582 Z" id="Fill-1"></path>
                    <path d="M12.7499678,11.2935464 L21.8989275,11.2935464 C22.4328037,11.2935464 22.8650075,10.8595187 22.8650075,10.3233898 C22.8650075,9.78774609 22.4328037,9.35323317 21.8989275,9.35323317 L12.7499678,9.35323317 C12.2161883,9.35323317 11.7838878,9.78774609 11.7838878,10.3233898 C11.7838878,10.8595187 12.2161883,11.2935464 12.7499678,11.2935464 Z" id="Fill-2"></path>
                    <path d="M29.816802,16.2896199 L12.7499678,16.2896199 C12.2161883,16.2896199 11.7838878,16.7237446 11.7838878,17.2597765 C11.7838878,17.795129 12.2161883,18.2299331 12.7499678,18.2299331 L29.816802,18.2299331 C30.3502916,18.2299331 30.782882,17.795129 30.782882,17.2597765 C30.782882,16.7237446 30.3502916,16.2896199 29.816802,16.2896199 Z" id="Fill-3"></path>
                    <path d="M30.0351073,25.1655433 L12.7616631,25.1655433 C12.2214217,25.1655433 11.7838878,25.6056111 11.7838878,26.1474446 C11.7838878,26.6899656 12.2214217,27.1293458 12.7616631,27.1293458 L30.0351073,27.1293458 C30.5750553,27.1293458 31.0128826,26.6899656 31.0128826,26.1474446 C31.0128826,25.6056111 30.5750553,25.1655433 30.0351073,25.1655433 Z" id="Fill-4" transform="translate(21.398385, 26.147445) scale(1, -1) translate(-21.398385, -26.147445) "></path>
                </g>
            </g>
        </g>
    </g>
</svg>