<?xml version="1.0" encoding="UTF-8"?>
<svg width="86px" height="87px" viewBox="0 0 86 87" version="1.1" xmlns="http://www.w3.org/2000/svg" xmlns:xlink="http://www.w3.org/1999/xlink">
    <!-- Generator: Sketch 51.3 (57544) - http://www.bohemiancoding.com/sketch -->
    <title>Group 32</title>
    <desc>Created with Sketch.</desc>
    <defs>
        <linearGradient x1="16.8296659%" y1="31.5450236%" x2="67.1238341%" y2="61.8586399%" id="linearGradient-1">
            <stop stop-color="#00BB94" offset="0%"></stop>
            <stop stop-color="#0094A0" offset="100%"></stop>
        </linearGradient>
    </defs>
    <g id="Page-1" stroke="none" stroke-width="1" fill="none" fill-rule="evenodd">
        <g id="cubix-commerce-copy-2" transform="translate(-657.000000, -993.000000)">
            <g id="Group-32" transform="translate(657.000000, 992.000000)">
                <g id="Group-31-Copy" transform="translate(0.000000, 0.824219)" fill="url(#linearGradient-1)">
                    <circle id="Oval-6" cx="43" cy="43.859375" r="43"></circle>
                </g>
                <path d="M66.181547,45.4739061 L61.0456959,39.4831443 L66.181547,33.4914701 C66.3238801,33.3281521 66.3840979,33.1037038 66.3457775,32.8892918 C66.3065446,32.6721427 66.1742479,32.4869272 65.9817333,32.3801774 L49.3552251,23.1458642 C49.0742086,22.9889329 48.7211131,23.0354649 48.4893657,23.2635627 L43.4392794,28.2707666 L38.4357251,23.2662999 C38.2039777,23.0318153 37.8399335,22.9852833 37.5552674,23.152251 L20.0054191,33.3099042 C19.8028683,33.4276027 19.6669219,33.6383651 19.6459369,33.8728497 C19.6240395,34.1118963 19.7171035,34.3399941 19.8986694,34.4969254 L25.8438116,39.5935437 L20.7116101,46.4328295 C20.5866125,46.6007095 20.5364309,46.8178586 20.5829629,47.0249715 C20.6258453,47.2311719 20.758142,47.4054387 20.9433575,47.5094513 L26.0536616,50.3497257 C26.0326766,50.4172427 26.0107792,50.4884092 26.0107792,50.5668748 L26.0107792,57.3176587 C26.0107792,58.2081527 26.4888723,59.0420784 27.2625802,59.4918873 L42.1172243,68.0665416 C42.5159393,68.2946394 42.9648359,68.4123379 43.4146448,68.4123379 C43.4182944,68.4123379 43.4210316,68.4086883 43.4246812,68.4086883 C43.4283307,68.4086883 43.4319803,68.4123379 43.4356298,68.4123379 C43.4465785,68.4123379 43.4502281,68.4086883 43.4602644,68.4086883 C43.8918255,68.4013892 44.3233867,68.2873403 44.7084158,68.0665416 L59.516528,59.5165219 C60.31852,59.0530271 60.8139485,58.1908172 60.8139485,57.2674772 L60.8139485,49.7438978 L66.0063679,46.571513 C66.1888461,46.4574641 66.3129314,46.2722486 66.3485146,46.0623986 C66.3813607,45.8516362 66.3202305,45.634487 66.181547,45.4739061 Z M42.7084539,47.4665689 L28.2853709,39.4548602 L42.7084539,30.640247 L42.7084539,47.4665689 Z M44.1664553,30.6119629 L58.6360703,39.4548602 L44.1664553,47.4912035 L44.1664553,30.6119629 Z M49.1271273,24.6887181 L64.4917982,33.2214023 L59.9371404,38.5351697 L44.6080528,29.1685597 L49.1271273,24.6887181 Z M37.8007007,24.6960172 L42.2878415,29.183158 L26.9094847,38.5853512 L21.627651,34.0589776 L37.8007007,24.6960172 Z M27.0372195,40.431119 L42.3453221,48.9309571 L37.7158483,55.1580283 L22.3831111,46.6399423 L27.0372195,40.431119 Z M27.9924933,58.2264005 C27.6722439,58.0375355 27.4687807,57.6917391 27.4687807,57.3176587 L27.4687807,51.1371195 L37.5662161,56.7437645 C37.6766154,56.8076319 37.7970511,56.835916 37.9183992,56.835916 C38.1428474,56.835916 38.3645585,56.7328158 38.5068916,56.5439508 L42.7084539,50.8916862 L42.7084539,66.7189395 L27.9924933,58.2264005 Z M59.3559471,57.2674772 C59.3559471,57.6698418 59.1387979,58.0484842 58.7857025,58.2510351 L44.1664553,66.6943049 L44.1664553,50.8770879 L48.4181992,56.5439508 C48.5605322,56.7364654 48.7822433,56.835916 49.0030421,56.835916 C49.1344264,56.835916 49.2667232,56.8003328 49.3844217,56.7291662 L59.3559471,50.6353042 L59.3559471,57.2674772 Z M49.1882575,55.1397804 L44.5478349,48.9492049 L59.919805,40.410134 L64.5136956,45.7731705 L49.1882575,55.1397804 Z" id="Packaging-Management-" stroke="#FFFFFF" stroke-width="0.4" fill="#FFFFFF"></path>
            </g>
        </g>
    </g>
</svg>