<?xml version="1.0" encoding="UTF-8"?>
<svg width="112px" height="99px" viewBox="0 0 112 99" version="1.1" xmlns="http://www.w3.org/2000/svg" xmlns:xlink="http://www.w3.org/1999/xlink">
    <!-- Generator: Sketch 51.3 (57544) - http://www.bohemiancoding.com/sketch -->
    <title>Group 3</title>
    <desc>Created with Sketch.</desc>
    <defs></defs>
    <g id="Page-1" stroke="none" stroke-width="1" fill="none" fill-rule="evenodd">
        <g id="cubix-commerce-copy-2" transform="translate(-640.000000, -1017.000000)">
            <g id="Group-3" transform="translate(640.000000, 1017.000000)">
                <g id="Group-7-Copy" transform="translate(0.500000, 0.500000)" fill="#00D7A0">
                    <path d="M35.1539849,13.0060723 C39.0958883,10.7926514 43.1987082,8.97112199 47.1154342,7.52725343 C67.2507778,0.0988288527 94.8802262,0.647258077 103.525923,22.3895759 C111.082424,41.3897477 112.379607,52.5794553 110.33367,62.0658578 C107.433892,75.5062052 97.5566922,81.689991 85.7156564,87.988717 C80.7338173,90.6378163 75.974196,93.5288374 70.6103173,95.3700708 C57.6472457,99.8231848 43.9463672,97.9315966 35.3477413,86.4222455 C24.4557837,71.8434423 3.06704391,41.7936806 18.6332387,27.0583397 C26.3440879,19.7568967 27.2044978,17.470133 35.1539849,13.0060723" id="Fill-1" opacity="0.0887834821"></path>
                    <path d="M64.8062723,7.02819379 C68.7416077,9.25365609 72.4240746,11.8195605 75.6883779,14.4226836 C92.47075,27.7995401 103.808238,50.0640152 92.192704,70.3756005 C85.5436839,82.0009865 75.5482602,93.9471105 61.7773228,96.747274 C48.3041354,99.4883255 38.3743919,95.983195 26.8529995,89.1163357 C22.00471,86.2264092 17.0677524,83.6517475 12.7142533,80.0185407 C2.19119916,71.2349158 -3.28652507,58.5356594 2.1047203,45.2201044 C8.93436088,28.3501587 17.0677524,2.98558076 38.3360785,0.323345487 C47.5827485,-0.833719762 56.8699212,2.54005044 64.8062723,7.02819379" id="Fill-4" opacity="0.0497767857"></path>
                </g>
                <g id="Group-19" transform="translate(33.229855, 25.408110)" stroke="#00D7A0" stroke-linecap="round" stroke-linejoin="round" stroke-width="1.5">
                    <path d="M17.5071751,2.7460756 C8.51999087,5.58505636 1.77121914,13.4610368 0.571606866,23.0609836" id="Stroke-1"></path>
                    <path d="M33.784557,48.992272 C31.0301741,50.0630822 28.034192,50.6506941 24.9010242,50.6506941 C18.203316,50.6506941 12.132089,47.9656661 7.70708969,43.6123082" id="Stroke-3"></path>
                    <path d="M39.7719484,6.63422171 C45.6366349,11.1140953 49.4206723,18.1806804 49.4206723,26.1313508 C49.4206723,28.0831977 49.1927917,29.9809325 48.7614191,31.8009288" id="Stroke-5"></path>
                    <polyline id="Stroke-7" points="13.3678268 0.57168308 17.5504648 2.74988631 15.5810886 7.00264139"></polyline>
                    <polyline id="Stroke-9" points="52.7532928 29.2997296 48.7558554 31.8010812 46.0883567 27.9484509"></polyline>
                    <polyline id="Stroke-11" points="7.72065583 48.2896529 7.70693726 43.5742773 12.3880164 43.5308352"></polyline>
                    <path d="M36.6783359,39.6973347 L14.7819822,39.6973347 C14.3628038,39.6973347 14.0198397,39.3543706 14.0198397,38.9351922 L14.0198397,13.0772219 C14.0198397,12.6580435 14.3628038,12.3150794 14.7819822,12.3150794 L36.6783359,12.3150794 C37.0975142,12.3150794 37.4404783,12.6580435 37.4404783,13.0772219 L37.4404783,38.9351922 C37.4404783,39.3543706 37.0975142,39.6973347 36.6783359,39.6973347 Z" id="Stroke-13"></path>
                    <polygon id="Stroke-15" points="17.3562124 28.5132355 17.3562124 36.504862 34.1370302 36.504862 34.1370302 26.5596187 26.5455755 30.1118387 20.9952752 23.3631071"></polygon>
                    <path d="M31.185575,19.3870757 C31.185575,20.5554402 30.2382318,21.5027833 29.0691053,21.5027833 C27.9007408,21.5027833 26.9533977,20.5554402 26.9533977,19.3870757 C26.9533977,18.2179492 27.9007408,17.2706061 29.0691053,17.2706061 C30.2382318,17.2706061 31.185575,18.2179492 31.185575,19.3870757 Z" id="Stroke-17"></path>
                </g>
            </g>
        </g>
    </g>
</svg>