<?xml version="1.0" encoding="UTF-8"?>
<svg width="99px" height="87px" viewBox="0 0 99 87" version="1.1" xmlns="http://www.w3.org/2000/svg" xmlns:xlink="http://www.w3.org/1999/xlink">
    <!-- Generator: Sketch 51.3 (57544) - http://www.bohemiancoding.com/sketch -->
    <title>Group 4</title>
    <desc>Created with Sketch.</desc>
    <defs></defs>
    <g id="Page-1" stroke="none" stroke-width="1" fill="none" fill-rule="evenodd">
        <g id="cubix-commerce-copy-2" transform="translate(-173.000000, -1487.000000)">
            <g id="Group-4" transform="translate(173.000000, 1487.000000)">
                <g id="Group-7" transform="translate(0.638456, 0.778036)">
                    <path d="M30.9697197,11.4580016 C34.4424311,9.50803697 38.0569055,7.90331833 41.5074364,6.63130878 C59.2461351,0.0870655738 83.5869395,0.57021704 91.2035668,19.7246171 C97.8606418,36.4632598 99.0034252,46.3210927 97.2010098,54.6783594 C94.6463826,66.5189456 85.9448344,71.9666954 75.5131988,77.5157044 C71.1243319,79.8494899 66.931233,82.3964021 62.2057995,84.0184795 C50.7856804,87.9415537 38.7155731,86.2751151 31.1404139,76.1356849 C21.5448908,63.2921496 2.70198359,36.8191139 16.4153845,23.837673 C23.2084362,17.4052972 23.9664343,15.3907195 30.9697197,11.4580016" id="Fill-1" fill="#4163E1" opacity="0.0887834821"></path>
                    <path d="M57.0925911,6.19165059 C60.5595163,8.15222331 63.8036711,10.4127164 66.6794349,12.7059982 C81.4642555,24.4906507 91.4522789,44.1050572 81.2193044,61.9990202 C75.3616956,72.2406741 66.555995,82.7648895 54.4241677,85.2317587 C42.5546503,87.6465516 33.8068121,84.5586255 23.6567738,78.5091063 C19.3855605,75.9631584 15.036233,73.6949503 11.2009168,70.4941924 C1.9303878,62.756054 -2.89534061,51.5683491 1.85420224,39.8377015 C7.87093277,24.9757309 15.036233,2.63021673 33.773059,0.284858719 C41.9191277,-0.734484793 50.1008783,2.23771644 57.0925911,6.19165059" id="Fill-4" fill="#4068E1" opacity="0.0497767857"></path>
                </g>
                <g id="Group-7" transform="translate(34.918118, 27.158013)" stroke="#3F6CE1" stroke-linecap="round" stroke-linejoin="round" stroke-width="1.5">
                    <path d="M32.0865027,33.2288135 L2.00001506,33.2288135 C1.37161844,33.2288135 0.857475751,32.7146708 0.857475751,32.0862742 L0.857475751,1.99978655 C0.857475751,1.37138993 1.37161844,0.857247243 2.00001506,0.857247243 L32.0865027,0.857247243 C32.7148993,0.857247243 33.229042,1.37138993 33.229042,1.99978655 L33.229042,32.0862742 C33.229042,32.7146708 32.7148993,33.2288135 32.0865027,33.2288135 Z" id="Stroke-1"></path>
                    <path d="M17.0426876,9.90215968 L17.0426876,24.183901" id="Stroke-3"></path>
                    <path d="M24.1835583,17.0430304 L9.90181692,17.0430304" id="Stroke-5"></path>
                </g>
            </g>
        </g>
    </g>
</svg>