<?xml version="1.0" encoding="UTF-8"?>
<svg width="99px" height="87px" viewBox="0 0 99 87" version="1.1" xmlns="http://www.w3.org/2000/svg" xmlns:xlink="http://www.w3.org/1999/xlink">
    <!-- Generator: Sketch 51.3 (57544) - http://www.bohemiancoding.com/sketch -->
    <title>Group 6</title>
    <desc>Created with Sketch.</desc>
    <defs></defs>
    <g id="Page-1" stroke="none" stroke-width="1" fill="none" fill-rule="evenodd">
        <g id="cubix-commerce-copy-2" transform="translate(-173.000000, -2647.000000)">
            <g id="Group-6" transform="translate(173.000000, 2647.000000)">
                <g id="Group-7" transform="translate(0.638456, 0.611430)">
                    <path d="M30.9697197,11.4580016 C34.4424311,9.50803697 38.0569055,7.90331833 41.5074364,6.63130878 C59.2461351,0.0870655738 83.5869395,0.57021704 91.2035668,19.7246171 C97.8606418,36.4632598 99.0034252,46.3210927 97.2010098,54.6783594 C94.6463826,66.5189456 85.9448344,71.9666954 75.5131988,77.5157044 C71.1243319,79.8494899 66.931233,82.3964021 62.2057995,84.0184795 C50.7856804,87.9415537 38.7155731,86.2751151 31.1404139,76.1356849 C21.5448908,63.2921496 2.70198359,36.8191139 16.4153845,23.837673 C23.2084362,17.4052972 23.9664343,15.3907195 30.9697197,11.4580016" id="Fill-1" fill="#4163E1" opacity="0.0887834821"></path>
                    <path d="M57.0925911,6.19165059 C60.5595163,8.15222331 63.8036711,10.4127164 66.6794349,12.7059982 C81.4642555,24.4906507 91.4522789,44.1050572 81.2193044,61.9990202 C75.3616956,72.2406741 66.555995,82.7648895 54.4241677,85.2317587 C42.5546503,87.6465516 33.8068121,84.5586255 23.6567738,78.5091063 C19.3855605,75.9631584 15.036233,73.6949503 11.2009168,70.4941924 C1.9303878,62.756054 -2.89534061,51.5683491 1.85420224,39.8377015 C7.87093277,24.9757309 15.036233,2.63021673 33.773059,0.284858719 C41.9191277,-0.734484793 50.1008783,2.23771644 57.0925911,6.19165059" id="Fill-4" fill="#4068E1" opacity="0.0497767857"></path>
                </g>
                <g id="Group-7" transform="translate(35.134765, 25.107540)" stroke="#3F6CE1" stroke-linecap="round" stroke-linejoin="round" stroke-width="1.5">
                    <path d="M17.7732504,0.501698571 C18.4446785,0.604017795 19.1261379,0.664205573 19.7868659,0.815343772 C26.33329,2.31736322 30.6306973,6.29176286 32.3132801,12.7806741 C34.0326443,19.4086861 31.4318636,26.0407105 25.8237001,29.934191 C22.2030709,32.4480339 18.1504271,33.3702444 13.8309509,32.5135717 C7.1922389,31.1967968 2.84868756,27.1929721 1.05843552,20.6766419 C-1.33971307,11.9460703 4.25106279,2.87443455 13.0886349,0.908300453 C13.903845,0.726399611 14.7391176,0.634780437 15.5656964,0.501698571 L17.7732504,0.501698571 Z" id="Stroke-1"></path>
                    <path d="M4.59219375,32.9913958 C4.46847442,32.2370423 4.68916295,31.5629392 5.17066517,30.9282925 C8.50038683,33.7638056 12.3283295,35.2578 16.6872622,35.2537875 C21.0321511,35.2491062 24.8467187,33.7551118 28.1670778,30.9262862 C28.6438988,31.5642767 28.8732811,32.235036 28.738193,33.0087834 C29.2631641,33.2495345 29.8015104,33.4381228 30.2763251,33.7296992 C30.910303,34.1182447 31.5596623,34.5194966 32.085971,35.0344365 C33.0917756,36.018841 33.058338,37.1818027 32.0846334,38.2036574 C31.221942,39.1111553 30.1191681,39.6394703 28.9776066,40.0855286 C26.9619847,40.8739885 24.85675,41.3080092 22.7187464,41.5942356 C19.7802453,41.9881311 16.8303754,42.0911191 13.8731492,41.904537 C10.4946086,41.6912048 7.16087438,41.2277589 3.99700349,39.9363967 C3.02062398,39.5378198 2.09105717,39.0489613 1.33536618,38.2899265 C0.243961129,37.1938402 0.245298635,35.9961034 1.34673498,34.9093796 C2.16662627,34.1001884 3.1871435,33.6166799 4.23173583,33.1773091 C4.32803627,33.1371839 4.42701173,33.10174 4.52331218,33.0596086 C4.54538103,33.0495773 4.5600936,33.0241647 4.59219375,32.9913958 Z" id="Stroke-3"></path>
                    <path d="M3.6099292,16.5912961 C3.6099292,9.4931508 9.36388082,3.73919918 16.4620262,3.73919918" id="Stroke-5"></path>
                </g>
            </g>
        </g>
    </g>
</svg>