<?xml version="1.0" encoding="UTF-8"?>
<svg width="112px" height="99px" viewBox="0 0 112 99" version="1.1" xmlns="http://www.w3.org/2000/svg" xmlns:xlink="http://www.w3.org/1999/xlink">
    <!-- Generator: Sketch 51.3 (57544) - http://www.bohemiancoding.com/sketch -->
    <title>Group 3</title>
    <desc>Created with Sketch.</desc>
    <defs></defs>
    <g id="Page-1" stroke="none" stroke-width="1" fill="none" fill-rule="evenodd">
        <g id="cubix-commerce-copy-2" transform="translate(-1023.000000, -1017.000000)">
            <g id="Group-3" transform="translate(1023.000000, 1017.000000)">
                <g id="Group-7-Copy-2" transform="translate(0.681542, 0.500000)" fill="#00D7A0">
                    <path d="M35.1539849,13.0060723 C39.0958883,10.7926514 43.1987082,8.97112199 47.1154342,7.52725343 C67.2507778,0.0988288527 94.8802262,0.647258077 103.525923,22.3895759 C111.082424,41.3897477 112.379607,52.5794553 110.33367,62.0658578 C107.433892,75.5062052 97.5566922,81.689991 85.7156564,87.988717 C80.7338173,90.6378163 75.974196,93.5288374 70.6103173,95.3700708 C57.6472457,99.8231848 43.9463672,97.9315966 35.3477413,86.4222455 C24.4557837,71.8434423 3.06704391,41.7936806 18.6332387,27.0583397 C26.3440879,19.7568967 27.2044978,17.470133 35.1539849,13.0060723" id="Fill-1" opacity="0.0887834821"></path>
                    <path d="M64.8062723,7.02819379 C68.7416077,9.25365609 72.4240746,11.8195605 75.6883779,14.4226836 C92.47075,27.7995401 103.808238,50.0640152 92.192704,70.3756005 C85.5436839,82.0009865 75.5482602,93.9471105 61.7773228,96.747274 C48.3041354,99.4883255 38.3743919,95.983195 26.8529995,89.1163357 C22.00471,86.2264092 17.0677524,83.6517475 12.7142533,80.0185407 C2.19119916,71.2349158 -3.28652507,58.5356594 2.1047203,45.2201044 C8.93436088,28.3501587 17.0677524,2.98558076 38.3360785,0.323345487 C47.5827485,-0.833719762 56.8699212,2.54005044 64.8062723,7.02819379" id="Fill-4" opacity="0.0497767857"></path>
                </g>
                <g id="Group-23" transform="translate(34.181542, 30.859678)" stroke="#00D7A0" stroke-linecap="round" stroke-linejoin="round" stroke-width="1.5">
                    <path d="M16.9871034,4.72274795 L16.9871034,1.57418934 C16.9871034,1.07941585 17.3919181,0.674601171 17.8866916,0.674601171 L43.7318598,0.674601171 C44.2266333,0.674601171 44.631448,1.07941585 44.631448,1.57418934 L44.631448,37.1466045 C44.631448,37.641378 44.2266333,38.0461927 43.7318598,38.0461927 L39.6765163,38.0461927" id="Stroke-1"></path>
                    <path d="M12.0319019,16.5553011 L12.0319019,5.622606 C12.0319019,5.1278325 12.4367165,4.72301783 12.93149,4.72301783 L38.7766582,4.72301783 C39.2714317,4.72301783 39.6762464,5.1278325 39.6762464,5.622606 L39.6762464,41.1950211 C39.6762464,41.6897946 39.2714317,42.0946093 38.7766582,42.0946093 L12.93149,42.0946093 C12.4367165,42.0946093 12.0319019,41.6897946 12.0319019,41.1950211 L12.0319019,33.1778913" id="Stroke-3"></path>
                    <path d="M20.8612698,24.6511448 C20.8612698,29.1220981 17.2368291,32.7474384 12.7649763,32.7474384 C8.29402304,32.7474384 4.66958229,29.1220981 4.66958229,24.6511448 C4.66958229,20.179292 8.29402304,16.5548513 12.7649763,16.5548513 C17.2368291,16.5548513 20.8612698,20.179292 20.8612698,24.6511448 Z" id="Stroke-5"></path>
                    <path d="M6.51139912,30.2595373 L0.674871048,36.0960654" id="Stroke-7"></path>
                    <path d="M17.7189184,10.0596447 L33.6119426,10.0596447" id="Stroke-9"></path>
                    <path d="M20.8612698,14.5575856 L33.611133,14.5575856" id="Stroke-11"></path>
                    <path d="M24.3907141,19.0555265 L33.6114928,19.0555265" id="Stroke-13"></path>
                    <path d="M24.3907141,23.5534673 L33.6114928,23.5534673" id="Stroke-15"></path>
                    <path d="M24.3907141,28.0514082 L33.6114928,28.0514082" id="Stroke-17"></path>
                    <path d="M20.5455144,32.5493491 L33.611133,32.5493491" id="Stroke-19"></path>
                    <path d="M17.7189184,37.0472899 L33.6119426,37.0472899" id="Stroke-21"></path>
                </g>
            </g>
        </g>
    </g>
</svg>