<?xml version="1.0" encoding="UTF-8"?>
<svg width="98px" height="87px" viewBox="0 0 98 87" version="1.1" xmlns="http://www.w3.org/2000/svg" xmlns:xlink="http://www.w3.org/1999/xlink">
    <!-- Generator: Sketch 51.3 (57544) - http://www.bohemiancoding.com/sketch -->
    <title>Group 18</title>
    <desc>Created with Sketch.</desc>
    <defs></defs>
    <g id="Page-1" stroke="none" stroke-width="1" fill="none" fill-rule="evenodd">
        <g id="cubix-commerce-copy-2" transform="translate(-811.000000, -3177.000000)">
            <g id="Group-18" transform="translate(811.000000, 3177.000000)">
                <g id="Group-7" transform="translate(0.000000, 0.183803)">
                    <path d="M30.9697197,11.4580016 C34.4424311,9.50803697 38.0569055,7.90331833 41.5074364,6.63130878 C59.2461351,0.0870655738 83.5869395,0.57021704 91.2035668,19.7246171 C97.8606418,36.4632598 99.0034252,46.3210927 97.2010098,54.6783594 C94.6463826,66.5189456 85.9448344,71.9666954 75.5131988,77.5157044 C71.1243319,79.8494899 66.931233,82.3964021 62.2057995,84.0184795 C50.7856804,87.9415537 38.7155731,86.2751151 31.1404139,76.1356849 C21.5448908,63.2921496 2.70198359,36.8191139 16.4153845,23.837673 C23.2084362,17.4052972 23.9664343,15.3907195 30.9697197,11.4580016" id="Fill-1" fill="#4163E1" opacity="0.0887834821"></path>
                    <path d="M66.6794349,12.7059982 C81.4642555,24.4906507 91.4522789,44.1050572 81.2193044,61.9990202 C75.3616956,72.2406741 66.555995,82.7648895 54.4241677,85.2317587 C42.5546503,87.6465516 33.8068121,84.5586255 23.6567738,78.5091063 C19.3855605,75.9631584 15.036233,73.6949503 11.2009168,70.4941924 C1.9303878,62.756054 -2.89534061,51.5683491 1.85420224,39.8377015 C7.87093277,24.9757309 15.036233,2.63021673 33.773059,0.284858719 C41.9191277,-0.734484793 50.1008783,2.23771644 57.0925911,6.19165059 C60.5595163,8.15222331 63.8036711,10.4127164 66.6794349,12.7059982 Z" id="Fill-4" fill="#4068E1" opacity="0.0497767857"></path>
                </g>
                <g id="Group-13" transform="translate(34.320500, 26.776170)" stroke="#3F6CE1" stroke-linecap="round" stroke-linejoin="round" stroke-width="1.5">
                    <path d="M0.73333805,33.7774411 L0.73333805,1.7782128 C0.73333805,1.20342905 1.17322358,0.733240297 1.71086144,0.733240297 L29.7951085,0.733240297 C30.3327464,0.733240297 30.7726319,1.20342905 30.7726319,1.7782128 L30.7726319,36.4431474 C30.7726319,37.0169536 30.3327464,37.4871424 29.7951085,37.4871424 L1.71086144,37.4871424 C1.17322358,37.4871424 0.73333805,37.0169536 0.73333805,36.4431474 L0.73333805,33.7774411" id="Stroke-1"></path>
                    <path d="M6.91304544,5.23835236 L24.1829512,5.23835236" id="Stroke-3"></path>
                    <path d="M6.91304544,9.24346121 L24.1829512,9.24346121" id="Stroke-5"></path>
                    <path d="M6.91304544,28.8482794 L24.1829512,28.8482794" id="Stroke-7"></path>
                    <path d="M6.91304544,32.8438085 L24.1829512,32.8438085" id="Stroke-9"></path>
                    <path d="M18.4791022,19.2344346 C18.4800797,17.5990379 17.1496704,16.2735162 15.5064536,16.2754712 C13.8759446,16.2774263 12.5553105,17.5970829 12.5533554,19.2305245 C12.5494453,20.8668986 13.8739895,22.2002405 15.5054761,22.2041506 C17.1438053,22.2080607 18.4771472,20.8756963 18.4791022,19.2344346 Z M12.2581434,14.5227718 C12.2268626,14.3282446 12.201447,14.1210097 12.158436,13.9167073 C12.1330204,13.7935393 12.1496383,13.6879668 12.2170874,13.5843493 C12.2952892,13.4631364 12.4028168,13.3751593 12.5230522,13.3008676 C12.872028,13.0838574 13.2542397,12.9616669 13.6599119,12.9167009 C13.9316634,12.8863976 14.0724268,12.9782848 14.1760442,13.2373285 C14.2992122,13.5452484 14.498627,13.7935393 14.7703785,13.9792688 C15.2161291,14.2832786 15.8779125,14.2539529 16.3295283,13.9196399 C16.5572912,13.7515058 16.7273803,13.5393833 16.8329528,13.2754519 C16.883784,13.1483739 16.9717612,13.0457339 17.0831988,12.9685096 C17.1301199,12.9362513 17.195614,12.9118132 17.2513328,12.9137683 C17.7674652,12.9372289 18.2317888,13.0975427 18.616933,13.4543387 C18.6550564,13.4895296 18.6863372,13.5315631 18.7225056,13.568709 C18.8720666,13.7260902 18.8828194,13.9039995 18.7977749,14.0955941 C18.7273932,14.2519978 18.6824271,14.4152442 18.6687418,14.5872883 C18.6052027,15.3399814 19.1311103,15.9489784 19.7293546,16.0437982 C20.0949484,16.1014721 20.4488119,16.0604161 20.7831249,15.8961922 C20.9532139,15.8131027 21.1565388,15.8414509 21.2943696,15.972439 C21.4703238,16.1376404 21.5758963,16.3468304 21.664851,16.5667732 C21.7655359,16.8150642 21.83494,17.0731303 21.8720859,17.3399942 C21.9082543,17.5912177 21.7909515,17.7837898 21.5534133,17.8825197 C21.0754044,18.0809569 20.7293611,18.4113599 20.6052156,18.9235821 C20.4302389,19.6440169 20.8104955,20.2764745 21.4185151,20.5345407 C21.5231101,20.5785292 21.6218399,20.6508659 21.7049294,20.7290678 C21.8574231,20.8717862 21.874041,21.0633808 21.8476478,21.257908 C21.7987717,21.6186141 21.6785363,21.9529271 21.4732564,22.2549818 C21.3481334,22.4387562 21.1839095,22.5668118 20.9629892,22.6147104 C20.850574,22.638171 20.7440239,22.6127554 20.6374739,22.5814747 C20.3862504,22.5062053 20.1291617,22.4485315 19.8662079,22.4827448 C19.6990514,22.5042503 19.5309174,22.5413962 19.3686485,22.5922274 C19.1897617,22.6479462 19.0626837,22.7818669 18.9522235,22.929473 C18.6276858,23.3644709 18.596405,23.8366147 18.7762693,24.3351516 C18.8192804,24.4524544 18.8789093,24.5638921 18.8603363,24.6948802 C18.8427409,24.8239133 18.7938648,24.9363285 18.6970899,25.0243056 C18.4751921,25.2276305 18.2122383,25.3644838 17.9297341,25.458326 C17.7488923,25.5179549 17.5592527,25.5560783 17.3705907,25.5863816 C17.1604232,25.6186398 17.0030419,25.5267526 16.902357,25.3380906 C16.8642336,25.2657539 16.8300203,25.1924396 16.7938519,25.1201029 C16.6345156,24.8053404 16.4126178,24.5423866 16.0919901,24.3908705 C15.5895431,24.1552873 15.1125117,24.2217589 14.6784913,24.5668247 C14.4429081,24.7545092 14.2679314,24.9891148 14.1574713,25.2725966 C14.0743818,25.4866742 13.9023377,25.5805164 13.6823949,25.5902917 C13.4692948,25.6010444 13.267925,25.5414155 13.0685102,25.4759214 C12.7762307,25.3791466 12.494704,25.2589112 12.2513007,25.0643841 C12.1867841,25.0125753 12.1252002,24.9539239 12.0685038,24.8913624 C11.9551111,24.7652619 11.9277404,24.6166784 11.9805267,24.457342 C12.0088749,24.3683874 12.0469983,24.2843204 12.0831667,24.1982983 C12.2845365,23.7183344 12.1740763,23.1523483 11.8094601,22.7818669 C11.6188431,22.5883173 11.3783723,22.5198907 11.1203061,22.49252 C10.8407344,22.4641718 10.5689829,22.5022953 10.3011415,22.5824522 C10.0245024,22.6645641 9.78891926,22.5902724 9.62567285,22.3517567 C9.37640439,21.990073 9.22097817,21.5902659 9.18285476,21.1503804 C9.17503457,21.0565382 9.19262999,20.9568308 9.2141355,20.863966 C9.24541625,20.7339554 9.32948327,20.6459783 9.45558378,20.5951471 C9.81726744,20.4475411 10.1095469,20.2090254 10.3236246,19.8835101 C10.6413197,19.4006135 10.5758256,18.7808637 10.1740635,18.3644387 C9.98442394,18.1679565 9.77425641,17.9968899 9.5191228,17.8981601 C9.31579794,17.8189807 9.22586579,17.6674646 9.18578733,17.4719599 C9.15157401,17.3048034 9.18578733,17.1405794 9.22391074,16.9783106 C9.29233738,16.6889636 9.39888743,16.413302 9.57288659,16.1698987 C9.64131323,16.0731239 9.73320043,15.9910119 9.8241101,15.9128101 C9.90035693,15.847316 9.99810927,15.8375408 10.0939066,15.8639339 C10.2444452,15.9040124 10.3910737,15.9597312 10.5416123,15.9900344 C11.0254864,16.0848542 11.4683044,15.9998096 11.848561,15.6664742 C12.0313579,15.5061603 12.1281327,15.3008804 12.1750539,15.0692074 C12.2102447,14.8952082 12.2297952,14.7163214 12.2581434,14.5227718 Z" id="Stroke-11"></path>
                </g>
            </g>
        </g>
    </g>
</svg>