<?xml version="1.0" encoding="UTF-8"?>
<svg width="112px" height="99px" viewBox="0 0 112 99" version="1.1" xmlns="http://www.w3.org/2000/svg" xmlns:xlink="http://www.w3.org/1999/xlink">
    <!-- Generator: Sketch 51.3 (57544) - http://www.bohemiancoding.com/sketch -->
    <title>Group 2</title>
    <desc>Created with Sketch.</desc>
    <defs></defs>
    <g id="Page-1" stroke="none" stroke-width="1" fill="none" fill-rule="evenodd">
        <g id="cubix-commerce-copy-2" transform="translate(-251.000000, -1017.000000)">
            <g id="Group-2" transform="translate(251.000000, 1017.000000)">
                <g id="Group-7" transform="translate(0.171875, 0.500000)" fill="#00D7A0">
                    <path d="M35.1539849,13.0060723 C39.0958883,10.7926514 43.1987082,8.97112199 47.1154342,7.52725343 C67.2507778,0.0988288527 94.8802262,0.647258077 103.525923,22.3895759 C111.082424,41.3897477 112.379607,52.5794553 110.33367,62.0658578 C107.433892,75.5062052 97.5566922,81.689991 85.7156564,87.988717 C80.7338173,90.6378163 75.974196,93.5288374 70.6103173,95.3700708 C57.6472457,99.8231848 43.9463672,97.9315966 35.3477413,86.4222455 C24.4557837,71.8434423 3.06704391,41.7936806 18.6332387,27.0583397 C26.3440879,19.7568967 27.2044978,17.470133 35.1539849,13.0060723" id="Fill-1" opacity="0.0887834821"></path>
                    <path d="M64.8062723,7.02819379 C68.7416077,9.25365609 72.4240746,11.8195605 75.6883779,14.4226836 C92.47075,27.7995401 103.808238,50.0640152 92.192704,70.3756005 C85.5436839,82.0009865 75.5482602,93.9471105 61.7773228,96.747274 C48.3041354,99.4883255 38.3743919,95.983195 26.8529995,89.1163357 C22.00471,86.2264092 17.0677524,83.6517475 12.7142533,80.0185407 C2.19119916,71.2349158 -3.28652507,58.5356594 2.1047203,45.2201044 C8.93436088,28.3501587 17.0677524,2.98558076 38.3360785,0.323345487 C47.5827485,-0.833719762 56.8699212,2.54005044 64.8062723,7.02819379" id="Fill-4" opacity="0.0497767857"></path>
                </g>
                <g id="Group-7" transform="translate(40.519364, 27.520739)" stroke="#00D7A0" stroke-linecap="round" stroke-linejoin="round" stroke-width="1.5">
                    <path d="M19.8071615,0.559111271 C20.5554255,0.673139563 21.3148689,0.740215029 22.0512084,0.908648976 C29.3467833,2.58255449 34.1359715,7.01177108 36.0111034,14.2432516 C37.9272259,21.6297509 35.0288205,29.020722 28.7788776,33.3597593 C24.7439157,36.1612779 20.227501,37.1890231 15.4137184,36.2343157 C8.01529457,34.7668535 3.17468179,30.3048445 1.17955933,23.0428074 C-1.49302534,13.3131384 4.73754015,3.20337519 14.5864544,1.01224331 C15.4949543,0.809526343 16.4258127,0.707422579 17.3469824,0.559111271 L19.8071615,0.559111271 Z" id="Stroke-1"></path>
                    <path d="M5.11770898,36.7668203 C4.97983163,35.9261412 5.22577501,35.1748959 5.76237873,34.4676224 C9.47314256,37.6276221 13.7391422,39.2925843 18.5968965,39.2881126 C23.4389998,39.2828956 27.6900938,37.6179335 31.3904236,34.4653866 C31.9218104,35.1763865 32.1774424,35.9239053 32.0268953,36.7861977 C32.6119424,37.0544995 33.2118952,37.2646693 33.7410461,37.5896127 C34.4475743,38.0226221 35.1712441,38.4697919 35.7577817,39.0436597 C36.8786873,40.1407163 36.8414232,41.4367633 35.7562912,42.5755557 C34.7948762,43.5869046 33.5659046,44.1756782 32.2937066,44.6727819 C30.0474238,45.5514705 27.701273,46.0351591 25.3186034,46.3541402 C22.0438301,46.7931119 18.756387,46.9078855 15.4607458,46.6999515 C11.6955763,46.4622063 7.9803408,45.9457252 4.45440715,44.5065838 C3.36629404,44.0623952 2.33035074,43.5175933 1.488181,42.6716972 C0.271879221,41.4501784 0.273369787,40.1153766 1.50085081,38.9042918 C2.41456771,38.0024995 3.5518695,37.4636599 4.71600147,36.974009 C4.82332221,36.929292 4.93362409,36.889792 5.04094484,36.8428392 C5.06553917,36.8316599 5.0819354,36.8033392 5.11770898,36.7668203 Z" id="Stroke-3"></path>
                    <path d="M4.02303738,18.4899484 C4.02303738,10.5795151 10.4354519,4.16710057 18.3458852,4.16710057" id="Stroke-5"></path>
                </g>
            </g>
        </g>
    </g>
</svg>