<?xml version="1.0" encoding="UTF-8"?>
<svg width="71px" height="71px" viewBox="0 0 71 71" version="1.1" xmlns="http://www.w3.org/2000/svg" xmlns:xlink="http://www.w3.org/1999/xlink">
    <!-- Generator: Sketch 51.3 (57544) - http://www.bohemiancoding.com/sketch -->
    <title>Group 21</title>
    <desc>Created with Sketch.</desc>
    <defs>
        <linearGradient x1="50%" y1="0%" x2="50%" y2="99.0403721%" id="linearGradient-1">
            <stop stop-color="#0BDAFE" offset="0%"></stop>
            <stop stop-color="#0BDAFE" offset="100%"></stop>
        </linearGradient>
    </defs>
    <g id="Page-1" stroke="none" stroke-width="1" fill="none" fill-rule="evenodd">
        <g id="cubix-chain" transform="translate(-173.000000, -2997.000000)">
            <g id="leaderboard" transform="translate(161.462891, 2985.624863)">
                <g id="Group-21" transform="translate(12.000000, 11.000000)">
                    <circle id="Oval-6" fill="url(#linearGradient-1)" cx="35" cy="35.8640062" r="35"></circle>
                    <path d="M43.7004872,35.4542714 C46.3812069,33.5216097 47.5086524,30.0798523 46.4913555,26.9354367 C45.4735822,23.7914973 42.5441053,21.6624734 39.2391703,21.6666411 L37.3338969,21.6666411 L37.3338969,17.8560943 L35.4286234,17.8560943 L35.4286234,21.6666411 L30.6654399,21.6666411 L30.6654399,17.8560943 L28.7601664,17.8560943 L28.7601664,21.6666411 L24.9496195,21.6666411 C24.4235259,21.6666411 23.9969828,22.0931842 23.9969828,22.6192779 L23.9969828,49.293106 C23.9969828,49.8191996 24.4235259,50.2457427 24.9496195,50.2457427 L28.7601664,50.2457427 L28.7601664,54.0562896 L30.6654399,54.0562896 L30.6654399,50.2457427 L35.4286234,50.2457427 L35.4286234,54.0562896 L37.3338969,54.0562896 L37.3338969,50.2457427 L41.1444438,50.2457427 C44.8527013,50.2494342 48.0245052,47.5813369 48.6557461,43.9271415 C49.2874634,40.2728271 47.1947586,36.6953189 43.7004872,35.4542714 Z M25.9022563,23.5719146 L39.2391703,23.5719146 C42.3957321,23.5719146 44.9549906,26.1311731 44.9549906,29.2877349 C44.9549906,32.4442967 42.3957321,35.0035552 39.2391703,35.0035552 L25.9022563,35.0035552 L25.9022563,23.5719146 Z M41.1444438,48.3404693 L25.9022563,48.3404693 L25.9022563,36.9088286 L41.1444438,36.9088286 C44.3010055,36.9088286 46.8602641,39.4680872 46.8602641,42.6246489 C46.8602641,45.7812107 44.3010055,48.3404693 41.1444438,48.3404693 Z" id="Fill-5" stroke="#FFFFFF" fill="#FFFFFF"></path>
                </g>
            </g>
        </g>
    </g>
</svg>