<?xml version="1.0" encoding="UTF-8"?>
<svg width="71px" height="71px" viewBox="0 0 71 71" version="1.1" xmlns="http://www.w3.org/2000/svg" xmlns:xlink="http://www.w3.org/1999/xlink">
    <!-- Generator: Sketch 51.3 (57544) - http://www.bohemiancoding.com/sketch -->
    <title>Group 22</title>
    <desc>Created with Sketch.</desc>
    <defs></defs>
    <g id="Page-1" stroke="none" stroke-width="1" fill="none" fill-rule="evenodd">
        <g id="cubix-chain" transform="translate(-811.000000, -3504.000000)">
            <g id="cubix-chain-crypto-transactions" transform="translate(799.000000, 3492.265625)">
                <g id="Group-6-Copy-3" transform="translate(0.034180, 0.209781)">
                    <g id="leaderboard" transform="translate(0.000000, 0.111372)">
                        <g id="Group-22" transform="translate(12.000000, 11.000000)">
                            <circle id="Oval-6" fill="#41AEFD" cx="35" cy="35.8640062" r="35"></circle>
                            <g id="Group-2" transform="translate(13.965820, 14.678847)" fill="#FFFFFF" stroke="#FFFFFF">
                                <path d="M36.9988402,2.58753914 L36.9988402,8.74815915 C30.2088168,-0.310928025 17.3605827,-2.15036781 8.30158099,4.63965561 C1.27214683,9.90840014 -1.61863323,19.0704092 1.11404862,27.4192929 C1.20578146,27.7005557 1.46799729,27.8908543 1.76386557,27.8907689 C1.8361244,27.8908543 1.90795616,27.8790674 1.97637143,27.8559207 C2.33476154,27.7384787 2.53018493,27.3527567 2.41299923,26.9942812 C-0.875546019,16.9501337 4.60092128,6.14188754 14.6450688,2.85334229 C22.6734,0.224778062 31.4755669,3.17141778 36.3032422,10.1038235 L28.7992572,10.1038235 L28.7992572,11.4704207 L38.3654374,11.4704207 L38.3654374,2.58753914 L36.9988402,2.58753914 Z" id="Fill-1"></path>
                                <path d="M40.0852828,14.6539002 C39.957933,14.2986704 39.5667446,14.1139235 39.2115147,14.2412733 C38.8701217,14.3636692 38.6839228,14.7312838 38.7870155,15.078912 C42.0765857,25.1227178 36.6012288,35.9315618 26.5574229,39.2210466 C18.5278105,41.850892 9.7238499,38.9036544 4.89608919,31.9693696 L12.4000742,31.9693696 L12.4000742,30.6027724 L2.83389407,30.6027724 L2.83389407,39.485654 L4.20049123,39.485654 L4.20049123,33.325034 C10.9905146,42.3841211 23.8387487,44.2235609 32.8978359,37.4335375 C39.9271846,32.164793 42.8180501,23.002784 40.0852828,14.6539002" id="Fill-4"></path>
                                <path d="M20.5996743,20.3533022 C17.9580419,20.3533022 15.8165842,18.2118445 15.8165842,15.5702122 C15.8165842,12.9285799 17.9580419,10.7871221 20.5996743,10.7871221 C23.2413066,10.7871221 25.3827643,12.9285799 25.3827643,15.5702122 L26.7493615,15.5702122 C26.7447492,12.440363 24.3930063,9.81196963 21.2829728,9.46083957 L21.2829728,7.37062921 L19.9163757,7.37062921 L19.9163757,9.46083957 C16.5422473,9.84895316 14.1215766,12.8988564 14.5096902,16.2729848 C14.865945,19.3696085 17.482637,21.710077 20.5996743,21.7198994 C23.2413066,21.7198994 25.3827643,23.8613572 25.3827643,26.5029895 C25.3827643,29.1446218 23.2413066,31.2860795 20.5996743,31.2860795 C17.9580419,31.2860795 15.8165842,29.1446218 15.8165842,26.5029895 L14.449987,26.5029895 C14.4545139,29.6328386 16.8063422,32.261232 19.9163757,32.6123621 L19.9163757,34.7025724 L21.2829728,34.7025724 L21.2829728,32.6123621 C24.6571012,32.2242485 27.0777719,29.1743453 26.6896583,25.8002169 C26.3334889,22.7035931 23.7167116,20.3631247 20.5996743,20.3533022" id="Fill-7"></path>
                            </g>
                        </g>
                    </g>
                </g>
            </g>
        </g>
    </g>
</svg>