<?xml version="1.0" encoding="UTF-8"?>
<svg width="86px" height="87px" viewBox="0 0 86 87" version="1.1" xmlns="http://www.w3.org/2000/svg" xmlns:xlink="http://www.w3.org/1999/xlink">
    <!-- Generator: Sketch 51.3 (57544) - http://www.bohemiancoding.com/sketch -->
    <title>cubix-chain-digital-asset-onloading</title>
    <desc>Created with Sketch.</desc>
    <defs>
        <polygon id="path-1" points="0.00592274142 0.0944343753 32.9752577 0.0944343753 32.9752577 25.2703634 0.00592274142 25.2703634"></polygon>
    </defs>
    <g id="Page-1" stroke="none" stroke-width="1" fill="none" fill-rule="evenodd">
        <g id="cubix-commerce-copy-2" transform="translate(-657.000000, -1001.000000)">
            <g id="cubix-chain-digital-asset-onloading" transform="translate(657.000000, 999.000000)">
                <g id="Reports" transform="translate(0.000000, 0.655997)" fill="#41AEFD" fill-rule="nonzero">
                    <g id="Group-32" transform="translate(0.000000, 0.324219)">
                        <g id="Group-31-Copy" transform="translate(0.000000, 0.824219)">
                            <circle id="Oval-6" cx="43" cy="43.859375" r="43"></circle>
                        </g>
                    </g>
                </g>
                <g id="Digital-Assets" transform="translate(17.417480, 20.684113)">
                    <g id="Group-4" transform="translate(0.000000, 25.369076)">
                        <mask id="mask-2" fill="white">
                            <use xlink:href="#path-1"></use>
                        </mask>
                        <g id="Clip-2"></g>
                        <path d="M24.1154288,17.161933 C23.8558153,17.161933 23.6011374,17.2675552 23.4175325,17.4512589 C23.2339275,17.6347652 23.1283052,17.889443 23.1283052,18.1490565 C23.1283052,18.4097559 23.2339275,18.6633479 23.4175325,18.8469529 C23.6011374,19.031545 23.8558153,19.1361801 24.1154288,19.1361801 C24.3750423,19.1361801 24.6297202,19.031545 24.8133252,18.8469529 C24.9969302,18.6633479 25.1025524,18.4087687 25.1025524,18.1490565 C25.1025524,17.889443 24.9969302,17.6347652 24.8133252,17.4512589 C24.6297202,17.2676539 24.3750423,17.161933 24.1154288,17.161933" id="Fill-1" fill="#FFFFFF" mask="url(#mask-2)"></path>
                        <path d="M29.5132179,14.9512697 L29.5132179,10.4134627 C30.3879081,10.7954795 31.0010106,11.6684916 31.0010106,12.6823662 C31.0010106,13.6962408 30.3880068,14.5692529 29.5132179,14.9512697 Z M27.5390695,22.8220995 L12.3265082,16.7036115 L12.3265082,8.6698076 L23.1283052,4.31955403 L23.1283052,14.1157683 C23.1283052,14.660858 23.5702405,15.1028919 24.1154288,15.1028919 C24.6606172,15.1028919 25.1025524,14.660858 25.1025524,14.1157683 L25.1025524,3.52442599 L27.5390695,2.54312645 L27.5390695,22.8220995 Z M8.29618133,23.2960175 L10.3517675,23.2960175 L10.3517675,18.3551679 L8.29618133,18.3551679 L8.29618133,23.2960175 Z M1.97424714,12.6857224 C1.97424714,10.648102 3.63192375,8.99042534 5.66954422,8.99042534 L10.352261,8.99042534 L10.3518662,16.3809208 L5.66954422,16.3809208 C3.63192375,16.3809208 1.97424714,14.7232442 1.97424714,12.6857224 Z M29.5132179,8.34494524 L29.5132179,1.08149258 C29.5132179,0.753570133 29.3503425,0.446969553 29.0785874,0.263463281 C28.8068323,0.0799570092 28.4616352,0.0434334371 28.157305,0.16583676 L11.1478826,7.0161782 L5.6693468,7.0161782 C2.54332388,7.0161782 0,9.55950208 0,12.6857224 C0,15.8119428 2.54332388,18.3552666 5.66954422,18.3552666 L6.32193419,18.3552666 L6.32193419,24.2831411 C6.32193419,24.8282307 6.76386941,25.2702647 7.30905776,25.2702647 L11.338891,25.2702647 C11.8840794,25.2702647 12.3260146,24.8282307 12.3260146,24.2831411 L12.3260146,18.8314551 L28.1577985,25.1989944 C28.2765495,25.2467711 28.4016181,25.2703634 28.5259956,25.2703634 C28.7202616,25.2703634 28.9131455,25.2130115 29.0787848,25.1011704 C29.3504412,24.9176641 29.5132179,24.6110636 29.5132179,24.2832398 L29.5132179,17.0198859 C31.4927955,16.5694614 32.9752577,14.79639 32.9752577,12.6824649 C32.9752577,10.5685398 31.4927955,8.79536972 29.5132179,8.34494524 Z" id="Fill-3" fill="#FFFFFF" mask="url(#mask-2)"></path>
                    </g>
                    <path d="M42.3922191,37.0935372 L36.8033229,37.0935372 C36.2581346,37.0935372 35.8161993,37.5355712 35.8161993,38.0806608 C35.8161993,38.6257504 36.2581346,39.0677844 36.8033229,39.0677844 L42.3922191,39.0677844 C42.9374075,39.0677844 43.3793427,38.6257504 43.3793427,38.0806608 C43.3793427,37.5355712 42.9374075,37.0935372 42.3922191,37.0935372" id="Fill-5" fill="#FFFFFF"></path>
                    <path d="M35.1828609,33.4732615 C35.4354658,33.4732615 35.6881694,33.3768196 35.8808559,33.1841331 L37.8087083,31.2562807 C38.19418,30.870809 38.19418,30.2457623 37.8087083,29.8601919 C37.4232365,29.4748188 36.7981899,29.4748188 36.4126194,29.8601919 L34.4847671,31.7880442 C34.0992953,32.1735159 34.0992953,32.7985626 34.4847671,33.1841331 C34.677651,33.3768196 34.9302559,33.4732615 35.1828609,33.4732615" id="Fill-6" fill="#FFFFFF"></path>
                    <path d="M35.8888516,42.8205321 C35.5033799,42.435159 34.8783332,42.435159 34.4927628,42.8205321 C34.107291,43.2060038 34.107291,43.8310505 34.4927628,44.2166209 L36.485173,46.2090311 C36.6779582,46.4017177 36.9305631,46.4981596 37.1831681,46.4981596 C37.435773,46.4981596 37.6884766,46.4017177 37.8811631,46.2090311 C38.2666349,45.8235594 38.2666349,45.1985127 37.8811631,44.8129423 L35.8888516,42.8205321" id="Fill-7" fill="#FFFFFF"></path>
                    <path d="M48.5664796,15.4977413 C48.5664796,16.5863412 47.6808324,17.4719885 46.5922325,17.4719885 L28.2317341,17.4719885 C27.1431342,17.4719885 26.257487,16.5863412 26.257487,15.4977413 L26.257487,4.04710792 C26.257487,2.95850805 27.1431342,2.07286078 28.2317341,2.07286078 L46.5922325,2.07286078 C47.6808324,2.07286078 48.5664796,2.95850805 48.5664796,4.04710792 L48.5664796,15.4977413 Z M34.1327588,22.4076063 C34.1327588,22.6253658 33.9556688,22.8024558 33.7379094,22.8024558 L13.7210176,22.8024558 C13.4592325,22.8024558 13.2081082,22.9064986 13.0230225,23.0915842 L10.6939045,25.420801 L10.6939045,23.7895793 C10.6939045,23.2444897 10.2519693,22.8024558 9.70678091,22.8024558 L7.69956385,22.8024558 C7.48180439,22.8024558 7.30471442,22.6253658 7.30471442,22.4076063 L7.30471442,6.81105392 C7.30471442,6.59329446 7.48180439,6.41620449 7.69956385,6.41620449 L24.2832398,6.41620449 L24.2832398,15.4977413 C24.2832398,17.6749411 26.0545344,19.4462356 28.2317341,19.4462356 L34.1327588,19.4462356 L34.1327588,22.4076063 Z M46.5922325,0.0986136446 L28.2317341,0.0986136446 C26.0545344,0.0986136446 24.2832398,1.86990818 24.2832398,4.04710792 L24.2832398,4.44195735 L7.69956385,4.44195735 C6.39320451,4.44195735 5.33046728,5.5047933 5.33046728,6.81105392 L5.33046728,22.4076063 C5.33046728,23.7138669 6.39320451,24.7767029 7.69956385,24.7767029 L8.71955863,24.7767029 L8.71955863,27.8039147 C8.71955863,28.2032062 8.96012065,28.5631115 9.32891001,28.7159182 C9.4510172,28.7664589 9.57924455,28.7910383 9.70648478,28.7910383 C9.96333433,28.7910383 10.2158405,28.6907466 10.4046773,28.5019098 L14.1298842,24.7767029 L33.7379094,24.7767029 C35.0442687,24.7767029 36.1070059,23.7138669 36.1070059,22.4076063 L36.1070059,19.4462356 L46.5922325,19.4462356 C48.7694323,19.4462356 50.5407268,17.6749411 50.5407268,15.4977413 L50.5407268,4.04710792 C50.5407268,1.86990818 48.7694323,0.0986136446 46.5922325,0.0986136446 Z" id="Fill-8" fill="#FFFFFF"></path>
                    <path d="M35.1154403,11.963148 L35.1154403,7.58170129 L38.9099433,9.77242463 L35.1154403,11.963148 Z M41.3777522,8.91757562 L34.6218785,5.01705554 C34.3164625,4.84065656 33.940171,4.84065656 33.634755,5.01705554 C33.3293389,5.19335581 33.1411932,5.51930402 33.1411932,5.87190456 L33.1411932,13.672846 C33.1411932,14.0254465 33.3293389,14.3513947 33.634755,14.527695 C33.787463,14.6159439 33.9578405,14.6599696 34.1283167,14.6599696 C34.298793,14.6599696 34.4691705,14.6159439 34.6218785,14.527695 L41.3777522,10.6271749 C41.6831683,10.4508747 41.871314,10.1249265 41.871314,9.77232592 C41.871314,9.41972538 41.683267,9.09387589 41.3777522,8.91757562 Z" id="Fill-9" fill="#FFFFFF"></path>
                    <path d="M21.1748864,10.4634111 L11.3036507,10.4634111 C10.7584624,10.4634111 10.3165271,10.9054451 10.3165271,11.4505347 C10.3165271,11.9956243 10.7584624,12.4376583 11.3036507,12.4376583 L21.1748864,12.4376583 C21.7200748,12.4376583 22.16201,11.9956243 22.16201,11.4505347 C22.16201,10.9054451 21.7200748,10.4634111 21.1748864,10.4634111" id="Fill-10" fill="#FFFFFF"></path>
                    <path d="M21.1747877,15.9913031 C20.9151742,15.9913031 20.6604963,16.0968266 20.4768913,16.2805303 C20.2932864,16.4641353 20.1876641,16.7188132 20.1876641,16.9784267 C20.1876641,17.2380402 20.2932864,17.4927181 20.4768913,17.6762243 C20.6604963,17.8598293 20.9151742,17.9655503 21.1747877,17.9655503 C21.4353883,17.9655503 21.6890791,17.859928 21.8726841,17.6762243 C22.056289,17.4927181 22.1619113,17.2380402 22.1619113,16.9784267 C22.1619113,16.7188132 22.056289,16.4641353 21.8726841,16.2805303 C21.6890791,16.0968266 21.4344012,15.9913031 21.1747877,15.9913031" id="Fill-11" fill="#FFFFFF"></path>
                    <path d="M17.4720872,15.9913031 L11.3036507,15.9913031 C10.7584624,15.9913031 10.3165271,16.4333371 10.3165271,16.9784267 C10.3165271,17.5235163 10.7584624,17.9655503 11.3036507,17.9655503 L17.4720872,17.9655503 C18.0172755,17.9655503 18.4592108,17.5235163 18.4592108,16.9784267 C18.4592108,16.4333371 18.0172755,15.9913031 17.4720872,15.9913031" id="Fill-12" fill="#FFFFFF"></path>
                </g>
            </g>
        </g>
    </g>
</svg>