<?xml version="1.0" encoding="UTF-8"?>
<svg width="86px" height="87px" viewBox="0 0 86 87" version="1.1" xmlns="http://www.w3.org/2000/svg" xmlns:xlink="http://www.w3.org/1999/xlink">
    <!-- Generator: Sketch 51.3 (57544) - http://www.bohemiancoding.com/sketch -->
    <title>cubix-chain-operations-smart-contracts</title>
    <desc>Created with Sketch.</desc>
    <defs></defs>
    <g id="Page-1" stroke="none" stroke-width="1" fill="none" fill-rule="evenodd">
        <g id="cubix-commerce-copy-2" transform="translate(-1046.000000, -1001.000000)">
            <g id="cubix-chain-operations-smart-contracts" transform="translate(1046.000000, 999.000000)">
                <g id="Recruitments" transform="translate(0.000000, 0.980216)" fill="#41AEFD" fill-rule="nonzero">
                    <g id="Group-31-Copy" transform="translate(0.000000, 0.824219)">
                        <circle id="Oval-6" cx="43" cy="43.859375" r="43"></circle>
                    </g>
                </g>
                <g id="Contract" transform="translate(20.045708, 22.128418)" fill="#FFFFFF">
                    <g id="Group-17" transform="translate(0.890005, 0.233643)">
                        <path d="M39.4935445,13.3253013 C39.488982,13.254033 39.4748227,13.1833939 39.4511453,13.1151933 C39.442571,13.0912012 39.4361207,13.0657145 39.4253439,13.0423517 C39.3879005,12.9590479 39.3368484,12.8828237 39.2732889,12.8171404 L26.6872595,0.231110966 C26.6214975,0.167472854 26.5446441,0.115555483 26.4607896,0.078662684 C26.4371122,0.0675712456 26.4122548,0.0614355562 26.3876333,0.0525466729 C26.3200621,0.0291838558 26.2493443,0.0150245726 26.1774466,0.010462137 C26.1608488,0.00888888329 26.1467682,0 26.1301704,0 L7.25112621,0 C6.81659355,0 6.46449937,0.352172836 6.46449937,0.78662684 L6.46449937,24.194911 L6.40888485,24.1392965 C6.30780331,24.0428561 6.18178569,23.9761501 6.04538459,23.9457076 C6.01525678,23.8093065 5.94886548,23.6836036 5.85266102,23.5822074 L3.62800165,21.3569187 C3.48050912,21.2094262 3.28046991,21.126437 3.07154182,21.126437 C2.86292838,21.126437 2.66288918,21.2094262 2.51476735,21.3569187 L0.289793328,23.5822074 C0.141986145,23.7296999 0.058997013,23.9300538 0.058997013,24.1389819 C0.058997013,24.3479099 0.141986145,24.5479491 0.289793328,24.6954417 L2.51476735,26.9201797 C2.61679285,27.0157549 2.7421025,27.0826968 2.87858226,27.11251 C2.90871007,27.2492257 2.97533736,27.3749287 3.07185647,27.4763249 L6.46449937,30.8689678 L6.46449937,46.4109836 C6.46449937,46.8454376 6.81659355,47.1976104 7.25112621,47.1976104 L38.7161998,47.1976104 C39.1509685,47.1976104 39.5028267,46.8454376 39.5028267,46.4109836 L39.5028267,13.3726563 C39.5028267,13.3560585 39.4944884,13.3418992 39.4935445,13.3253013 Z M36.8190132,12.5860294 L26.9167972,12.5860294 L26.9167972,2.68562269 L36.8190132,12.5860294 Z M1.95799287,24.1392965 L3.07185647,23.0254329 L4.18328154,24.1392965 L3.07185647,25.2507216 L1.95799287,24.1392965 Z M5.85266102,25.8078107 L19.7588076,39.7126987 L18.6458093,40.825933 L4.74037066,26.9201797 L5.85266102,25.8078107 Z M20.7387087,41.8061487 L20.1026422,41.5935235 L20.5263194,41.1694529 L20.7387087,41.8061487 Z M37.929573,45.6243567 L8.03775305,45.6243567 L8.03775305,32.4422215 L18.0896641,42.4944472 C18.0972944,42.5012122 18.1083858,42.5039654 18.1160948,42.5116743 C18.1759571,42.5666595 18.2439217,42.6118119 18.3176286,42.6453222 C18.3345411,42.6548404 18.3523975,42.662864 18.3701753,42.6708089 C18.3800081,42.6745061 18.387717,42.6806418 18.3972352,42.6840243 L21.733949,43.7960786 C21.8141062,43.8233746 21.8986686,43.8372192 21.9831523,43.8372192 C22.2363675,43.8372192 22.4735355,43.715528 22.6216573,43.5099824 C22.7691499,43.3047515 22.8094252,43.0407595 22.7291892,42.8010743 L21.6168989,39.4641246 C21.6168989,39.4548424 21.607066,39.4468975 21.6033689,39.4373793 C21.5959746,39.4198375 21.5874004,39.4022957 21.5781182,39.3854619 C21.5450012,39.3113617 21.4994555,39.2428465 21.4447849,39.1835348 C21.4365253,39.1752752 21.4343228,39.1648131 21.4270072,39.1564749 L8.03775305,25.7681647 L8.03775305,1.57325368 L25.3435435,1.57325368 L25.3435435,13.3726563 C25.3435435,13.8071103 25.6956377,14.1592831 26.1301704,14.1592831 L37.929573,14.1592831 L37.929573,45.6243567 Z" id="Fill-1" stroke="#FFFFFF" stroke-width="0.5"></path>
                        <polygon id="Fill-4" points="9.61100673 18.8790442 30.8499314 18.8790442 30.8499314 17.3057905 9.61100673 17.3057905"></polygon>
                        <polygon id="Fill-5" points="31.6365583 18.8790442 36.3563193 18.8790442 36.3563193 17.3057905 31.6365583 17.3057905"></polygon>
                        <polygon id="Fill-6" points="9.61100673 22.0255515 12.7575141 22.0255515 12.7575141 20.4522978 9.61100673 20.4522978"></polygon>
                        <polygon id="Fill-7" points="13.5441409 22.0255515 22.983663 22.0255515 22.983663 20.4522978 13.5441409 20.4522978"></polygon>
                        <polygon id="Fill-8" points="23.7702899 22.0255515 36.3563193 22.0255515 36.3563193 20.4522978 23.7702899 20.4522978"></polygon>
                        <polygon id="Fill-9" points="9.61100673 25.1720589 22.983663 25.1720589 22.983663 23.5988052 9.61100673 23.5988052"></polygon>
                        <polygon id="Fill-10" points="23.7702899 25.1720589 36.3563193 25.1720589 36.3563193 23.5988052 23.7702899 23.5988052"></polygon>
                        <polygon id="Fill-12" points="20.6237825 28.3185662 32.4231851 28.3185662 32.4231851 26.7453126 20.6237825 26.7453126"></polygon>
                        <polygon id="Fill-13" points="33.2098119 28.3185662 36.3563193 28.3185662 36.3563193 26.7453126 33.2098119 26.7453126"></polygon>
                        <polygon id="Fill-14" stroke="#FFFFFF" stroke-width="0.5" points="9.61100673 5.50638788 12.7575141 5.50638788 12.7575141 3.9331342 9.61100673 3.9331342"></polygon>
                        <polygon id="Fill-15" stroke="#FFFFFF" stroke-width="0.5" points="13.5441409 5.50638788 15.1173946 5.50638788 15.1173946 3.9331342 13.5441409 3.9331342"></polygon>
                        <polygon id="Fill-16" points="33.2098119 44.051103 36.3563193 44.051103 36.3563193 42.4778494 33.2098119 42.4778494"></polygon>
                        <polygon id="Fill-17" points="30.8499314 44.051103 32.4231851 44.051103 32.4231851 42.4778494 30.8499314 42.4778494"></polygon>
                    </g>
                </g>
            </g>
        </g>
    </g>
</svg>