<?xml version="1.0" encoding="utf-8"?>
<!-- Generator: Adobe Illustrator 22.0.1, SVG Export Plug-In . SVG Version: 6.00 Build 0)  -->
<svg version="1.1" id="elvn-1" xmlns="http://www.w3.org/2000/svg" xmlns:xlink="http://www.w3.org/1999/xlink" x="0px" y="0px"
	 viewBox="0 0 200 200" style="enable-background:new 0 0 200 200;" xml:space="preserve">
<style type="text/css">
	.st0{fill:#2F3D7F;}
</style>
<path class="st0" d="M129.6,89.2c0-5,0-10,0-15.1c3.9,0,7.8,0,11.7,0c0,17.1,0,34.3,0,51.5c-0.3,0-0.5,0.1-0.8,0.1
	c-3.1,0-6.1,0-9.2,0c-0.7,0-1.1-0.2-1.1-1c0-0.6-0.1-1.1-0.2-1.9c-0.3,0.2-0.5,0.3-0.7,0.5c-6.1,5.4-16.1,4.2-21.2-2.4
	c-3.1-4.1-4.2-8.7-4.1-13.7c0.3-10,6.7-17.2,16.6-18.7c2.6-0.4,5.2-0.3,7.8,0.5c0.3,0.1,0.6,0.2,0.9,0.2
	C129.3,89.3,129.3,89.2,129.6,89.2z M129.4,105.1c0,0,0.1,0,0.1,0c0-1.5,0-3.1,0-4.6c0-0.6-0.2-0.9-0.8-1.2c-2-0.8-4.1-0.9-6.2-0.6
	c-2.1,0.3-3.7,1.2-4.9,3c-2.2,3.3-2.5,6.9-1.2,10.6c1.1,3.2,3.8,4.7,7.3,4.3c3.1-0.4,5.2-2.4,5.5-5.6
	C129.6,109,129.4,107,129.4,105.1z"/>
<path class="st0" d="M184.9,125.7c-1.7,0-3.4,0-5,0c-1.6,0-3.2-0.1-4.8,0c-1,0.1-1.3-0.3-1.3-1.3c0-0.4-0.1-0.8-0.1-1.3
	c-0.2,0.1-0.4,0.2-0.5,0.3c-4.9,3.8-10.3,4.3-15.9,2.2c-4.7-1.8-7.1-6.5-6.4-11.8c0.7-5.1,3.6-8.4,8.3-10.3c3.4-1.4,7-1.6,10.6-1.5
	c1.3,0,2.5,0,3.9,0c0.1-0.9-0.1-1.7-0.7-2.5c-1.1-1.5-2.7-2.1-4.4-2.2c-4.1-0.3-8,0.6-11.5,3.1c-1.7-2.5-3.3-4.9-5-7.5
	c1.4-0.9,2.7-1.8,4.1-2.4c5.9-2.6,12.1-3.3,18.4-1.8c5.9,1.4,9,5.6,10.2,11.3c0.3,1.4,0.4,2.8,0.4,4.1c0,6.9,0,13.8,0,20.6
	C185,125,185,125.2,184.9,125.7z M170.3,109.6c-2.9,0-4.7,0.3-6,1c-1.6,0.8-2.3,2.3-2.1,4.2c0.2,1.8,1.2,2.7,3.1,3.1
	c4.9,1,8.3-1.8,8.3-6.7c0-0.2,0-0.3,0-0.5c0.1-0.8-0.3-1-1-1C171.8,109.7,170.9,109.7,170.3,109.6z"/>
<path class="st0" d="M36.3,113.8c1.4,3.9,3.7,7,7,9.5c-6.3,4.8-17.4,5.3-24.8-2.3c-7.2-7.4-7.2-19.3-0.2-26.7
	c7.5-7.8,18.7-7.4,24.9-2.6c-1.4,1.4-2.9,2.8-4,4.4c-1.2,1.6-2,3.4-3,5.2c-4.2-1.6-7.4-1-9.6,2c-2,2.7-2,6.3,0.1,8.9
	C28.8,115,32,115.6,36.3,113.8z"/>
<path class="st0" d="M97.3,99.6c-1.5-0.2-2.9-0.4-4.2-0.5c-5.1-0.1-8.3,3.1-8.4,8.2c0,5.6,0,11.2,0,16.8c0,1.8,0.3,1.6-1.6,1.6
	c-3,0-5.9,0-8.9,0c-0.4,0-0.8,0-1.2,0c0-12.2,0-24.4,0-36.6c0.6,0,1.2,0,1.8,0c2.8,0,5.6,0,8.4,0c0.9,0,1.2,0.3,1.2,1.2
	c0,0.8,0.1,1.6,0.2,2.6c0.8-0.7,1.5-1.3,2.2-1.8c3.5-2.9,7.5-2.9,11.7-1.9c0.4,0.1,0.8,0.2,0.7,0.8C98.5,93.1,97.9,96.4,97.3,99.6z"
	/>
<path class="st0" d="M47.4,107.6c0-4,3.3-7.3,7.3-7.2c4,0.1,7.2,3.3,7.2,7.3c0,4-3.3,7.2-7.3,7.2C50.5,114.8,47.3,111.6,47.4,107.6z
	"/>
</svg>
