<?xml version="1.0" encoding="UTF-8"?>
<svg width="71px" height="71px" viewBox="0 0 71 71" version="1.1" xmlns="http://www.w3.org/2000/svg" xmlns:xlink="http://www.w3.org/1999/xlink">
    <!-- Generator: Sketch 51.3 (57544) - http://www.bohemiancoding.com/sketch -->
    <title>Group 6</title>
    <desc>Created with Sketch.</desc>
    <defs>
        <linearGradient x1="50%" y1="0%" x2="50%" y2="99.0403721%" id="linearGradient-1">
            <stop stop-color="#0BDAFE" offset="0%"></stop>
            <stop stop-color="#0BDAFE" offset="100%"></stop>
        </linearGradient>
    </defs>
    <g id="Page-1" stroke="none" stroke-width="1" fill="none" fill-rule="evenodd">
        <g id="cubix-chain" transform="translate(-173.000000, -1932.000000)">
            <g id="Group-6-Copy" transform="translate(161.462891, 1920.306213)">
                <g id="leaderboard" transform="translate(0.000000, 0.111372)">
                    <g id="Group-6" transform="translate(12.000000, 11.000000)">
                        <circle id="Oval-6" fill="url(#linearGradient-1)" cx="35" cy="35.8640062" r="35"></circle>
                        <g id="Contract" transform="translate(16.760981, 14.559708)" fill="#FFFFFF">
                            <path d="M33.0220729,10.9779036 C32.9691347,10.8472041 32.9264022,10.7834017 32.8732006,10.7284223 L22.3382268,0.193448457 C22.2831815,0.140180995 22.2188524,0.0967242283 22.1486631,0.0658435863 C22.0308689,0.0244279705 21.9716755,0.012576125 21.9114945,0.00875719698 C21.9022325,0.0078792825 16.6215549,0.00496021684 6.06946179,0 C5.70574182,0 5.41102592,0.294781736 5.41102592,0.658435863 L5.41102592,20.2520386 C5.2798655,20.1247629 5.17438408,20.0689276 5.0602113,20.0434461 C5.0349932,19.9292733 4.97942122,19.8240553 4.89889451,19.7391829 L3.03677205,17.8765337 C2.91331532,17.753077 2.74587508,17.683612 2.57099452,17.683612 C2.39637732,17.683612 2.22893708,17.753077 2.10495361,17.8765337 L0.242567772,19.7391829 C0.118847673,19.8626396 0.0493826897,20.0303432 0.0493826897,20.2052238 C0.0493826897,20.3801044 0.118847673,20.5475446 0.242567772,20.6710013 L2.10495361,22.5331896 C2.19035274,22.6131896 2.29524158,22.6692225 2.4094802,22.6941772 C2.43469829,22.8086134 2.49046781,22.9138314 2.57125789,22.9987038 L5.41102592,25.8384718 L5.41102592,38.8477159 C5.41102592,39.2113701 5.70574182,39.5061518 6.06946179,39.5061518 L32.4068963,39.5061518 C32.7708138,39.5061518 33.0653322,39.2113701 33.0653322,38.8477159 L33.0653322,11.1934097 C33.0537437,11.0941175 33.0418919,11.03499 33.0220729,10.9779036 Z M30.8188807,10.5349738 L22.5303584,10.5349738 L22.5303584,2.24796588 L30.8188807,10.5349738 Z M1.63891271,20.2054872 L2.57125789,19.273142 L3.50156192,20.2054872 L2.57125789,21.1357912 L1.63891271,20.2054872 Z M4.89889451,21.6020955 L16.5388554,33.2410029 L15.6072345,34.1728213 L3.9678662,22.5331896 L4.89889451,21.6020955 Z M17.3590689,34.9932982 L16.8266577,34.815323 L17.1812913,34.4603602 L17.3590689,34.9932982 Z M31.7484605,38.1892801 L6.72789765,38.1892801 L6.72789765,27.1553436 L15.1417203,35.5694296 C15.1481072,35.5750922 15.1573911,35.5773967 15.1638438,35.5838494 C15.2139507,35.629874 15.2708396,35.6676682 15.332535,35.6957176 C15.3466914,35.7036847 15.3616379,35.7104007 15.3765186,35.7170509 C15.384749,35.7201456 15.3912017,35.7252814 15.3991688,35.7281127 L18.192122,36.6589434 C18.2592166,36.6817912 18.3299985,36.6933796 18.4007145,36.6933796 C18.612665,36.6933796 18.8111834,36.5915196 18.9351669,36.4194703 C19.0586236,36.2476844 19.0923355,36.0267133 19.0251751,35.8260879 L18.0941467,33.0329371 C18.0941467,33.0251676 18.0859163,33.0185174 18.0828216,33.0105503 C18.0766323,32.9958672 18.0694554,32.9811841 18.0616859,32.9670936 C18.0339657,32.9050689 17.9958423,32.8477191 17.950081,32.7980731 C17.9431674,32.7911595 17.9413238,32.7824023 17.9352003,32.7754229 L6.72789765,21.5689103 L6.72789765,1.31687173 L21.2134866,1.31687173 L21.2134866,11.1934097 C21.2134866,11.5570638 21.5082025,11.8518455 21.8719225,11.8518455 L31.7484605,11.8518455 L31.7484605,38.1892801 Z" id="Fill-1" stroke="#FFFFFF" stroke-width="0.5"></path>
                            <polygon id="Fill-4" points="8.04476938 15.8024607 25.8225377 15.8024607 25.8225377 14.485589 8.04476938 14.485589"></polygon>
                            <polygon id="Fill-5" points="26.4809735 15.8024607 30.4315887 15.8024607 30.4315887 14.485589 26.4809735 14.485589"></polygon>
                            <polygon id="Fill-6" points="8.04476938 18.4362042 10.6785128 18.4362042 10.6785128 17.1193324 8.04476938 17.1193324"></polygon>
                            <polygon id="Fill-7" points="11.3369487 18.4362042 19.2381791 18.4362042 19.2381791 17.1193324 11.3369487 17.1193324"></polygon>
                            <polygon id="Fill-8" points="19.8966149 18.4362042 30.4315887 18.4362042 30.4315887 17.1193324 19.8966149 17.1193324"></polygon>
                            <polygon id="Fill-9" points="8.04476938 21.0699476 19.2381791 21.0699476 19.2381791 19.7530759 8.04476938 19.7530759"></polygon>
                            <polygon id="Fill-10" points="19.8966149 21.0699476 30.4315887 21.0699476 30.4315887 19.7530759 19.8966149 19.7530759"></polygon>
                            <polygon id="Fill-12" points="17.2628715 23.7036911 27.1394094 23.7036911 27.1394094 22.3868194 17.2628715 22.3868194"></polygon>
                            <polygon id="Fill-13" points="27.7978453 23.7036911 30.4315887 23.7036911 30.4315887 22.3868194 27.7978453 22.3868194"></polygon>
                            <polygon id="Fill-14" stroke="#FFFFFF" stroke-width="0.5" points="8.04476938 4.60905104 10.6785128 4.60905104 10.6785128 3.29217932 8.04476938 3.29217932"></polygon>
                            <polygon id="Fill-15" stroke="#FFFFFF" stroke-width="0.5" points="11.3369487 4.60905104 12.6538204 4.60905104 12.6538204 3.29217932 11.3369487 3.29217932"></polygon>
                            <polygon id="Fill-16" points="27.7978453 36.8724083 30.4315887 36.8724083 30.4315887 35.5555366 27.7978453 35.5555366"></polygon>
                            <polygon id="Fill-17" points="25.8225377 36.8724083 27.1394094 36.8724083 27.1394094 35.5555366 25.8225377 35.5555366"></polygon>
                        </g>
                    </g>
                </g>
            </g>
        </g>
    </g>
</svg>