<?xml version="1.0" encoding="utf-8"?>
<!-- Generator: Adobe Illustrator 22.0.1, SVG Export Plug-In . SVG Version: 6.00 Build 0)  -->
<svg version="1.1" id="elvn-1" xmlns="http://www.w3.org/2000/svg" xmlns:xlink="http://www.w3.org/1999/xlink" x="0px" y="0px"
	 viewBox="0 0 200 200" style="enable-background:new 0 0 200 200;" xml:space="preserve">
<style type="text/css">
	.st0{fill:#2F3D7F;}
</style>
<g id="home_1_">
	<g id="Home_1_" transform="translate(-180.000000, -2078.000000)">
		<g id="icon-hyper" transform="translate(180.000000, 2078.000000)">
			<path id="Fill-1_1_" class="st0" d="M96.9,136.1c-2.2-0.8-4.4-1.7-6.5-2.5c-0.6-0.2-1.2-0.5-1.7,0.4c-1.1,2-2.4,3.9-3.6,5.9
				c-1,1.6-2,3.3-3.2,5.2C87.1,141.9,91.9,139,96.9,136.1z M146.9,90.7c-0.2-0.2-0.3-0.2-0.3-0.2c-2.4-1.5-4.9-3.1-7.3-4.6
				c-2.4-1.5-4.7-3.1-7.1-4.6c-0.1-0.1-0.2-0.1-0.3-0.1c0,0.1,0,0.2,0,0.3c0.1,0.5,0.3,1.1,0.4,1.6c0.4,1.8,0.7,3.7,1.1,5.5
				c0.1,0.6,0.3,1.2,1.1,1.3c0.4,0,0.9,0.1,1.3,0.1c1.7,0.1,3.5,0.2,5.2,0.3C142.9,90.3,144.8,90.5,146.9,90.7z M68,76.8
				c2-1.9,4-3.7,6-5.6c0.3-0.3,0.4-0.5,0.1-0.9c-0.5-0.8-0.9-1.7-1.4-2.6c-0.9-1.7-1.8-3.5-2.8-5.2c-0.6-1.1-1.2-2.3-1.9-3.5
				C68,59,68,76.8,68,76.8z M82.3,87.2c0.1-0.1,0.2-0.1,0.2-0.2c2.9-2.6,5.8-5.3,8.8-7.9c0.2-0.2,0.2-0.2,0-0.3
				c-1.5-0.5-2.9-1.1-4.4-1.6c-2.3-0.8-4.5-1.7-6.8-2.5c-0.1,0-0.1,0-0.2-0.1c0,0.1,0,0.2,0,0.3c0.8,4,1.5,7.9,2.3,11.9
				C82.2,86.9,82.3,87,82.3,87.2z M127.8,92.4c-0.1,0-0.2-0.1-0.3-0.1c-1.4-0.5-2.7-1-4.1-1.5c-2.3-0.9-4.5-1.7-6.8-2.6
				c-0.1,0-0.3-0.2-0.3,0.2c0.1,0.8,0.2,1.7,0.3,2.5c0.5,2.7,1.1,5.5,1.6,8.2c0.1,0.6,0.2,1.1,0.3,1.7c0.4-0.3,0.9-0.7,1.3-1
				c1.3-1.1,2.5-2.2,3.7-3.3c1.4-1.2,2.7-2.5,4-3.7C127.6,92.6,127.7,92.5,127.8,92.4z M107.1,116.8c0.6,0.3,1.2,0.5,1.8,0.8
				c2.5,0.9,5,1.8,7.4,2.7c0.6,0.2,2.3-0.5,2.2-1c-0.4-1.3-0.4-2.7-0.7-4.1c-0.4-1.7-0.7-3.4-1-5.2c-0.1-0.5-0.2-1.1-0.3-1.7
				c-0.4,0.3-0.7,0.6-1.1,1c0,0-0.1,0-0.1,0.1C112.5,111.8,109.7,114.2,107.1,116.8z M87.3,114.1c0.6,1.4,0.6,3,1,4.6
				c0.6,2.3,0.9,4.7,1.3,7.1c0.1,0.6,0.3,0.4,0.5,0.1c0.8-0.7,1.6-1.4,2.4-2.2c2.1-1.9,4.2-3.7,6.3-5.6c0.2-0.2,0.2-0.3-0.1-0.4
				c-2-0.7-4-1.5-6-2.2c-1.7-0.6-3.4-1.2-5.1-1.8C87.4,113.7,87.2,113.6,87.3,114.1z M81.8,107.9c-0.2-0.8-0.3-1.6-0.5-2.4
				c-0.4-2.1-0.8-4.2-1.2-6.3c-0.3-1.4-0.5-2.8-0.8-4.2c0-0.2-0.1-0.4-0.4-0.2c-2.3,2.1-4.6,4.1-6.8,6.1c-0.7,0.6-1.6,1.2-1.1,2.4
				c0.1,0.2-0.1,0.5,0.2,0.6c1.7,0.6,3.3,1.3,5,1.9C78.1,106.6,79.9,107.2,81.8,107.9z M98.9,77c1,0.4,2,0.8,3.1,1.2
				c1.5,0.6,3,1.1,4.5,1.6c1.5,0.6,3,1.2,4.5,1.7c0.1,0.1,0.6,0.4,0.5-0.2c-0.1-0.9-0.2-1.9-0.4-2.8c-0.5-2.7-1.2-5.3-1.5-8
				c-0.2-1.2-0.9-1.2-1.6-1.5c-0.4-0.2-0.6,0.3-0.8,0.5C104.4,72.1,101.7,74.6,98.9,77z M91.3,60.7c-7-2.1-13.9-4.2-20.9-6.4
				c0.7,1.3,1.3,2.5,2,3.7c1.8,3.3,3.6,6.6,5.4,9.9c0.2,0.3,0.2,0.3,0.5,0.2c2-1.2,4.1-2.4,6.1-3.5C86.6,63.3,88.9,62,91.3,60.7z
				 M149.5,95.1c-2.2,0.1-4.3-0.4-6.3-0.5c-3-0.1-6-0.5-9-0.7c-0.3,0-0.3,0.1-0.4,0.3c-0.1,2.8,0.1,5.6-0.1,8.4
				c-0.2,2.1,0,4.3,0,6.4c0,0.2,0,0.3,0,0.5c0.2-0.1,0.3-0.1,0.4-0.2c1.2-1.1,2.4-2.2,3.6-3.3c2.3-2.2,4.6-4.3,7-6.5
				C146.3,98.1,147.8,96.7,149.5,95.1z M75.9,146.3c0.7-1.1,1.3-2,1.9-3c2.4-3.9,4.8-7.9,7.2-11.8c0.2-0.3,0.1-0.4-0.1-0.5
				c-0.9-0.5-1.8-1-2.7-1.5c-3.4-2-6.7-4-10-5.9c-0.1-0.1-0.2-0.1-0.3-0.1c0,0.1,0,0.3,0,0.4c0.4,2,0.7,4,1.1,5.9
				c0.6,2.8,0.9,5.7,1.5,8.5C75,141,75.5,143.6,75.9,146.3z M112,48.9c-1.6-0.2-3,0.2-4.4,0.3c-3.4,0.2-6.7,0.6-10.1,0.9
				c-1,0.1-2.1,0-3.1,0.2c-3.9,0.8-7.8,0.8-11.7,1.2c-2,0.2-4,0.6-6.3,0.6c0.4,0.2,0.6,0.2,0.7,0.3c1.2,0.3,2.5,0.6,3.7,1
				c2.4,0.9,4.9,1.5,7.4,2.3c2.2,0.8,4.4,1.4,6.6,2.1c0.4,0.1,0.7,0.3,1.1,0.1c1.1-0.6,2.3-1.3,3.4-1.9c2.7-1.6,5.4-3.1,8.1-4.7
				C108.9,50.6,110.4,49.8,112,48.9z M147,86.3c-7-10.2-13.8-20.2-20.7-30.3c0.1,1.4,0.6,2.6,0.8,3.9c0.3,1.6,0.8,3.3,1.1,4.9
				c0.4,1.7,0.6,3.3,1,5s0.8,3.3,1.2,5c0.1,0.8,0.4,1.2,1.1,1.6c0.6,0.3,1.1,0.7,1.6,1c1.8,1.1,3.5,2.3,5.3,3.4c1.5,1,3,2,4.5,2.9
				C144.2,84.6,145.5,85.4,147,86.3z M129.9,96.5C129.9,96.6,129.9,96.6,129.9,96.5c-0.1,0-0.2,0-0.3,0.1c-1.4,1.2-2.9,2.5-4.3,3.7
				c-1.6,1.4-3.2,3-4.9,4.4c-0.7,0.6-1.3,1-1,2.1c0.5,1.9,0.7,3.9,1,5.9c0.3,1.7,0.6,3.3,1,5c0.1,0.4,0,0.9,0.4,1.1
				c0.6,0.2,1.2,0.6,1.8-0.1c1.3-1.4,2.9-2.6,4.2-4c0.4-0.4,1.2-0.5,1.3-1.3c0.1-1.6,0.1-3.2,0.2-4.8
				C129.7,104.7,129.5,100.7,129.9,96.5z M148.5,101.1c-3,2.8-5.8,5.3-8.5,7.8c-1.8,1.7-3.6,3.3-5.4,5c-0.4,0.4-1.1,0.6-1.2,1.4
				c-0.2,4.3,0,8.7-0.3,13c-0.1,2.4,0,4.7,0,7.2C138.2,124.1,143.3,112.7,148.5,101.1z M49,94.9c2.4-2.3,4.8-4.5,7.1-6.7
				c2.1-2,4.3-4.1,6.4-6.1c1.1-1,2-2,1.9-3.9c-0.2-5.8-0.1-11.5-0.1-17.3v-0.8C59.3,71.8,54.2,83.3,49,94.9z M97,62.4
				c-0.2,0.1-0.4,0.2-0.6,0.3c-2.8,1.6-5.6,3.2-8.4,4.8c-1.8,1-3.6,2.1-5.4,3.1c-0.2,0.1-0.4,0.2,0,0.4c1.4,0.5,2.7,1.1,4.1,1.6
				c2.4,0.9,4.9,1.8,7.3,2.7c0.4,0.1,0.9,0.6,1.4,0.2c1.6-1.3,3.1-2.7,4.6-4.1c1.7-1.5,3.3-3.1,5-4.5c0.5-0.4,0.5-0.7,0.4-1.2
				c-0.1-0.6-0.4-0.8-0.9-0.9c-1-0.2-2-0.6-3-0.9C100,63.4,98.5,62.9,97,62.4z M116.1,124.3c0-0.2,0-0.4-0.3-0.5
				c-1.3-0.5-2.6-0.9-4-1.4c-2.4-0.9-4.8-1.7-7.3-2.6c-0.3-0.1-0.5-0.4-0.8-0.2c-1.3,1.1-2.5,2.3-3.7,3.4s-2.4,2.1-3.7,3.2
				c-1.2,1-2.3,2.1-3.5,3.2c-0.1,0.1-0.2,0.2,0,0.3c3,1.1,5.9,2.2,8.9,3.3c0.1,0,0.2,0,0.3-0.1c2.4-1.4,4.9-2.9,7.3-4.3
				c2.1-1.3,4.2-2.6,6.4-3.9C116,124.6,116.1,124.5,116.1,124.3z M129.1,88.3c-0.2-1.1-0.3-2.2-0.6-3.2c-0.5-1.8-1-3.7-1.3-5.6
				c-0.1-0.6-0.1-1.4-0.5-1.7c-1-0.9-2.2-1.6-3.4-2.3c-1.5-0.9-3-1.8-4.4-2.8c-2-1.3-3.9-2.5-5.8-3.8c-0.1-0.1-0.2-0.1-0.3,0
				c-0.2,0.1-0.1,0.2-0.1,0.3c0.1,0.4,0.2,0.9,0.3,1.3c0.3,1.8,0.5,3.7,0.9,5.4c0.5,1.8,0.6,3.7,1.1,5.6c0.1,0.6-0.2,1.4,0.5,1.6
				c1.6,0.7,3.2,1.2,4.8,1.8C123.2,86.1,126.1,87.2,129.1,88.3z M68,91.1c0,2.6,0,5.3,0,7.9c0,0.2,0,0.4,0.3,0.5s0.4-0.1,0.5-0.2
				c2.8-2.5,5.7-5,8.5-7.6c0.5-0.4,1.3-0.7,1.2-1.5c-0.2-1-0.4-2.1-0.6-3.1c-0.4-1.9-0.8-3.8-1.1-5.8c-0.3-1.8-0.6-3.7-1-5.5
				c0-0.1,0-0.3-0.2-0.1c-2.2,2.1-4.3,4.1-6.5,6.1c-0.7,0.6-1.1,1.3-1,2.3C68,86.5,68,88.8,68,91.1z M85.1,125.6
				c-0.4-2.4-0.8-4.8-1.3-7.1c-0.3-1.7-0.6-3.3-1-5c-0.1-0.6-0.2-1.2-0.5-1.6s-1-0.5-1.5-0.6c-3.2-1.2-6.4-2.3-9.6-3.4
				c-0.5-0.2-1-0.7-1.6-0.3c-0.8,0.5-0.8,1.2-0.6,2.1c0.4,2,0.7,4,1.1,5.9c0.2,0.8-0.2,1.9,0.9,2.4c1.1,0.6,2.2,1.3,3.3,1.9
				c3.4,2,6.8,4,10.2,6C85,126,85.3,126.1,85.1,125.6z M120.5,144.9c0-0.1,0-0.1,0-0.2c-1-0.3-1.9-0.7-2.9-1
				c-3.2-1.2-6.3-2.3-9.5-3.5c-1.5-0.5-2.9-1.2-4.4-1.6c-1.1-0.3-2.1-1.1-3.3-0.2c-0.6,0.5-1.4,0.9-2.1,1.3
				c-3.1,1.9-6.2,3.7-9.3,5.6c-1.7,1-3.3,2-5.2,3.1C96.3,147.2,108.4,146,120.5,144.9z M50,110.8c7.1,10.5,14.2,20.8,21.4,31.3
				c-0.1-0.8-0.2-1.4-0.3-2c-0.3-1.7-0.6-3.5-1-5.2c-0.3-1.9-0.6-3.8-1-5.6c-0.5-2.1-0.7-4.3-1.2-6.4c-0.1-0.7,0-1.6-0.6-2
				c-2.7-1.6-5.4-3.2-8.1-4.8c-2-1.2-4.1-2.4-6.1-3.6C52.1,112,51.1,111.5,50,110.8z M125.6,72.5c-0.4-1.9-0.6-3.7-1.1-5.4
				c-0.6-2.2-0.8-4.4-1.5-6.5c-0.5-1.6-0.7-3.4-1.1-5c-0.4-2.1-0.9-4.2-1.4-6.2c0-0.2,0-0.4-0.3-0.2c-2.4,1.4-4.9,2.7-7.3,4.2
				c-1.6,1-3.3,1.8-4.9,2.9c-2.1,1.3-4.3,2.4-6.6,3.7c1.6,0.5,3,0.9,4.4,1.3c0.3,0.1,0.5,0.2,0.8-0.1c1-1.1,2.3-1.5,3.8-1.5
				c2.8-0.1,5.2,3.1,4.6,5.8c0,0.2-0.1,0.4,0.2,0.5C118.6,68.1,122.1,70.3,125.6,72.5z M106.6,134.8c3.3,1.2,6.4,2.4,9.5,3.5
				c2.2,0.8,4.4,1.6,6.5,2.4c2,0.7,4,1.4,5.9,2.1c0.2,0.1,0.3,0.2,0.3-0.2c0-1,0.1-2,0.1-3c0-2.6,0.1-5.3,0.2-7.9
				c0.2-4.2-0.1-8.5,0.2-12.7c0-0.1,0-0.2-0.1-0.3c-0.1,0.1-0.2,0.1-0.2,0.2c-1,0.9-1.9,1.7-2.9,2.6c-0.4,0.3-0.6,0.7-0.6,1.3
				c0,1,0.2,2.1-0.1,3c-1.2,3.3-4.9,3.8-7.4,2.3c-0.2-0.1-0.3-0.1-0.4,0c-2.1,1.3-4.3,2.6-6.4,3.9
				C109.8,132.8,108.3,133.8,106.6,134.8z M64.4,86.3c-2.3,2.2-4.6,4.3-6.8,6.4c-1.3,1.2-2.5,2.4-3.8,3.6c-2.4,2.3-4.8,4.6-7.3,6.9
				c-0.3,0.3-0.2,0.5,0.1,0.7c0.6,0.4,1.1,0.7,1.7,1c3.6,2.1,7.3,4.1,10.9,6.3c2.3,1.4,4.7,2.7,7.2,4c-0.5-1-0.4-2-0.7-2.9
				c-0.3-1.4,0.1-3.2-2-3.7c-0.2,0-0.5-0.2-0.7-0.4c-2.9-2.1-2.9-7.1,0.9-8.8c0.2-0.1,0.4-0.1,0.4-0.5
				C64.4,94.8,64.4,90.6,64.4,86.3z M83,91.5c0.2,0.9,0.4,1.7,0.6,2.5c0.5,2.2,0.9,4.5,1.3,6.7c0.5,2.8,1,5.6,1.6,8.4
				c0,0.2,0.1,0.4,0.4,0.5c1.7,0.6,3.3,1.2,4.9,1.8c3,1,6,2.1,9,3.1c0.5,0.2,1.1,0.8,1.7,0.3c1.2-0.9,2.3-1.9,3.5-2.8
				c3-2.6,5.9-5.3,8.9-8c0.3-0.3,0.7-0.6,0.6-1.2c-0.3-1.1-0.5-2.3-0.7-3.5c-0.3-2-0.7-3.9-1-5.9c-0.3-1.6-0.5-3.3-0.9-4.9
				c-0.1-0.6,0.2-1.5-0.6-1.8c-1.2-0.5-2.3-0.9-3.5-1.3c-2.3-0.9-4.6-1.8-6.9-2.6c-1.7-0.6-3.3-1.3-5-1.8c-0.6-0.2-1.2-0.9-1.8-0.3
				c-3.5,3.1-7.1,6.3-10.6,9.4C83.9,90.5,83.3,90.8,83,91.5z M75.6,156.4c-3.9,0.5-5.9-3.9-4.8-6.9c0.2-0.4-0.2-0.7-0.4-1
				c-1.8-2.7-3.7-5.3-5.5-8c-1.9-2.8-3.7-5.6-5.6-8.4c-3.3-4.8-6.6-9.6-9.8-14.3c-2.1-3.1-4.1-6.2-6.2-9.2c-0.7-1-1.5-1.9-2.1-2.9
				c-0.6-1.1-0.6-2.5-0.1-3.5c0.6-1.1,1-2.3,1.6-3.4c1.4-3,2.7-6,4-9c1.2-2.7,2.4-5.5,3.6-8.2c1.6-3.5,3.1-7.1,4.7-10.6
				c1.3-2.9,2.6-5.9,3.9-8.8c1.1-2.5,2.2-5,3.4-7.6c0.1-0.2,0-0.4-0.1-0.6c-1.9-3-0.8-6.6,2.5-7.7c2.3-0.8,4.5-0.1,5.8,2.1
				c0,0.1,0.2,0.2,0.2,0.2c2.8-0.3,5.7-0.6,8.5-0.9c1.1-0.1,2.1-0.2,3.2-0.3c2.1-0.3,4.3-0.1,6.4-0.5c3.2-0.6,6.4-0.5,9.5-1.1
				c2.2-0.4,4.4-0.3,6.5-0.6c2.2-0.3,4.5-0.4,6.7-0.6c3.6-0.4,7.3-0.9,11-0.6c1.3,0.1,1.6,1.3,2.1,2.1c2.2,3.2,4.3,6.4,6.4,9.5
				c1.6,2.3,3.2,4.6,4.8,7c2,2.9,3.9,5.8,5.8,8.6c1.3,1.8,2.6,3.6,3.8,5.5c1.8,2.7,3.6,5.4,5.4,8.1c0.5,0.7,1,1.4,1.4,2.1
				c0.6,0.8,1.1,1.5,2.3,1.6c4.1,0.3,5.4,4.6,3.7,7.7c-0.6,1.1-1.6,2-2.9,2c-1.2,0-1.5,0.8-1.9,1.8c-1,2.3-2,4.5-3,6.7
				c-0.8,1.8-1.6,3.7-2.4,5.5c-1.6,3.6-3.3,7.3-4.9,10.9c-1.1,2.4-2.1,4.9-3.1,7.3c-1.2,2.7-2.5,5.4-3.7,8.1c-1,2.3-1.9,4.6-2.9,6.8
				c-0.5,1.1-0.7,2.7-2.2,3.1c-0.8,0.2-1.7,0.3-2.5,0.3c-3.3,0-6.6,0.6-9.9,0.8c-3.9,0.3-7.8,0.9-11.7,1.2c-1.9,0.2-3.9,0.3-5.8,0.5
				c-2.5,0.3-5,0.3-7.5,0.7c-2,0.3-4.1,0.2-6.1,0.5c-2.4,0.4-4.9,0.4-7.3,0.8c-0.7,0.1-0.7,0.8-1,1.2
				C78.5,155.8,77.3,156.8,75.6,156.4z"/>
		</g>
	</g>
</g>
</svg>
