<?xml version="1.0" encoding="UTF-8"?>
<svg width="86px" height="87px" viewBox="0 0 86 87" version="1.1" xmlns="http://www.w3.org/2000/svg" xmlns:xlink="http://www.w3.org/1999/xlink">
    <!-- Generator: Sketch 51.3 (57544) - http://www.bohemiancoding.com/sketch -->
    <title>cubix-chain-party-onboarding</title>
    <desc>Created with Sketch.</desc>
    <defs></defs>
    <g id="Page-1" stroke="none" stroke-width="1" fill="none" fill-rule="evenodd">
        <g id="cubix-commerce-copy-2" transform="translate(-266.000000, -1001.000000)">
            <g id="cubix-chain-party-onboarding" transform="translate(266.000000, 1000.000000)">
                <g id="Time-Off" transform="translate(0.000000, 0.655997)" fill="#41AEFD" fill-rule="nonzero">
                    <g id="Group-31" transform="translate(0.000000, 0.148438)">
                        <circle id="Oval-6" cx="43" cy="43.859375" r="43"></circle>
                    </g>
                </g>
                <g id="Party-Onbaording" transform="translate(13.019191, 22.988770)" fill="#FFFFFF">
                    <g id="Group">
                        <path d="M56.3259389,13.013073 L44.6265381,1.31367223 C43.8854574,0.572591516 42.9014261,0.16495636 41.8538038,0.16495636 C40.8059097,0.16495636 39.8218784,0.572591516 39.0810695,1.31367223 L36.3314345,4.06303548 C35.9091244,4.48561726 35.6074744,4.98347566 35.4175164,5.51312961 L22.554725,3.20944746 C22.5536379,3.20944746 22.5525509,3.20944746 22.5514639,3.20944746 C16.768208,2.06100335 11.1208306,5.82103003 9.95417876,11.6064599 L9.36066197,14.5490422 C8.70572815,17.799525 10.8172783,20.9755464 14.066674,21.6315672 C17.3171567,22.2856858 20.4942651,20.1752227 21.1491989,16.9247399 L21.512266,15.1254384 L27.280847,15.6295472 L45.0743933,33.4244523 C45.6274183,33.9774773 45.6274183,34.8767205 45.0743933,35.4297455 C44.5224553,35.9816835 43.6223969,35.9827705 43.0691001,35.4297455 L35.7561254,28.1167708 C35.2465814,27.6072268 34.4207126,27.6072268 33.9111687,28.1167708 C33.4027117,28.6252277 33.4027117,29.4510965 33.9111687,29.9606405 L41.2252304,37.2747022 C41.4929108,37.5421109 41.6404747,37.8978405 41.6404747,38.2766694 C41.6404747,38.6557701 41.4929108,39.0114997 41.2252304,39.2789084 C40.6722054,39.8319334 39.7721469,39.8319334 39.2199372,39.2789084 L31.9069625,31.9659337 C31.3974185,31.4563897 30.5704627,31.4563897 30.0620058,31.9659337 C29.5524618,32.4754776 29.5524618,33.3013465 30.0620058,33.8108904 L37.3749805,41.1238651 C37.9280055,41.6768901 37.9280055,42.5761333 37.3749805,43.1291583 C37.1075718,43.396567 36.7507552,43.5441309 36.3730132,43.5441309 C35.9939125,43.5441309 35.6373677,43.396567 35.3696872,43.1291583 L28.0567125,35.8161836 C27.5471686,35.3066397 26.7212998,35.3066397 26.2117558,35.8161836 C25.7022119,36.3257276 25.7022119,37.1515964 26.2117558,37.6600533 L33.5247305,44.974115 C34.0777556,45.5271401 34.0777556,46.4263832 33.5247305,46.9794083 C32.9727925,47.5313463 32.0727341,47.5324333 31.5205243,46.9794083 L2.22704674,17.6859306 C1.71750279,17.1763867 0.891633965,17.1763867 0.38209002,17.6859306 C-0.127453926,18.1954746 -0.127453926,19.0213434 0.38209002,19.5308874 L7.51787931,26.6666767 L5.46801799,28.716538 C4.79705052,29.3872337 4.42664604,30.2802264 4.42664604,31.2292011 C4.42664604,32.1792628 4.79705052,33.0719837 5.46801799,33.7429512 L6.1368114,34.4117446 C6.72380602,34.9987393 7.4795616,35.3541971 8.29483192,35.4349089 C8.37554368,36.2501792 8.73127329,37.0062065 9.31826792,37.5921141 L9.98706133,38.2619946 C10.5890026,38.8639358 11.3564437,39.2036318 12.1442666,39.2821695 C12.2236196,40.0985268 12.5804362,40.8553694 13.1685178,41.442364 L13.8373113,42.1111575 C14.4243059,42.6981521 15.1800615,43.054697 15.9942447,43.1343217 C16.0749565,43.949592 16.4317732,44.7056193 17.0176807,45.292614 L17.6875612,45.9614074 C18.3797257,46.6546589 19.2903826,47.0006053 20.2002243,47.0006053 C21.110066,47.0006053 22.0196359,46.6546589 22.7128874,45.9614074 L24.7627487,43.9115461 L29.6755676,48.824365 C30.4356713,49.5844687 31.4474218,50.0037894 32.5227633,50.0037894 C33.5981049,50.0037894 34.6095836,49.5844687 35.3696872,48.824365 C36.090658,48.103666 36.4993801,47.1565937 36.5406872,46.145115 C37.5535247,46.1035362 38.4992382,45.694814 39.2199372,44.974115 C39.9631919,44.231132 40.3496301,43.2682978 40.3898501,42.293778 C41.3643699,42.2532862 42.3272041,41.8668481 43.0701871,41.1238651 C43.8123548,40.3816974 44.19988,39.4191349 44.239013,38.4435281 C45.2146198,38.4030363 46.177454,38.0165982 46.91935,37.2747022 C48.4895606,35.7036763 48.4895606,33.1494344 46.91935,31.5794956 L45.111624,29.7717695 L56.3259389,18.5585416 C57.8545707,17.0288228 57.8545707,14.5417048 56.3259389,13.013073 Z M7.3129747,31.8979945 C6.94474428,31.5294923 6.94474428,30.9297251 7.3129747,30.5614947 L9.2353821,28.6390873 L11.2406753,30.6441088 L9.31826792,32.5667879 C8.95003749,32.9350183 8.3502703,32.9350183 7.98176812,32.5667879 L7.3129747,31.8979945 Z M11.1632246,35.7482444 C10.7939072,35.3786552 10.7939072,34.779975 11.1632246,34.4117446 L13.084545,32.4893372 L15.0898382,34.4943587 L13.1685178,36.4170378 C12.8002874,36.7852683 12.2005202,36.7852683 11.832018,36.4170378 L11.1632246,35.7482444 Z M15.0123875,39.5974073 C14.8341151,39.4191349 14.7354674,39.182163 14.7354674,38.9297009 C14.7354674,38.6780542 14.8341151,38.440267 15.0123875,38.2619946 L16.9347949,36.3393154 L18.9400881,38.3446086 L17.0176807,40.2672878 C16.6494503,40.6355182 16.0496831,40.6355182 15.6811809,40.2672878 L15.0123875,39.5974073 Z M20.8679307,44.1164507 C20.4997003,44.4857681 19.8999331,44.4846811 19.5314309,44.1164507 L18.8626375,43.4476573 C18.494407,43.0791551 18.494407,42.4793879 18.8626375,42.1111575 L20.7850449,40.1887501 L22.7903381,42.1948585 L20.8679307,44.1164507 Z M43.2666672,27.926541 L28.7893688,13.4492426 C28.5727786,13.2326524 28.2860753,13.0989481 27.9803489,13.0723159 L20.5771509,12.4247196 C20.5388332,12.4217302 20.5007873,12.4206432 20.4624696,12.4206432 C19.8477558,12.4206432 19.3085903,12.8538235 19.1854845,13.4671785 L18.5919677,16.4100326 C18.2215632,18.2495542 16.4233487,19.4450122 14.5824683,19.073249 C13.6919214,18.8938895 12.9233932,18.3780951 12.4200997,17.6212525 C11.9170779,16.8633229 11.7385337,15.9556553 11.9189802,15.0648366 L12.51141,12.1211673 C13.3957065,7.73691527 17.6802238,4.88781728 22.0674651,5.77211381 C22.0758895,5.77428787 22.0856728,5.77646192 22.0951843,5.77754895 L34.7710071,8.04698974 L48.9586128,22.2345955 L43.2666672,27.926541 Z M54.4809822,16.7135849 L50.8035695,20.3907258 L38.1763912,7.76354743 C37.9280055,7.51516174 37.7921271,7.18606429 37.7921271,6.83468279 C37.7921271,6.48438831 37.9280055,6.15529086 38.1763912,5.90690517 L40.9260262,3.15754192 C41.1733248,2.91024326 41.5035093,2.77327785 41.8538038,2.77327785 C42.2040983,2.77327785 42.5331957,2.91024326 42.7815814,3.15754192 L54.4809822,14.8569427 C54.7282808,15.1042413 54.8652462,15.4344258 54.8652462,15.7847203 C54.8652462,16.1361018 54.7282808,16.4651992 54.4809822,16.7135849 Z" id="Fill-1"></path>
                        <path d="M52.6273292,16.3026887 C52.6273292,17.0233876 52.0435957,17.6073929 51.322625,17.6073929 C50.603013,17.6073929 50.0181925,17.0233876 50.0181925,16.3026887 C50.0181925,15.5830768 50.603013,14.9990715 51.322625,14.9990715 C52.0435957,14.9990715 52.6273292,15.5830768 52.6273292,16.3026887 Z" id="Fill-4"></path>
                    </g>
                </g>
            </g>
        </g>
    </g>
</svg>