<?xml version="1.0" encoding="UTF-8"?>
<svg width="86px" height="87px" viewBox="0 0 86 87" version="1.1" xmlns="http://www.w3.org/2000/svg" xmlns:xlink="http://www.w3.org/1999/xlink">
    <!-- Generator: Sketch 51.3 (57544) - http://www.bohemiancoding.com/sketch -->
    <title>cubix-chain-operation</title>
    <desc>Created with Sketch.</desc>
    <defs></defs>
    <g id="Page-1" stroke="none" stroke-width="1" fill="none" fill-rule="evenodd">
        <g id="cubix-commerce-copy-2" transform="translate(-1046.000000, -1406.000000)">
            <g id="cubix-chain-operation" transform="translate(1046.000000, 1404.000000)">
                <g id="Announcements" transform="translate(0.000000, 0.655997)" fill="#41AEFD" fill-rule="nonzero">
                    <g id="Group-32-Copy" transform="translate(0.000000, 0.058594)">
                        <g id="Group-31-Copy" transform="translate(0.000000, 0.824219)">
                            <circle id="Oval-6" cx="43" cy="43.859375" r="43"></circle>
                        </g>
                    </g>
                </g>
                <g id="Operation" transform="translate(17.308892, 19.570312)" fill="#FFFFFF" stroke="#FFFFFF" stroke-width="0.7">
                    <g id="Group-35">
                        <polygon id="Fill-1" points="28.9449515 43.7994555 30.5814129 43.7994555 30.5814129 35.623285 28.9449515 35.623285"></polygon>
                        <polygon id="Fill-3" points="19.1261828 43.7994555 20.7626443 43.7994555 20.7626443 35.623285 19.1261828 35.623285"></polygon>
                        <path d="M27.30849,23.3498242 C27.30849,24.7055302 26.2095039,25.8045164 24.8537979,25.8045164 C23.4980919,25.8045164 22.3991057,24.7055302 22.3991057,23.3498242 L22.3991057,21.7133628 C22.3991057,20.3576567 23.4980919,19.2586706 24.8537979,19.2586706 C26.2095039,19.2586706 27.30849,20.3576567 27.30849,21.7133628 L27.30849,23.3498242 Z M24.8537979,17.6222092 C22.5954811,17.6248684 20.7653035,19.455046 20.7626443,21.7133628 L20.7626443,23.3498242 C20.7626443,25.6092661 22.594356,27.4409778 24.8537979,27.4409778 C27.1132397,27.4409778 28.9449515,25.6092661 28.9449515,23.3498242 L28.9449515,21.7133628 C28.9422922,19.455046 27.1121147,17.6248684 24.8537979,17.6222092 Z" id="Fill-4"></path>
                        <path d="M1.94333771,36.4415157 C1.94599695,34.183199 3.77617452,32.3530214 6.03449131,32.3503621 L9.30741419,32.3503621 L9.30741419,43.8055922 L10.9438756,43.8055922 L10.9438756,32.3503621 L14.2167985,32.3503621 C14.6508699,32.3531237 15.0817707,32.4249234 15.4932384,32.5631021 C15.1901862,33.2716899 15.0343133,34.0343832 15.0350292,34.8050543 L15.0350292,43.8055922 L16.6714907,43.8055922 L16.6714907,34.8050543 C16.6741499,32.5467375 18.5043275,30.7165599 20.7626443,30.7139007 L24.0355672,30.7139007 L24.0355672,43.8055922 L25.6720286,43.8055922 L25.6720286,30.7139007 L28.9449515,30.7139007 C31.2032683,30.7165599 33.0334458,32.5467375 33.0361051,34.8050543 L33.0361051,43.8055922 L34.6725665,43.8055922 L34.6725665,34.8050543 C34.6732825,34.0343832 34.5174095,33.2716899 34.2143573,32.5631021 C34.6258251,32.4249234 35.0567258,32.3531237 35.4907972,32.3503621 L38.7637201,32.3503621 L38.7637201,43.8055922 L40.4001816,43.8055922 L40.4001816,32.3503621 L43.6731044,32.3503621 C45.9314212,32.3530214 47.7615988,34.183199 47.7642581,36.4415157 L47.7642581,43.8055922 L49.4007195,43.8055922 L49.4007195,36.4415157 C49.3966283,33.2799745 46.8346457,30.7179919 43.6731044,30.7139007 L35.4907972,30.7139007 C34.7524463,30.7148212 34.0212549,30.8582161 33.337214,31.1361077 C32.2513195,29.831848 30.6420643,29.0776438 28.9449515,29.0774393 L20.7626443,29.0774393 C19.0655315,29.0776438 17.4562762,29.831848 16.3703818,31.1361077 C15.6863409,30.8582161 14.9551495,30.7148212 14.2167985,30.7139007 L6.03449131,30.7139007 C2.87295008,30.7179919 0.310967418,33.2799745 0.306876264,36.4415157 L0.306876264,43.8055922 L1.94333771,43.8055922 L1.94333771,36.4415157" id="Fill-5"></path>
                        <polygon id="Fill-6" points="4.39802987 43.7994555 6.03449131 43.7994555 6.03449131 37.2597465 4.39802987 37.2597465"></polygon>
                        <path d="M12.5803371,23.3498242 L12.5803371,24.9862857 C12.5803371,26.3419917 11.4813509,27.4409778 10.1256449,27.4409778 C8.76993888,27.4409778 7.67095275,26.3419917 7.67095275,24.9862857 L7.67095275,23.3498242 C7.67095275,21.9941182 8.76993888,20.8951321 10.1256449,20.8951321 C11.4813509,20.8951321 12.5803371,21.9941182 12.5803371,23.3498242 Z M6.03449131,23.3498242 L6.03449131,24.9862857 C6.03449131,27.2457275 7.86620305,29.0774393 10.1256449,29.0774393 C12.3850868,29.0774393 14.2167985,27.2457275 14.2167985,24.9862857 L14.2167985,23.3498242 C14.2167985,21.0903824 12.3850868,19.2586706 10.1256449,19.2586706 C7.86620305,19.2586706 6.03449131,21.0903824 6.03449131,23.3498242 Z" id="Fill-7"></path>
                        <polygon id="Fill-8" points="43.6731044 43.7994555 45.3095659 43.7994555 45.3095659 37.2597465 43.6731044 37.2597465"></polygon>
                        <path d="M37.1272587,23.3498242 C37.1272587,21.9941182 38.2262448,20.8951321 39.5819508,20.8951321 C40.9376569,20.8951321 42.036643,21.9941182 42.036643,23.3498242 L42.036643,24.9862857 C42.036643,26.3419917 40.9376569,27.4409778 39.5819508,27.4409778 C38.2262448,27.4409778 37.1272587,26.3419917 37.1272587,24.9862857 L37.1272587,23.3498242 Z M39.5819508,29.0774393 C41.8402676,29.07478 43.6704452,27.2446024 43.6731044,24.9862857 L43.6731044,23.3498242 C43.6731044,21.0903824 41.8413927,19.2586706 39.5819508,19.2586706 C37.322509,19.2586706 35.4907972,21.0903824 35.4907972,23.3498242 L35.4907972,24.9862857 C35.4934565,27.2446024 37.3236341,29.07478 39.5819508,29.0774393 Z" id="Fill-10"></path>
                        <path d="M32.9433831,13.7070786 C32.3001689,9.2527407 28.1677549,6.16315768 23.713417,6.80637193 C20.1379062,7.32259098 17.3290561,10.1314411 16.8127103,13.7070786 L18.8213132,13.9950358 C19.3045794,10.649688 22.408104,8.32955398 25.7534518,8.81269343 C28.438602,9.20052311 30.5479645,11.3098856 30.9357942,13.9950358 L32.9433831,13.7070786" id="Fill-12"></path>
                        <path d="M37.8893522,13.9950358 L39.897955,13.7070786 C38.7130466,5.39142732 31.0112055,-0.389262742 22.6955542,0.795645641 C15.9995354,1.74975734 10.738233,7.01118656 9.78412125,13.7070786 L11.7927241,13.9950358 C12.8274435,6.7892618 19.5077464,1.78663919 26.7136471,2.82135863 C32.5053637,3.65303782 37.0556451,8.20331922 37.8873243,13.9950358 L37.8893522,13.9950358" id="Fill-13"></path>
                    </g>
                </g>
            </g>
        </g>
    </g>
</svg>