<?xml version="1.0" encoding="UTF-8"?>
<svg width="86px" height="87px" viewBox="0 0 86 87" version="1.1" xmlns="http://www.w3.org/2000/svg" xmlns:xlink="http://www.w3.org/1999/xlink">
    <!-- Generator: Sketch 51.3 (57544) - http://www.bohemiancoding.com/sketch -->
    <title>cubix-chain-transaction-explorer</title>
    <desc>Created with Sketch.</desc>
    <defs></defs>
    <g id="Page-1" stroke="none" stroke-width="1" fill="none" fill-rule="evenodd">
        <g id="cubix-commerce-copy-2" transform="translate(-657.000000, -1406.000000)">
            <g id="cubix-chain-transaction-explorer" transform="translate(657.000000, 1403.000000)">
                <g id="cubix-chain-performance-management" fill="#41AEFD" fill-rule="nonzero">
                    <g id="Performance-Management" transform="translate(0.000000, 0.655997)">
                        <g id="Group-13" transform="translate(0.000000, 0.324219)">
                            <g id="Group-32" transform="translate(0.000000, 0.734375)">
                                <g id="Group-31-Copy" transform="translate(0.000000, 0.824219)">
                                    <circle id="Oval-6" cx="43" cy="43.859375" r="43"></circle>
                                </g>
                            </g>
                        </g>
                    </g>
                </g>
                <g id="Transaction" transform="translate(16.500000, 19.500000)" fill="#FFFFFF">
                    <g id="Group-42" transform="translate(0.632966, 0.632966)">
                        <path d="M12.0069902,44.5972341 L12.0069902,47.7997146 C12.0069902,48.8708932 12.8783656,49.7430727 13.9503483,49.7430727 L37.5088415,49.7430727 C38.5800201,49.7430727 39.4513955,48.8708932 39.4513955,47.7997146 L39.4513955,44.5972341 L12.0069902,44.5972341 Z M37.5080374,51.4583857 L13.9503483,51.4583857 C11.9332197,51.4583857 10.2916771,49.8177476 10.2916771,47.7997146 L10.2916771,43.7396278 C10.2916771,43.2653463 10.6759065,42.8820216 11.1492834,42.8820216 L40.3091023,42.8820216 C40.7824792,42.8820216 41.1667086,43.2653463 41.1667086,43.7396278 L41.1667086,47.7997146 C41.1667086,49.8177476 39.5251659,51.4583857 37.5080374,51.4583857 Z" id="Fill-1"></path>
                        <path d="M28.3021121,48.0278601 L23.1562736,48.0278601 C22.6828966,48.0278601 22.2986673,47.6444349 22.2986673,47.1701534 C22.2986673,46.6958719 22.6828966,46.3125471 23.1562736,46.3125471 L28.3021121,46.3125471 C28.7754891,46.3125471 29.1597184,46.6958719 29.1597184,47.1701534 C29.1597184,47.6444349 28.7754891,48.0278601 28.3021121,48.0278601" id="Fill-2"></path>
                        <path d="M36.02087,48.0278601 L32.5903444,48.0278601 C32.116867,48.0278601 31.7326377,47.6444349 31.7326377,47.1701534 C31.7326377,46.6958719 32.116867,46.3125471 32.5903444,46.3125471 L36.02087,46.3125471 C36.4942469,46.3125471 36.8784762,46.6958719 36.8784762,47.1701534 C36.8784762,47.6444349 36.4942469,48.0278601 36.02087,48.0278601" id="Fill-3"></path>
                        <path d="M18.8680413,48.0278601 L15.4375157,48.0278601 C14.9641388,48.0278601 14.5799094,47.6444349 14.5799094,47.1701534 C14.5799094,46.6958719 14.9641388,46.3125471 15.4375157,46.3125471 L18.8680413,46.3125471 C19.3415187,46.3125471 19.725748,46.6958719 19.725748,47.1701534 C19.725748,47.6444349 19.3415187,48.0278601 18.8680413,48.0278601" id="Fill-4"></path>
                        <path d="M12.0069902,6.86115159 L39.4513955,6.86115159 L39.4513955,3.65867112 C39.4513955,2.58749246 38.5800201,1.71531302 37.5080374,1.71531302 L13.9503483,1.71531302 C12.8783656,1.71531302 12.0069902,2.58749246 12.0069902,3.65867112 L12.0069902,6.86115159 Z M40.3091023,8.57636411 L11.1492834,8.57636411 C10.6759065,8.57636411 10.2916771,8.19303934 10.2916771,7.71875785 L10.2916771,3.65867112 C10.2916771,1.64063806 11.9332197,0 13.9503483,0 L37.5088415,0 C39.5251659,0 41.1667086,1.64063806 41.1667086,3.65867112 L41.1667086,7.71875785 C41.1667086,8.19303934 40.7824792,8.57636411 40.3091023,8.57636411 Z" id="Fill-5"></path>
                        <path d="M30.0174252,5.14583857 L21.4409605,5.14583857 C20.9675836,5.14583857 20.5833543,4.7625138 20.5833543,4.28823231 C20.5833543,3.81395082 20.9675836,3.43052554 21.4409605,3.43052554 L30.0174252,3.43052554 C30.4908021,3.43052554 30.8750314,3.81395082 30.8750314,4.28823231 C30.8750314,4.7625138 30.4908021,5.14583857 30.0174252,5.14583857" id="Fill-6"></path>
                        <path d="M1.71531302,27.4445059 L22.2986673,27.4445059 L22.2986673,13.7222027 L1.71531302,13.7222027 L1.71531302,27.4445059 Z M23.1562736,29.1597184 L0.85760626,29.1597184 C0.384229313,29.1597184 0,28.7763936 0,28.3021121 L0,12.8645964 C0,12.3903149 0.384229313,12.0069902 0.85760626,12.0069902 L23.1562736,12.0069902 C23.6296505,12.0069902 24.0138798,12.3903149 24.0138798,12.8645964 L24.0138798,28.3021121 C24.0138798,28.7763936 23.6296505,29.1597184 23.1562736,29.1597184 Z" id="Fill-8"></path>
                        <path d="M30.2961246,24.0138798 C29.6691765,24.0138798 29.1597184,24.5242425 29.1597184,25.150286 L29.1597184,36.5997768 C29.1597184,37.2258203 29.6691765,37.736183 30.2961246,37.736183 L48.606767,37.736183 C49.233715,37.736183 49.7430727,37.2258203 49.7430727,36.5997768 L49.7430727,25.150286 C49.7430727,24.5242425 49.233715,24.0138798 48.606767,24.0138798 L30.2961246,24.0138798 Z M48.606767,39.4513955 L30.2961246,39.4513955 C28.7232267,39.4513955 27.4445059,38.1726747 27.4445059,36.5997768 L27.4445059,25.150286 C27.4445059,23.5773881 28.7232267,22.2986673 30.2961246,22.2986673 L48.606767,22.2986673 C50.1796649,22.2986673 51.4583857,23.5773881 51.4583857,25.150286 L51.4583857,36.5997768 C51.4583857,38.1726747 50.1796649,39.4513955 48.606767,39.4513955 Z" id="Fill-10"></path>
                        <path d="M12.0069902,18.010435 C10.5884674,18.010435 9.43407088,19.1648315 9.43407088,20.5833543 C9.43407088,22.001877 10.5884674,23.1562736 12.0069902,23.1562736 C13.4255129,23.1562736 14.5799094,22.001877 14.5799094,20.5833543 C14.5799094,19.1648315 13.4255129,18.010435 12.0069902,18.010435 Z M12.0069902,24.8715866 C9.64241704,24.8715866 7.71875785,22.9478269 7.71875785,20.5833543 C7.71875785,18.2188817 9.64241704,16.295122 12.0069902,16.295122 C14.3714628,16.295122 16.295122,18.2188817 16.295122,20.5833543 C16.295122,22.9478269 14.3714628,24.8715866 12.0069902,24.8715866 Z" id="Fill-11"></path>
                        <path d="M1.71531302,13.7222027 L1.71531302,17.0661937 C3.3928363,16.7248799 4.71788973,15.3998265 5.06010809,13.7222027 L1.71531302,13.7222027 Z M0.85760626,18.8680413 C0.384229313,18.8680413 0,18.4847165 0,18.010435 L0,12.8645964 C0,12.3903149 0.384229313,12.0069902 0.85760626,12.0069902 L6.00344483,12.0069902 C6.47692228,12.0069902 6.86115159,12.3903149 6.86115159,12.8645964 C6.86115159,16.1742149 4.16812924,18.8680413 0.85760626,18.8680413 Z" id="Fill-13"></path>
                        <path d="M18.9538722,13.7222027 C19.2959901,15.3998265 20.6210435,16.7248799 22.2986673,17.0661937 L22.2986673,13.7222027 L18.9538722,13.7222027 Z M23.1562736,18.8680413 C19.8457506,18.8680413 17.1528287,16.1742149 17.1528287,12.8645964 C17.1528287,12.3903149 17.537058,12.0069902 18.010435,12.0069902 L23.1562736,12.0069902 C23.6296505,12.0069902 24.0138798,12.3903149 24.0138798,12.8645964 L24.0138798,18.010435 C24.0138798,18.4847165 23.6296505,18.8680413 23.1562736,18.8680413 Z" id="Fill-15"></path>
                        <path d="M18.9538722,27.4445059 L22.2986673,27.4445059 L22.2986673,24.1005148 C20.6210435,24.4418287 19.2959901,25.7668821 18.9538722,27.4445059 Z M23.1562736,29.1597184 L18.010435,29.1597184 C17.537058,29.1597184 17.1528287,28.7763936 17.1528287,28.3021121 C17.1528287,24.9924937 19.8457506,22.2986673 23.1562736,22.2986673 C23.6296505,22.2986673 24.0138798,22.6819921 24.0138798,23.1562736 L24.0138798,28.3021121 C24.0138798,28.7763936 23.6296505,29.1597184 23.1562736,29.1597184 Z" id="Fill-16"></path>
                        <path d="M1.71531302,27.4445059 L5.06010809,27.4445059 C4.71788973,25.7668821 3.3928363,24.4418287 1.71531302,24.1005148 L1.71531302,27.4445059 Z M6.00344483,29.1597184 L0.85760626,29.1597184 C0.384229313,29.1597184 0,28.7763936 0,28.3021121 L0,23.1562736 C0,22.6819921 0.384229313,22.2986673 0.85760626,22.2986673 C4.16812924,22.2986673 6.86115159,24.9924937 6.86115159,28.3021121 C6.86115159,28.7763936 6.47692228,29.1597184 6.00344483,29.1597184 Z" id="Fill-18"></path>
                        <path d="M29.1597184,27.4445059 L49.7430727,27.4445059 L49.7430727,25.150286 C49.7430727,24.5242425 49.233715,24.0138798 48.606767,24.0138798 L30.2961246,24.0138798 C29.6691765,24.0138798 29.1597184,24.5242425 29.1597184,25.150286 L29.1597184,27.4445059 Z M50.6007794,29.1597184 L28.3021121,29.1597184 C27.8287352,29.1597184 27.4445059,28.7763936 27.4445059,28.3021121 L27.4445059,25.150286 C27.4445059,23.5773881 28.7232267,22.2986673 30.2961246,22.2986673 L48.606767,22.2986673 C50.1796649,22.2986673 51.4583857,23.5773881 51.4583857,25.150286 L51.4583857,28.3021121 C51.4583857,28.7763936 51.0741564,29.1597184 50.6007794,29.1597184 Z" id="Fill-20"></path>
                        <path d="M35.1632637,35.1632637 L31.7326377,35.1632637 C31.2592607,35.1632637 30.8750314,34.7798384 30.8750314,34.305557 C30.8750314,33.8312755 31.2592607,33.4479507 31.7326377,33.4479507 L35.1632637,33.4479507 C35.6366407,33.4479507 36.02087,33.8312755 36.02087,34.305557 C36.02087,34.7798384 35.6366407,35.1632637 35.1632637,35.1632637" id="Fill-21"></path>
                        <path d="M47.1701534,35.1632637 L43.7396278,35.1632637 C43.2662509,35.1632637 42.8820216,34.7798384 42.8820216,34.305557 C42.8820216,33.8312755 43.2662509,33.4479507 43.7396278,33.4479507 L47.1701534,33.4479507 C47.6436308,33.4479507 48.0278601,33.8312755 48.0278601,34.305557 C48.0278601,34.7798384 47.6436308,35.1632637 47.1701534,35.1632637" id="Fill-22"></path>
                        <path d="M40.3091023,35.1632637 L38.5937893,35.1632637 C38.1204123,35.1632637 37.736183,34.7798384 37.736183,34.305557 C37.736183,33.8312755 38.1204123,33.4479507 38.5937893,33.4479507 L40.3091023,33.4479507 C40.7824792,33.4479507 41.1667086,33.8312755 41.1667086,34.305557 C41.1667086,34.7798384 40.7824792,35.1632637 40.3091023,35.1632637" id="Fill-23"></path>
                        <path d="M12.0069902,42.8820216 L39.4513955,42.8820216 L39.4513955,39.4513955 L30.2961246,39.4513955 C28.7240307,39.4513955 27.4445059,38.1726747 27.4445059,36.5997768 L27.4445059,25.150286 C27.4445059,23.5773881 28.7240307,22.2986673 30.2961246,22.2986673 L39.4513955,22.2986673 L39.4513955,8.57636411 L12.0069902,8.57636411 L12.0069902,12.0069902 L23.1562736,12.0069902 C23.6296505,12.0069902 24.0138798,12.3903149 24.0138798,12.8645964 L24.0138798,28.3021121 C24.0138798,28.7763936 23.6296505,29.1597184 23.1562736,29.1597184 L12.0069902,29.1597184 L12.0069902,42.8820216 Z M40.3091023,44.5972341 L11.1492834,44.5972341 C10.6759065,44.5972341 10.2916771,44.2139093 10.2916771,43.7396278 L10.2916771,28.3021121 C10.2916771,27.8278306 10.6759065,27.4445059 11.1492834,27.4445059 L22.2986673,27.4445059 L22.2986673,13.7222027 L11.1492834,13.7222027 C10.6759065,13.7222027 10.2916771,13.3388779 10.2916771,12.8645964 L10.2916771,7.71875785 C10.2916771,7.24447636 10.6759065,6.86115159 11.1492834,6.86115159 L40.3091023,6.86115159 C40.7824792,6.86115159 41.1667086,7.24447636 41.1667086,7.71875785 L41.1667086,23.1562736 C41.1667086,23.630555 40.7824792,24.0138798 40.3091023,24.0138798 L30.2961246,24.0138798 C29.6691765,24.0138798 29.1597184,24.5242425 29.1597184,25.150286 L29.1597184,36.5997768 C29.1597184,37.2258203 29.6691765,37.736183 30.2961246,37.736183 L40.3091023,37.736183 C40.7824792,37.736183 41.1667086,38.1195078 41.1667086,38.5937893 L41.1667086,43.7396278 C41.1667086,44.2139093 40.7824792,44.5972341 40.3091023,44.5972341 Z" id="Fill-24"></path>
                        <path d="M5.14583857,41.1667086 C4.67246162,41.1667086 4.28823231,40.7833838 4.28823231,40.3091023 L4.28823231,32.5903444 C4.28823231,32.1160629 4.67246162,31.7326377 5.14583857,31.7326377 C5.61921552,31.7326377 6.00344483,32.1160629 6.00344483,32.5903444 L6.00344483,40.3091023 C6.00344483,40.7833838 5.61921552,41.1667086 5.14583857,41.1667086" id="Fill-25"></path>
                        <path d="M2.57291928,36.02087 C2.35341711,36.02087 2.13381443,35.9368481 1.96657467,35.7696083 C1.63119062,35.4342243 1.63119062,34.8922027 1.96657467,34.5569191 L4.53949396,31.9839998 C4.87397346,31.6486158 5.41770367,31.6486158 5.75218318,31.9839998 C6.08756723,32.3192834 6.08756723,32.861305 5.75218318,33.196689 L3.1792639,35.7696083 C3.01202414,35.9368481 2.79252197,36.02087 2.57291928,36.02087" id="Fill-26"></path>
                        <path d="M7.71875785,36.02087 C7.49925568,36.02087 7.279653,35.9368481 7.11241324,35.7696083 L4.53949396,33.196689 C4.20410991,32.861305 4.20410991,32.3192834 4.53949396,31.9839998 C4.87397346,31.6486158 5.41770367,31.6486158 5.75218318,31.9839998 L8.32510246,34.5569191 C8.66048651,34.8922027 8.66048651,35.4342243 8.32510246,35.7696083 C8.15786271,35.9368481 7.93826003,36.02087 7.71875785,36.02087" id="Fill-27"></path>
                        <path d="M46.3125471,19.725748 C45.8391702,19.725748 45.4549409,19.3423227 45.4549409,18.8680413 L45.4549409,11.1492834 C45.4549409,10.6750019 45.8391702,10.2916771 46.3125471,10.2916771 C46.7859241,10.2916771 47.1701534,10.6750019 47.1701534,11.1492834 L47.1701534,18.8680413 C47.1701534,19.3423227 46.7859241,19.725748 46.3125471,19.725748" id="Fill-28"></path>
                        <path d="M46.3125471,19.725748 C46.0929444,19.725748 45.8734423,19.6416256 45.7062025,19.4743859 C45.3708185,19.1391023 45.3708185,18.5970807 45.7062025,18.2616966 L48.2791218,15.6887774 C48.6136013,15.3534938 49.1573315,15.3534938 49.491811,15.6887774 C49.8271951,16.0241614 49.8271951,16.566183 49.491811,16.9014666 L46.9188917,19.4743859 C46.751652,19.6416256 46.5321498,19.725748 46.3125471,19.725748" id="Fill-29"></path>
                        <path d="M46.3125471,19.725748 C46.0929444,19.725748 45.8734423,19.6416256 45.7062025,19.4743859 L43.1332832,16.9014666 C42.7978992,16.566183 42.7978992,16.0241614 43.1332832,15.6887774 C43.4677627,15.3534938 44.0114929,15.3534938 44.3459724,15.6887774 L46.9188917,18.2616966 C47.2542758,18.5970807 47.2542758,19.1391023 46.9188917,19.4743859 C46.751652,19.6416256 46.5321498,19.725748 46.3125471,19.725748" id="Fill-30"></path>
                    </g>
                </g>
            </g>
        </g>
    </g>
</svg>