<?xml version="1.0" encoding="utf-8"?>
<!-- Generator: Adobe Illustrator 22.0.1, SVG Export Plug-In . SVG Version: 6.00 Build 0)  -->
<svg version="1.1" id="elvn-1" xmlns="http://www.w3.org/2000/svg" xmlns:xlink="http://www.w3.org/1999/xlink" x="0px" y="0px"
	 viewBox="0 0 200 200" style="enable-background:new 0 0 200 200;" xml:space="preserve">
<style type="text/css">
	.st0{fill:#2F3D7F;}
</style>
<g id="home">
	<g id="Home" transform="translate(-469.000000, -2087.000000)">
		<g id="icon-parity" transform="translate(469.000000, 2087.000000)">
			<path id="Fill-1" class="st0" d="M163.3,93.2c0.4-1.9,0.3-3.9,0.2-5.8c-0.5-6.5-2.9-12.1-8.2-16.3c-3-2.4-6.4-4-10.2-5.1
				c-3.1-0.8-6.2-1.1-9.2-0.7c-4.5,0.5-8.7,1.9-12.4,4.8c-5.2,4.2-9.1,9.3-13,14.5c-4.2,5.5-7.6,11.5-11.5,17.3
				c-3.8,5.7-7.6,11.3-11.5,16.9c-4.1,5.8-8.1,11.6-13.4,16.6c-0.3,0.3-0.5,0.5-0.9,0.1s-0.1-0.6,0.2-0.8c3.6-3.7,6.2-8,8.7-12.4
				c3.3-6,6.6-12,9.7-18.1c3.4-6.4,6.6-12.9,9.9-19.3c2.4-4.6,5.1-9.1,8-13.4c2.8-4.1,5.8-8.1,9.7-11.4c2.6-2.2,5.6-3.5,8.8-4.5
				c3.2-0.9,6.5-1.4,9.8-1.4c3.9,0.1,7.6,0.8,11.2,2.2c5.2,1.9,9.7,4.8,13.3,8.8c2.9,3.2,5,6.9,6.4,11c1.5,4.5,1.8,9.1,1.3,13.8
				c-0.5,5.7-2.6,10.8-6.2,15.5c-4,5.2-9.2,8.8-15.2,11.4c-2.9,1.3-6.1,2-9.3,2.5c-3.5,0.5-7.1,0.6-10.6,0.2
				c-2.8-0.3-5.6-0.9-8.3-1.6c-3.3-0.9-6.5-2.1-9.7-3.4c-0.3-0.1-0.4-0.3-0.4-0.6c0-0.4,0.4-0.3,0.6-0.3c1.4,0.4,2.7,0.7,4,1.1
				c2.2,0.7,4.5,1.2,6.8,1.7c3.7,0.9,7.4,1.6,11.2,1.3c9.2-0.5,17.2-3.4,23.2-10.6c2.5-3,4.4-6.4,5.7-10
				C162.7,95.9,162.9,94.5,163.3,93.2"/>
			<path id="Fill-4" class="st0" d="M50.2,135.4c-1.6,0.1-3.2,0.1-4.9-0.1c-3.5-0.4-6.8-1.5-9.8-3.2c-3.9-2.3-6.9-5.4-9.4-9
				c-0.2-0.3-0.2-0.5,0.1-0.7c0.3-0.2,0.6-0.1,0.8,0.1c1.7,2,3.6,3.9,5.7,5.5c2.6,2,5.4,3.6,8.8,4.1c7.5,1.2,13.3-1.4,18.2-6.7
				c3.8-4,7-8.5,10-13c3.9-5.9,7.3-12.1,10.9-18.2c3-5.2,6-10.4,9.4-15.5c3.3-5,6.8-9.8,11.3-13.8c3.8-3.4,8.2-5.9,13.3-7.3
				c1.6-0.4,3.1-0.8,4.7-0.9c0.3,0,0.6-0.1,0.7,0.3c0.1,0.3-0.1,0.5-0.4,0.7c-6,2.9-10.5,7.4-14.5,12.5c-5.2,6.6-9.5,13.8-13.9,21
				c-3.8,6.1-7.6,12.2-11.5,18.3c-2.9,4.6-6.2,9.1-9.7,13.3c-2.6,3-5.1,6.2-8.6,8.3c-2.6,1.6-5.4,2.8-8.5,3.6
				C52.1,135,51.2,135.2,50.2,135.4"/>
			<path id="Fill-6" class="st0" d="M152.1,92.5c-0.2-6.4-2.9-11.5-7.9-15.6c-3-2.5-6.5-4-10.2-5.1c-1-0.3-2-0.4-3-0.6
				c-0.2-0.1-0.5-0.3-0.6-0.5c0-0.1,0.3-0.5,0.5-0.5c3.9-1,7.9-1.5,11.8-0.3c5.5,1.6,9.7,4.8,12,10.1c1.2,2.9,1.6,6,0.9,9
				c-0.4,1.8-1.2,3.5-2.4,5c-0.2,0.2-0.4,0.5-0.8,0.4c-0.3-0.1-0.3-0.4-0.3-0.7C152.1,93.2,152,92.9,152.1,92.5"/>
			<path id="Fill-8" class="st0" d="M133.2,129c-1.3,0.3-3.5,0.2-5.7,0.1c-3.4-0.2-6.7-0.8-9.9-1.9c-4.6-1.5-8.8-3.8-12.9-6.4
				c-0.7-0.5-1.5-1-2.2-1.5c-0.2-0.1-0.5-0.3-0.2-0.6c0.2-0.2,0.4-0.4,0.8-0.2c3.3,1.9,6.7,3.8,10.2,5.3c2.6,1.1,5.2,1.9,8,2.5
				c3.5,0.7,7,1,10.5,0.8c2.9-0.2,5.8-0.7,8.6-1.6c4.6-1.4,8.7-3.7,12.6-6.3c0.4-0.3,0.8-1,1.3-0.4s-0.4,1-0.8,1.3
				c-3.5,2.8-7.2,5.3-11.6,6.9C139.4,127.9,136.8,128.5,133.2,129"/>
		</g>
	</g>
</g>
</svg>
