<?xml version="1.0" encoding="utf-8"?>
<!-- Generator: Adobe Illustrator 22.0.1, SVG Export Plug-In . SVG Version: 6.00 Build 0)  -->
<svg version="1.1" id="elvn-1" xmlns="http://www.w3.org/2000/svg" xmlns:xlink="http://www.w3.org/1999/xlink" x="0px" y="0px"
	 viewBox="0 0 200 200" style="enable-background:new 0 0 200 200;" xml:space="preserve">
<style type="text/css">
	.st0{fill:#2F3D7F;}
</style>
<g id="home_1_">
	<g id="Home_1_" transform="translate(-624.000000, -2083.000000)">
		<g id="icon-exonum" transform="translate(624.000000, 2083.000000)">
			<path id="Fill-1_1_" class="st0" d="M73.7,66.8h-9.1c-6.2,0-10.8-2.9-14.2-8.1c-1.1-1.7-2.1-3.4-3-5.2c-1.3-2.4-0.7-3.6,2.1-3.6
				c9.8,0,19.5,0,29.3,0c14.4,0,28.8,0,43.1,0c5.3,0,9.3,2.2,12,6.9c1.5,2.5,2.8,5,4.3,7.5c0.9,1.6,1,3.1,0.1,4.8
				c-2.1,3.7-4.3,7.6-6.4,11.4c-1.2,2.1-2.7,2.1-3.9,0c-1.9-3.2-3.7-6.3-5.4-9.6c-1.4-2.6-3.6-3.9-6.5-3.9c-9.7,0-19.4,0-29.1,0
				c-2.8,0-4.9,1.2-6.3,3.8c-4.7,8.3-9.3,16.7-14.2,24.9c-1.8,3.1-1.8,5.9,0,8.9c4.8,8.2,9.5,16.5,14.2,24.8
				c1.5,2.6,3.7,3.8,6.5,3.8c9.5,0,19.1,0,28.7,0c3,0,5.2-1.2,6.7-3.9c1.7-3.2,3.5-6.2,5.3-9.4c1.3-2.2,2.8-2.2,4.1,0
				c2.1,3.6,4.1,7.3,6.2,10.8c1,1.8,1.1,3.4,0.1,5.3c-1.6,2.6-3,5.3-4.6,7.9c-2.6,4.2-6.3,6.3-11.3,6.3c-13.9,0-27.7,0-41.6,0
				c-4.9,0-8.9-2.1-11.3-6.3c-7.3-12.5-14.4-25.1-21.3-37.7c-2.2-4-2.1-8.4,0-12.4c3.6-6.7,7.5-13.2,11.2-19.8
				c1.4-2.4,3.5-3.8,6.2-4.6c2.7-0.7,5.5-1.6,8.2-2.3C73.7,66.9,73.7,66.8,73.7,66.8"/>
			<path id="Fill-4_1_" class="st0" d="M97.5,88.2c2.4,0,4.8,0,7.2,0c5.9,0.1,10.3,2.7,13.6,7.6c1.3,1.9,2.3,3.9,3.4,6
				s0.5,3.4-1.9,3.4c-5.7,0-11.4,0.2-17-0.1c-5.3-0.3-9.5-2.9-12.5-7.4c-1.3-2.1-2.5-4.2-3.6-6.2c-1-2-0.4-3.2,2-3.2
				C91.6,88.2,94.6,88.2,97.5,88.2"/>
			<path id="Fill-6_1_" class="st0" d="M139.8,100c0-0.8,0.4-1.6,0.7-2.3c2.1-3.6,4.1-7.4,6.2-11c1.4-2.5,2.9-2.5,4.4,0
				c2.1,3.6,4.2,7.4,6.2,11c0.8,1.5,0.8,3,0,4.6c-2.1,3.7-4.2,7.5-6.3,11.2c-1.3,2.3-2.8,2.3-4.1,0.1c-2.2-3.7-4.3-7.5-6.4-11.4
				C140,101.5,139.8,100.8,139.8,100"/>
		</g>
	</g>
</g>
</svg>
