<?xml version="1.0" encoding="UTF-8"?>
<svg width="86px" height="87px" viewBox="0 0 86 87" version="1.1" xmlns="http://www.w3.org/2000/svg" xmlns:xlink="http://www.w3.org/1999/xlink">
    <!-- Generator: Sketch 51.3 (57544) - http://www.bohemiancoding.com/sketch -->
    <title>cubix-chain-smart-contract-creator-editor</title>
    <desc>Created with Sketch.</desc>
    <defs></defs>
    <g id="Page-1" stroke="none" stroke-width="1" fill="none" fill-rule="evenodd">
        <g id="cubix-commerce-copy-2" transform="translate(-266.000000, -1406.000000)">
            <g id="cubix-chain-smart-contract-creator-editor" transform="translate(266.000000, 1404.000000)">
                <g id="Employees" transform="translate(0.000000, 0.655997)">
                    <g id="Group-31" transform="translate(0.000000, 0.882812)">
                        <circle id="Oval-6" fill="#41AEFD" fill-rule="nonzero" cx="43" cy="43.859375" r="43"></circle>
                        <g id="Drag-and-Drop" transform="translate(20.500000, 21.359375)" fill="#FFFFFF" stroke="#FFFFFF">
                            <g id="Group-20" transform="translate(0.124725, 0.124725)">
                                <g id="Group-28">
                                    <path d="M8.94918678,30.7695256 L8.16259602,30.7695256 C7.75877004,30.7695256 7.42911617,31.094601 7.42911617,31.498427 C7.42911617,31.9068315 7.75877004,32.2319068 8.16259602,32.2319068 L8.94918678,32.2319068 C9.35392847,32.2319068 9.67900381,31.9068315 9.67900381,31.498427 C9.67900381,31.094601 9.35392847,30.7695256 8.94918678,30.7695256 Z" id="Fill-1"></path>
                                    <path d="M5.02172724,30.7695256 L4.2387993,30.7695256 C3.83497332,30.7695256 3.50531945,31.094601 3.50531945,31.498427 C3.50531945,31.9068315 3.83497332,32.2319068 4.2387993,32.2319068 L5.02172724,32.2319068 C5.43013175,32.2319068 5.75520709,31.9068315 5.75520709,31.498427 C5.75520709,31.094601 5.43013175,30.7695256 5.02172724,30.7695256 Z" id="Fill-2"></path>
                                    <path d="M1.40194464,30.833625 C1.28381867,30.5799747 1.03016833,30.4004964 0.733479853,30.4004964 C0.328738162,30.4004964 0,30.7301503 0,31.1339763 L0,32.2319068 L1.09793052,32.2319068 C1.50267221,32.2319068 1.83141037,31.9068315 1.83141037,31.498427 C1.83141037,31.2017385 1.65651068,30.9480881 1.40194464,30.833625 Z" id="Fill-3"></path>
                                    <path d="M0.733479853,24.9346522 C1.13730584,24.9346522 1.46695971,24.605914 1.46695971,24.202088 L1.46695971,23.4328957 C1.46695971,23.028154 1.13730584,22.6994158 0.733479853,22.6994158 C0.328738162,22.6994158 0,23.028154 0,23.4328957 L0,24.202088 C0,24.605914 0.328738162,24.9346522 0.733479853,24.9346522 Z" id="Fill-4"></path>
                                    <path d="M0.733479853,21.0859433 C1.13730584,21.0859433 1.46695971,20.7572051 1.46695971,20.3533792 L1.46695971,19.580524 C1.46695971,19.1757823 1.13730584,18.8507069 0.733479853,18.8507069 C0.328738162,18.8507069 0,19.1757823 0,19.580524 L0,20.3533792 C0,20.7572051 0.328738162,21.0859433 0.733479853,21.0859433 Z" id="Fill-5"></path>
                                    <path d="M0.733479853,17.2335716 C1.13730584,17.2335716 1.46695971,16.9048334 1.46695971,16.5010074 L1.46695971,15.7318151 C1.46695971,15.3270734 1.13730584,14.9983352 0.733479853,14.9983352 C0.328738162,14.9983352 0,15.3270734 0,15.7318151 L0,16.5010074 C0,16.9048334 0.328738162,17.2335716 0.733479853,17.2335716 Z" id="Fill-6"></path>
                                    <path d="M0.733479853,5.68378209 C1.13730584,5.68378209 1.46695971,5.35504392 1.46695971,4.95030223 L1.46695971,4.17744706 C1.46695971,3.77362107 1.13730584,3.44854573 0.733479853,3.44854573 C0.328738162,3.44854573 0,3.77362107 0,4.17744706 L0,4.95030223 C0,5.35504392 0.328738162,5.68378209 0.733479853,5.68378209 Z" id="Fill-7"></path>
                                    <path d="M0.733479853,13.3848627 C1.13730584,13.3848627 1.46695971,13.0561245 1.46695971,12.6513828 L1.46695971,11.8794434 C1.46695971,11.4747017 1.13730584,11.1496263 0.733479853,11.1496263 C0.328738162,11.1496263 0,11.4747017 0,11.8794434 L0,12.6513828 C0,13.0561245 0.328738162,13.3848627 0.733479853,13.3848627 Z" id="Fill-8"></path>
                                    <path d="M0.733479853,9.53249098 C1.13730584,9.53249098 1.46695971,9.20741564 1.46695971,8.79901113 L1.46695971,8.03073448 C1.46695971,7.62599278 1.13730584,7.29725462 0.733479853,7.29725462 C0.328738162,7.29725462 0,7.62599278 0,8.03073448 L0,8.79901113 C0,9.20375282 0.328738162,9.53249098 0.733479853,9.53249098 Z" id="Fill-9"></path>
                                    <path d="M0.733479853,28.7879396 C1.13730584,28.7879396 1.46695971,28.4582857 1.46695971,28.0544598 L1.46695971,27.2816046 C1.46695971,26.8777786 1.13730584,26.5517876 0.733479853,26.5517876 C0.328738162,26.5517876 0,26.8777786 0,27.2816046 L0,28.0544598 C0,28.4582857 0.328738162,28.7879396 0.733479853,28.7879396 Z" id="Fill-10"></path>
                                    <path d="M1.09793052,0 L0,0 L0,1.09793052 C0,1.50267221 0.328738162,1.83141037 0.733479853,1.83141037 C1.03016833,1.83141037 1.28381867,1.65651068 1.40194464,1.40194464 C1.65651068,1.28381867 1.83141037,1.03016833 1.83141037,0.733479853 C1.83141037,0.328738162 1.50267221,0 1.09793052,0 Z" id="Fill-11"></path>
                                    <path d="M8.03073448,1.46695971 L8.79901113,1.46695971 C9.20741564,1.46695971 9.53249098,1.13730584 9.53249098,0.733479853 C9.53249098,0.328738162 9.20741564,0 8.79901113,0 L8.03073448,0 C7.62599278,0 7.29725462,0.328738162 7.29725462,0.733479853 C7.29725462,1.13730584 7.62599278,1.46695971 8.03073448,1.46695971 Z" id="Fill-12"></path>
                                    <path d="M15.7318151,1.46695971 L16.5010074,1.46695971 C16.9084962,1.46695971 17.2335716,1.13730584 17.2335716,0.733479853 C17.2335716,0.328738162 16.9084962,0 16.5010074,0 L15.7318151,0 C15.3270734,0 14.9983352,0.328738162 14.9983352,0.733479853 C14.9983352,1.13730584 15.3270734,1.46695971 15.7318151,1.46695971 Z" id="Fill-13"></path>
                                    <path d="M23.4328957,1.46695971 L24.202088,1.46695971 C24.605914,1.46695971 24.9346522,1.13730584 24.9346522,0.733479853 C24.9346522,0.328738162 24.605914,0 24.202088,0 L23.4328957,0 C23.028154,0 22.6994158,0.328738162 22.6994158,0.733479853 C22.6994158,1.13730584 23.028154,1.46695971 23.4328957,1.46695971 Z" id="Fill-14"></path>
                                    <path d="M19.580524,1.46695971 L20.3533792,1.46695971 C20.7572051,1.46695971 21.0859433,1.13730584 21.0859433,0.733479853 C21.0859433,0.328738162 20.7572051,0 20.3533792,0 L19.580524,0 C19.1757823,0 18.8507069,0.328738162 18.8507069,0.733479853 C18.8507069,1.13730584 19.1757823,1.46695971 19.580524,1.46695971 Z" id="Fill-15"></path>
                                    <path d="M27.2816046,1.46695971 L28.0544598,1.46695971 C28.4582857,1.46695971 28.7879396,1.13730584 28.7879396,0.733479853 C28.7879396,0.328738162 28.4582857,0 28.0544598,0 L27.2816046,0 C26.8777786,0 26.5517876,0.328738162 26.5517876,0.733479853 C26.5517876,1.13730584 26.8777786,1.46695971 27.2816046,1.46695971 Z" id="Fill-16"></path>
                                    <path d="M4.17744706,1.46695971 L4.95030223,1.46695971 C5.35504392,1.46695971 5.68378209,1.13730584 5.68378209,0.733479853 C5.68378209,0.328738162 5.35504392,0 4.95030223,0 L4.17744706,0 C3.77362107,0 3.44854573,0.328738162 3.44854573,0.733479853 C3.44854573,1.13730584 3.77362107,1.46695971 4.17744706,1.46695971 Z" id="Fill-17"></path>
                                    <path d="M11.8794434,1.46695971 L12.6513828,1.46695971 C13.0561245,1.46695971 13.3848627,1.13730584 13.3848627,0.733479853 C13.3848627,0.328738162 13.0561245,0 12.6513828,0 L11.8794434,0 C11.4747017,0 11.1496263,0.328738162 11.1496263,0.733479853 C11.1496263,1.13730584 11.4747017,1.46695971 11.8794434,1.46695971 Z" id="Fill-18"></path>
                                    <path d="M30.833625,1.40194464 C30.9480881,1.65651068 31.2017385,1.83141037 31.498427,1.83141037 C31.9068315,1.83141037 32.2319068,1.50267221 32.2319068,1.09793052 L32.2319068,0 L31.1339763,0 C30.7301503,0 30.4004964,0.328738162 30.4004964,0.733479853 C30.4004964,1.03016833 30.5799747,1.28381867 30.833625,1.40194464 Z" id="Fill-19"></path>
                                    <path d="M32.2319068,4.2387993 C32.2319068,3.83497332 31.9068315,3.50531945 31.498427,3.50531945 C31.094601,3.50531945 30.7695256,3.83497332 30.7695256,4.2387993 L30.7695256,5.02172724 C30.7695256,5.43013175 31.094601,5.75520709 31.498427,5.75520709 C31.9068315,5.75520709 32.2319068,5.43013175 32.2319068,5.02172724 L32.2319068,4.2387993 Z" id="Fill-20"></path>
                                    <path d="M31.498427,7.42911617 C31.094601,7.42911617 30.7695256,7.75877004 30.7695256,8.16259602 L30.7695256,8.94918678 C30.7695256,9.35392847 31.094601,9.67900381 31.498427,9.67900381 C31.9068315,9.67900381 32.2319068,9.35392847 32.2319068,8.94918678 L32.2319068,8.16259602 C32.2319068,7.75877004 31.9068315,7.42911617 31.498427,7.42911617 Z" id="Fill-21"></path>
                                    <path d="M32.1211065,11.7219421 C31.9929078,11.5067514 31.7703914,11.3529129 31.498427,11.3529129 C31.2301253,11.3529129 31.0085247,11.5067514 30.880326,11.7219421 L30.7695256,11.7219421 L30.7695256,30.7695256 L11.7219421,30.7695256 L11.7219421,30.880326 C11.5067514,31.0085247 11.3529129,31.2301253 11.3529129,31.498427 C11.3529129,31.7667286 11.5067514,31.9929078 11.7219421,32.1211065 L11.7219421,43.9538489 L43.9538489,43.9538489 L43.9538489,11.7219421 L32.1211065,11.7219421 Z M42.4868892,42.4868892 L13.1843233,42.4868892 L13.1843233,32.2319068 L32.2319068,32.2319068 L32.2319068,13.1843233 L42.4868892,13.1843233 L42.4868892,42.4868892 Z" id="Fill-23"></path>
                                </g>
                            </g>
                        </g>
                    </g>
                </g>
            </g>
        </g>
    </g>
</svg>