<?xml version="1.0" encoding="UTF-8"?>
<svg width="71px" height="71px" viewBox="0 0 71 71" version="1.1" xmlns="http://www.w3.org/2000/svg" xmlns:xlink="http://www.w3.org/1999/xlink">
    <!-- Generator: Sketch 51.3 (57544) - http://www.bohemiancoding.com/sketch -->
    <title>Group 23</title>
    <desc>Created with Sketch.</desc>
    <defs></defs>
    <g id="Page-1" stroke="none" stroke-width="1" fill="none" fill-rule="evenodd">
        <g id="cubix-chain" transform="translate(-811.000000, -2426.000000)">
            <g id="Group-6-Copy-2" transform="translate(799.034180, 2414.850405)">
                <g id="leaderboard" transform="translate(0.000000, 0.111372)">
                    <g id="Group-23" transform="translate(12.000000, 11.000000)">
                        <g id="Group-11">
                            <circle id="Oval-6" fill="#41AEFD" cx="35" cy="35.8640062" r="35"></circle>
                            <g id="Group-16" transform="translate(15.671943, 14.632950)" fill="#FFFFFF" fill-rule="nonzero" stroke="#FFFFFF" stroke-width="0.2">
                                <path d="M13.6406993,4.25931761 C14.1522605,4.25931761 14.5669628,4.67401989 14.5669628,5.18558108 C14.5669628,5.69714227 14.1522605,6.11184455 13.6406993,6.11184455 L5.50783328,6.11184392 C3.48993146,6.11420934 1.8548425,7.74926784 1.85257635,9.7660157 L1.85257576,33.6378724 C1.85484256,35.6556152 3.49000936,37.2908429 5.5067475,37.2932076 L31.2107081,37.2932082 C33.2285243,37.2908429 34.8637238,35.655613 34.8660886,33.638913 L34.8660886,25.5049611 C34.8660886,24.9933999 35.2807908,24.5786977 35.792352,24.5786977 C36.3039132,24.5786977 36.7186155,24.9933999 36.7186155,25.5049611 L36.7186149,33.6399988 C36.7150521,36.6792029 34.2521296,39.1421713 31.2117939,39.1457346 L5.50566172,39.1457339 C2.4663813,39.1421712 0.00346432635,36.6791625 4.94007186e-05,33.638913 L4.9985178e-05,9.76497516 C0.0034642368,6.72569743 2.46632654,4.26288101 5.5067475,4.25931761 L13.6406993,4.25931761 Z" id="Stroke-1"></path>
                                <path d="M15.0529619,20.7941403 L18.6376454,24.3788238 L32.5046212,10.5113968 L28.9200505,6.9268261 L15.0529619,20.7941403 Z M28.9200398,4.30694671 L35.1244686,10.5113754 L18.6376668,26.9987139 L12.4331039,20.794151 L28.9200398,4.30694671 Z" id="Stroke-3"></path>
                                <path d="M8.70205765,30.7297194 L11.0612035,22.2125263 L17.2192508,28.3705736 L8.70205765,30.7297194 Z M11.3607598,28.0710173 L13.662324,27.4335155 L11.9982615,25.7694531 L11.3607598,28.0710173 Z" id="Stroke-5"></path>
                                <path d="M37.180381,1.03003506 L38.401684,2.25133783 C39.775731,3.62823207 39.775731,5.85802889 38.4011165,7.23515634 L36.6437393,8.99312424 L30.4392613,2.78802 L31.0941954,2.13308587 L32.1972871,1.02999527 C33.5741378,-0.343338388 35.8036578,-0.343338388 37.180381,1.03003506 Z M33.5063833,2.3407667 L33.0590639,2.7880861 L36.6435854,6.37296938 L37.0904742,5.92593052 C37.742765,5.27244701 37.742765,4.21363799 37.0910721,3.56059395 L35.8716868,2.3412086 C35.2180118,1.68950799 34.1591923,1.68962631 33.5063833,2.3407667 Z" id="Stroke-7"></path>
                            </g>
                        </g>
                        <g id="Group-9" transform="translate(15.211914, 13.702286)">
                            <g id="Group-14" transform="translate(0.460029, 0.930664)"></g>
                        </g>
                    </g>
                </g>
            </g>
        </g>
    </g>
</svg>