<?xml version="1.0" encoding="utf-8"?>
<!-- Generator: Adobe Illustrator 22.0.1, SVG Export Plug-In . SVG Version: 6.00 Build 0)  -->
<svg version="1.1" id="elvn-1" xmlns="http://www.w3.org/2000/svg" xmlns:xlink="http://www.w3.org/1999/xlink" x="0px" y="0px"
	 viewBox="0 0 200 200" style="enable-background:new 0 0 200 200;" xml:space="preserve">
<style type="text/css">
	.st0{fill:#2F3D7F;}
</style>
<g>
	<path id="Fill-1_1_" class="st0" d="M150.4,86.1c0,0.3-0.3,0.4-0.5,0.5c-2.6,1.5-5.2,3-7.8,4.4c-5.5,3.2-11.2,6.4-16.7,9.6
		c-6.3,3.6-12.5,7.2-18.8,10.7c-0.7,0.5-1.5,0.8-2.2,1.3c-0.4,0.3-0.7,0.3-1.2,0c-5.8-3.3-11.6-6.7-17.5-10.1
		C76.5,97.3,67.3,92,58.1,86.7c-0.9-0.6-0.8-0.4-0.4-1.2c4.5-7.3,9.1-14.6,13.6-21.9c5.8-9.1,11.5-18.2,17.1-27.3"/>
	<path id="Fill-3_1_" class="st0" d="M150.5,94.9c-0.8,1.1-1.6,2.1-2.3,3.1c-6.4,8.7-12.8,17.4-19.1,26.2c-5.8,8-11.6,16-17.6,23.9
		c-2.3,3.2-4.7,6.5-7,9.6c-0.5,0.6-0.5,0.6-0.9,0c-4.1-5.6-8.2-11.2-12.3-16.8c-4.7-6.5-9.5-12.9-14.2-19.4
		c-5.5-7.6-11.1-15.2-16.6-22.7c-0.8-1.2-1.7-2.3-2.6-3.5c-0.1-0.1-0.2-0.2-0.2-0.5c0.8,0.5,1.8,1,2.6,1.5c8,4.6,16.1,9.2,24.2,13.9
		c6.2,3.5,12.4,7,18.5,10.6c0.8,0.5,1.4,0.5,2.2,0c6.3-3.7,12.7-7.3,19-10.9c8.6-4.9,17.3-9.9,25.9-14.8
		C150.1,94.9,150.2,94.8,150.5,94.9"/>
</g>
</svg>
