<?xml version="1.0" encoding="utf-8"?>
<!-- Generator: Adobe Illustrator 22.0.1, SVG Export Plug-In . SVG Version: 6.00 Build 0)  -->
<svg version="1.1" id="elvn-1" xmlns="http://www.w3.org/2000/svg" xmlns:xlink="http://www.w3.org/1999/xlink" x="0px" y="0px"
	 viewBox="0 0 200 200" style="enable-background:new 0 0 200 200;" xml:space="preserve">
<style type="text/css">
	.st0{fill:#2F3D7F;}
</style>
<g id="home">
	<g id="Home" transform="translate(-915.000000, -2080.000000)">
		<g id="icon-multichain" transform="translate(915.000000, 2080.000000)">
			<path id="Fill-1" class="st0" d="M122.8,65.9c0-2.1-1.6-3.8-3.6-3.8c-2.5,0-4.1,1.6-4.1,3.8c0,2.1,1.6,3.8,3.7,3.8
				C121.1,69.7,122.8,68.1,122.8,65.9 M134.9,100.1c0,2.4,1.6,3.8,4.1,3.8c2.2,0,3.7-2,3.7-3.7c0.1-2.2-1.8-4.1-4-4
				C136.9,96.3,134.8,97.4,134.9,100.1 M59.7,103.9c2.6,0,3.7-1.4,3.7-4.6c0-1.6-1.9-3.2-4-3.2c-2.2,0-3.7,1.9-3.6,4.7
				C55.9,102.1,57.4,104.1,59.7,103.9 M75.5,65.9c0,2.3,1.6,3.9,3.9,3.9s4-1.7,4-3.9c0-2.1-1.8-3.9-3.7-3.9
				C77.2,61.8,75.5,63.5,75.5,65.9 M122.9,134.3c0.2-2.6-2.1-4-3.9-4c-2.1,0.1-3.9,1.5-4,4c0,1.8,1.4,4.1,4.6,3.9
				C121.3,138.2,122.9,136.3,122.9,134.3 M75.5,134.3c-0.1,1.9,1.6,4.2,4.6,3.9c1.6-0.1,3.5-2.1,3.5-3.9c0-2.1-1.9-4.1-3.9-4
				C77.5,130.3,75.4,131.9,75.5,134.3 M94.1,101.5c0.5,0.1,1-0.4,1.1-1.1c0.2-0.8-0.3-1.4-1-1.5c-1.8-0.2-3.6-0.3-5.4-0.4
				c-0.1,0-0.3,0-0.4,0c-2.2-0.3-4.3-0.6-6.5-0.4c-1.3,0.2-1.8,1.2-1.6,2.4c0.2,1.1,0.8,1.8,2,1.8c1.7,0,3.5-0.2,5.2-0.4
				C89.5,101.6,91.6,101.6,94.1,101.5 M115.4,102.2L115.4,102.2c0.3,0,0.5,0,0.8,0c1.2,0,2-1.2,1.8-2.6c-0.1-0.8-1.5-1.8-2.3-1.7
				c-2,0.3-4,0.5-6,0.6c-1.9,0.1-3.7,0.2-5.7,0.5c-0.7,0.1-1,0.6-1,1.3c0,0.6,0.4,1.2,1.1,1.3c1.5,0.2,2.9,0.3,4.4,0.5
				C110.9,101.9,113.1,102,115.4,102.2 M107.3,83.5c-0.1,0-0.4,0-0.6,0.2c-1.2,0.5-1.5,1.7-2,2.8c-1.4,2.7-2.7,5.5-4,8.3
				c-0.5,0.8-0.2,1.6,0.6,2c0.9,0.5,1.6,0,2-0.7c1.9-2.8,3.8-5.7,5.8-8.5c0.6-0.9,1.1-1.8,0.5-2.8C109.1,83.8,108.4,83.5,107.3,83.5
				 M90.9,83.5c-0.9,0-1.6,0.4-2.1,1.2c-0.5,0.7-0.4,1.6,0.2,2.3c2,3,4.1,6.1,6.2,9.1c0.5,0.7,1.2,1.3,2.1,0.6
				c0.6-0.5,1-1.1,0.5-1.8c-1.5-3-2.8-5.9-4.3-8.9C93,84.8,92.5,83.4,90.9,83.5 M88.5,114.2c0,1.6,1,2.6,2.3,2.6
				c1.6,0,2.1-1.2,2.6-2.4c1.4-2.9,2.8-5.8,4.3-8.7c0.6-1.3-0.1-2.5-1.5-2.4c-1,0.1-1.2,1.1-1.7,1.8c-1.4,1.9-2.6,3.8-3.9,5.8
				C89.8,112.1,88.9,113.1,88.5,114.2 M109.8,114.4c0.1-0.3-0.1-0.6-0.4-1c-2.1-3.2-4.3-6.4-6.5-9.5c-0.4-0.5-1-0.7-1.6-0.5
				c-0.7,0.4-1.2,0.9-0.8,1.7c1.6,3.3,3.2,6.7,4.7,10c0.6,1.5,1.7,2,3.2,1.4C109.3,116.2,109.8,115.5,109.8,114.4 M74.1,102.8
				c0.6,0.1,1.1,0,1.6-0.2c1.1-0.3,1.9-2.6,1.5-3.6c-0.7-1.6-2-1.7-3.5-1.8c-0.7-0.1-1.4,0.1-2.1-0.1c-1-0.2-2.1-0.3-3,0.2
				c-1.4,0.8-2,1.9-1.6,3.7c0.4,1.3,1.9,2.6,3.2,2.3C71.5,102.9,72.9,103.3,74.1,102.8 M125.5,97.2c-1,0-1.9,0.1-2.8,0.5
				c-1.2,0.5-1.6,1.6-1.4,2.8c0.1,0.8,0.5,1.6,1.4,1.9c2.1,0.7,4.3,0.7,6.5,0.6c1.6-0.1,2.6-1.6,2.5-3.5c-0.1-1.3-1.6-2.6-2.8-2.6
				C127.6,97,126.5,97.1,125.5,97.2 M108.8,78.3c0,1.8,0.8,2.8,2.7,3.2c1,0.2,1.9-0.4,2.5-1.3c0.6-1.1,1.4-2.1,2.1-3.1
				c0.8-1.2,1.2-2.5,0.5-3.7c-0.6-1.1-1.6-1.7-2.9-1.6s-2.3,0.8-2.7,2.1C110.2,75.4,109.1,76.8,108.8,78.3 M81.6,125.5
				c0,1.4,1,2.7,2.2,2.8c1.8,0.2,3.1-0.5,3.8-2.2c0.6-1.6,2.1-3.1,1.9-5c-0.1-1.3-0.9-2.1-2.1-2.4c-0.8-0.3-1.7-0.1-2.4,0.5
				c-0.5,0.6-1.1,1.3-1.6,2C82.8,122.6,81.5,123.6,81.6,125.5 M113.8,128.4c1.6-0.1,2.7-0.8,3.1-2.6c0.2-0.7,0-1.4-0.3-1.8
				c-0.8-1.4-1.7-2.6-2.6-3.8c-0.9-1.3-2.1-1.7-3.6-1.2c-1.2,0.5-1.7,1.5-1.6,2.7c0.2,1.7,1.4,3.1,2,4.7
				C111.4,127.6,112.3,128.5,113.8,128.4 M81.6,74.9c-0.3,1.5,0.8,2.4,1.6,3.4c1.1,1.6,1.7,3.7,4.3,3.2c0.9-0.2,2.2-1.4,2.2-2.4
				c0-2.2-1.5-3.8-2.3-5.7c-0.6-1.5-2.1-2-3.8-1.4C82.3,72.3,81.4,73.3,81.6,74.9 M106.1,152.3c-16.2,1.6-29.7-2.6-41.2-12.4
				c-9-7.7-14.8-17.4-17.2-29C44.3,94.2,48.5,79.1,59.3,66c7.9-9.6,18.3-15.4,30.6-17.7c16.2-2.9,30.7,1.2,43.4,11.6
				c8.9,7.4,14.8,17,17.3,28.4c3.4,15.2,0.6,29.3-8.4,42.1C133,143.2,120.4,150.2,106.1,152.3"/>
		</g>
	</g>
</g>
</svg>
