<?xml version="1.0" encoding="utf-8"?>
<!-- Generator: Adobe Illustrator 22.0.1, SVG Export Plug-In . SVG Version: 6.00 Build 0)  -->
<svg version="1.1" id="Layer_1" xmlns="http://www.w3.org/2000/svg" xmlns:xlink="http://www.w3.org/1999/xlink" x="0px" y="0px"
	 viewBox="0 0 68 68" style="enable-background:new 0 0 68 68;" xml:space="preserve">
<style type="text/css">
	.st0{fill:none;}
	.st1{fill:#85D9D2;}
</style>
<title>all network</title>
<g>
	<path class="st0" d="M46.1,53.6c-0.9-1.6-1.3-3.4-1.3-5.2c0-6.2,5-11.2,11.2-11.2c0.2,0,0.3,0,0.5,0C55.5,28.7,51,21.1,44.3,17
		c-1.9,3.7-5.7,6-9.9,6c-4.1,0-8-2.3-9.9-5.9c-7.8,4.3-12.5,12-12.4,20.3c0.2,0,0.4,0,0.6,0c6.2,0,11.2,5,11.2,11.2
		c0,2.1-0.6,4.2-1.9,6.1C29.8,59.4,39,59,46.1,53.6z"/>
	<path class="st1" d="M64.6,41.4c0-0.2,0-0.3,0-0.4C64.8,26.8,56.9,13.8,45,8.6C43.5,4,39.2,0.8,34.4,0.8c-4.8,0-9.2,3.3-10.6,7.9
		C10.6,14.3,2.9,27,4.4,40.5c0,0.3,0,0.5,0.1,0.7c-1.8,2-2.8,4.7-2.8,7.4c0,6.2,5,11.2,11.2,11.2c0.8,0,1.5-0.1,2.3-0.2
		c0,0,0,0,0.1,0C20.6,63.8,27,66,33.7,66c6.7,0,13.3-2.4,18.7-6.9c1.2,0.4,2.5,0.7,3.7,0.7c6.2,0,11.2-5,11.2-11.3
		C67.1,45.8,66.1,43.4,64.6,41.4z M24.1,48.5c0-6.2-5-11.2-11.2-11.2c-0.2,0-0.4,0-0.6,0c-0.1-8.2,4.6-16,12.4-20.3
		c1.9,3.6,5.7,5.9,9.9,5.9c4.2,0,8-2.3,9.9-6c6.6,4.1,11.2,11.7,12.1,20.2c-0.2,0-0.3,0-0.5,0c-6.2,0-11.2,5-11.2,11.2
		c0,1.8,0.4,3.6,1.3,5.2c-7.1,5.4-16.3,5.8-23.9,1C23.4,52.7,24.1,50.6,24.1,48.5z"/>
</g>
</svg>
