<?xml version="1.0" encoding="utf-8"?>
<!-- Generator: Adobe Illustrator 22.0.1, SVG Export Plug-In . SVG Version: 6.00 Build 0)  -->
<svg version="1.1" id="Layer_1" xmlns="http://www.w3.org/2000/svg" xmlns:xlink="http://www.w3.org/1999/xlink" x="0px" y="0px"
	 viewBox="0 0 68 68" style="enable-background:new 0 0 68 68;" xml:space="preserve">
<style type="text/css">
	.st0{fill:#85D9D2;}
</style>
<title>cenralized softearecenralized softearecenralized softeare</title>
<g>
	<g>
		<path class="st0" d="M58.2,55.1H9.9C4.9,54.9,1,51,1,46.2V12.1c0-5,3.9-8.9,8.9-8.9h48.3c4.9,0,8.9,4,8.9,8.9v34.1
			C67.1,51.1,63.1,55.1,58.2,55.1z M9.9,9.2C8.2,9.2,7,10.4,7,12.1v34.1c0,1.6,1.3,2.9,3,2.9l48.2,0c1.6,0,2.9-1.3,2.9-2.9V12.1
			c0-1.6-1.3-2.9-2.9-2.9H9.9z"/>
	</g>
	<g>
		<path class="st0" d="M34,64.8c-1.7,0-3-1.3-3-3V56c0-1.7,1.3-3,3-3c1.7,0,3,1.3,3,3v5.8C37,63.5,35.7,64.8,34,64.8z"/>
	</g>
	<g>
		<path class="st0" d="M52.2,64.8H15.8c-1.7,0-3-1.3-3-3s1.3-3,3-3h36.4c1.7,0,3,1.3,3,3S53.9,64.8,52.2,64.8z"/>
	</g>
	<g>
		<path class="st0" d="M34.1,45.8c-0.7,0-1.4-0.1-2.1-0.4c-1.3-0.6-2.3-1.6-2.8-2.9c-0.1-0.3-0.3-0.5-0.4-0.6c-0.2,0-0.5,0-0.7,0.1
			c-1.3,0.7-2.9,0.7-4.2,0c-2.6-1.1-3.7-4-2.7-6.7c0-0.1,0.1-0.2,0.1-0.2c0.1-0.2,0.1-0.4,0.1-0.7c-0.1-0.1-0.3-0.2-0.6-0.4
			c0,0-0.1,0-0.1,0c-1.2-0.5-2.1-1.4-2.8-2.7c0-0.1,0-0.1-0.1-0.2c-0.5-1.3-0.5-2.7,0-4c0.6-1.3,1.6-2.3,2.9-2.8
			c0.3-0.1,0.5-0.3,0.6-0.4c0-0.2,0-0.5-0.1-0.7c-0.7-1.3-0.7-2.9,0-4.2c1.1-2.6,4-3.7,6.7-2.7c0.1,0,0.1,0.1,0.2,0.1
			c0.2,0.1,0.4,0.1,0.6,0.1c0.2-0.2,0.3-0.4,0.4-0.6c0-0.1,0.1-0.2,0.1-0.2c0.6-1.1,1.5-2.1,2.7-2.7c0.1,0,0.1-0.1,0.2-0.1
			c2.7-1.1,5.7,0.3,6.7,3c0.1,0.3,0.3,0.5,0.4,0.6c0.2,0,0.5,0,0.7-0.1c1.3-0.7,2.9-0.7,4.2,0c2.5,1.1,3.7,4,2.7,6.7
			c0,0.1-0.1,0.1-0.1,0.2c-0.1,0.2-0.1,0.4-0.1,0.6c0.2,0.2,0.4,0.3,0.6,0.4c0,0,0.1,0,0.1,0.1c1.9,0.8,3.1,2.7,3.1,4.8
			c0,2.1-1.2,4-3.1,4.8c0,0-0.1,0-0.1,0.1c-0.4,0.1-0.6,0.3-0.7,0.4c0,0.2,0,0.4,0.1,0.6c0.7,1.3,0.7,2.9,0,4.2
			c-1.1,2.5-4,3.7-6.7,2.7c-0.1,0-0.2-0.1-0.2-0.1c-0.2-0.1-0.4-0.1-0.6-0.1c-0.2,0.2-0.3,0.4-0.4,0.6c0,0.1-0.1,0.2-0.1,0.2
			c-0.6,1.1-1.5,2.1-2.7,2.7c-0.1,0-0.1,0.1-0.2,0.1C35.4,45.6,34.7,45.8,34.1,45.8z M28.7,36.8c0.6,0,1.2,0.1,1.7,0.2
			c0.2,0,0.4,0.1,0.5,0.2c1.4,0.7,2.4,1.9,3,3.4c0,0.1,0.1,0.1,0.1,0.1c0,0,0.1,0,0.1,0c0.1-0.1,0.2-0.2,0.3-0.3
			c0.5-1.3,1.6-2.5,2.8-3.2c0.2-0.1,0.4-0.2,0.6-0.3c1.5-0.4,3-0.3,4.3,0.3c0.1,0,0.2,0,0.3-0.1c0,0,0-0.1,0-0.1
			c-0.7-1.5-0.8-3.2-0.3-4.7c0-0.1,0.1-0.2,0.1-0.2c0.7-1.3,1.8-2.3,3.3-2.9c0.1,0,0.1-0.1,0.1-0.2c0-0.1-0.1-0.2-0.1-0.2
			c-1.4-0.5-2.6-1.6-3.3-2.8c-0.1-0.2-0.2-0.4-0.3-0.6c-0.4-1.5-0.3-3,0.3-4.3c0-0.1,0-0.2-0.1-0.3c0,0-0.1,0-0.1,0
			c-1.3,0.6-2.8,0.8-4.4,0.4c-0.2,0-0.3-0.1-0.5-0.2c-1.4-0.7-2.4-1.9-3-3.4c0,0-0.1-0.1-0.2-0.1c-0.1,0.1-0.2,0.2-0.3,0.3
			c-0.5,1.3-1.6,2.5-2.8,3.2c-0.2,0.1-0.4,0.2-0.6,0.3c-1.5,0.4-3,0.3-4.3-0.3c-0.1,0-0.2,0-0.3,0.1c0,0,0,0.1,0,0.1
			c0.6,1.3,0.8,2.8,0.4,4.4c0,0.2-0.1,0.3-0.2,0.5c-0.7,1.4-1.9,2.4-3.4,3c-0.1,0-0.1,0.1-0.1,0.2c0.1,0.1,0.1,0.2,0.2,0.2
			c1.5,0.6,2.7,1.6,3.4,3c0.1,0.2,0.1,0.3,0.2,0.5c0.4,1.5,0.3,3-0.3,4.3c0,0.1,0,0.2,0.1,0.3c0,0,0.1,0,0.1,0
			C26.8,37,27.7,36.8,28.7,36.8z M46.5,31.6L46.5,31.6L46.5,31.6z"/>
	</g>
	<g>
		<path class="st0" d="M34,36.5c-4,0-7.3-3.3-7.3-7.3c0-4,3.3-7.3,7.3-7.3c4,0,7.3,3.3,7.3,7.3C41.3,33.2,38,36.5,34,36.5z M34,26.9
			c-1.3,0-2.3,1-2.3,2.3s1,2.3,2.3,2.3c1.2,0,2.3-1.1,2.3-2.3C36.3,27.9,35.3,26.9,34,26.9z"/>
	</g>
</g>
</svg>
