<?xml version="1.0" encoding="utf-8"?>
<!-- Generator: Adobe Illustrator 22.0.1, SVG Export Plug-In . SVG Version: 6.00 Build 0)  -->
<svg version="1.1" id="Layer_1" xmlns="http://www.w3.org/2000/svg" xmlns:xlink="http://www.w3.org/1999/xlink" x="0px" y="0px"
	 viewBox="0 0 68 68" style="enable-background:new 0 0 68 68;" xml:space="preserve">
<style type="text/css">
	.st0{fill:#85D9D2;stroke:#85D9D2;stroke-width:3;stroke-miterlimit:10;}
</style>
<title>collaborative</title>
<g>
	<circle class="st0" cx="33.4" cy="33.7" r="9.4"/>
	<circle class="st0" cx="17.1" cy="17.7" r="6"/>
	<path class="st0" d="M22,24.5l-1.8-2l2.1-1.9l1.8,2c0.5,0.6,0.5,1.5-0.1,2l0,0C23.4,25.1,22.5,25.1,22,24.5z"/>
	<g>
		<circle class="st0" cx="46.9" cy="10.6" r="6"/>
		<path class="st0" d="M40.2,19.8l3.5-5.7l2.4,1.4l-3.5,5.8c-0.4,0.6-1.3,0.9-1.9,0.5h0C40,21.4,39.8,20.5,40.2,19.8z"/>
	</g>
	<g>
		<circle class="st0" cx="57.7" cy="36.7" r="6"/>
		<path class="st0" d="M48.5,34.3l4.5,0.4l-0.2,2.8l-4.5-0.4c-0.8-0.1-1.4-0.7-1.3-1.5v0C47,34.9,47.7,34.3,48.5,34.3z"/>
	</g>
	<circle class="st0" cx="8.3" cy="42" r="6"/>
	<path class="st0" d="M19.4,39.9l-6.1,2l-0.9-2.7l6.1-2c0.7-0.2,1.5,0.2,1.8,0.9l0,0C20.6,38.8,20.2,39.6,19.4,39.9z"/>
	<circle class="st0" cx="40" cy="57.9" r="6"/>
	<path class="st0" d="M38.4,48.4l1.1,4.6l-2.8,0.6l-1.1-4.6c-0.2-0.8,0.3-1.5,1.1-1.7l0,0C37.5,47.1,38.2,47.6,38.4,48.4z"/>
</g>
</svg>
