<?xml version="1.0" encoding="utf-8"?>
<!-- Generator: Adobe Illustrator 22.0.1, SVG Export Plug-In . SVG Version: 6.00 Build 0)  -->
<svg version="1.1" id="Layer_1" xmlns="http://www.w3.org/2000/svg" xmlns:xlink="http://www.w3.org/1999/xlink" x="0px" y="0px"
	 viewBox="0 0 68 68" style="enable-background:new 0 0 68 68;" xml:space="preserve">
<style type="text/css">
	.st0{fill:#85D9D2;}
</style>
<title>groups</title>
<path class="st0" d="M34.4,28.7c7,0,12.7-5.7,12.7-12.7S41.4,3.3,34.4,3.3S21.7,9,21.7,16S27.4,28.7,34.4,28.7z"/>
<path class="st0" d="M12.5,32.8c4.8,0,8.7-3.9,8.7-8.7s-3.9-8.7-8.7-8.7s-8.7,3.9-8.7,8.7C3.8,28.9,7.7,32.8,12.5,32.8z"/>
<path class="st0" d="M56.3,32.8c4.8,0,8.7-3.9,8.7-8.7s-3.9-8.7-8.7-8.7s-8.7,3.9-8.7,8.7S51.5,32.8,56.3,32.8z"/>
<path class="st0" d="M57.8,35h-7.5c-1.9-2.3-4.7-3.7-7.6-3.7H25.2c-3,0-5.8,1.4-7.6,3.7h-6.9c-4.8,0-8.8,3.9-8.8,8.8v12.6
	c0,2.1,1.7,3.8,3.8,3.8h12.9c0.3,0,0.5,0,0.8-0.1h29.2c0.1,0,0.3,0,0.4,0c0.3,0.1,0.6,0.1,0.9,0.1h12.9c2.1,0,3.8-1.7,3.8-3.8V43.8
	C66.6,39,62.7,35,57.8,35z M58.9,43.8v8.7h-6.5v-9.8h5.4C58.5,42.7,58.9,43.2,58.9,43.8z M9.6,52.5v-8.7c0-0.6,0.5-1.1,1.1-1.1h4.7
	v9.8H9.6z"/>
</svg>
