<?xml version="1.0" encoding="utf-8"?>
<!-- Generator: Adobe Illustrator 22.0.1, SVG Export Plug-In . SVG Version: 6.00 Build 0)  -->
<svg version="1.1" id="Layer_1" xmlns="http://www.w3.org/2000/svg" xmlns:xlink="http://www.w3.org/1999/xlink" x="0px" y="0px"
	 viewBox="0 0 68 68" style="enable-background:new 0 0 68 68;" xml:space="preserve">
<style type="text/css">
	.st0{fill:#85D9D2;}
</style>
<title>cuxtomization</title>
<g>
	<path class="st0" d="M17.1,43.3V8c0-1.9-1.6-3.5-3.5-3.5S10.1,6,10.1,8v35.4c-4,1.4-6.9,5.3-6.9,9.8c0,5.7,4.7,10.4,10.4,10.4
		S24,58.9,24,53.2C24,48.6,21.1,44.8,17.1,43.3z"/>
	<path class="st0" d="M37.5,24.2V8c0-1.9-1.6-3.5-3.5-3.5S30.5,6.1,30.5,8v16.2c-4,1.4-6.9,5.3-6.9,9.8s2.9,8.4,6.9,9.8V60
		c0,1.9,1.6,3.5,3.5,3.5s3.5-1.6,3.5-3.5V43.8c4-1.4,6.9-5.3,6.9-9.8S41.5,25.6,37.5,24.2z"/>
	<path class="st0" d="M64.8,14.9c0-5.7-4.7-10.4-10.4-10.4S44,9.1,44,14.9c0,4.5,2.9,8.4,6.9,9.8V60c0,1.9,1.6,3.5,3.5,3.5
		s3.5-1.6,3.5-3.5V24.7C61.9,23.2,64.8,19.4,64.8,14.9z"/>
</g>
</svg>
