<?xml version="1.0" encoding="utf-8"?>
<!-- Generator: Adobe Illustrator 22.0.1, SVG Export Plug-In . SVG Version: 6.00 Build 0)  -->
<svg version="1.1" id="Layer_1" xmlns="http://www.w3.org/2000/svg" xmlns:xlink="http://www.w3.org/1999/xlink" x="0px" y="0px"
	 viewBox="0 0 68 68" style="enable-background:new 0 0 68 68;" xml:space="preserve">
<style type="text/css">
	.st0{fill:none;}
	.st1{fill:#85D9D2;}
</style>
<title>full access</title>
<g>
	<path class="st0" d="M8.9,31.6V58H40V31.6H8.9z M30.3,47.9c0,3.2-2.6,5.9-5.9,5.9s-5.9-2.6-5.9-5.9v-5.8c0-0.1,0-0.1,0-0.2
		c0.2-3.2,2.7-5.7,5.9-5.7c3.2,0,5.9,2.6,5.9,5.9V47.9z"/>
	<path class="st1" d="M66.1,17.7c-0.1-4.5-2-8.7-5.2-11.8c-3.3-3.1-7.5-4.7-12-4.6c-9,0.2-16.2,7.4-16.4,16.5v6.8H7.2
		c-2.9,0-5.3,2.4-5.3,5.3v29.7c0,2.9,2.4,5.3,5.3,5.3h34.4c2.9,0,5.3-2.4,5.3-5.3V30c0-2.9-2.4-5.3-5.3-5.3h-2.2l0-6.7
		c0.1-5.2,4.4-9.5,9.6-9.6c2.6-0.1,5.1,0.9,7,2.7c1.9,1.8,3,4.3,3,6.8v10.3c0,1.9,1.6,3.5,3.5,3.5s3.5-1.6,3.5-3.5L66.1,17.7z
		 M40,58H8.9V31.6H40V58z"/>
	<path class="st1" d="M24.4,36.2c-3.1,0-5.7,2.5-5.9,5.7c0,0.1,0,0.1,0,0.2v5.8c0,3.2,2.6,5.9,5.9,5.9s5.9-2.6,5.9-5.9v-5.8
		C30.3,38.9,27.6,36.2,24.4,36.2z"/>
</g>
</svg>
