<?xml version="1.0" encoding="utf-8"?>
<!-- Generator: Adobe Illustrator 22.0.1, SVG Export Plug-In . SVG Version: 6.00 Build 0)  -->
<svg version="1.1" id="Layer_1" xmlns="http://www.w3.org/2000/svg" xmlns:xlink="http://www.w3.org/1999/xlink" x="0px" y="0px"
	 viewBox="0 0 68 68" style="enable-background:new 0 0 68 68;" xml:space="preserve">
<style type="text/css">
	.st0{fill:#85D9D2;}
</style>
<title>group chat</title>
<g>
	<path class="st0" d="M12.7,8.5H60c-0.3-1.8-1.9-3.2-3.8-3.2H8C5.9,5.3,4.1,7,4.1,9.2v50.7c0,0.3,0.2,0.6,0.5,0.7
		c0.1,0,0.2,0.1,0.3,0.1c0.2,0,0.4-0.1,0.5-0.2l2.9-2.9V12.9C8.3,10.5,10.3,8.5,12.7,8.5z"/>
	<path class="st0" d="M59,11.3H14.7c-1.9,0-3.6,1.5-3.6,3.6v46.5c0,0.3,0.2,0.6,0.5,0.7c0.1,0,0.2,0.1,0.3,0.1
		c0.2,0,0.4-0.1,0.5-0.2l9.8-9.8H59c1.9,0,3.5-1.5,3.5-3.6V14.9C62.5,12.9,60.9,11.3,59,11.3z M22.4,21h14.8c1.5,0,2.8,1.2,2.8,2.8
		c0,1.5-1.2,2.8-2.8,2.8H22.4c-1.5,0-2.8-1.2-2.8-2.8C19.7,22.2,20.9,21,22.4,21z M51.2,41.4H22.4c-1.5,0-2.8-1.2-2.8-2.8
		c0-1.5,1.2-2.8,2.8-2.8h28.7c1.5,0,2.8,1.2,2.8,2.8C53.8,40.2,52.7,41.4,51.2,41.4z M51.2,33.9H22.5c-1.5,0-2.8-1.2-2.8-2.8
		s1.2-2.8,2.8-2.8h28.7c1.5,0,2.8,1.2,2.8,2.8C53.8,32.7,52.7,33.9,51.2,33.9z"/>
</g>
</svg>
