<?xml version="1.0" encoding="utf-8"?>
<!-- Generator: Adobe Illustrator 22.0.1, SVG Export Plug-In . SVG Version: 6.00 Build 0)  -->
<svg version="1.1" id="Layer_1" xmlns="http://www.w3.org/2000/svg" xmlns:xlink="http://www.w3.org/1999/xlink" x="0px" y="0px"
	 viewBox="0 0 68 68" style="enable-background:new 0 0 68 68;" xml:space="preserve">
<style type="text/css">
	.st0{fill:#85D9D2;}
</style>
<title>inhouse sdk</title>
<g>
	<g>
		<path class="st0" d="M59,61.2H9c-0.6,0-1-0.5-1-1V24.8c0-0.6,0.5-1,1-1h50c0.6,0,1,0.5,1,1v35.3C60,60.7,59.6,61.2,59,61.2z"/>
	</g>
	<g>
		<path class="st0" d="M59,20.8H9c-0.4,0-0.8-0.2-0.9-0.6c-0.2-0.4-0.1-0.8,0.1-1.1L18.9,5.8c0.2-0.2,0.5-0.4,0.8-0.4h28.6
			c0.3,0,0.6,0.1,0.8,0.4l10.7,13.3c0.2,0.3,0.3,0.7,0.1,1.1C59.8,20.6,59.4,20.8,59,20.8z"/>
	</g>
</g>
</svg>
