<?xml version="1.0" encoding="utf-8"?>
<!-- Generator: Adobe Illustrator 22.0.1, SVG Export Plug-In . SVG Version: 6.00 Build 0)  -->
<svg version="1.1" id="Layer_1" xmlns="http://www.w3.org/2000/svg" xmlns:xlink="http://www.w3.org/1999/xlink" x="0px" y="0px"
	 viewBox="0 0 68 68" style="enable-background:new 0 0 68 68;" xml:space="preserve">
<style type="text/css">
	.st0{fill:#85D9D2;}
</style>
<title>chat api</title>
<g>
	<path class="st0" d="M41.2,22.7h-4.6v4.6h4.6c1.3,0,2.3-1,2.3-2.3V25C43.5,23.8,42.5,22.7,41.2,22.7z"/>
	<polygon class="st0" points="19,29.2 21.5,29.2 20.2,26.2 	"/>
	<path class="st0" d="M60.6,3.6H7.4c-2.3,0-4.1,1.8-4.1,4.1v55.9c0,0.3,0.2,0.6,0.5,0.7c0.1,0,0.2,0.1,0.3,0.1
		c0.2,0,0.4-0.1,0.5-0.2l11.8-11.8h44.3c2.3,0,4.2-1.8,4.2-4.2V7.8C64.8,5.5,62.9,3.6,60.6,3.6z M27.8,39.4
		c-0.2,0.1-0.5,0.2-0.7,0.2c-0.8,0-1.5-0.5-1.8-1.3l-2.1-5.1h-5.8l-2.1,5.1c-0.3,0.8-1,1.3-1.8,1.3c-0.2,0-0.5-0.1-0.7-0.2
		c-1-0.4-1.5-1.6-1.1-2.6l2.5-6.1c0.1-0.2,0.2-0.4,0.2-0.6l4.1-10l0,0c0.1-0.1,0.1-0.2,0.2-0.3l0.1-0.1c0.1-0.1,0.2-0.2,0.2-0.2
		c0.1-0.1,0.2-0.1,0.2-0.2c0.1,0,0.1-0.1,0.2-0.1c0.1-0.1,0.2-0.1,0.3-0.2l0,0c0.1,0,0.1,0,0.2,0c0.1,0,0.2-0.1,0.2-0.1s0.2,0,0.2,0
		c0.1,0,0.2,0,0.2,0c0.1,0,0.2,0,0.2,0s0.1,0,0.2,0s0.2,0.1,0.2,0.1H21l0,0c0.1,0.1,0.2,0.1,0.3,0.2c0.1,0,0.1,0.1,0.2,0.1
		c0.1,0.1,0.2,0.1,0.2,0.2c0.1,0.1,0.2,0.2,0.2,0.2c0,0,0,0.1,0.1,0.1c0.1,0.1,0.2,0.2,0.2,0.3l0,0l6.8,16.6
		C29.3,37.8,28.8,39,27.8,39.4z M47.5,25c0,3.4-2.8,6.3-6.3,6.3h-4.6v6.2c0,1.1-0.9,2-2,2c-1.1,0-2-0.9-2-2v-8.2v-8.1v-0.4
		c0-1.1,0.9-2,2-2h6.6C44.7,18.8,47.5,21.6,47.5,25L47.5,25z M56.1,37.6c0,1.1-0.9,2-2,2s-2-1-2-2V21.2c0-1.1,0.9-2,2-2s2,0.9,2,2
		V37.6z"/>
</g>
</svg>
