<?xml version="1.0" encoding="utf-8"?>
<!-- Generator: Adobe Illustrator 22.0.1, SVG Export Plug-In . SVG Version: 6.00 Build 0)  -->
<svg version="1.1" id="Layer_1" xmlns="http://www.w3.org/2000/svg" xmlns:xlink="http://www.w3.org/1999/xlink" x="0px" y="0px"
	 viewBox="0 0 68 68" style="enable-background:new 0 0 68 68;" xml:space="preserve">
<style type="text/css">
	.st0{fill:#85D9D2;}
</style>
<path class="st0" d="M55.3,47.2c-1.2,0-2.4,0.4-3.3,1v-4.4h0.2c6.4,0,11.6-5.2,11.6-11.6c0-4.8-2.9-9-7.2-10.8
	c-1-9.3-8.8-16.5-18.4-16.5C32.1,5,26.5,8,23.1,12.8c-4.5-0.5-9,2-10.7,6.4l0,0c-5.7,2.1-9.2,8.1-8.1,14.3c1.1,5.6,4.1,9.7,9.7,10.2
	v4.4c-0.8-0.5-1.8-0.7-2.8-0.7c-3.2,0-5.9,2.6-5.9,5.9s2.6,5.9,5.9,5.9c2.2,0,4.1-1.2,5.1-3h0.8c1.7,0,3.1-1.4,3.1-3.1v-9.3H24v10
	c-1.7,1-2.9,2.9-2.9,5c0,3.2,2.6,5.9,5.9,5.9s5.8-2.6,5.8-5.9c0-2-1.1-3.9-2.7-4.9V43.8h6.3v10.1c-1.7,1-2.8,2.9-2.8,5
	c0,3.2,2.6,5.9,5.9,5.9s5.9-2.6,5.9-5.9c0-2.1-1.1-3.9-2.8-5V43.8h3.2v9.3c0,1.7,1.4,3.1,3.1,3.1h1.4c1,1.7,2.9,2.8,5,2.8
	c3.2,0,5.9-2.6,5.9-5.9C61.2,49.8,58.6,47.2,55.3,47.2z M49,37.6L49,37.6L49,37.6h-9.4l0,0l0,0H27.1l0,0l0,0h-8.3l0,0l0,0h-2.3
	c-3-0.1-5.6-2.3-6.2-5.2c-0.6-3.6,1.6-6.9,5.1-7.6c1.3-0.2,2.2-1.3,2.4-2.5c0-0.1,0.1-0.4,0.2-0.6l0.1-0.2c0.8-2,3.2-3,5.3-2.2
	c1.5,0.6,3.1-0.1,3.9-1.5c2-4,6.2-6.6,10.9-6.6c6.8,0,12.3,5.5,12.3,12.3v0.4c0,1.5,1.1,2.8,2.6,3c2.6,0.4,4.6,2.7,4.6,5.4
	c0,3-2.4,5.4-5.4,5.4L49,37.6z"/>
</svg>
