<?xml version="1.0" encoding="utf-8"?>
<!-- Generator: Adobe Illustrator 22.0.1, SVG Export Plug-In . SVG Version: 6.00 Build 0)  -->
<svg version="1.1" id="Layer_1" xmlns="http://www.w3.org/2000/svg" xmlns:xlink="http://www.w3.org/1999/xlink" x="0px" y="0px"
	 viewBox="0 0 68 68" style="enable-background:new 0 0 68 68;" xml:space="preserve">
<style type="text/css">
	.st0{fill:#85D9D2;}
</style>
<title>screen sharing</title>
<g>
	<path class="st0" d="M25.6,28.2c-0.7,0-1.3,0.3-1.8,0.8S23,30.1,23,30.8c0,1.4,1.2,2.6,2.6,2.6c1.4,0,2.6-1.2,2.6-2.6
		C28.2,29.4,27,28.2,25.6,28.2z"/>
	<path class="st0" d="M40,25.9c1.4,0,2.6-1.2,2.6-2.6c0-1.4-1.2-2.6-2.6-2.6c-0.7,0-1.3,0.3-1.8,0.8s-0.8,1.1-0.8,1.8
		C37.4,24.7,38.6,25.9,40,25.9z"/>
	<path class="st0" d="M40,40.7c1.4,0,2.6-1.2,2.6-2.6c0-1.4-1.2-2.6-2.6-2.6c-0.7,0-1.3,0.3-1.8,0.8s-0.8,1.1-0.8,1.8
		C37.4,39.5,38.6,40.7,40,40.7z"/>
	<path class="st0" d="M57.9,6.9H10.2c-4.7,0-8.4,3.7-8.4,8.4v31.1c0,4.6,3.6,8.2,8.4,8.4H31v2.8H17.4c-1.7,0-3,1.3-3,3
		c0,1.7,1.3,3,3,3h33.2c1.7,0,3-1.3,3-3c0-1.7-1.3-3-3-3H37v-2.8h20.9c4.6,0,8.4-3.8,8.4-8.4V15.2C66.3,10.6,62.5,6.9,57.9,6.9z
		 M36.4,33c1-0.8,2.2-1.2,3.6-1.2c3.5,0,6.3,3,6.3,6.5s-2.8,6.3-6.3,6.3c-3.4,0-6.2-2.8-6.3-6.2l-4.5-2.3c-1,0.7-2.3,1.1-3.6,1.1
		c-3.5,0-6.3-2.8-6.3-6.3s2.8-6.3,6.3-6.3c1.3,0,2.5,0.4,3.5,1.1l4.5-2.3c0.1-1.7,0.7-3.2,1.9-4.4s2.8-1.9,4.5-1.9
		c3.5,0,6.3,2.8,6.3,6.3s-2.8,6.3-6.3,6.3c-1.4,0-2.6-0.4-3.6-1.1l-4.3,2.2L36.4,33z"/>
</g>
</svg>
