<?xml version="1.0" encoding="utf-8"?>
<!-- Generator: Adobe Illustrator 22.0.1, SVG Export Plug-In . SVG Version: 6.00 Build 0)  -->
<svg version="1.1" id="Layer_1" xmlns="http://www.w3.org/2000/svg" xmlns:xlink="http://www.w3.org/1999/xlink" x="0px" y="0px"
	 viewBox="0 0 68 68" style="enable-background:new 0 0 68 68;" xml:space="preserve">
<style type="text/css">
	.st0{fill:#85D9D2;}
</style>
<path class="st0" d="M48.9,40.9c-3.1,0-6.1,1.2-8.3,3.4c-0.1,0.1-0.1,0.1-0.2,0.2l-13-7.9c0.2-0.8,0.3-1.6,0.3-2.4
	c0-0.8-0.1-1.6-0.3-2.4l13-7.8c2.2,2.3,5.2,3.7,8.5,3.7c6.4,0,11.7-5.2,11.7-11.7S55.3,4.2,48.9,4.2c-6.4,0-11.7,5.2-11.7,11.7
	c0,0.8,0.1,1.5,0.2,2.3l-13.1,7.9c-2.2-2.3-5.2-3.6-8.4-3.6c-6.4,0-11.7,5.2-11.7,11.7c0,6.4,5.2,11.7,11.7,11.7
	c3.2,0,6.2-1.3,8.4-3.6l13.1,7.9c-0.2,0.8-0.2,1.5-0.2,2.3c0,3.1,1.2,6.1,3.4,8.3c2.2,2.2,5.1,3.4,8.3,3.4c3.1,0,6.1-1.2,8.3-3.4
	c2.2-2.2,3.4-5.1,3.4-8.3c0-3.1-1.2-6.1-3.4-8.3C54.9,42.1,52,40.9,48.9,40.9z M48.9,10.6c2.9,0,5.3,2.4,5.3,5.2s-2.4,5.2-5.3,5.2
	c-2.9,0-5.2-2.4-5.2-5.2S46,10.6,48.9,10.6z M52.6,56.3c-1,1-2.3,1.5-3.7,1.5c0,0,0,0,0,0c-1.4,0-2.7-0.5-3.7-1.5
	c-1-1-1.5-2.3-1.5-3.7c0-1.4,0.5-2.7,1.5-3.7c1-1,2.3-1.5,3.7-1.5c1.4,0,2.7,0.5,3.7,1.5c1,1,1.5,2.3,1.5,3.7
	C54.1,54,53.6,55.3,52.6,56.3z M15.9,39.4c-2.9,0-5.2-2.4-5.2-5.3c0-2.9,2.4-5.3,5.2-5.3c2.9,0,5.3,2.4,5.3,5.3
	C21.2,37.1,18.8,39.4,15.9,39.4z"/>
</svg>
