<?xml version="1.0" encoding="utf-8"?>
<!-- Generator: Adobe Illustrator 22.0.1, SVG Export Plug-In . SVG Version: 6.00 Build 0)  -->
<svg version="1.1" id="Layer_1" xmlns="http://www.w3.org/2000/svg" xmlns:xlink="http://www.w3.org/1999/xlink" x="0px" y="0px"
	 viewBox="0 0 68 68" style="enable-background:new 0 0 68 68;" xml:space="preserve">
<style type="text/css">
	.st0{fill:#85D9D2;}
</style>
<title>sync &amp;amp; store</title>
<g>
	<path class="st0" d="M55.3,24.3c0.2-0.8,0.3-1.5,0.3-2.4c0-5.9-4.8-10.7-10.7-10.7c-2.2,0-4.3,0.7-6,1.9c-2.4-5-7.5-8.5-13.5-8.5
		c-8.2,0-14.9,6.7-14.9,14.9c0,1.7,0.3,3.4,0.9,4.9c-4.3,1.1-7.5,5-7.5,9.6c0,4.8,3.4,8.8,7.9,9.7c0.2-0.6,0.5-1.2,1-1.7
		c0,0,8.2-8.2,8.3-8.3c0.8-0.7,1.8-1.1,2.9-1.1c1.2,0,2.3,0.5,3.1,1.3l0.3,0.3l7.5,7.5v-0.2c0-2.7,2.2-4.9,4.9-4.9l5.2,0
		c2.7,0,4.9,2.2,4.9,4.9V44h3.5c5.5,0,9.9-4.4,9.9-9.9C63.3,29.2,59.8,25.2,55.3,24.3L55.3,24.3z M55.3,24.3"/>
	<path class="st0" d="M50.4,52.1l-3.5,0l0-10.5c0-1.1-0.9-1.9-1.9-1.9h-5.2c-1.1,0-1.9,0.9-1.9,1.9l0,10.5h-3.5
		c-0.6,0-1.1,0.4-1.3,0.9c-0.2,0.5-0.1,1.2,0.3,1.6l8.1,8.1c0.3,0.3,0.7,0.4,1,0.4c0.4,0,0.7-0.1,1-0.4l8.1-8.1
		c0.4-0.4,0.5-1,0.3-1.6C51.5,52.5,51,52.1,50.4,52.1L50.4,52.1z M50.4,52.1"/>
	<path class="st0" d="M33.3,45.8c0.2-0.5,0.1-1.2-0.3-1.6l-8.1-8.1c-0.3-0.3-0.7-0.4-1-0.4c-0.4,0-0.7,0.1-1,0.4l-8.1,8.1
		c-0.4,0.4-0.5,1-0.3,1.6c0.2,0.5,0.7,0.9,1.3,0.9h3.5l0,10.5c0,1.1,0.9,1.9,1.9,1.9l5.2,0c1.1,0,1.9-0.9,1.9-1.9l0-10.5l3.5,0
		C32.5,46.7,33.1,46.3,33.3,45.8L33.3,45.8z M33.3,45.8"/>
</g>
</svg>
