<?xml version="1.0" encoding="utf-8"?>
<!-- Generator: Adobe Illustrator 22.0.1, SVG Export Plug-In . SVG Version: 6.00 Build 0)  -->
<svg version="1.1" id="Layer_1" xmlns="http://www.w3.org/2000/svg" xmlns:xlink="http://www.w3.org/1999/xlink" x="0px" y="0px"
	 viewBox="0 0 68 68" style="enable-background:new 0 0 68 68;" xml:space="preserve">
<style type="text/css">
	.st0{fill:#85D9D2;}
</style>
<title>media storage</title>
<g>
	<path class="st0" d="M62.3,35.1c-1.8-2.3-4.2-3.8-7-4.5c0.9-1.4,1.4-2.9,1.4-4.5c0-2.3-0.8-4.3-2.5-6c-1.6-1.6-3.6-2.5-6-2.5
		c-2.1,0-3.9,0.7-5.5,2c-1.3-3.2-3.4-5.7-6.2-7.6c-2.8-1.9-6-2.9-9.4-2.9c-4.7,0-8.6,1.6-11.9,4.9c-3.3,3.3-4.9,7.3-4.9,11.9
		c0,0.3,0,0.8,0.1,1.4c-2.6,1.2-4.7,3-6.2,5.4c-1.5,2.4-2.3,5-2.3,7.9c0,4.1,1.4,7.5,4.3,10.4c2.9,2.9,6.4,4.3,10.4,4.3h35.8
		c3.5,0,6.5-1.2,8.9-3.7c2.5-2.5,3.7-5.4,3.7-8.9C65.1,40,64.2,37.3,62.3,35.1L62.3,35.1z M43.7,34.2c-0.2,0.2-0.5,0.3-0.7,0.3h-7.4
		v11.6c0,0.3-0.1,0.5-0.3,0.7c-0.2,0.2-0.5,0.3-0.7,0.3h-6.3c-0.3,0-0.5-0.1-0.7-0.3c-0.2-0.2-0.3-0.5-0.3-0.7V34.5h-7.4
		c-0.3,0-0.6-0.1-0.8-0.3c-0.2-0.2-0.3-0.5-0.3-0.8c0-0.3,0.1-0.5,0.3-0.8l11.6-11.6c0.2-0.2,0.5-0.3,0.8-0.3c0.3,0,0.6,0.1,0.8,0.3
		l11.6,11.6c0.2,0.2,0.3,0.4,0.3,0.8C44,33.7,43.9,34,43.7,34.2L43.7,34.2z M43.7,34.2"/>
</g>
</svg>
