<?xml version="1.0" encoding="utf-8"?>
<!-- Generator: Adobe Illustrator 22.0.1, SVG Export Plug-In . SVG Version: 6.00 Build 0)  -->
<svg version="1.1" id="Layer_1" xmlns="http://www.w3.org/2000/svg" xmlns:xlink="http://www.w3.org/1999/xlink" x="0px" y="0px"
	 viewBox="0 0 68 68" style="enable-background:new 0 0 68 68;" xml:space="preserve">
<style type="text/css">
	.st0{fill:#3498DB;}
</style>
<title>icons</title>
<g>
	<path class="st0" d="M11.9,7.7h48.5c-0.3-1.8-1.9-3.3-3.9-3.3H7.1c-2.2,0-4,1.7-4,4v52c0,0.3,0.2,0.6,0.5,0.7
		c0.1,0,0.2,0.1,0.3,0.1c0.2,0,0.4-0.1,0.5-0.2l3-3V12.2C7.4,9.7,9.5,7.7,11.9,7.7z"/>
	<path class="st0" d="M60.5,9.2H12.8c-2.1,0-3.9,1.6-3.9,3.9v50.1c0,0.3,0.2,0.6,0.5,0.7c0.1,0,0.2,0.1,0.3,0.1
		c0.2,0,0.4-0.1,0.5-0.2l10.6-10.6h39.7c2.1,0,3.8-1.6,3.8-3.9V13.1C64.3,10.9,62.6,9.2,60.5,9.2z M21.1,19.7h16c1.6,0,3,1.3,3,3
		c0,1.6-1.3,3-3,3h-16c-1.6,0-3-1.3-3-3C18.2,21,19.5,19.7,21.1,19.7z M52.1,41.6h-31c-1.6,0-3-1.3-3-3c0-1.6,1.3-3,3-3H52
		c1.6,0,3,1.3,3,3C55,40.4,53.7,41.6,52.1,41.6z M52.1,33.6H21.2c-1.6,0-3-1.3-3-3s1.3-3,3-3h30.9c1.6,0,3,1.3,3,3
		C55,32.3,53.7,33.6,52.1,33.6z"/>
</g>
</svg>
