<?xml version="1.0" encoding="utf-8"?>
<!-- Generator: Adobe Illustrator 22.0.1, SVG Export Plug-In . SVG Version: 6.00 Build 0)  -->
<svg version="1.1" id="Layer_1" xmlns="http://www.w3.org/2000/svg" xmlns:xlink="http://www.w3.org/1999/xlink" x="0px" y="0px"
	 viewBox="0 0 68 68" style="enable-background:new 0 0 68 68;" xml:space="preserve">
<style type="text/css">
	.st0{fill:#3498DB;}
</style>
<title>icons</title>
<path class="st0" d="M53.9,21.8c-3.6,0-6.9,1.6-9.1,4.1l-18.7-9.7c0.2-0.9,0.3-1.9,0.3-2.8C26.4,6.5,20.9,1,14.1,1S1.7,6.5,1.7,13.3
	c0,6.8,5.5,12.3,12.3,12.3c3.7,0,7-1.6,9.2-4.2L42,31.1c-0.2,1-0.4,2-0.4,3c0,1,0.1,1.9,0.3,2.8l-18.6,9.6c-2.3-2.6-5.6-4.2-9.2-4.2
	c-6.8,0-12.3,5.5-12.3,12.3S7.3,67,14.1,67s12.3-5.5,12.3-12.3c0-1-0.1-1.9-0.3-2.8l18.6-9.6c2.3,2.6,5.6,4.2,9.3,4.2
	c6.8,0,12.3-5.5,12.3-12.3C66.3,27.3,60.7,21.8,53.9,21.8z"/>
</svg>
