<?xml version="1.0" encoding="utf-8"?>
<!-- Generator: Adobe Illustrator 22.0.1, SVG Export Plug-In . SVG Version: 6.00 Build 0)  -->
<svg version="1.1" id="Layer_1" xmlns="http://www.w3.org/2000/svg" xmlns:xlink="http://www.w3.org/1999/xlink" x="0px" y="0px"
	 viewBox="0 0 68 68" style="enable-background:new 0 0 68 68;" xml:space="preserve">
<style type="text/css">
	.st0{fill:#3498DB;}
</style>
<g>
	<path class="st0" d="M59.7,2.4H8.3C5.1,2.4,2.5,5,2.5,8.2v51.4c0,3.2,2.6,5.8,5.8,5.8h51.4c3.2,0,5.8-2.6,5.8-5.8V8.3
		C65.6,5.1,62.9,2.4,59.7,2.4z M28.5,11h26.2c1.7,0,3,1.3,3,3s-1.3,3-3,3H28.5c-1.7,0-3-1.3-3-3S26.8,11,28.5,11z M28.5,19.1h14.1
		c1.7,0,3,1.3,3,3s-1.3,3-3,3H28.5c-1.7,0-3-1.3-3-3S26.8,19.1,28.5,19.1z M16,9.8c4.5,0,8.2,3.7,8.2,8.2s-3.7,8.2-8.2,8.2
		S7.8,22.5,7.8,18S11.4,9.8,16,9.8z M59.6,59.6H8.4V33.2h51.1L59.6,59.6L59.6,59.6z"/>
</g>
</svg>
