<?xml version="1.0" encoding="utf-8"?>
<!-- Generator: Adobe Illustrator 22.0.1, SVG Export Plug-In . SVG Version: 6.00 Build 0)  -->
<svg version="1.1" id="Layer_1" xmlns="http://www.w3.org/2000/svg" xmlns:xlink="http://www.w3.org/1999/xlink" x="0px" y="0px"
	 viewBox="0 0 68 68" style="enable-background:new 0 0 68 68;" xml:space="preserve">
<style type="text/css">
	.st0{fill:#3498DB;}
</style>
<g>
	<path class="st0" d="M62.8,56.1L50.5,43.9c3-4.3,4.4-9,4.4-14.3c0-3.4-0.7-6.7-2-9.8c-1.3-3.1-3.1-5.8-5.4-8c-2.3-2.3-4.9-4-8-5.4
		c-3.1-1.3-6.4-2-9.8-2s-6.7,0.7-9.8,2c-3.1,1.3-5.8,3.1-8,5.4c-2.3,2.3-4,4.9-5.4,8c-1.3,3.1-2,6.4-2,9.8c0,3.4,0.7,6.7,2,9.8
		c1.3,3.1,3.1,5.8,5.4,8c2.3,2.3,4.9,4,8,5.4c3.1,1.3,6.4,2,9.8,2c5.2,0,10-1.5,14.3-4.4l12.3,12.2c0.9,0.9,1.9,1.4,3.2,1.4
		c1.2,0,2.3-0.5,3.2-1.4c0.9-0.9,1.4-2,1.4-3.2C64.1,58.1,63.6,57,62.8,56.1L62.8,56.1z M41.1,40.9c-3.1,3.1-6.9,4.7-11.3,4.7
		c-4.4,0-8.2-1.6-11.3-4.7c-3.1-3.1-4.7-6.9-4.7-11.3s1.6-8.2,4.7-11.3c3.1-3.1,6.9-4.7,11.3-4.7c4.4,0,8.2,1.6,11.3,4.7
		c3.1,3.1,4.7,6.9,4.7,11.3S44.2,37.8,41.1,40.9L41.1,40.9z M41.1,40.9"/>
</g>
</svg>
