<?xml version="1.0" encoding="utf-8"?>
<!-- Generator: Adobe Illustrator 22.0.1, SVG Export Plug-In . SVG Version: 6.00 Build 0)  -->
<svg version="1.1" id="Layer_1" xmlns="http://www.w3.org/2000/svg" xmlns:xlink="http://www.w3.org/1999/xlink" x="0px" y="0px"
	 viewBox="0 0 68 68" style="enable-background:new 0 0 68 68;" xml:space="preserve">
<style type="text/css">
	.st0{fill:#3498DB;}
</style>
<title>icons</title>
<g id="Like_2">
	<g>
		<path class="st0" d="M44,66.4c-8.8,0-15.3-0.8-20-2.4c-1-0.3-1.8-0.7-2.7-1.1c-1.6-0.7-2.8-1.2-4.2-1.2h-4.7
			c-3.9,0-5.5-1.5-5.5-5.2V34.9c0-3.4,2.1-5.5,5.5-5.5l0.4,0c1.6,0,4.6,0.1,6.5-1.8c0.1-0.1,0.1-0.2,0.2-0.4
			c0.1-0.1,0.1-0.2,0.2-0.3c0-0.1,0.1-0.2,0.1-0.3c0-0.1,0.1-0.1,0.1-0.2c0.1-0.1,0.1-0.3,0.3-0.5c0.7-1.2,1.6-2.4,2.5-3.5
			c1.7-1.9,3.3-2.9,4.8-3.7c1.8-1.1,3.3-2,4.5-4.4c1.5-2.8,2.6-5.7,3.1-8.8c0.1-0.4,0.7-4.6,3.4-4.6c2.9,0,7.9,1,7.9,7.9
			c0,5.2-1.1,10.4-3.4,15.1L60,26c3.2,0.2,5.6,3,5.4,6.2c-0.1,2.2-1.4,4-3.3,4.9c0.4,0.3,0.8,0.6,1.2,1c1.1,1.1,1.6,2.6,1.5,4.2
			c-0.1,1.6-0.7,3-1.9,4c-0.6,0.6-1.4,1-2.2,1.3c1.3,1,2.1,2.6,2.1,4.3c0,0.2,0,0.3,0,0.5c-0.2,3.2-3,5.7-6.2,5.5l-0.7,0
			c0.7,1,1.1,2.2,0.9,3.5c0,0.1,0,0.3,0,0.5c0,0.1,0,0.3,0,0.4c-0.1,1-0.5,1.8-1.2,2.4c-1.2,1.2-2.8,1.9-4.5,1.9H44z"/>
	</g>
</g>
</svg>
