<?xml version="1.0" encoding="utf-8"?>
<!-- Generator: Adobe Illustrator 22.0.1, SVG Export Plug-In . SVG Version: 6.00 Build 0)  -->
<svg version="1.1" id="Layer_1" xmlns="http://www.w3.org/2000/svg" xmlns:xlink="http://www.w3.org/1999/xlink" x="0px" y="0px"
	 viewBox="0 0 68 68" style="enable-background:new 0 0 68 68;" xml:space="preserve">
<style type="text/css">
	.st0{fill:#3498DB;}
</style>
<path class="st0" d="M56.7,11.8C47.6,3.5,36.6,1.7,25,5.1C2.1,12-2.8,37.5,14.6,50.8c0.6,0.5,0.9,1.6,1,2.4c0.1,3.8,0,7.6,0,12
	c4.3-2.6,8-4.9,11.9-7.1c1-0.6,2.4-0.9,3.5-0.8c8.4,0.9,16.1-1,23.1-5.8C68.2,41.6,69.5,23.3,56.7,11.8z M44.2,40.1H25.7
	c-1.1,0-1.9-0.9-1.9-1.9c0-1.1,0.9-1.9,1.9-1.9h18.5c1.1,0,1.9,0.9,1.9,1.9C46.1,39.2,45.2,40.1,44.2,40.1z M48.4,28.6H21.5
	c-1.1,0-1.9-0.9-1.9-1.9c0-1.1,0.9-1.9,1.9-1.9h26.9c1.1,0,1.9,0.9,1.9,1.9C50.3,27.8,49.4,28.6,48.4,28.6z"/>
</svg>
