<?xml version="1.0" encoding="utf-8"?>
<!-- Generator: Adobe Illustrator 22.0.1, SVG Export Plug-In . SVG Version: 6.00 Build 0)  -->
<svg version="1.1" id="Layer_1" xmlns="http://www.w3.org/2000/svg" xmlns:xlink="http://www.w3.org/1999/xlink" x="0px" y="0px"
	 viewBox="0 0 68 68" style="enable-background:new 0 0 68 68;" xml:space="preserve">
<style type="text/css">
	.st0{fill:#3498DB;}
	.st1{fill:#FFFFFF;}
</style>
<path class="st0" d="M65.3,45.9c-6.9-6.9-8.2-10.2-8.2-22.1c0.3-12.4-9.6-22.7-22-22.9c-12.3-0.2-22.7,9.6-22.9,22
	c0,0.3,0,0.6,0,0.9c0,6.4-0.2,8.6-1,11.3c-1.1,3.5-3.3,6.8-7.2,10.8c-0.7,0.7-1.1,1.7-1.1,2.7s0.4,2,1.1,2.7s1.7,1.1,2.7,1.1H23
	l-0.1,0.8c0,6.4,5.2,11.6,11.6,11.6l0,0c6.4,0,11.6-5.2,11.6-11.7L46,52.4h16.4l0,0c2.1,0,3.8-1.7,3.8-3.9
	C66.4,47.6,66,46.6,65.3,45.9z"/>
<path class="st1" d="M27,52.3c0.1,4.1,3.4,7.3,7.5,7.3c4.1,0,7.4-3.3,7.5-7.3H27z"/>
</svg>
