<?xml version="1.0" encoding="utf-8"?>
<!-- Generator: Adobe Illustrator 22.0.1, SVG Export Plug-In . SVG Version: 6.00 Build 0)  -->
<svg version="1.1" id="Layer_1" xmlns="http://www.w3.org/2000/svg" xmlns:xlink="http://www.w3.org/1999/xlink" x="0px" y="0px"
	 viewBox="0 0 68 68" style="enable-background:new 0 0 68 68;" xml:space="preserve">
<style type="text/css">
	.st0{fill:#3398DB;}
</style>
<title>icons</title>
<path class="st0" d="M61,1H7C3.6,1,1,3.6,1,7v54c0,3.4,2.6,6,6,6h54c3.4,0,6-2.6,6-6V7C67,3.6,64.4,1,61,1z M18.1,57.3
	c-4.6,0-8.4-3.8-8.4-8.4c0-3.5,2.3-6.6,5.4-7.8V13.7c0-1.7,1.3-3,3-3c1.7,0,3,1.3,3,3v27.4c3.1,1.2,5.4,4.3,5.4,7.8
	C26.5,53.5,22.7,57.3,18.1,57.3z M37,41.8v12.5c0,1.7-1.3,3-3,3s-3-1.3-3-3V41.8c-3.1-1.2-5.4-4.3-5.4-7.8s2.3-6.6,5.4-7.8V13.7
	c0-1.7,1.3-3,3-3s3,1.3,3,3v12.5c3.1,1.2,5.4,4.3,5.4,7.8S40.1,40.6,37,41.8z M52.9,26.9v27.4c0,1.7-1.3,3-3,3c-1.7,0-3-1.3-3-3
	V26.9c-3.1-1.2-5.4-4.3-5.4-7.8c0-4.6,3.8-8.4,8.4-8.4c4.6,0,8.4,3.8,8.4,8.4C58.3,22.6,56,25.7,52.9,26.9z"/>
</svg>
