<?xml version="1.0" encoding="utf-8"?>
<!-- Generator: Adobe Illustrator 22.0.1, SVG Export Plug-In . SVG Version: 6.00 Build 0)  -->
<svg version="1.1" id="Layer_1" xmlns="http://www.w3.org/2000/svg" xmlns:xlink="http://www.w3.org/1999/xlink" x="0px" y="0px"
	 viewBox="0 0 35 35" style="enable-background:new 0 0 35 35;" xml:space="preserve">
<style type="text/css">
	.st0{fill:url(#SVGID_1_);}
</style>
<title>Header Icons</title>
<linearGradient id="SVGID_1_" gradientUnits="userSpaceOnUse" x1="17.45" y1="29.75" x2="17.45" y2="5.35">
	<stop  offset="0" style="stop-color:#0099E1"/>
	<stop  offset="1" style="stop-color:#0081BE"/>
</linearGradient>
<path class="st0" d="M22.8,5.3H12.1c-1.3,0-2.3,1-2.3,2.3v19.8c0,1.3,1,2.3,2.3,2.3h10.7c1.3,0,2.3-1,2.3-2.3V7.6
	C25.1,6.3,24.1,5.3,22.8,5.3z M14.8,6.6h5v1h-5C14.8,7.6,14.8,6.6,14.8,6.6z M17.5,28.1c-0.8-0.1-1.5-0.8-1.4-1.6
	c0.1-0.7,0.7-1.3,1.4-1.4c0.8-0.1,1.6,0.6,1.6,1.4s-0.6,1.6-1.4,1.6C17.7,28.1,17.6,28.1,17.5,28.1z M22.4,23.4h-9.7V9h9.7V23.4z"/>
</svg>
