<svg xmlns="http://www.w3.org/2000/svg" width="70" height="71" viewBox="0 0 70 71">
    <g fill="none" fill-rule="evenodd">
        <circle cx="35" cy="35.699" r="35" fill="#D93C3D" fill-rule="nonzero" transform="translate(0 -.322)"/>
        <g fill="#FFF">
            <path d="M40.058 21.467l4.977 4.978h-4.977v-4.978zm8.365 5.296l-8.683-8.684a1.08 1.08 0 0 0-.768-.318h-4.341v2.171h3.256v7.598c0 .6.485 1.086 1.085 1.086h7.598v21.708H22.691V19.932h1.086v-2.17h-2.171c-.6 0-1.086.486-1.086 1.085v32.562c0 .6.485 1.086 1.086 1.086h26.05c.6 0 1.085-.487 1.085-1.086V27.53c0-.287-.114-.564-.318-.767z"/>
            <path d="M28.118 22.103h2.171v-2.17h-2.17v2.17zm1.086 16.025l-1.086-2.17V24.273h2.171v11.683l-1.085 2.171zm-.972 2.912a1.087 1.087 0 0 0 1.943 0l2.17-4.341c.076-.15.115-.317.115-.486V18.847c0-.6-.485-1.086-1.086-1.086h-4.341c-.6 0-1.086.487-1.086 1.086v17.366c0 .169.04.336.114.486l2.171 4.341zM33.545 41.64H44.4v-2.17H33.545zM35.716 37.299h8.683v-2.17h-8.683zM35.716 32.957h8.683v-2.17h-8.683zM29.204 45.982h15.195v-2.17H29.204zM24.862 45.982h2.17v-2.17h-2.17z"/>
        </g>
    </g>
</svg>
