<svg xmlns="http://www.w3.org/2000/svg" width="86" height="87" viewBox="0 0 86 87">
    <g fill="none" fill-rule="evenodd" transform="translate(0 .883)">
        <circle cx="43" cy="43" r="43" fill="#E64142" fill-rule="nonzero"/>
        <g fill="#FFF" stroke="#FFF" stroke-width=".786">
            <path d="M43.096 27.411c4.24 0 7.69 3.63 7.69 8.091 0 4.462-3.45 8.092-7.69 8.092s-7.689-3.63-7.689-8.092c0-4.461 3.45-8.09 7.69-8.09zm0 17.7c5.035 0 9.131-4.31 9.131-9.609 0-5.297-4.096-9.607-9.13-9.607-5.035 0-9.13 4.31-9.13 9.607 0 5.298 4.095 9.609 9.13 9.609zM60.232 30.118c2.6 0 4.714 2.225 4.714 4.96 0 2.736-2.115 4.961-4.714 4.961-2.6 0-4.715-2.225-4.715-4.96 0-2.736 2.115-4.961 4.715-4.961zm0 11.438c3.394 0 6.155-2.906 6.155-6.478 0-3.571-2.761-6.477-6.155-6.477-3.395 0-6.156 2.906-6.156 6.477 0 3.572 2.761 6.478 6.156 6.478z"/>
            <path d="M68.609 55.449H56.796a9.618 9.618 0 0 0-.728-3.057c-.844-2.152-2.472-3.894-4.57-4.797a5.688 5.688 0 0 1 3.524-1.238h7.714c3.238 0 5.873 2.772 5.873 6.18v2.912zm-37.543 4.467v-3.765c0-4.297 3.322-7.792 7.405-7.792h9.507c.628 0 1.239.083 1.822.239a.681.681 0 0 0 .136.055c.183.047.362.102.54.163 1.872.708 3.395 2.188 4.225 4.074.362.892.563 1.87.563 2.892v.425c0 .154.044.296.119.416v3.293H31.066zm-13.481-4.46v-2.913c0-3.408 2.651-6.18 5.91-6.18h7.76c1.287 0 2.53.442 3.547 1.238-3.042 1.303-5.107 4.349-5.23 7.854H17.585zM62.736 44.84h-7.714c-1.926 0-3.773.805-5.137 2.222a8.428 8.428 0 0 0-1.907-.22H38.47c-.698 0-1.377.088-2.03.25-1.373-1.432-3.24-2.245-5.186-2.245h-7.76c-4.054 0-7.352 3.452-7.352 7.696v3.67c0 .42.323.759.721.759h12.76v3.702c0 .42.323.759.721.759h25.759c.398 0 .72-.34.72-.759v-3.709H69.33c.398 0 .721-.34.721-.758v-3.67c0-4.244-3.281-7.697-7.314-7.697zM25.04 30.118c2.618 0 4.747 2.225 4.747 4.96 0 2.736-2.13 4.961-4.746 4.961-2.618 0-4.747-2.225-4.747-4.96 0-2.736 2.13-4.961 4.747-4.961zm0 11.438c3.412 0 6.188-2.906 6.188-6.477 0-3.572-2.776-6.478-6.187-6.478-3.412 0-6.188 2.906-6.188 6.478 0 3.571 2.776 6.477 6.188 6.477z"/>
        </g>
    </g>
</svg>
