<svg xmlns="http://www.w3.org/2000/svg" width="86" height="87" viewBox="0 0 86 87">
    <g fill="none" fill-rule="evenodd" transform="translate(0 .824)">
        <circle cx="43" cy="43" r="43" fill="#E64142" fill-rule="nonzero"/>
        <g fill="#FFF" stroke="#FFF">
            <path d="M36.436 32.652zM44.92 34.23c.63.787.944 1.713.944 2.779 0 .764-.217 1.495-.65 2.2a5.26 5.26 0 0 1-.933 1.167l-1.303 1.286c-1.259 1.244-2.061 2.332-2.43 3.28-.37.96-.554 2.212-.554 3.772h2.898c0-1.373.164-2.41.466-3.116.303-.698.986-1.56 2.028-2.572 1.433-1.395 2.389-2.452 2.856-3.172.466-.72.705-1.657.705-2.812 0-1.905-.641-3.475-1.933-4.694-1.28-1.233-2.995-1.844-5.13-1.844-2.312 0-4.126.72-5.448 2.148-1.325 1.44-1.986 3.322-1.986 5.676h2.897c.042-1.417.27-2.493.661-3.247.695-1.35 1.942-2.028 3.767-2.028 1.464 0 2.506.394 3.144 1.178z"/>
            <path d="M66.894 42.666c0-13.557-10.95-24.55-24.447-24.55-13.5 0-24.447 10.993-24.447 24.55 0 13.554 10.947 24.55 24.447 24.55 13.497 0 24.447-10.996 24.447-24.55zm-46.669 0c0-12.324 9.95-22.316 22.222-22.316 12.272 0 22.222 9.992 22.222 22.316 0 12.324-9.95 22.316-22.222 22.316-12.272 0-22.222-9.992-22.222-22.316z"/>
            <path d="M39.93 54.825h3.245v-3.4h-3.244z"/>
        </g>
    </g>
</svg>
