<svg xmlns="http://www.w3.org/2000/svg" width="70" height="71" viewBox="0 0 70 71">
    <g fill="none" fill-rule="evenodd" transform="translate(0 .83)">
        <circle cx="35" cy="35" r="35" fill="#D93C3D" fill-rule="nonzero"/>
        <path fill="#FFF" d="M52.873 53.153c-2.111-4.351-5.912-7.77-10.52-9.493v-2.752c2.265-.124 6.537-.695 9.042-3.238a1.29 1.29 0 0 0 .327-1.228 1.287 1.287 0 0 0-.903-.905c-.038-.009-3.34-1.133-2.678-7.836.288-2.857.24-5.427-.134-7.637-.432-2.532-1.296-4.522-2.554-5.913-1.362-1.494-3.138-2.256-5.279-2.256h-.249C39.109 11.19 37.324 10 34.588 10c-1.276 0-2.61.257-3.974.78l-.057.02c-1.075.4-3.071 1.152-4.761 3.38-1.968 2.59-2.908 6.427-2.793 11.398.115 4.98-.71 7.417-1.42 8.588-.586.962-1.143 1.152-1.287 1.19-.49-.038-.883.21-1.133.63-.259.428-.163.97.125 1.39.115.17.787 1.066 2.41 1.932 1.852.99 4.165 1.552 6.9 1.666v2.619a19.238 19.238 0 0 0-10.47 9.57c-.193.4-.165.866.066 1.237.24.372.653.6 1.094.6h32.424c.441 0 .864-.228 1.094-.6.23-.38.26-.847.067-1.247zM21.5 52.48c2.075-3.172 5.187-5.57 8.789-6.727a1.29 1.29 0 0 0 .903-1.223v-4.807c0-.344-.134-.678-.384-.917a1.287 1.287 0 0 0-.922-.373c-3.737.038-5.994-.812-7.224-1.538.086-.086.183-.172.279-.268 1.892-1.959 2.785-5.704 2.66-11.142-.249-10.043 4.044-11.667 5.87-12.355l.057-.02c1.076-.4 2.104-.611 3.055-.611 2.478 0 3.746 1.357 3.851 1.48.27.335.682.498 1.115.46a6.99 6.99 0 0 1 .624-.029c1.393 0 2.498.459 3.362 1.414 1.825 2.007 2.574 6.24 2.036 11.61-.537 5.418 1.163 8.133 2.632 9.451-1.978 1.09-4.793 1.5-6.915 1.5h-.193a1.326 1.326 0 0 0-.941.364c-.25.238-.394.573-.394.926v4.94c0 .565.365 1.052.903 1.224 3.65 1.175 6.772 3.545 8.837 6.66h-28v-.02z"/>
    </g>
</svg>
