<svg xmlns="http://www.w3.org/2000/svg" width="86" height="87" viewBox="0 0 86 87">
    <g fill="none" fill-rule="evenodd" transform="translate(0 .883)">
        <circle cx="43" cy="43" r="43" fill="#E64142" fill-rule="nonzero"/>
        <g fill="#FFF" stroke="#FFF">
            <path d="M61.415 44.22h4.397C65.25 56 55.837 65.422 44.072 65.98v-4.404a1.073 1.073 0 1 0-2.145 0v4.404c-11.76-.563-21.167-9.984-21.728-21.76h4.397a1.073 1.073 0 0 0 0-2.149h-4.397c.561-11.777 9.968-21.198 21.728-21.76v4.403a1.073 1.073 0 1 0 2.146 0V20.31c11.76.563 21.167 9.984 21.728 21.761h-4.397a1.073 1.073 0 0 0 0 2.148h.01zM43 18.108c-13.807 0-25 11.209-25 25.036 0 13.827 11.193 25.036 25 25.036s25-11.209 25-25.036c-.018-13.82-11.2-25.019-25-25.036z"/>
            <path d="M44.265 42.046V31.235c0-.592-.49-1.072-1.096-1.072-.605 0-1.095.48-1.095 1.072v11.25c.001.281.115.55.318.75L53.158 53.95c.423.423 1.117.43 1.55.016.432-.414.44-1.093.016-1.516l-10.46-10.404"/>
        </g>
    </g>
</svg>
