<svg xmlns="http://www.w3.org/2000/svg" width="86" height="87" viewBox="0 0 86 87">
    <g fill="none" fill-rule="evenodd" transform="translate(0 .883)">
        <circle cx="43" cy="43" r="43" fill="#E64142" fill-rule="nonzero"/>
        <g fill="#FFF" stroke="#FFF">
            <path d="M34.707 48.298a1.065 1.065 0 1 0-1.588 1.421c2.626 2.934 6.41 4.616 10.381 4.616 3.972 0 7.756-1.683 10.38-4.616a1.066 1.066 0 0 0-1.587-1.421c-2.222 2.483-5.426 3.906-8.793 3.906-3.366 0-6.571-1.423-8.793-3.906"/>
            <path d="M43.5 20.248c12.335 0 22.37 10.034 22.37 22.37 0 12.334-10.035 22.369-22.37 22.369s-22.37-10.035-22.37-22.37 10.035-22.37 22.37-22.37zm0 46.87c13.51 0 24.5-10.992 24.5-24.5 0-13.51-10.99-24.5-24.5-24.5S19 29.107 19 42.617c0 13.508 10.99 24.5 24.5 24.5z"/>
            <path d="M48.1 41.117c.607 0 1.1-.448 1.1-1 0-1.654 1.48-3 3.3-3 1.82 0 3.3 1.346 3.3 3 0 .552.493 1 1.1 1 .607 0 1.1-.448 1.1-1 0-2.757-2.467-5-5.5-5s-5.5 2.243-5.5 5c0 .552.493 1 1.1 1M30.1 41.117c.607 0 1.1-.448 1.1-1 0-1.654 1.48-3 3.3-3 1.82 0 3.3 1.346 3.3 3 0 .552.493 1 1.1 1 .607 0 1.1-.448 1.1-1 0-2.757-2.467-5-5.5-5s-5.5 2.243-5.5 5c0 .552.493 1 1.1 1"/>
        </g>
    </g>
</svg>
