<svg xmlns="http://www.w3.org/2000/svg" width="70" height="70" viewBox="0 0 70 70">
    <g fill="none" fill-rule="evenodd">
        <circle cx="35" cy="35" r="35" fill="#000"/>
        <g fill="#FFF" stroke="#FFF" stroke-width=".5">
            <path d="M35.5 19.466c-6.814 0-11.737 5.079-12.517 10.534-.487 3.637.689 7.182 3.131 9.863 2.15 2.296 3.325 5.364 3.325 8.523l-.01 4.977c0 2.011 1.663 3.637 3.72 3.637h4.794c2.057 0 3.72-1.626 3.72-3.637l.009-4.977c0-3.251 1.074-6.227 3.13-8.33 2.251-2.296 3.426-5.262 3.426-8.33-.008-6.805-5.785-12.26-12.728-12.26zm4.298 33.897c0 .955-.78 1.727-1.764 1.727h-4.793c-.983 0-1.763-.763-1.763-1.727V51.16h8.31v2.204h.01zm3.637-14.648c-2.443 2.489-3.72 5.933-3.72 9.67v.864h-8.31v-.863c0-3.545-1.47-7.08-3.913-9.762-2.15-2.296-3.03-5.263-2.645-8.33.689-4.592 4.959-8.908 10.662-8.908 5.97 0 10.763 4.693 10.763 10.34 0 2.581-.982 5.07-2.837 6.99zM34.517 16.592h1.956V12h-1.956zM47.356 20.853l1.368 1.368 3.352-3.223L50.7 17.63zM53.206 34.6H58v-1.918h-4.794zM13.007 34.6h4.787v-1.918h-4.787zM20.264 17.62l-1.377 1.369 3.352 3.223 1.368-1.368z"/>
        </g>
    </g>
</svg>
