<svg xmlns="http://www.w3.org/2000/svg" width="71" height="71" viewBox="0 0 71 71">
    <g fill="none" fill-rule="evenodd">
        <circle cx="35.299" cy="35.653" r="35" fill="#000"/>
        <path fill="#FFF" stroke="#FFF" stroke-width=".7" d="M41.125 43.446c1.831 1.834 3.766 3.774 5.704 5.71.287.286.643.442 1.05.467a1.648 1.648 0 0 0 1.599-.968c.29-.642.141-1.344-.42-1.907-1.874-1.879-3.751-3.753-5.628-5.629-.036-.036-.077-.066-.116-.1l.105.132-2.294 2.295m-21-11.181c.042 6.672 5.354 12.106 12.122 12.114a12.077 12.077 0 0 0 12.121-12.107c.008-6.75-5.418-12.125-12.13-12.131-6.679-.007-12.121 5.465-12.113 12.124m11.222-14.09h1.827c.073.017.145.045.219.05 1.397.102 2.76.385 4.042.94 5.197 2.247 8.198 6.18 8.83 11.818.322 2.857-.292 5.575-1.697 8.096-.121.219-.081.332.08.493 1.75 1.74 3.48 3.5 5.244 5.225.8.781 1.504 1.596 1.686 2.744v.914c-.02.06-.049.118-.061.179-.22 1.106-.807 1.96-1.802 2.492-.393.21-.845.311-1.27.462h-.913c-1.135-.183-1.947-.87-2.721-1.662-1.686-1.726-3.404-3.42-5.114-5.124-.447-.445-.266-.41-.795-.125-1.499.805-3.09 1.335-4.775 1.544-3.447.427-6.67-.243-9.575-2.171-3.305-2.195-5.37-5.253-6.134-9.164-.11-.562-.17-1.134-.254-1.702v-1.827c.063-.46.118-.92.191-1.378.909-5.68 5.275-10.281 10.908-11.478.686-.146 1.389-.22 2.084-.327"/>
    </g>
</svg>
