<svg xmlns="http://www.w3.org/2000/svg" width="86" height="87" viewBox="0 0 86 87">
    <g fill="none" fill-rule="evenodd" transform="translate(0 .148)">
        <circle cx="43" cy="43" r="43" fill="#E64142" fill-rule="nonzero"/>
        <g fill="#FFF" stroke="#FFF" stroke-width=".2">
            <path d="M47.565 34.408a.92.92 0 0 0 .913-.927.92.92 0 0 0-.913-.928.92.92 0 0 0-.913.928.92.92 0 0 0 .913.927zM38.435 34.408a.92.92 0 0 0 .913-.927.92.92 0 0 0-.913-.928.92.92 0 0 0-.913.928.92.92 0 0 0 .913.927zM40.444 41.043a5.77 5.77 0 0 0 2.537.583 5.78 5.78 0 0 0 2.488-.56.99.99 0 0 0 .466-1.295.938.938 0 0 0-1.259-.48 3.938 3.938 0 0 1-1.695.38 3.928 3.928 0 0 1-1.728-.396.937.937 0 0 0-1.263.467.99.99 0 0 0 .454 1.3z"/>
            <path d="M63.914 56.386c0-5.373-5.944-9.586-11.04-9.786l-2.599-2.404c3.166-2.377 5.088-6.199 5.088-10.26v-6.448c0-5.925-4.699-10.747-10.474-10.747h-3.797c-5.768 0-10.407 4.804-10.407 10.747v6.449c0 4.054 1.896 7.867 5.02 10.24L33.088 46.6c-5.084.2-11.04 4.402-11.04 9.786v9.402c0 .54.425.977.95.977h39.968c.524 0 .949-.438.949-.977v-9.402zm-23.036 3.93h4.2l.995 4.495h-6.219l1.024-4.495zm4.281-1.954h-4.341l-.728-2.335 2.891-1.488 2.953 1.52-.775 2.303zm-2.178-6.759l-3.298-5.431a12.01 12.01 0 0 0 6.59.008l-3.292 5.423zm1.358 1.45l4.557-7.506 2.458 2.274-3.127 7.234-3.888-2.001zm-3.247-34.358h3.797c4.728 0 8.575 3.944 8.575 8.793v.808l-1.782-2.642a.933.933 0 0 0-1.458-.126c-1.93 2.031-4.163 2.937-7.243 2.937s-5.313-.906-7.244-2.937a.935.935 0 0 0-.762-.29.944.944 0 0 0-.7.422l-1.692 2.552v-.724c0-4.849 3.817-8.793 8.509-8.793zm-8.51 15.242v-2.259l2.637-3.976c2.112 1.849 4.608 2.717 7.762 2.717 3.158 0 5.656-.87 7.768-2.723l2.715 4.026v2.215c0 5.85-4.646 10.747-10.474 10.747-5.809 0-10.407-4.88-10.407-10.747zm4.483 11.61l4.558 7.507-3.889 2-3.127-7.233 2.458-2.273zm-13.12 10.839c0-4.025 4.754-7.5 8.908-7.816l3.55 8.213a.962.962 0 0 0 .548.523c.244.09.513.073.744-.046l.677-.349.77 2.469-1.238 5.43H23.946v-8.424zm38.07 8.425H48.02l-1.2-5.416.827-2.454.619.319c.233.12.503.135.745.046a.962.962 0 0 0 .546-.523l3.551-8.213c4.154.316 8.907 3.79 8.907 7.816v8.425z"/>
            <path d="M54.87 60.371h-3.653a.92.92 0 0 0-.913.928.92.92 0 0 0 .913.927h3.653a.92.92 0 0 0 .913-.927.92.92 0 0 0-.913-.928zM59.435 60.371a.92.92 0 0 1 .913.928.92.92 0 0 1-.913.927.92.92 0 0 1-.913-.927.92.92 0 0 1 .913-.928z"/>
        </g>
    </g>
</svg>
