<svg xmlns="http://www.w3.org/2000/svg" width="86" height="87" viewBox="0 0 86 87">
    <defs>
        <linearGradient id="a" x1="50%" x2="50%" y1="0%" y2="100%">
            <stop offset="0%" stop-color="#FFD132"/>
            <stop offset="100%" stop-color="#D24505"/>
        </linearGradient>
    </defs>
    <g fill="none" fill-rule="evenodd">
        <circle cx="43" cy="43.418" r="43" fill="url(#a)" fill-rule="nonzero"/>
        <g fill="#FFF" stroke="#FFF" stroke-width=".5">
            <path d="M65.488 30.929H49.846V19.435c0-.568-.454-1.022-1.022-1.022H20.667c-.568 0-1.022.454-1.022 1.022v48.494c0 .568.454 1.022 1.022 1.022h44.821c.568 0 1.022-.454 1.022-1.022V31.95c0-.567-.454-1.021-1.022-1.021zM47.803 31.95v34.968H21.688V20.456h26.115V31.95zm2.043 34.958h14.62V32.962h-14.62v33.946z"/>
            <path d="M53.829 38.151h6.655c.567 0 1.021-.454 1.021-1.02 0-.569-.454-1.023-1.02-1.023h-6.656c-.567 0-1.021.454-1.021 1.022 0 .557.454 1.021 1.02 1.021zM53.829 43.28h6.655c.567 0 1.021-.454 1.021-1.022 0-.568-.454-1.021-1.02-1.021h-6.656c-.567 0-1.021.453-1.021 1.02 0 .569.454 1.023 1.02 1.023zM53.829 48.397h6.655c.567 0 1.021-.454 1.021-1.021 0-.568-.454-1.022-1.02-1.022h-6.656c-.567 0-1.021.454-1.021 1.022 0 .567.454 1.021 1.02 1.021zM53.829 53.525h6.655c.567 0 1.021-.454 1.021-1.021s-.454-1.022-1.02-1.022h-6.656c-.567 0-1.021.455-1.021 1.022s.454 1.021 1.02 1.021zM53.829 58.643h6.655c.567 0 1.021-.454 1.021-1.021 0-.568-.454-1.022-1.02-1.022h-6.656c-.567 0-1.021.454-1.021 1.022 0 .557.454 1.021 1.02 1.021zM53.829 63.771h6.655c.567 0 1.021-.454 1.021-1.021 0-.568-.454-1.022-1.02-1.022h-6.656c-.567 0-1.021.454-1.021 1.022 0 .567.454 1.021 1.02 1.021zM26.424 28.422c.568 0 1.022-.455 1.022-1.022v-2.26c0-.567-.454-1.021-1.022-1.021-.567 0-1.021.454-1.021 1.021v2.26c0 .567.454 1.022 1.021 1.022zM31.976 28.422c.567 0 1.02-.455 1.02-1.022v-2.26c0-.567-.453-1.021-1.02-1.021-.568 0-1.022.454-1.022 1.021v2.26c0 .567.454 1.022 1.022 1.022zM37.516 28.422c.568 0 1.022-.455 1.022-1.022v-2.26c0-.567-.454-1.021-1.022-1.021-.567 0-1.021.454-1.021 1.021v2.26c0 .567.464 1.022 1.021 1.022zM43.068 28.422c.567 0 1.02-.455 1.02-1.022v-2.26c0-.567-.453-1.021-1.02-1.021-.568 0-1.022.454-1.022 1.021v2.26c0 .567.454 1.022 1.022 1.022zM26.424 35.417c.568 0 1.022-.454 1.022-1.021v-2.27c0-.568-.454-1.022-1.022-1.022-.567 0-1.021.454-1.021 1.022v2.27c0 .557.454 1.021 1.021 1.021zM31.976 35.417c.567 0 1.02-.454 1.02-1.021v-2.27c0-.568-.453-1.022-1.02-1.022-.568 0-1.022.454-1.022 1.022v2.27c0 .557.454 1.021 1.022 1.021zM37.516 35.417c.568 0 1.022-.454 1.022-1.021v-2.27c0-.568-.454-1.022-1.022-1.022-.567 0-1.021.454-1.021 1.022v2.27a1.03 1.03 0 0 0 1.021 1.021zM43.068 35.417c.567 0 1.02-.454 1.02-1.021v-2.27c0-.568-.453-1.022-1.02-1.022-.568 0-1.022.454-1.022 1.022v2.27c0 .557.454 1.021 1.022 1.021zM26.424 42.402c.568 0 1.022-.454 1.022-1.021v-2.26c0-.567-.454-1.021-1.022-1.021-.567 0-1.021.454-1.021 1.021v2.26c0 .567.454 1.021 1.021 1.021zM31.976 42.402c.567 0 1.02-.454 1.02-1.021v-2.26c0-.567-.453-1.021-1.02-1.021-.568 0-1.022.454-1.022 1.021v2.26c0 .567.454 1.021 1.022 1.021zM37.516 42.402c.568 0 1.022-.454 1.022-1.021v-2.26c0-.567-.454-1.021-1.022-1.021-.567 0-1.021.454-1.021 1.021v2.26c0 .567.464 1.021 1.021 1.021zM43.068 42.402c.567 0 1.02-.454 1.02-1.021v-2.26c0-.567-.453-1.021-1.02-1.021-.568 0-1.022.454-1.022 1.021v2.26c0 .567.454 1.021 1.022 1.021zM26.424 49.398c.568 0 1.022-.454 1.022-1.021v-2.26c0-.568-.454-1.022-1.022-1.022-.567 0-1.021.454-1.021 1.022v2.26c0 .557.454 1.02 1.021 1.02zM31.976 49.398c.567 0 1.02-.454 1.02-1.021v-2.26c0-.568-.453-1.022-1.02-1.022-.568 0-1.022.454-1.022 1.022v2.26c0 .557.454 1.02 1.022 1.02zM37.516 49.398c.568 0 1.022-.454 1.022-1.021v-2.26c0-.568-.454-1.022-1.022-1.022-.567 0-1.021.454-1.021 1.022v2.26a1.03 1.03 0 0 0 1.021 1.02zM43.068 49.398c.567 0 1.02-.454 1.02-1.021v-2.26c0-.568-.453-1.022-1.02-1.022-.568 0-1.022.454-1.022 1.022v2.26c0 .557.454 1.02 1.022 1.02zM26.424 56.383c.568 0 1.022-.454 1.022-1.021v-2.26c0-.567-.454-1.021-1.022-1.021-.567 0-1.021.454-1.021 1.021v2.26c0 .567.454 1.021 1.021 1.021zM31.976 56.383c.567 0 1.02-.454 1.02-1.021v-2.26c0-.567-.453-1.021-1.02-1.021-.568 0-1.022.454-1.022 1.021v2.26c0 .567.454 1.021 1.022 1.021zM37.516 56.383c.568 0 1.022-.454 1.022-1.021v-2.26c0-.567-.454-1.021-1.022-1.021-.567 0-1.021.454-1.021 1.021v2.26c0 .567.464 1.021 1.021 1.021zM43.068 56.383c.567 0 1.02-.454 1.02-1.021v-2.26c0-.567-.453-1.021-1.02-1.021-.568 0-1.022.454-1.022 1.021v2.26c0 .567.454 1.021 1.022 1.021zM26.424 63.38c.568 0 1.022-.455 1.022-1.023v-2.27c0-.567-.454-1.021-1.022-1.021-.567 0-1.021.454-1.021 1.022v2.27c0 .557.454 1.021 1.021 1.021zM31.976 63.38c.567 0 1.02-.455 1.02-1.023v-2.27c0-.567-.453-1.021-1.02-1.021-.568 0-1.022.454-1.022 1.022v2.27c0 .557.454 1.021 1.022 1.021zM37.516 63.38c.568 0 1.022-.455 1.022-1.023v-2.27c0-.567-.454-1.021-1.022-1.021-.567 0-1.021.454-1.021 1.022v2.27a1.03 1.03 0 0 0 1.021 1.021zM43.068 63.38c.567 0 1.02-.455 1.02-1.023v-2.27c0-.567-.453-1.021-1.02-1.021-.568 0-1.022.454-1.022 1.022v2.27c0 .557.454 1.021 1.022 1.021z"/>
        </g>
    </g>
</svg>
