<svg xmlns="http://www.w3.org/2000/svg" width="86" height="87" viewBox="0 0 86 87">
    <defs>
        <linearGradient id="a" x1="50%" x2="50%" y1="0%" y2="100%">
            <stop offset="0%" stop-color="#FFD132"/>
            <stop offset="100%" stop-color="#D24505"/>
        </linearGradient>
    </defs>
    <g fill="none" fill-rule="evenodd">
        <circle cx="43" cy="43.859" r="43" fill="url(#a)" fill-rule="nonzero" transform="translate(0 -.176)"/>
        <path fill="#FFF" d="M67.707 61.01l-11.4-15.901a2.47 2.47 0 0 0-2.026-1.049 2.47 2.47 0 0 0-2.026 1.049l-4.52 6.303-9.897-13.522v-5.45h8.525c1.007 0 1.826-.82 1.826-1.826v-6.515c0-1.007-.82-1.826-1.826-1.826H36.71c-1.007 0-1.826.82-1.826 1.826v13.795L18.324 60.752a2.81 2.81 0 0 0-.21 2.894 2.63 2.63 0 0 0 2.34 1.448h45.227c.937 0 1.79-.525 2.223-1.371a2.632 2.632 0 0 0-.197-2.713zm-29.87-31.523h7.4v-4.26h-7.4v4.26zM20.965 62.141l15.404-21.26 10.178 13.904 5.104 7.356H20.964zm34.28 0l-5.69-8.199 4.727-6.592 10.605 14.791h-9.642z"/>
    </g>
</svg>
