<svg xmlns="http://www.w3.org/2000/svg" width="93" height="93" viewBox="0 0 93 93">
    <g fill="none" fill-rule="evenodd">
        <circle cx="46.357" cy="46.357" r="46.357" fill="#EB9D40"/>
        <path fill="#FFF" stroke="#FFF" stroke-width=".5" d="M35.838 55.577H64.833a1.6 1.6 0 0 0 1.537-1.16l6.395-22.383a1.6 1.6 0 0 0-1.537-2.038H32.151l-1.143-5.143a1.6 1.6 0 0 0-1.561-1.252h-9.593a1.599 1.599 0 1 0 0 3.198h8.31l5.773 25.976a4.803 4.803 0 0 0-2.891 4.4 4.802 4.802 0 0 0 4.796 4.797h28.991a1.599 1.599 0 1 0 0-3.198H35.842a1.6 1.6 0 0 1-1.599-1.599 1.6 1.6 0 0 1 1.595-1.598zm33.27-22.383l-5.481 19.185H37.124l-4.263-19.185h36.247zM34.243 66.768a4.802 4.802 0 0 0 4.796 4.796 4.802 4.802 0 0 0 4.797-4.796 4.802 4.802 0 0 0-4.797-4.796 4.802 4.802 0 0 0-4.796 4.796zm4.796-1.599a1.6 1.6 0 0 1 1.6 1.599 1.6 1.6 0 0 1-1.6 1.599 1.6 1.6 0 0 1-1.598-1.599 1.6 1.6 0 0 1 1.598-1.599zM56.84 66.768a4.802 4.802 0 0 0 4.795 4.796 4.802 4.802 0 0 0 4.797-4.796 4.802 4.802 0 0 0-4.797-4.796 4.802 4.802 0 0 0-4.796 4.796zm4.795-1.599a1.6 1.6 0 0 1 1.6 1.599 1.6 1.6 0 0 1-1.6 1.599 1.6 1.6 0 0 1-1.598-1.599 1.6 1.6 0 0 1 1.598-1.599z"/>
    </g>
</svg>
