<svg xmlns="http://www.w3.org/2000/svg" width="86" height="87" viewBox="0 0 86 87">
    <defs>
        <linearGradient id="a" x1="50%" x2="50%" y1="0%" y2="100%">
            <stop offset="0%" stop-color="#FFD132"/>
            <stop offset="100%" stop-color="#D24505"/>
        </linearGradient>
    </defs>
    <g fill="none" fill-rule="evenodd">
        <circle cx="43" cy="43.859" r="43" fill="url(#a)" fill-rule="nonzero" transform="translate(0 -.176)"/>
        <g fill="#FFF">
            <path d="M55.482 67.365H36.497a5.715 5.715 0 0 1-5.672-5.7v-5.05a1.414 1.414 0 1 1 2.83 0v5.035a2.877 2.877 0 0 0 2.842 2.871h18.985c1.556 0 2.786-1.315 2.786-2.871V25.068a2.803 2.803 0 0 0-2.772-2.844H36.497a2.852 2.852 0 0 0-2.843 2.844v4.951a1.415 1.415 0 0 1-2.829 0v-4.937a5.699 5.699 0 0 1 5.672-5.672h18.985a5.639 5.639 0 0 1 5.616 5.658v36.597c0 3.111-2.504 5.7-5.616 5.7z"/>
            <path d="M46.144 46.245h-25.52a1.415 1.415 0 1 1 0-2.83h25.83l-7.256-8.388a1.423 1.423 0 1 1 2.136-1.882l9.153 10.539a1.398 1.398 0 0 1 .198 1.98 1.33 1.33 0 0 1-.255.241l-9.167 9.153a1.408 1.408 0 0 1-1.994 0 1.368 1.368 0 0 1-.014-1.952l.014-.015 6.875-6.846z"/>
        </g>
    </g>
</svg>
