<svg xmlns="http://www.w3.org/2000/svg" width="93" height="94" viewBox="0 0 93 94">
    <g fill="none" fill-rule="evenodd">
        <circle cx="46.357" cy="46.857" r="46.357" fill="#DD2224"/>
        <path fill="#FFF" d="M67.569 30.918h-7.07v-5.273c0-.993-.804-1.798-1.797-1.798h-24.69c-.993 0-1.798.805-1.798 1.798v5.273h-7.07c-.992 0-1.797.804-1.797 1.797v4.408c0 5.268 3.84 9.655 8.867 10.512v2.555c0 .6.3 1.162.8 1.495a23.968 23.968 0 0 0 11.545 3.973v3.423h-1.798c-4.956 0-8.988 4.032-8.988 8.988 0 .993.805 1.797 1.798 1.797h22.194c.993 0 1.798-.804 1.798-1.797 0-4.956-4.032-8.988-8.989-8.988h-2.42v-3.423A23.964 23.964 0 0 0 59.7 51.685c.5-.333.8-.894.8-1.496v-2.554c5.028-.857 8.867-5.244 8.867-10.512v-4.408c0-.993-.804-1.797-1.797-1.797zM32.214 43.96c-3.03-.797-5.272-3.56-5.272-6.837v-2.61h5.272v9.447zM55.659 66.27H37.676a5.402 5.402 0 0 1 5.085-3.595h7.813a5.402 5.402 0 0 1 5.085 3.595zm1.245-17.07a20.398 20.398 0 0 1-21.095 0V27.443h21.095v21.76zm8.867-12.078c0 3.277-2.242 6.04-5.272 6.837v-9.447h5.272v2.61z"/>
    </g>
</svg>
