<svg xmlns="http://www.w3.org/2000/svg" width="86" height="87" viewBox="0 0 86 87">
    <defs>
        <linearGradient id="a" x1="50%" x2="50%" y1="0%" y2="100%">
            <stop offset="0%" stop-color="#FFD132"/>
            <stop offset="100%" stop-color="#D24505"/>
        </linearGradient>
    </defs>
    <g fill="none" fill-rule="evenodd">
        <circle cx="43" cy="43.859" r="43" fill="url(#a)" fill-rule="nonzero" transform="translate(0 -.176)"/>
        <g fill="#FFF">
            <path d="M17.14 49.8c.142-3.034.636-6.491 1.482-9.736.776-3.034 1.764-5.856 2.963-7.972 3.88-6.984 8.395-5.856 13.757-4.444 2.187.564 4.444 1.128 6.913 1.34h1.058c2.54-.212 4.798-.776 6.985-1.34 5.361-1.34 9.876-2.54 13.756 4.444 1.2 2.116 2.187 4.868 2.963 7.972.776 3.245 1.34 6.631 1.482 9.735.14 3.245-.142 5.432-.776 6.914-.424.987-.988 1.552-1.694 1.763-.776.212-1.763.07-2.892-.352-2.47-.988-5.362-3.175-8.183-5.856-2.681-2.68-7.408-4.02-12.134-4.02-4.727 0-9.454 1.34-12.205 3.88-2.892 2.68-5.785 4.937-8.183 5.855-1.129.423-2.117.634-2.893.352-.705-.211-1.27-.776-1.693-1.763-.564-1.34-.846-3.528-.705-6.773zm1.764 11.145c1.34.353 2.893.212 4.515-.493 2.752-1.13 5.926-3.528 9.03-6.42 2.187-2.116 6.279-3.175 10.37-3.175 4.092 0 8.184 1.059 10.37 3.175 3.105 2.892 6.28 5.29 9.03 6.42 1.623.635 3.175.846 4.516.493 1.41-.423 2.61-1.41 3.386-3.245.776-1.763 1.129-4.374.988-8.042-.141-3.245-.706-6.843-1.552-10.23-.847-3.244-1.905-6.278-3.175-8.606-4.938-8.677-10.3-7.337-16.72-5.644-2.045.494-4.232 1.058-6.49 1.27h-.705c-2.258-.212-4.445-.776-6.49-1.27-6.42-1.622-11.782-3.033-16.72 5.715-1.27 2.328-2.398 5.361-3.174 8.606-.847 3.387-1.411 6.984-1.552 10.23-.142 3.597.211 6.208.987 8.042.776 1.693 1.905 2.751 3.386 3.174z"/>
            <path d="M24.407 38.794c0-.423.141-.776.423-1.058l.07-.07c.283-.212.636-.354.988-.354h.988a1.34 1.34 0 0 0 1.34-1.34v-.988c0-.423.142-.776.424-1.058a1.435 1.435 0 0 1 1.058-.423c.423 0 .776.14 1.058.423l.07.07c.212.283.353.636.353.988v.988c0 .705.565 1.34 1.34 1.34h.988c.424 0 .777.142 1.059.424.282.282.423.635.423 1.058 0 .423-.141.776-.423 1.058a1.436 1.436 0 0 1-1.059.423h-.987a1.34 1.34 0 0 0-1.34 1.34v.918c0 .423-.142.776-.424 1.058a1.436 1.436 0 0 1-1.058.423c-.423 0-.776-.14-1.058-.423a1.436 1.436 0 0 1-.423-1.058v-.988a1.34 1.34 0 0 0-1.34-1.34h-.989c-.423 0-.776-.141-1.058-.423a1.43 1.43 0 0 1-.423-.988zm1.2 4.092c.07.987.493 1.904 1.199 2.54a3.996 3.996 0 0 0 2.892 1.199 4.165 4.165 0 0 0 2.892-1.2c.635-.705 1.13-1.552 1.2-2.54.987-.07 1.904-.493 2.54-1.199a3.996 3.996 0 0 0 1.199-2.892 4.165 4.165 0 0 0-1.2-2.892c-.705-.635-1.552-1.13-2.54-1.2a4.015 4.015 0 0 0-1.128-2.47l-.07-.07a3.995 3.995 0 0 0-2.893-1.199 4.165 4.165 0 0 0-2.892 1.2c-.635.634-1.13 1.552-1.2 2.539-.987.07-1.834.494-2.54 1.129l-.07.07a3.995 3.995 0 0 0-1.2 2.893c0 1.129.495 2.187 1.2 2.892.706.706 1.552 1.13 2.61 1.2zM55.095 31.316a2.47 2.47 0 1 1 0 4.938 2.47 2.47 0 0 1 0-4.938M55.095 41.334a2.47 2.47 0 1 1 0 4.938 2.47 2.47 0 0 1 0-4.938M50.086 36.325a2.47 2.47 0 1 1 0 4.938 2.47 2.47 0 0 1 0-4.938M60.103 36.325a2.47 2.47 0 1 1 0 4.938 2.47 2.47 0 0 1 0-4.938"/>
        </g>
    </g>
</svg>
