<svg xmlns="http://www.w3.org/2000/svg" width="86" height="87" viewBox="0 0 86 87">
    <defs>
        <linearGradient id="a" x1="50%" x2="50%" y1="0%" y2="100%">
            <stop offset="0%" stop-color="#FFD132"/>
            <stop offset="100%" stop-color="#D24505"/>
        </linearGradient>
        <linearGradient id="b" x1="50%" x2="50%" y1="0%" y2="99.185%">
            <stop offset="0%" stop-color="#F6B529"/>
            <stop offset="100%" stop-color="#DB610E"/>
        </linearGradient>
    </defs>
    <g fill="none" fill-rule="evenodd">
        <circle cx="43" cy="43.859" r="43" fill="url(#a)" fill-rule="nonzero" transform="translate(0 -.441)"/>
        <path fill="#FFF" stroke="url(#b)" d="M66.237 53.514a24.503 24.503 0 0 0 1.37-8.097c0-2.835-.483-5.558-1.37-8.095a1.636 1.636 0 0 0-.078-.221C62.742 27.613 53.651 20.81 43 20.81S23.258 27.612 19.84 37.1a1.597 1.597 0 0 0-.077.221 24.495 24.495 0 0 0-1.37 8.095c0 2.835.483 5.56 1.37 8.097.021.076.047.15.078.221 3.418 9.488 12.508 16.29 23.159 16.29s19.742-6.802 23.16-16.29c.03-.07.056-.145.077-.221zM43 66.498c-.937 0-2.448-1.696-3.711-5.485-.61-1.828-1.097-3.93-1.453-6.217h10.328c-.355 2.287-.843 4.388-1.453 6.217-1.263 3.79-2.774 5.485-3.711 5.485zm-5.592-15.23c-.17-1.88-.26-3.842-.26-5.85 0-2.009.09-3.97.26-5.85h11.184c.169 1.88.258 3.841.258 5.85 0 2.008-.09 3.97-.258 5.85H37.408zm-15.488-5.85c0-2.03.288-3.993.827-5.85H33.87a68.503 68.503 0 0 0-.249 5.85c0 1.964.084 3.931.25 5.85H22.746a20.995 20.995 0 0 1-.827-5.85zM43 24.337c.937 0 2.448 1.696 3.711 5.485.61 1.828 1.098 3.93 1.453 6.217H37.836c.355-2.288.843-4.389 1.453-6.217 1.263-3.79 2.774-5.485 3.711-5.485zm9.13 15.23h11.123a21.02 21.02 0 0 1 .827 5.85c0 2.03-.29 3.993-.827 5.85H52.13c.165-1.919.248-3.886.248-5.85 0-1.964-.083-3.931-.248-5.85zm9.745-3.528h-10.15c-.627-4.327-1.703-8.208-3.213-10.97 5.853 1.587 10.704 5.64 13.363 10.97zM37.488 25.07c-1.51 2.762-2.586 6.643-3.214 10.97H24.125c2.66-5.33 7.51-9.383 13.363-10.97zM24.125 54.796h10.15c.627 4.327 1.703 8.208 3.213 10.97-5.853-1.589-10.704-5.64-13.363-10.97zm24.387 10.97c1.51-2.762 2.586-6.643 3.214-10.97h10.149c-2.66 5.33-7.51 9.381-13.363 10.97z" transform="translate(0 -2)"/>
    </g>
</svg>
