<svg xmlns="http://www.w3.org/2000/svg" width="86" height="87" viewBox="0 0 86 87">
    <defs>
        <linearGradient id="a" x1="50%" x2="50%" y1="0%" y2="100%">
            <stop offset="0%" stop-color="#FFD132"/>
            <stop offset="100%" stop-color="#D24505"/>
        </linearGradient>
    </defs>
    <g fill="none" fill-rule="evenodd">
        <circle cx="43" cy="43.859" r="43" fill="url(#a)" fill-rule="nonzero" transform="translate(0 -.441)"/>
        <g fill="#FFF">
            <path d="M42.561 67.438c-13.458 0-24.407-10.95-24.407-24.407 0-13.459 10.949-24.407 24.407-24.407S66.968 29.572 66.968 43.03c0 13.458-10.949 24.407-24.407 24.407zm19.55-43.957c-5.222-5.222-12.165-8.097-19.55-8.097-7.385 0-14.328 2.875-19.55 8.097-5.221 5.222-8.097 12.165-8.097 19.55 0 7.384 2.876 14.327 8.098 19.55 5.221 5.221 12.164 8.097 19.55 8.097 7.384 0 14.327-2.876 19.549-8.098 5.221-5.222 8.097-12.165 8.097-19.55 0-7.384-2.876-14.327-8.097-19.549z"/>
            <path d="M44.296 41.41h-3.47a3.59 3.59 0 0 1-3.586-3.585 3.59 3.59 0 0 1 3.586-3.585h6.94a1.62 1.62 0 0 0 0-3.24h-3.585v-3.585a1.62 1.62 0 0 0-3.24 0V31h-.115a6.833 6.833 0 0 0-6.825 6.825 6.833 6.833 0 0 0 6.825 6.826h3.47a3.59 3.59 0 0 1 3.586 3.585 3.59 3.59 0 0 1-3.586 3.586h-6.94a1.62 1.62 0 0 0 0 3.24h3.585v3.585a1.62 1.62 0 0 0 3.24 0v-3.586h.115a6.833 6.833 0 0 0 6.826-6.825 6.833 6.833 0 0 0-6.826-6.825"/>
        </g>
    </g>
</svg>
