<svg id="elvn-1" xmlns="http://www.w3.org/2000/svg" viewBox="0 0 200 200"><defs><style>.cls-1{fill:#384956;}</style></defs><title>c#-icon</title><path id="path4212" class="cls-1" d="M88.62,49.44h0a50,50,0,0,0-18.9,5.1,50.74,50.74,0,0,0-20.1,72.7c.7,1.1,1.4,2.1,1.4,2.1s.7.9,1.4,1.8a66.88,66.88,0,0,0,8.8,8.9,52,52,0,0,0,27.5,10.6,66.83,66.83,0,0,0,10.9-.5c1.1-.2,2.4-.4,2.9-.5s1.6-.4,2.4-.6a51.83,51.83,0,0,0,25.1-15.3,54.16,54.16,0,0,0,5.2-6.9l.7-1.3-10.4-6.1c-5.7-3.3-10.6-6.1-10.9-6.1s-.8.6-1.4,1.4a26.42,26.42,0,0,1-12.5,9.5c-3.5,1.2-4.5,1.3-8.5,1.3a22.61,22.61,0,0,1-10.6-2.1,21.82,21.82,0,0,1-7-4.9A25.63,25.63,0,0,1,86,75.24a32.9,32.9,0,0,1,12.1-.2,31.94,31.94,0,0,1,7,2.8,26.85,26.85,0,0,1,8.4,8c.3.6.8,1,1,1a7.44,7.44,0,0,0,1.7-.8c1.5-.9,6.5-3.7,7.9-4.5.5-.3,2.1-1.2,3.6-2.1s3.3-1.9,3.9-2.3,1.9-1.1,2.8-1.6a6,6,0,0,0,1.6-1.1,19.57,19.57,0,0,0-1.6-2.6,51.28,51.28,0,0,0-26.1-20,50.2,50.2,0,0,0-19.7-2.4Zm47.2,38.2v3.2h-3.2v6.5h3.2v6.4h-3.2v6.5h3.2v3.2h6.4v-3.2h6.4v3.2H155v-3.2h3.2v-6.5H155v-6.4h3.2v-6.5H155v-3.2h-6.4v3.2h-6.4v-3.2Zm6.4,9.7h6.4v6.4h-6.4Z"/></svg>