<svg id="elvn-1" xmlns="http://www.w3.org/2000/svg" viewBox="0 0 200 200"><defs><style>.cls-1{fill:#384956;}</style></defs><title>vr-icon</title><path class="cls-1" d="M44.5,105.3h0v-.54c0-3,18-25.93,48.4-33C55,74.5,30.09,99.32,30.09,104.87v.43h0c.54,5.46,18.57,25.14,58.74,28.32C54.09,124.24,45.12,108.53,44.5,105.3Z"/><path class="cls-1" d="M169.91,105.15c-.21-6.88-24.24-31.44-65.54-33.59,34.32,6.78,50.91,30.52,50.91,33.58a1.83,1.83,0,0,1-.25.91,17.72,17.72,0,0,1-3,3.64,56.8,56.8,0,0,1-34,13.09,27,27,0,0,0,7.43-18.23,25.67,25.67,0,0,0-51.34-.07c0,30.09,38.63,33,62.63,25.08,19.64-6.47,32.77-20.5,33.09-23.94h0C169.9,104.9,169.91,105.19,169.91,105.15Zm-70.1,13.9a14.57,14.57,0,1,1,14.57-14.57,14.56,14.56,0,0,1-14.57,14.57h0Z"/></svg>