<svg id="elvn-1" xmlns="http://www.w3.org/2000/svg" viewBox="0 0 200 200"><defs><style>.cls-1{fill:#384956;}</style></defs><title>java-icon</title><path class="cls-1" d="M99,60.83C93.06,65,86.35,69.71,82.75,77.52,76.5,91.14,95.53,106,96.34,106.63a1,1,0,0,0,1.32,0,1.06,1.06,0,0,0,.26-1.29c-.07-.13-6.9-13.39-6.65-22.91.09-3.31,4.73-7.07,9.64-11.05,4.5-3.65,9.6-7.78,12.58-12.62,6.55-10.64-.73-21.1-.8-21.21a1.06,1.06,0,0,0-1.28-.35,1.05,1.05,0,0,0-.61,1.18,22.31,22.31,0,0,1-2.51,14.12C106.67,55.42,103.11,57.92,99,60.83Z"/><path class="cls-1" d="M123.92,65.52a1.06,1.06,0,0,0,.29-1.35,1,1,0,0,0-1.29-.47c-1,.38-24.63,9.49-24.63,20.49,0,7.59,3.24,11.59,5.6,14.52a11.32,11.32,0,0,1,2,3c.74,2.44-1,6.85-1.76,8.34a1.07,1.07,0,0,0,.25,1.27,1.1,1.1,0,0,0,.69.25,1,1,0,0,0,.6-.19c.41-.28,9.93-7,8.22-15.12a20,20,0,0,0-3.49-7.33c-2.07-3.08-3.56-5.3-1.3-9.41C111.76,74.71,123.8,65.61,123.92,65.52Z"/><path class="cls-1" d="M62.43,111.72A3.7,3.7,0,0,0,63,115.2c2.56,3.56,11.63,5.52,25.54,5.52h0c1.88,0,3.87,0,5.91-.11,22.24-.8,30.49-7.73,30.83-8a1.05,1.05,0,0,0-1-1.81c-7.83,2.14-22.46,2.9-32.61,2.9-11.35,0-17.13-.82-18.55-1.42.73-1,5.21-2.78,10.76-3.87a1.06,1.06,0,0,0,.84-1.14,1,1,0,0,0-1-.94C80.45,106.31,64.13,106.57,62.43,111.72Z"/><path class="cls-1" d="M136.86,104.59a22.07,22.07,0,0,0-9.12,2.39,1,1,0,0,0,.49,2c.1,0,9.79.08,10.66,5.62.78,4.77-9.16,12.51-13.06,15.09a1.05,1.05,0,0,0,.58,1.93l.22,0c.92-.2,22.62-5,20.33-17.61C145.56,106.21,140.69,104.59,136.86,104.59Z"/><path class="cls-1" d="M122,128.12a1,1,0,0,0-.43-1.05l-5.2-3.64a1,1,0,0,0-.87-.16,102.22,102.22,0,0,1-13.4,2.32,93.16,93.16,0,0,1-10.15.54c-7.9,0-13.07-.93-13.82-1.61-.1-.19-.07-.28,0-.33a2.68,2.68,0,0,1,1.34-1,1,1,0,0,0-.61-2c-5.22,1.26-7.77,3-7.59,5.23.33,3.93,9.43,5.94,17.11,6.48,1.11.07,2.31.11,3.56.11h0c12.78,0,29.17-4,29.33-4.05A1,1,0,0,0,122,128.12Z"/><path class="cls-1" d="M82.74,136.55a1.05,1.05,0,0,0-.6-1.93c-.7,0-6.84.29-7.27,4.21a4,4,0,0,0,1,3.17c2.21,2.62,8.17,4.17,18.21,4.75,1.19.08,2.39.11,3.59.11,12.76,0,21.36-4,21.72-4.17a1,1,0,0,0,.1-1.84l-6.57-4a1.08,1.08,0,0,0-.77-.13s-4.21.87-10.51,1.73a34.53,34.53,0,0,1-4.44.24c-6.3,0-13.3-1-14.64-1.7A.43.43,0,0,1,82.74,136.55Z"/><path class="cls-1" d="M91.71,158.93c29.24,0,44.94-5.22,48-8.5a3.63,3.63,0,0,0,1.1-3,4.63,4.63,0,0,0-2-3,1.07,1.07,0,0,0-1.37.19,1,1,0,0,0,0,1.37c.18.24.29.63-.25,1.17-1.21,1.13-13.4,4.56-33.7,5.59-2.78.14-5.7.22-8.67.22-18.18,0-31.48-2.49-33.22-3.94.67-1,5.37-2.52,10.38-3.39a1.05,1.05,0,0,0-.32-2.08l-1.18.09c-8.25.5-17.8,1.62-18.29,5.88a4.32,4.32,0,0,0,1.14,3.49c2.23,2.51,8.64,5.84,38.43,5.84Z"/><path class="cls-1" d="M145.42,151.35a1.05,1.05,0,0,0-1.21.24c-.05,0-4.44,4.65-17.66,7.35-5.07,1-14.57,1.53-28.24,1.53s-26.74-.54-26.87-.55a1,1,0,0,0-.29,2.07,156.3,156.3,0,0,0,32.48,3.24,151.08,151.08,0,0,0,25.92-2.17c15.36-2.69,16.43-10.31,16.47-10.63A1.07,1.07,0,0,0,145.42,151.35Z"/></svg>