<svg id="elvn-1" xmlns="http://www.w3.org/2000/svg" viewBox="0 0 200 200"><defs><style>.cls-1{fill:#384956;}</style></defs><title>oculus-icon</title><path class="cls-1" d="M36.4,139.14c.16-.65.3-1.3.49-1.95a10.68,10.68,0,0,1,11.3-7.69c5.6.58,9.55,4.48,10,9.86.5,6.17-3.15,11-9.11,12a10.8,10.8,0,0,1-12.49-8.88c0-.26-.12-.51-.18-.77Zm16.91,1.4a6,6,0,1,0-12-.06,6,6,0,1,0,12,.06Z"/><path class="cls-1" d="M153.65,151.65c-.77-.17-1.53-.31-2.29-.51a14.28,14.28,0,0,1-5.59-2.9l2.64-3.53c.56.36,1.07.71,1.6,1a9.89,9.89,0,0,0,6.87,1.24l.32-.07c1.16-.37,2-1.15,2-2a2.18,2.18,0,0,0-1.7-2.13c-1.37-.46-2.81-.75-4.21-1.15a20.3,20.3,0,0,1-2.76-.92c-4.79-2.16-4.28-7.53-1-10a9.54,9.54,0,0,1,6.2-1.77,12.53,12.53,0,0,1,7.18,2.43l-2.47,3.4a9.55,9.55,0,0,0-4.75-1.49,9.8,9.8,0,0,0-2.68.47,1.64,1.64,0,0,0,0,3.14c1,.38,2,.65,3.08,1,.57.17,1.16.27,1.73.43,2.94.81,5.32,2.25,6.17,5.43v1.95c0,.06-.12.12-.13.19a6.89,6.89,0,0,1-5.07,5.27c-.74.24-1.51.37-2.27.55Z"/><path class="cls-1" d="M71.8,151.65c-.63-.14-1.26-.26-1.89-.42A10.62,10.62,0,0,1,62,140.16c.24-5,2.78-8.71,7.08-10.14a11.63,11.63,0,0,1,10.34,1.22l.53.38a2.59,2.59,0,0,1,.23.26l-3,3.76a7.54,7.54,0,0,0-6.4-.92,5.14,5.14,0,0,0-2.91,2.2,6.31,6.31,0,0,0,9.64,8l3.6,3.33a10.84,10.84,0,0,1-6.21,3.2c-.23,0-.46.11-.69.17Z"/><path class="cls-1" d="M100.2,48.38h15.91c5.08,0,10.06.61,14.66,2.93C140,56,145.45,63.46,146.48,73.79a27.65,27.65,0,0,1-23.16,30.1,44.32,44.32,0,0,1-7.19.58c-10.79.06-21.59,0-32.39,0-5.09,0-10.07-.7-14.61-3.13-10.39-5.54-15.69-14.27-15.44-26A27.64,27.64,0,0,1,76.53,49.05a51.36,51.36,0,0,1,7.83-.64C89.64,48.31,94.92,48.38,100.2,48.38Zm-.1,37.35v.06c5.43,0,10.87,0,16.31,0a24.41,24.41,0,0,0,3.63-.23A9.29,9.29,0,0,0,127.92,77a9.08,9.08,0,0,0-6.34-9.25,16.79,16.79,0,0,0-4.79-.66c-11.09,0-22.18,0-33.27,0a20.1,20.1,0,0,0-3.55.3,9.24,9.24,0,0,0-7.36,11.2,9.35,9.35,0,0,0,9,7.13C87.76,85.81,93.93,85.73,100.1,85.73Z"/><path class="cls-1" d="M137.22,150.93l-.17-1.81c-.21.14-.38.24-.54.36a9.86,9.86,0,0,1-10.5,1,8,8,0,0,1-4.62-7.3c-.23-4.34-.21-8.7-.29-13.13h5.09v1c.06,3.67,0,7.36.2,11a4.94,4.94,0,0,0,7.31,4.4,4.54,4.54,0,0,0,2.72-4c.15-2.75.13-5.51.17-8.27,0-1.35,0-2.7,0-4.1h4.95v20.91Z"/><path class="cls-1" d="M84.15,130h5.11v1c0,3.3,0,6.59.08,9.89a10.79,10.79,0,0,0,.31,2.33,4.64,4.64,0,0,0,4.92,3.72A4.79,4.79,0,0,0,99.38,143a24,24,0,0,0,.25-3.8c0-2.76,0-5.52,0-8.27V130h5v20.91h-4.3l-.16-1.55a34.34,34.34,0,0,1-4.3,1.79,9.21,9.21,0,0,1-7.07-.85,7.7,7.7,0,0,1-4.2-6.46C84.27,139.29,84.27,134.7,84.15,130Z"/><path class="cls-1" d="M115.56,151h-4.89v-32.4h4.89Z"/></svg>