<svg id="elvn-1" xmlns="http://www.w3.org/2000/svg" viewBox="0 0 200 200"><defs><style>.cls-1{fill:#384956;}</style></defs><title>samsung-gear-vr-icon</title><path class="cls-1" d="M65.8,125.48a13.91,13.91,0,0,1-5.14-.92,12,12,0,0,1-4-2.54,11.67,11.67,0,0,1-2.58-3.81,12,12,0,0,1-.92-4.67,11.77,11.77,0,0,1,1-4.73A12.09,12.09,0,0,1,56.77,105a12.69,12.69,0,0,1,3.95-2.56,12.55,12.55,0,0,1,4.88-.94,13.92,13.92,0,0,1,4.93.86,11.56,11.56,0,0,1,3.9,2.41A11.11,11.11,0,0,1,77.9,113v2H58.45a7.06,7.06,0,0,0,2.49,4.08,7.46,7.46,0,0,0,4.86,1.56,7,7,0,0,0,6.63-4.21L77,119a12.23,12.23,0,0,1-4.35,4.68,12.4,12.4,0,0,1-6.81,1.78m-.2-19.13a8.2,8.2,0,0,0-4.31,1.1,6.08,6.08,0,0,0-2.56,2.91H72.31a5.09,5.09,0,0,0-2.38-3,8.49,8.49,0,0,0-4.33-1"/><path class="cls-1" d="M91.35,125.48a12.05,12.05,0,0,1-8-3.15,11.64,11.64,0,0,1-2.7-3.76,12,12,0,0,1-1-5.07,12.31,12.31,0,0,1,1-5.1,11.58,11.58,0,0,1,2.66-3.76A11.2,11.2,0,0,1,87,102.3a12.32,12.32,0,0,1,4.39-.81,11.07,11.07,0,0,1,4.38.85,9.35,9.35,0,0,1,3.31,2.34v-3.15h5.52v23.91H99.12V122a9,9,0,0,1-3.35,2.52,10.58,10.58,0,0,1-4.42.92m.9-5.07a7.4,7.4,0,0,0,2.86-.54,6.37,6.37,0,0,0,2.25-1.49,7.09,7.09,0,0,0,1.49-2.23,6.68,6.68,0,0,0,.55-2.72,6.61,6.61,0,0,0-.55-2.69,6.89,6.89,0,0,0-1.49-2.21,6.63,6.63,0,0,0-2.25-1.48,7.39,7.39,0,0,0-2.86-.53,7.46,7.46,0,0,0-5.15,2A6.68,6.68,0,0,0,85,113.43a6.87,6.87,0,0,0,2.08,5,7.18,7.18,0,0,0,2.31,1.47,7.48,7.48,0,0,0,2.84.54"/><path class="cls-1" d="M108,101.53h5.48v3.55c1.11-2.37,3.16-3.55,6.13-3.55a9,9,0,0,1,2.35.28,9.25,9.25,0,0,1,1.86.74l-2.09,5.23a6.23,6.23,0,0,0-1.37-.67,5.84,5.84,0,0,0-1.94-.27,4.71,4.71,0,0,0-3.66,1.37c-.83.92-1.24,2.41-1.24,4.48v12.75H108Z"/><path class="cls-1" d="M36.41,125.9C45.32,125.9,51,119,51,111v-2.21H35.51v5.31H45a8.44,8.44,0,0,1-8.62,6.46,9.93,9.93,0,0,1-.21-19.86,9.24,9.24,0,0,1,8.63,5.19l4.9-3a15.23,15.23,0,0,0-13.57-7.63,15.32,15.32,0,1,0,.25,30.64"/><polygon class="cls-1" points="95.84 86.67 95.67 76.52 98.87 76.52 98.87 89.31 94.26 89.31 91.07 78.81 91 78.81 91.17 89.31 88 89.31 88 76.52 92.8 76.52 95.77 86.67 95.84 86.67"/><polygon class="cls-1" points="37.64 77.71 35.87 89.45 32.37 89.45 34.77 76.52 40.53 76.52 42.91 89.45 39.43 89.45 37.71 77.7 37.64 77.71"/><polygon class="cls-1" points="52.72 86.4 54.31 76.52 59.59 76.52 59.88 89.45 56.64 89.45 56.56 77.82 56.48 77.82 54.32 89.45 51.04 89.45 48.88 77.82 48.81 77.82 48.73 89.45 45.49 89.45 45.78 76.52 51.05 76.52 52.65 86.4 52.72 86.4"/><path class="cls-1" d="M26.92,85.8a1.67,1.67,0,0,1,0,1,1.12,1.12,0,0,1-1.26.86,1.15,1.15,0,0,1-1.3-1.17V85.2H20.92v1c0,2.88,2.27,3.75,4.7,3.75s4.26-.8,4.57-3a6.4,6.4,0,0,0,0-2.12c-.55-2.72-5.46-3.52-5.82-5a1.77,1.77,0,0,1,0-.68,1.08,1.08,0,0,1,1.18-.86,1.1,1.1,0,0,1,1.21,1.16v.81H30v-.91c0-2.82-2.53-3.26-4.37-3.26-2.3,0-4.17.76-4.52,2.87a4.32,4.32,0,0,0,0,1.75c.56,2.64,5.16,3.4,5.82,5.08"/><path class="cls-1" d="M69,85.77a1.71,1.71,0,0,1,0,1c-.1.43-.39.86-1.25.86a1.14,1.14,0,0,1-1.28-1.16V85.18H63v1c0,2.85,2.26,3.71,4.66,3.71s4.23-.79,4.53-2.92a6.19,6.19,0,0,0,0-2.1c-.54-2.69-5.4-3.48-5.76-5a1.63,1.63,0,0,1,0-.66,1.06,1.06,0,0,1,1.17-.87,1.1,1.1,0,0,1,1.19,1.16v.79H72V79.4c0-2.79-2.5-3.23-4.31-3.23-2.28,0-4.14.75-4.48,2.84a4.22,4.22,0,0,0,0,1.73c.55,2.62,5.11,3.38,5.77,5"/><path class="cls-1" d="M79.84,87.51a1.16,1.16,0,0,0,1.24-.94,2.49,2.49,0,0,0,0-.49V76.51h3.27v9.28c0,.23,0,.72,0,.85-.23,2.41-2.14,3.19-4.52,3.19s-4.28-.78-4.51-3.19c0-.13,0-.62,0-.85V76.51h3.27v9.57a3.68,3.68,0,0,0,0,.49,1.18,1.18,0,0,0,1.24.94"/><path class="cls-1" d="M106.83,87.37a1.21,1.21,0,0,0,1.32-.94,2.48,2.48,0,0,0,0-.49V84.07h-1.32V82.18h4.57v3.47a7.56,7.56,0,0,1,0,.85c-.21,2.36-2.26,3.2-4.55,3.2s-4.33-.84-4.55-3.2a7.56,7.56,0,0,1,0-.85V80.21c0-.24,0-.64,0-.85.29-2.43,2.25-3.2,4.54-3.2s4.31.77,4.55,3.2c0,.4,0,.85,0,.85v.43h-3.26v-.73a3,3,0,0,0,0-.49,1.36,1.36,0,0,0-2.58,0,2.9,2.9,0,0,0,0,.61v5.91a2.48,2.48,0,0,0,0,.49,1.2,1.2,0,0,0,1.32.94"/><polygon class="cls-1" points="131.46 95.6 137.22 95.6 144.29 116.94 151.32 95.6 157.09 95.6 147.07 125.44 141.47 125.44 131.46 95.6"/><path class="cls-1" d="M159.42,125.44V95.6H169a13.51,13.51,0,0,1,4.72.76,9.92,9.92,0,0,1,3.5,2.12,9.25,9.25,0,0,1,2.18,3.27,11.26,11.26,0,0,1,.76,4.23,10.34,10.34,0,0,1-1.29,5,8.87,8.87,0,0,1-3.74,3.66l6,10.75h-6.34L170,116.33h-5v9.11Zm9.07-14.22a8.49,8.49,0,0,0,2.88-.43,4.75,4.75,0,0,0,1.88-1.19,4.4,4.4,0,0,0,1-1.74,7,7,0,0,0,.3-2.08,4.72,4.72,0,0,0-1.45-3.64c-1-.9-2.51-1.35-4.64-1.35H165v10.43Z"/></svg>