<svg id="elvn-1" xmlns="http://www.w3.org/2000/svg" viewBox="0 0 200 200"><defs><style>.cls-1{fill:#384956;}</style></defs><title>sulon-icon</title><path class="cls-1" d="M35.34,84.6l2.76.2a49.94,49.94,0,0,1,10.56,2,.53.53,0,0,1,.45.61c0,1.27,0,2.53,0,3.87A47.71,47.71,0,0,0,23,90.06c0,.8,0,1.57,0,2.33,0,.14.25.34.42.38a45.5,45.5,0,0,0,4.87,1c3.32.34,6.66.51,10,.77A38.27,38.27,0,0,1,47,95.81a20,20,0,0,1,1.87.71.54.54,0,0,1,.27.41q0,4.26,0,8.53a.61.61,0,0,1-.34.44,39.1,39.1,0,0,1-7.64,1.71c-1.58.2-3.17.3-4.75.45-.1,0-.2,0-.3.07H31.34l-.4-.08c-1.92-.21-3.86-.31-5.75-.67-2.12-.41-4.19-1.06-6.29-1.61v-4.42a1.2,1.2,0,0,1,.2,0,37.28,37.28,0,0,0,11.79,2.43,48.65,48.65,0,0,0,10.85-.52c1.08-.17,2.16-.4,3.25-.6,0-.89,0-1.69,0-2.49,0-.32-.08-.47-.4-.53-1.3-.25-2.59-.64-3.91-.76-3.46-.31-6.93-.5-10.39-.76a39,39,0,0,1-8-1.24c-1.14-.33-2.24-.8-3.36-1.21V87c.05,0,.09-.06.13-.07a49.76,49.76,0,0,1,10.74-2.08l2.9-.21Z"/><path class="cls-1" d="M136.88,84.6l2,.2a49,49,0,0,1,10,1.94c.32.09.44.21.44.55,0,5.58,0,11.16,0,16.74,0,.22,0,.44,0,.66,0,1.09,0,1.09-1,1.39a49.56,49.56,0,0,1-12.57,2c-.31,0-.61.06-.91.08h-1.75l-3.12-.2a43,43,0,0,1-10.47-2.08.6.6,0,0,1-.32-.46c0-1,0-2,0-2.93,0-5,0-9.95,0-14.93a.73.73,0,0,1,.62-.85,50.78,50.78,0,0,1,11.48-2,4,4,0,0,0,.5-.08Zm8.35,11.77c0-2,0-3.94,0-5.9,0-.33-.08-.49-.43-.55-1.82-.29-3.63-.67-5.46-.89a40.31,40.31,0,0,0-9.12-.1c-2.2.24-4.39.67-6.58,1-.28,0-.36.18-.36.45q0,5.92,0,11.86c0,.3.11.4.4.46a47.34,47.34,0,0,0,7.3,1,50.17,50.17,0,0,0,13.83-1c.35-.08.42-.22.42-.55C145.22,100.24,145.23,98.31,145.23,96.37Z"/><path class="cls-1" d="M66.59,108.13l-3.12-.2a49.49,49.49,0,0,1-10.71-2,.47.47,0,0,1-.39-.54c0-6,0-12,0-18.07a.59.59,0,0,1,.25-.46c1.19-.36,2.39-.69,3.59-1a1,1,0,0,1,.25,0v16.84a48.24,48.24,0,0,0,21.94,0V85.79c.39.09.72.15,1,.24l2.67.74a.52.52,0,0,1,.46.6q0,8.2,0,16.43c0,.53,0,1.06,0,1.59a.45.45,0,0,1-.36.52,43.93,43.93,0,0,1-7.75,1.69c-1.94.22-3.89.32-5.83.47l-.3.06Z"/><path class="cls-1" d="M183.33,105.77l-4.11,1.17v-.7c0-5.22,0-10.45,0-15.67,0-.42-.1-.57-.53-.67a48.76,48.76,0,0,0-13.41-1.07,43.62,43.62,0,0,0-7.61,1.09c-.36.08-.45.23-.45.58q0,7.89,0,15.77V107c-1.34-.39-2.6-.74-3.85-1.13a.55.55,0,0,1-.25-.41c0-.65,0-1.31,0-2q0-8,0-16a.63.63,0,0,1,.55-.73,50.44,50.44,0,0,1,11.49-2,4.33,4.33,0,0,0,.5-.08h5.14c.18,0,.36.07.54.09,1.55.16,3.11.22,4.63.51,2.47.47,4.91,1.1,7.36,1.66Z"/><path class="cls-1" d="M100.19,108.13l-3.06-.2a50,50,0,0,1-10.71-2c-.35-.11-.41-.28-.41-.59q0-9,0-18c0-.15.1-.4.21-.44,1.27-.4,2.54-.76,3.89-1.15v16.94a47.19,47.19,0,0,0,26.09-1.21c0,1.4,0,2.75,0,4.1,0,.13-.23.32-.39.36-2.32.55-4.64,1.18-7,1.57-2.1.34-4.25.4-6.38.59l-.4.06Z"/></svg>