<svg id="elvn-1" xmlns="http://www.w3.org/2000/svg" viewBox="0 0 200 200"><defs><style>.cls-1{fill:#384956;}</style></defs><title>unreal-icon</title><path class="cls-1" d="M99,38.5h4.43c.18,0,.36.06.54.07,1.1.08,2.21.12,3.31.23a60.1,60.1,0,0,1,51.2,42A57.44,57.44,0,0,1,160.9,94l.18,2.24v4.42c0,.24-.07.48-.08.72a57,57,0,0,1-2.18,13.36,60.26,60.26,0,0,1-40.11,41,57.73,57.73,0,0,1-13.08,2.45c-.75.05-1.5.12-2.24.18H99a3.5,3.5,0,0,0-.45-.07c-1.28-.11-2.57-.18-3.85-.31a56,56,0,0,1-11.59-2.43A59.92,59.92,0,0,1,74,45a58.9,58.9,0,0,1,22.82-6.38ZM50.48,98.38A50.69,50.69,0,1,0,102,47.72,50.61,50.61,0,0,0,50.48,98.38Z"/><path class="cls-1" d="M105.76,76.2c2.29,0,4.4.52,5.86,2.55A22.27,22.27,0,0,1,116.77,74a40.2,40.2,0,0,1,9.34-4.78c1.87-.68,3.8-1.23,5.7-1.84.12,0,.25-.05.46-.1-.7.94-1.37,1.8-2,2.67a69.58,69.58,0,0,0-5.7,8.63,17.76,17.76,0,0,0-1,2.24,3,3,0,0,0-.16,1q0,15.93,0,31.86a1.51,1.51,0,0,0,.74,1.42,5.89,5.89,0,0,0,5,.75,25.67,25.67,0,0,0,7-4,36.92,36.92,0,0,0,4.76-4.34.49.49,0,0,1,.29-.17c-.11.33-.19.66-.33,1a29,29,0,0,1-3.6,5.91,50,50,0,0,1-14.54,13.22c-1.12.66-2.3,1.22-3.45,1.84a.66.66,0,0,1-.69,0l-8.1-4.07a.56.56,0,0,0-.79.12q-4.11,4.16-8.27,8.27a.86.86,0,0,1-.6.26,48.64,48.64,0,0,1-13.38-3.39,30.35,30.35,0,0,1-10.65-7c-.74-.79-1.38-1.66-2.07-2.5a2.56,2.56,0,0,1-.22-.35c1.15.07,2.27.17,3.4.18a9.44,9.44,0,0,0,3.41-.49,2.51,2.51,0,0,0,1.89-2.65c0-8.87,0-17.74,0-26.61a7.38,7.38,0,0,0-.11-1.41,2.39,2.39,0,0,0-2.37-2,7.93,7.93,0,0,0-4.53,1.33,24.85,24.85,0,0,0-6,5.19,72.69,72.69,0,0,0-8.54,12.21l-.36.62-.11.11c0-.18,0-.32,0-.46A38.57,38.57,0,0,1,64.21,92.4a47.46,47.46,0,0,1,10-14.94A51.4,51.4,0,0,1,94.26,64.61,34.61,34.61,0,0,1,101,62.93l-.36.25A30.07,30.07,0,0,0,94,69.13a6.43,6.43,0,0,0-1.7,4,26.58,26.58,0,0,0,.27,3.45,6.61,6.61,0,0,0,1,2.77,2.86,2.86,0,0,0,3.16,1.31v.47q-.06,15.65-.14,31.28a3.49,3.49,0,0,0,1,2.82,4.38,4.38,0,0,0,2.27.92,7.68,7.68,0,0,0,4.78-.86c1.75-.86,3.43-1.85,5.15-2.77.27-.15.25-.36.25-.6v-11c0-5.24,0-10.47,0-15.71a11,11,0,0,0-1.58-5.25A16.61,16.61,0,0,0,105.76,76.2Z"/></svg>