<svg id="elvn-1" xmlns="http://www.w3.org/2000/svg" viewBox="0 0 200 200"><defs><style>.cls-1{fill:#384956;}</style></defs><title>vive-icon</title><path class="cls-1" d="M128,84.35l-22.6-39.13a4,4,0,0,0-3.44-2H94.12a4,4,0,0,0-3.45,2L68.08,84.35a4,4,0,0,0,0,4L72,95.12a4,4,0,0,0,3.44,2h45.21a4,4,0,0,0,3.44-2l3.93-6.8a4,4,0,0,0,0-4m-19.19,3.78a36,36,0,0,1-21.56,0,8.13,8.13,0,0,1-5.58-9.38,35.77,35.77,0,0,1,10.81-19,8.18,8.18,0,0,1,11.09,0,35.75,35.75,0,0,1,10.82,19,8.15,8.15,0,0,1-5.58,9.38"/><path class="cls-1" d="M129.4,119.73l-13.65,26.84a1.29,1.29,0,0,1-1.15.7h-4.5a1.31,1.31,0,0,1-1.16-.7L95.31,119.73a1.49,1.49,0,0,1,0-1.42l1.46-2.52a1.57,1.57,0,0,1,1.37-.79h1.32a.9.9,0,0,1,.81.5l11.47,22.81a.65.65,0,0,0,1.16,0l11.46-22.81a.9.9,0,0,1,.82-.5h1.32a1.58,1.58,0,0,1,1.37.79l1.46,2.53a1.47,1.47,0,0,1,0,1.41"/><path class="cls-1" d="M61.82,119.73,48.18,146.57a1.3,1.3,0,0,1-1.16.7h-4.5a1.31,1.31,0,0,1-1.15-.7L27.73,119.73a1.49,1.49,0,0,1,0-1.42l1.46-2.52a1.57,1.57,0,0,1,1.36-.79h1.33a.9.9,0,0,1,.81.5l11.46,22.81a.66.66,0,0,0,1.17,0L56.82,115.5a.9.9,0,0,1,.82-.5H59a1.57,1.57,0,0,1,1.36.79l1.46,2.53a1.44,1.44,0,0,1,0,1.41"/><path class="cls-1" d="M81.36,115.38a1.31,1.31,0,0,0-.92-.38h-2a1.57,1.57,0,0,0-1.37.79l-1.45,2.52a1.53,1.53,0,0,0-.2.75V146a1.3,1.3,0,0,0,1.31,1.3h3.76a1.3,1.3,0,0,0,1.3-1.29V116.31a1.32,1.32,0,0,0-.39-.93"/><path class="cls-1" d="M144.61,115.79A1.57,1.57,0,0,1,146,115h19.54a1.52,1.52,0,0,1,1.33.77l1.38,2.37a2.25,2.25,0,0,1,.3,1.11v.59a.9.9,0,0,1-.89.89H149.83a.65.65,0,0,0-.65.65v6.18a.66.66,0,0,0,.65.65H161.9a1.07,1.07,0,0,1,1.06,1.07v3.55a1.07,1.07,0,0,1-1.07,1.07H149.83a.65.65,0,0,0-.65.65v6.35a.65.65,0,0,0,.65.65h17.81a.88.88,0,0,1,.89.88V143a2.21,2.21,0,0,1-.3,1.12l-1.38,2.37a1.52,1.52,0,0,1-1.33.77H146a1.57,1.57,0,0,1-1.37-.79l-1.36-2.34A2.25,2.25,0,0,1,143,143V119.25a2.32,2.32,0,0,1,.3-1.12Z"/><path class="cls-1" d="M168.66,115h1.16v.18h-.46v1.15h-.22v-1.15h-.48Zm1.35,0h.3l.45,1h0l.46-1h.29v1.33h-.21v-1h0l-.45,1h-.19l-.44-1h0v1H170Z"/></svg>