<svg id="elvn-1" xmlns="http://www.w3.org/2000/svg" viewBox="0 0 200 200"><defs><style>.cls-1{fill:#384956;}</style></defs><title>vr-icon</title><path class="cls-1" d="M74.43,131H71.19c-6.09-1.19-9.72-5.27-12.91-10.28-9.72-15.28-19.68-30.41-29.53-45.6-.42-.64-.73-1.34-1.09-2h19c3.58,1.16,5.76,3.83,7.72,6.87C60,88.67,65.78,97.32,71.52,106c.43.65.92,1.27,1.55,2.13,5.57-8.73,11-17,16.22-25.5,2.89-4.71,6.27-8.55,12-9.58h44A20.9,20.9,0,0,1,165,86.6c3.3,8.87.27,20.46-8.05,25.56a19.94,19.94,0,0,1-3.76,1.79,30.21,30.21,0,0,1-3.49.77l10.67,15.85c-5.11,0-9.72-.17-14.32.05-6,.28-10.4-2.19-13.45-7.28-.52-.86-1.08-1.69-1.65-2.52a12,12,0,0,0-10.32-5.6c-5.17,0-10.34,0-15.51,0-.56,0-1.12-.11-2-.21,2.76-4,5.24-7.83,7.92-11.49a10.49,10.49,0,0,1,7.78-4c2.15-.23,4.31-.33,6.47-.35,5.55-.05,11.11,0,16.67-.05,3.21,0,5.19-1.93,5.24-4.67.05-3-2.07-5-5.33-5.17-.62,0-1.24,0-1.86,0-7.33,0-14.67.28-22-.08S105.71,92.05,102,98c-4.66,7.36-9.54,14.59-14,22.07C84.75,125.46,80.82,129.65,74.43,131Z"/></svg>