<svg id="elvn-1" xmlns="http://www.w3.org/2000/svg" viewBox="0 0 200 200"><defs><style>.cls-1{fill:#384956;}</style></defs><title>Vuphoria-icon</title><path class="cls-1" d="M146,97c-1.76-.93-3-1.52-4.13-2.18-14.22-8.19-28.47-16.34-42.62-24.65-2.27-1.34-3.9-1.22-6.09.07C79,78.54,64.79,86.72,50.58,94.94c-1.15.66-2.34,1.27-4,2.19,0-8-.07-15.34.1-22.69,0-.92,1.2-2.11,2.14-2.67,15-8.85,30-17.67,45.11-26.33a5.18,5.18,0,0,1,4.34,0c15.26,8.66,30.43,17.46,45.58,26.28.88.52,2.09,1.52,2.1,2.31C146.07,81.52,146,89,146,97Z"/><path class="cls-1" d="M46.54,106.06c13.92,8,27.36,15.1,40,23.36,7.16,4.67,12.48,4.75,19.63,0,11.45-7.61,23.73-14,35.66-20.89,1.16-.67,2.37-1.26,4.16-2.2,0,8,.06,15.45-.1,22.9,0,.8-1.21,1.8-2.09,2.31-15,8.85-30,17.67-45.12,26.34a5.14,5.14,0,0,1-4.32,0q-22.89-13-45.58-26.29c-.94-.55-2.14-1.73-2.16-2.64C46.47,121.57,46.54,114.2,46.54,106.06Z"/><path class="cls-1" d="M138.31,102c-13.58,7.84-26.88,15.56-40.24,23.15a4,4,0,0,1-3.37,0c-13.37-7.6-26.68-15.31-40.37-23.21a20.4,20.4,0,0,1,2.1-1.69C68.87,93,81.3,85.74,93.82,78.65a5.23,5.23,0,0,1,4.34-.28c13.19,7.42,26.28,15,39.38,22.62C137.73,101.1,137.84,101.35,138.31,102Z"/></svg>