<svg xmlns="http://www.w3.org/2000/svg" width="86" height="87" viewBox="0 0 86 87">
    <g fill="none" fill-rule="evenodd" transform="translate(0 .148)">
        <circle cx="43" cy="43" r="43" fill="#E5173F"/>
        <path fill="#FFF" d="M71.87 36.046c-4.195-2.231-8.962-1.046-12.221.341l-9.716 4.136-16.711-7.671-9.952.39 13.8 12.768-8.795 3.813-9.15-3.178L13 49.252l5.536 6.274c-.585.637-1.115 1.534-.634 2.476.629 1.23 2.486 1.85 5.533 1.85.625 0 1.3-.026 2.024-.079 3.345-.24 6.971-1.02 9.239-1.985l34.73-14.782c3-1.277 4.495-2.618 4.57-4.099.038-.768-.3-1.889-2.128-2.86zm-3.961 4.724L33.51 55.955c-1.913.845-5.054 1.553-8.002 1.803-3.013.256-4.624-.065-5.161-.338.11-.144.316-.369.698-.686l.893-.745L17 50.184l2.236-.987 9.072 3.268 12.83-5.77-12.187-11.697 3.61-.146 17.048 8.117 10.716-4.73c3.913-1.728 7.21-1.879 9.8-.45.653.36.88.674.875.797 0 .009-.075.853-3.091 2.184z"/>
    </g>
</svg>
