<svg xmlns="http://www.w3.org/2000/svg" xmlns:xlink="http://www.w3.org/1999/xlink" width="86" height="86" viewBox="0 0 86 86">
    <defs>
        <path id="a" d="M.005 0H45v44.956H.005z"/>
    </defs>
    <g fill="none" fill-rule="evenodd">
        <circle cx="43" cy="43" r="43" fill="#E5173F"/>
        <g transform="translate(22 19)">
            <mask id="b" fill="#fff">
                <use xlink:href="#a"/>
            </mask>
            <path fill="#FFF" d="M7.47 6.189c0-.73-.592-1.327-1.318-1.327-.726 0-1.318.596-1.318 1.327 0 .73.592 1.326 1.318 1.326.726 0 1.319-.596 1.319-1.326z" mask="url(#b)"/>
            <path fill="#FFF" d="M38.408 31.694c-3.29 0-6.026 2.44-6.514 5.614H7.514c-2.689 0-4.877-2.2-4.877-4.906 0-2.706 2.188-4.907 4.878-4.907h29.97c4.144 0 7.515-3.39 7.515-7.559 0-4.168-3.371-7.559-7.515-7.559H9.836c.182-.249.344-.488.482-.703 1.244-1.93 1.987-3.98 1.987-5.485C12.305 2.776 9.545 0 6.152 0 2.76 0 0 2.776 0 6.189c0 1.504.743 3.555 1.987 5.485.807 1.253 2.422 3.355 4.165 3.355h31.333c2.69 0 4.878 2.202 4.878 4.907 0 2.706-2.188 4.907-4.878 4.907H7.515C3.37 24.843 0 28.233 0 32.402c0 4.168 3.371 7.559 7.515 7.559H32.02c.726 2.868 3.314 4.995 6.388 4.995 3.635 0 6.592-2.975 6.592-6.63 0-3.657-2.957-6.632-6.592-6.632zM2.637 6.19c0-1.95 1.577-3.537 3.515-3.537 1.94 0 3.516 1.587 3.516 3.537 0 .923-.563 2.43-1.434 3.84-.937 1.515-1.774 2.204-2.082 2.334-.307-.13-1.145-.82-2.08-2.333C3.2 8.62 2.636 7.112 2.636 6.189zm35.771 36.115c-2.18 0-3.955-1.785-3.955-3.979 0-2.193 1.774-3.978 3.955-3.978 2.18 0 3.955 1.785 3.955 3.978 0 2.194-1.774 3.979-3.955 3.979z" mask="url(#b)"/>
        </g>
        <path fill="#FFF" d="M60.408 55.999c-.726 0-1.318.596-1.318 1.326 0 .73.592 1.326 1.318 1.326.726 0 1.319-.595 1.319-1.326 0-.73-.593-1.326-1.319-1.326z"/>
    </g>
</svg>
