<svg xmlns="http://www.w3.org/2000/svg" width="70" height="70" viewBox="0 0 70 70">
    <g fill="none" fill-rule="evenodd">
        <circle cx="35" cy="35" r="35" fill="#F47B2A"/>
        <g fill="#FFF">
            <path d="M51.97 18.03A23.844 23.844 0 0 0 35 11a23.844 23.844 0 0 0-16.97 7.03A23.844 23.844 0 0 0 11 35c0 6.41 2.496 12.438 7.03 16.97A23.844 23.844 0 0 0 35 59c6.41 0 12.438-2.496 16.97-7.03A23.844 23.844 0 0 0 59 35c0-6.41-2.496-12.438-7.03-16.97zm-1.988 31.952A21.048 21.048 0 0 1 35 56.188c-5.66 0-10.98-2.204-14.982-6.206A21.048 21.048 0 0 1 13.813 35c0-5.66 2.203-10.98 6.205-14.982A21.048 21.048 0 0 1 35 13.813c5.66 0 10.98 2.203 14.982 6.205A21.048 21.048 0 0 1 56.188 35c0 5.66-2.204 10.98-6.206 14.982z"/>
            <path d="M36.875 20.469h-8.438c-.776 0-1.406.63-1.406 1.406v27.188a1.406 1.406 0 1 0 2.813 0v-8.907h7.031c5.428 0 9.844-4.416 9.844-9.843 0-5.428-4.416-9.844-9.844-9.844zm0 16.875h-7.031V23.28h7.031a7.04 7.04 0 0 1 7.031 7.032 7.04 7.04 0 0 1-7.031 7.03z"/>
        </g>
    </g>
</svg>
