<svg xmlns="http://www.w3.org/2000/svg" xmlns:xlink="http://www.w3.org/1999/xlink" width="86" height="87" viewBox="0 0 86 87">
    <defs>
        <path id="a" d="M0 0h37.574v45.34H0z"/>
    </defs>
    <g fill="none" fill-rule="evenodd">
        <circle cx="43" cy="43" r="43" fill="#E5173F" transform="translate(0 .824)"/>
        <g transform="translate(24 21)">
            <mask id="b" fill="#fff">
                <use xlink:href="#a"/>
            </mask>
            <path fill="#FFF" stroke="#FFF" stroke-width=".7" d="M33.058 43.49H4.52a2.656 2.656 0 0 1-2.66-2.647V4.497a2.657 2.657 0 0 1 2.66-2.646h20.176v6.466c0 1.201.47 2.33 1.324 3.18a4.504 4.504 0 0 0 3.197 1.317h6.5v28.029a2.656 2.656 0 0 1-2.66 2.646zm-6.5-40.33l7.845 7.804h-5.185a2.65 2.65 0 0 1-1.882-.776 2.621 2.621 0 0 1-.779-1.87V3.16zm10.748 8.074L26.285.271A.933.933 0 0 0 25.627 0H4.52C2.028 0 0 2.017 0 4.497v36.346c0 2.48 2.028 4.497 4.521 4.497h28.537c2.493 0 4.52-2.017 4.52-4.497V11.889a.924.924 0 0 0-.272-.655z" mask="url(#b)"/>
            <path fill="#FFF" stroke="#FFF" stroke-width=".7" d="M8.422 27.616h-.275c-.34 0-.615.339-.615.757s.275.757.615.757h.275c.34 0 .616-.339.616-.757s-.276-.757-.616-.757M28.495 27.616H12.234c-.501 0-.907.339-.907.757s.406.757.907.757h16.261c.501 0 .908-.339.908-.757s-.407-.757-.908-.757M8.422 22.595h-.275c-.34 0-.615.339-.615.757s.275.757.615.757h.275c.34 0 .616-.339.616-.757s-.276-.757-.616-.757M28.495 22.595H12.234c-.501 0-.907.339-.907.757s.406.757.907.757h16.261c.501 0 .908-.339.908-.757s-.407-.757-.908-.757M8.147 17.574c-.34 0-.615.339-.615.757s.275.757.615.757h.275c.34 0 .616-.339.616-.757s-.276-.757-.616-.757h-.275zM12.234 17.574c-.501 0-.907.339-.907.757s.406.757.907.757h16.261c.501 0 .908-.339.908-.757s-.407-.757-.908-.757H12.234z" mask="url(#b)"/>
        </g>
    </g>
</svg>
