<svg xmlns="http://www.w3.org/2000/svg" width="70" height="71" viewBox="0 0 70 71">
    <g fill="none" fill-rule="evenodd" transform="translate(0 .83)">
        <circle cx="35" cy="35" r="35" fill="#401E6C" fill-rule="nonzero"/>
        <g fill="#FFF">
            <path d="M39.551 48.936a.942.942 0 0 1-.835-.5.917.917 0 0 1 .403-1.245c5.33-2.708 8.64-8.054 8.64-13.95v-1.846c0-.51-.42-.924-.938-.924H20.543a.931.931 0 0 0-.939.924v1.846c0 5.896 3.311 11.242 8.638 13.952.462.235.64.792.404 1.245a.947.947 0 0 1-1.265.397c-5.954-3.03-9.654-9.005-9.654-15.594v-1.846c0-1.527 1.264-2.77 2.816-2.77H46.82c1.552 0 2.815 1.243 2.815 2.77v1.846c0 6.59-3.7 12.564-9.655 15.592a.938.938 0 0 1-.43.103"/>
            <path d="M15.156 49.21l.496.508a4.543 4.543 0 0 0 3.27 1.387h28.7a4.543 4.543 0 0 0 3.27-1.387l.495-.508h-36.23zM47.62 53H18.923c-1.73 0-3.354-.69-4.579-1.943l-2.073-2.126a.963.963 0 0 1-.2-1.033.927.927 0 0 1 .855-.586H53.62c.373 0 .71.232.854.586a.963.963 0 0 1-.2 1.033l-2.073 2.126A6.37 6.37 0 0 1 47.619 53zM44.018 44.26a.92.92 0 0 1 .745-1.08l.67-.128c2.948-.548 10.585-2.772 10.585-6.452 0-1.199-.316-1.98-.96-2.383-1.43-.895-4.355.06-5.266.462a.956.956 0 0 1-1.254-.456.91.91 0 0 1 .469-1.219c.456-.2 4.526-1.928 7.073-.336 1.213.76 1.83 2.082 1.83 3.932 0 5.948-11.623 8.163-12.118 8.255l-.664.127a.94.94 0 0 1-1.11-.722zM40.228 27c-.3 0-.597-.119-.799-.35-1.663-1.886-1.663-4.841 0-6.728 1.054-1.198 1.054-3.217.002-4.411-.353-.401-.282-.985.16-1.306.443-.323 1.083-.256 1.436.145 1.661 1.887 1.661 4.842 0 6.729-1.056 1.198-1.056 3.217-.002 4.411.353.4.282.984-.16 1.306a1.082 1.082 0 0 1-.637.204M34.5 27c-.301 0-.597-.119-.8-.35-1.66-1.886-1.66-4.842 0-6.729 1.057-1.198 1.057-3.217.002-4.411-.353-.4-.281-.984.16-1.306.441-.321 1.085-.256 1.436.145 1.663 1.887 1.663 4.842 0 6.73-1.054 1.198-1.054 3.217-.002 4.41.354.402.282.985-.16 1.307-.19.137-.414.204-.637.204M28.774 27c-.3 0-.597-.119-.8-.35-1.663-1.887-1.663-4.842 0-6.73 1.055-1.197 1.055-3.217.003-4.411-.352-.4-.28-.985.16-1.304.442-.323 1.084-.256 1.435.145 1.661 1.887 1.661 4.843 0 6.73-1.056 1.198-1.056 3.215-.002 4.412.354.399.282.984-.159 1.305a1.093 1.093 0 0 1-.637.203"/>
        </g>
    </g>
</svg>
