<svg xmlns="http://www.w3.org/2000/svg" width="86" height="87" viewBox="0 0 86 87">
    <g fill="none" fill-rule="evenodd">
        <circle cx="43" cy="43" r="43" fill="#E5173F" transform="translate(0 .883)"/>
        <g fill="#FFF">
            <path d="M60.97 27.03A23.844 23.844 0 0 0 44 20a23.844 23.844 0 0 0-16.97 7.03A23.844 23.844 0 0 0 20 44c0 6.41 2.496 12.438 7.03 16.97A23.844 23.844 0 0 0 44 68c6.41 0 12.438-2.496 16.97-7.03A23.844 23.844 0 0 0 68 44c0-6.41-2.496-12.438-7.03-16.97zm-1.988 31.952A21.048 21.048 0 0 1 44 65.188c-5.66 0-10.98-2.204-14.982-6.206A21.048 21.048 0 0 1 22.813 44c0-5.66 2.203-10.98 6.205-14.982A21.048 21.048 0 0 1 44 22.813c5.66 0 10.98 2.203 14.982 6.205A21.048 21.048 0 0 1 65.188 44c0 5.66-2.204 10.98-6.206 14.982z"/>
            <path d="M45.875 29.469h-8.438c-.776 0-1.406.63-1.406 1.406v27.188a1.406 1.406 0 1 0 2.813 0v-8.907h7.031c5.428 0 9.844-4.416 9.844-9.843 0-5.428-4.416-9.844-9.844-9.844zm0 16.875h-7.031V32.28h7.031a7.04 7.04 0 0 1 7.031 7.032 7.04 7.04 0 0 1-7.031 7.03z"/>
        </g>
    </g>
</svg>
