<svg xmlns="http://www.w3.org/2000/svg" width="86" height="87" viewBox="0 0 86 87">
    <g fill="none" fill-rule="evenodd">
        <circle cx="43" cy="43" r="43" fill="#E5173F" transform="translate(0 .883)"/>
        <g fill="#FFF">
            <path d="M54.455 46.073l-11.253 18.99-11.547-18.807a13.567 13.567 0 0 1-2.006-7.084c0-7.431 5.999-13.495 13.351-13.495 7.352 0 13.342 6.064 13.342 13.495 0 2.437-.659 4.823-1.887 6.901zM43 23c-8.822 0-16 7.255-16 16.172 0 3.013.826 5.953 2.388 8.504L42.09 68.363a1.33 1.33 0 0 0 1.133.637h.01a1.33 1.33 0 0 0 1.134-.655l12.377-20.888A16.284 16.284 0 0 0 59 39.172C59 30.255 51.822 23 43 23z"/>
            <path d="M43 44.58c-2.956 0-5.351-2.428-5.351-5.408 0-2.973 2.41-5.409 5.351-5.409 2.94 0 5.342 2.436 5.342 5.409 0 2.936-2.339 5.408-5.342 5.408zm0-13.494c-4.411 0-8 3.627-8 8.086 0 4.43 3.53 8.086 8 8.086 4.525 0 8-3.705 8-8.086 0-4.459-3.589-8.086-8-8.086z"/>
        </g>
    </g>
</svg>
