<svg xmlns="http://www.w3.org/2000/svg" width="70" height="70" viewBox="0 0 70 70">
    <g fill="none" fill-rule="evenodd">
        <circle cx="35" cy="35" r="35" fill="#B71137"/>
        <path fill="#FFF" d="M57.324 26.603c-3.301-1.818-7.052-.852-9.617.278l-7.645 3.37L26.912 24l-7.83.318L29.94 34.722l-6.92 3.106-7.2-2.589L11 37.363l4.356 5.113c-.46.519-.877 1.25-.498 2.017C15.352 45.495 16.814 46 19.21 46c.492 0 1.023-.021 1.593-.064 2.632-.196 5.486-.831 7.27-1.617l27.329-12.045c2.36-1.04 3.536-2.133 3.595-3.34.03-.626-.236-1.539-1.674-2.33zm-3.063 3.88l-27.3 12.29c-1.519.684-4.012 1.256-6.351 1.459-2.392.207-3.67-.053-4.097-.274.088-.116.252-.298.554-.555l.71-.602-3.92-4.7 1.775-.798 7.2 2.645 10.183-4.67-9.673-9.467 2.864-.119 13.532 6.57 8.504-3.828c3.106-1.398 5.723-1.52 7.778-.364.518.291.699.545.694.645 0 .007-.06.69-2.453 1.767z"/>
    </g>
</svg>
