<svg xmlns="http://www.w3.org/2000/svg" width="86" height="87" viewBox="0 0 86 87">
    <g fill="none" fill-rule="evenodd">
        <circle cx="43" cy="43" r="43" fill="#E5173F" transform="translate(0 .148)"/>
        <g fill="#FFF">
            <path d="M49.674 61.999a1.15 1.15 0 0 1-1.021-.616 1.132 1.132 0 0 1 .493-1.532c6.513-3.334 10.56-9.913 10.56-17.17V40.41c0-.627-.514-1.136-1.147-1.136H26.44c-.633 0-1.147.509-1.147 1.136v2.272c0 7.257 4.047 13.836 10.558 17.172.564.289.782.975.493 1.532-.291.56-.984.775-1.546.489C27.522 58.144 23 50.79 23 42.68V40.41C23 38.529 24.544 37 26.441 37H58.56C60.456 37 62 38.53 62 40.409v2.272c0 8.111-4.522 15.463-11.801 19.19a1.14 1.14 0 0 1-.525.128"/>
            <path d="M19.858 62.335l.606.625a5.534 5.534 0 0 0 3.997 1.707h35.076c1.508 0 2.93-.606 3.997-1.707l.606-.625H19.858zM59.535 67H24.46c-2.114 0-4.099-.849-5.596-2.39l-2.534-2.618a1.191 1.191 0 0 1-.244-1.271c.176-.436.588-.721 1.044-.721H66.87c.456 0 .868.285 1.044.72.176.437.08.938-.244 1.272l-2.534 2.617c-1.5 1.542-3.487 2.391-5.6 2.391zM55.154 58a1.15 1.15 0 0 1-1.132-.912 1.132 1.132 0 0 1 .91-1.328l.819-.158c3.604-.674 12.937-3.412 12.937-7.941 0-1.475-.386-2.437-1.174-2.932-1.747-1.102-5.321.072-6.435.568a1.165 1.165 0 0 1-1.533-.561 1.123 1.123 0 0 1 .574-1.5c.557-.247 5.531-2.373 8.645-.414C70.247 43.758 71 45.385 71 47.66c0 7.321-14.204 10.047-14.81 10.16l-.811.156c-.077.016-.15.023-.225.023M50.501 35a1.29 1.29 0 0 1-.976-.43c-2.033-2.322-2.033-5.96 0-8.282 1.288-1.474 1.288-3.959.002-5.429-.432-.493-.345-1.211.195-1.607.542-.397 1.323-.315 1.755.179 2.03 2.322 2.03 5.959 0 8.281-1.29 1.475-1.29 3.96-.002 5.43.432.491.344 1.211-.195 1.607-.23.169-.507.251-.779.251M43.5 35a1.29 1.29 0 0 1-.977-.43c-2.03-2.322-2.03-5.96 0-8.282 1.29-1.475 1.29-3.96.002-5.43-.432-.491-.344-1.211.195-1.607.54-.395 1.326-.315 1.755.179 2.033 2.322 2.033 5.96 0 8.282-1.288 1.475-1.288 3.96-.002 5.43.432.493.345 1.211-.195 1.606-.232.17-.507.252-.779.252M36.501 35a1.29 1.29 0 0 1-.976-.43c-2.033-2.323-2.033-5.96 0-8.283 1.288-1.475 1.288-3.96.002-5.43-.43-.491-.342-1.211.195-1.605.542-.397 1.326-.315 1.755.179 2.03 2.322 2.03 5.96 0 8.283-1.29 1.474-1.29 3.957-.002 5.43.432.491.344 1.211-.195 1.607a1.33 1.33 0 0 1-.779.249"/>
        </g>
    </g>
</svg>
