<svg id="Layer_1" data-name="Layer 1" xmlns="http://www.w3.org/2000/svg" viewBox="0 0 100 100"><defs><style>.cls-1{fill:#8292a6;}</style></defs><title>Header Icons</title><path class="cls-1" d="M52.8,15.38c-.79-2.67-13.42.56-16.63,1.14-1.53.28-10.81,2.52-12.53,3.33l-5.13,1.71A105.3,105.3,0,0,0,7.32,26.22C6.58,26.61,2.6,28.75,3,30a98,98,0,0,0,7.6,19.48A74.84,74.84,0,0,0,14.38,56a67.29,67.29,0,0,0,4.31,5.75c.71.85,1.56,1.7,2.32,2.48.37.38.79.76,1.21,1.15a15.41,15.41,0,0,0,1.25,1.07c.45.34.81.68,1.27,1a28.36,28.36,0,0,0,6.3,3.6L35,72.24a19.22,19.22,0,0,0,3.39.5c3.76.17,5,0,8.06-2.4a16.8,16.8,0,0,0,1.37-1.09L49.09,68a26,26,0,0,0,2.67-3.23l2.75-5.19C59.85,46,56.86,29,52.8,15.38ZM18.33,44.91A9,9,0,0,1,13.42,42a23.42,23.42,0,0,1-2.09-2.45c-.33-.44-.33-.44.05-.56s1.14-.37,2.79-1a30.58,30.58,0,0,1,6.64-2,9.68,9.68,0,0,1,6.12.92,3.19,3.19,0,0,1,1.45,3.47c-.26,1.25-1.15,2.38-3,3.28A13.12,13.12,0,0,1,18.33,44.91ZM50,48a35.65,35.65,0,0,1-1.55,9.77A11.24,11.24,0,0,1,41.65,65,14.93,14.93,0,0,1,31,64.22c-3.07-1.48-5-4-6.82-6.62,3.49,1.1,7,2.19,10.5,2a15.11,15.11,0,0,0,9.59-4.19,25.84,25.84,0,0,0,5-7.8C50.06,45.85,50.06,45.85,50,48Zm.77-20.13A24.15,24.15,0,0,1,50.31,31a8.94,8.94,0,0,1-2.51,5.11A13.22,13.22,0,0,1,41.27,39c-2.07.29-3.44-.18-4.34-1.08a3.2,3.2,0,0,1-.69-3.7,9.75,9.75,0,0,1,4.62-4.12,30.64,30.64,0,0,1,6.64-2c1.73-.38,2.49-.59,2.88-.69S50.76,27.28,50.73,27.83Z"/><path class="cls-1" d="M83.34,37.05c-1.31-.8-9.6-5.26-11.4-5.8L67,29.13c-1.91-.87-6.77-2.59-9.68-3.48a93.34,93.34,0,0,1,2.12,14A16.81,16.81,0,0,1,60.59,41a9.47,9.47,0,0,1,2.24,5.68,3.15,3.15,0,0,1-2.24,3,3.75,3.75,0,0,1-1.22.18A44.43,44.43,0,0,1,57.83,58a12.54,12.54,0,0,1,3.77.81A11.09,11.09,0,0,1,68,66.19a35,35,0,0,1,1.1,9.7c0,2.08,0,2.08-.71.31a25.85,25.85,0,0,0-4.55-7.91,14.92,14.92,0,0,0-8.5-4.44L54,66.28a24.37,24.37,0,0,1-2.67,3.23L50,70.73c-.46.43-.84.68-1.36,1.09-2,1.52-3.18,2.14-4.75,2.35l1.86,3.07a19.09,19.09,0,0,0,2.16,2.6c2.65,2.6,3.65,3.26,7.51,3.54a16.85,16.85,0,0,0,1.72.1l1.76,0A24.8,24.8,0,0,0,63,82.82l5.44-2c12.9-6.5,21.88-21,27.87-33.65C97.5,44.67,86.09,38.73,83.34,37.05Zm4,13.81a22.6,22.6,0,0,1-1.65,2.72,8.8,8.8,0,0,1-4.3,3.62,13.07,13.07,0,0,1-7,0,4.81,4.81,0,0,1-3.5-2.71,3.14,3.14,0,0,1,.85-3.61A9.55,9.55,0,0,1,77.56,49a30.3,30.3,0,0,1,6.79.84c1.71.35,2.49.46,2.88.52S87.62,50.38,87.37,50.86Z"/></svg>