<?xml version="1.0" encoding="utf-8"?>
<!-- Generator: Adobe Illustrator 22.0.1, SVG Export Plug-In . SVG Version: 6.00 Build 0)  -->
<svg version="1.1" id="Layer_1" xmlns="http://www.w3.org/2000/svg" xmlns:xlink="http://www.w3.org/1999/xlink" x="0px" y="0px"
	 viewBox="0 0 100 100" style="enable-background:new 0 0 100 100;" xml:space="preserve">
<style type="text/css">
	.st0{fill:#8292A6;}
</style>
<title>Header Icons</title>
<path class="st0" d="M74.1,83.5H52.5V61.1c0-1.4-1.1-2.5-2.5-2.5c-1.4,0-2.5,1.1-2.5,2.5v22.4H28.3c-1.4,0-2.5,1.1-2.5,2.5
	c0,1.4,1.1,2.5,2.5,2.5h45.7c1.4,0,2.5-1.1,2.5-2.5C76.5,84.6,75.4,83.5,74.1,83.5z"/>
<path class="st0" d="M41.4,56.3c2.1,2.6,5.3,4.1,8.7,4.1l0,0c3.4,0,6.6-1.5,8.7-4.2L78,32.4H22L41.4,56.3z"/>
<path class="st0" d="M80.6,27.6c1.6-6-2-12.1-8-13.6c-0.9-0.2-1.9-0.4-2.8-0.4H30.2c-6.2,0-11.2,5-11.2,11.1c0,0.8,0.1,1.7,0.3,2.5
	H80C80.2,27.2,80.5,27.4,80.6,27.6z"/>
</svg>
