<svg id="Layer_1" data-name="Layer 1" xmlns="http://www.w3.org/2000/svg" viewBox="0 0 100 100"><defs><style>.cls-1{fill:none;}.cls-2{fill:#8292a6;}</style></defs><title>Header Icons</title><path class="cls-1" d="M14.5,73.41a3.79,3.79,0,0,0-3.65,3.65V81.2h7.3V77.06A3.7,3.7,0,0,0,14.5,73.41Z"/><path class="cls-1" d="M76.48,56.81V47.26c-1.4-1.72-10.27-4.61-24-4.61s-22.72,2.87-24,4.57v9.59c8.2-3.49,21.9-3.64,24-3.64S68.28,53.32,76.48,56.81Z"/><ellipse class="cls-1" cx="52.44" cy="63.68" rx="23.78" ry="4.32"/><path class="cls-2" d="M91,29.22,56,14.67a9.3,9.3,0,0,0-7.12,0L14.34,29.31A9.21,9.21,0,0,0,11.17,44s0,0,0,0V67.85a10,10,0,0,0-6.49,9.21v7.23a3.09,3.09,0,0,0,3.09,3.1H21.25a3.1,3.1,0,0,0,3.09-3.1V77.06a9.84,9.84,0,0,0-7-9.41V47.54l3.28,1.4a5,5,0,0,0,1.59.34v14.4c0,10.2,27.13,10.5,30.22,10.5s30.23-.3,30.23-10.5V49.16a3,3,0,0,0,.42,0A3,3,0,0,0,84.26,49l6.66-2.73a9.2,9.2,0,0,0,0-17Zm-72.81,52h-7.3V77.06a3.79,3.79,0,0,1,3.65-3.65,3.7,3.7,0,0,1,3.65,3.65Zm10.25-34c1.32-1.7,10.15-4.57,24-4.57s22.64,2.89,24,4.61v9.55c-8.2-3.49-21.89-3.64-24-3.64s-15.84.15-24,3.64ZM52.44,68c-13.15,0-21.79-2.6-23.78-4.32,2-1.73,10.63-4.32,23.78-4.32S74.23,62,76.22,63.68C74.23,65.4,65.59,68,52.44,68Z"/></svg>