<svg id="Layer_1" data-name="Layer 1" xmlns="http://www.w3.org/2000/svg" viewBox="0 0 100 100"><defs><style>.cls-1{fill:none;}.cls-2{fill:#8292a6;}</style></defs><title>Header Icons</title><path class="cls-1" d="M39.3,20.82l-.63.35v4.32H64.34V21.17l-.63-.35Z"/><path class="cls-2" d="M80.51,27H67.35V22.25c0-2.91-2.36-4.13-3.77-4.86l-.25-.13a3,3,0,0,0-1.39-.34H37.05a3,3,0,0,0-1.39.34l-.25.13c-1.41.73-3.76,1.95-3.76,4.86v4.8H18.48A9.49,9.49,0,0,0,9,36.52V74.17a9.49,9.49,0,0,0,9.48,9.48h62A9.49,9.49,0,0,0,90,74.17V36.52A9.49,9.49,0,0,0,80.51,27Zm-20,32.22H52.64v7.85H46.35V59.26H38.5V53h7.85V45.12h6.29V53H60.5ZM62,26.83H37v-4.2l.61-.34H61.36c.22.12.45.24.61.34Z"/></svg>