<svg id="Layer_1" data-name="Layer 1" xmlns="http://www.w3.org/2000/svg" viewBox="0 0 100 100"><defs><style>.cls-1{fill:#8292a6;}</style></defs><title>Header Icons</title><path class="cls-1" d="M82.21,37.27a9.62,9.62,0,0,0,.81-1.6c1-3,1.06-3.09,4.15-3.08h2.25a2.55,2.55,0,0,1,2.74,2.68q0,1.42,0,2.85a2.55,2.55,0,0,1-2.74,2.68c-1.87,0-3.74,0-5.61,0-.28,0-.55,0-.87,0,.5.54,1,1,1.38,1.49a18.56,18.56,0,0,1,5.06,13.29,56.87,56.87,0,0,1-1.55,13.51,29.85,29.85,0,0,1-1.39,3.61,2.34,2.34,0,0,1-1.78,1.49c-.69.13-.83.5-.81,1.15.05,1.29,0,2.59,0,3.89a2.77,2.77,0,0,1-3,3H75.91a2.79,2.79,0,0,1-3-3c0-1.09,0-2.17,0-3.37a299.25,299.25,0,0,1-44.31,0v3c0,2.32-1,3.33-3.32,3.33H20.67a2.81,2.81,0,0,1-3.08-3.12c0-1.33,0-2.65,0-4,0-.46-.07-.76-.59-.86a3,3,0,0,1-2.18-1.9,25.76,25.76,0,0,1-2.21-8.73c-.28-2.66-.46-5.34-.53-8a18.37,18.37,0,0,1,6.13-14.38,1.69,1.69,0,0,1,.36-.23l-.08-.2c-.24,0-.47-.06-.71-.06-1.87,0-3.74,0-5.61,0a2.59,2.59,0,0,1-2.88-2.89c0-.83,0-1.67,0-2.51a2.57,2.57,0,0,1,2.86-2.81h3.2c1.68,0,2.23.41,2.76,2,.16.46.25.95.44,1.4a10.77,10.77,0,0,0,.7,1.23l.25,0c.11-.39.22-.79.31-1.18a44.43,44.43,0,0,1,6-13.95,10.33,10.33,0,0,1,7.4-4.85,66,66,0,0,1,9.07-1c6.45-.11,12.9,0,19.34.15a45.73,45.73,0,0,1,7.16,1,10.8,10.8,0,0,1,7.28,5.34,45.1,45.1,0,0,1,5.71,13.8c0,.21.12.42.18.63Zm-4.7,2a.74.74,0,0,0,0-.25,44.75,44.75,0,0,0-5.93-14.81,2.08,2.08,0,0,0-1.15-.77A46.73,46.73,0,0,0,58.5,21.68c-5.15-.13-10.31-.13-15.45,0a46.48,46.48,0,0,0-12,1.74,2.37,2.37,0,0,0-1.24.91,47.93,47.93,0,0,0-5.52,13.24c-.15.59-.24,1.2-.33,1.69A305.12,305.12,0,0,1,77.51,39.25ZM50.77,51.88c-4.09,0-8.17,0-12.26,0-1.43,0-1.91.7-1.45,2.06.58,1.69,1.17,3.36,1.73,5.05a1.65,1.65,0,0,0,1.79,1.27q10.14,0,20.29,0A1.65,1.65,0,0,0,62.66,59c.55-1.67,1.14-3.32,1.71-5,.5-1.47,0-2.15-1.51-2.15C58.83,51.87,54.8,51.88,50.77,51.88Zm25.44,5.6h6.47c.84,0,1.22-.37,1.24-1.2,0-1,0-2,0-2.93,0-1.17-.32-1.46-1.5-1.46-3.37,0-6.73,0-10.1,0a2.9,2.9,0,0,0-2.89,1.76A10.41,10.41,0,0,0,68.71,56c-.2,1.07.18,1.47,1.29,1.48Zm-51,0h6.38c.71,0,1.25-.26,1.19-1a5.28,5.28,0,0,0-1.29-3.57,3.19,3.19,0,0,0-1.91-1c-3.62-.1-7.24,0-10.87,0A1,1,0,0,0,17.51,53c0,1,0,2.07,0,3.11s.36,1.32,1.37,1.33Z"/></svg>