<svg id="Layer_1" data-name="Layer 1" xmlns="http://www.w3.org/2000/svg" viewBox="0 0 100 100"><defs><style>.cls-1{fill:#8292a6;}</style></defs><title>Header Icons</title><path class="cls-1" d="M49.15,86.53a37.2,37.2,0,1,1,37.22-37A37.24,37.24,0,0,1,49.15,86.53ZM35.53,49.3A13.64,13.64,0,1,0,49.22,35.7,13.7,13.7,0,0,0,35.53,49.3Zm31-26.78c-2,4-3.92,7.83-5.85,11.72a.71.71,0,0,0,.14.62c1,1,2.07,2.06,3.17,3.13l12-6A31.87,31.87,0,0,0,66.51,22.52ZM31.85,76.08l5.88-11.76c-1-1.11-1.95-2.08-2.81-3.12A.79.79,0,0,0,33.75,61c-2.68,1.37-5.38,2.7-8.07,4.05l-3.24,1.63C23.58,69.25,29,74.7,31.85,76.08Z"/><path class="cls-1" d="M49.23,39.25A10.09,10.09,0,1,1,39.08,49.48,10,10,0,0,1,49.23,39.25Zm-.07,4.55a5.54,5.54,0,1,0,5.54,5.54A5.59,5.59,0,0,0,49.16,43.8Z"/></svg>