<svg id="Layer_1" data-name="Layer 1" xmlns="http://www.w3.org/2000/svg" viewBox="0 0 100 100"><defs><style>.cls-1{fill:#8292a6;}</style></defs><title>Header Icons</title><path class="cls-1" d="M31.91,51.18l5.7-12.63a2.05,2.05,0,0,1,2-1.21,2.08,2.08,0,0,1,1.87,1.36L50.56,64,59.1,45.46a2.07,2.07,0,0,1,3.41-.53l5.72,6.25H85.72c3.87-8.6,3.36-15.39,2.13-19.74a20.65,20.65,0,0,0-19.8-15,22.41,22.41,0,0,0-3.89.35,18.37,18.37,0,0,0-12.41,8.09,19.25,19.25,0,0,0-1.42,2.56,20.51,20.51,0,0,0-1.43-2.56,18.35,18.35,0,0,0-12.41-8.09,22.41,22.41,0,0,0-3.89-.35,20.65,20.65,0,0,0-19.8,15c-1.23,4.35-1.74,11.14,2.13,19.74Zm0,0"/><path class="cls-1" d="M67.32,54.78a2.08,2.08,0,0,1-1.53-.67l-4.23-4.63L52.21,69.75A2.07,2.07,0,0,1,50.33,71h-.09a2.08,2.08,0,0,1-1.86-1.37l-9.1-25.21-4.15,9.19a2.06,2.06,0,0,1-1.88,1.22H17.06C23,64.93,33.77,75.1,49.21,85a2.06,2.06,0,0,0,1.12.33A2,2,0,0,0,51.44,85C66.88,75.1,77.69,64.94,83.59,54.78Zm0,0"/></svg>