<svg id="Layer_1" data-name="Layer 1" xmlns="http://www.w3.org/2000/svg" viewBox="0 0 100 100"><defs><style>.cls-1{fill:#8292a6;}</style></defs><title>Header Icons</title><path class="cls-1" d="M41.36,14.76H19.77a4.46,4.46,0,0,0-4.46,4.46V41a4.46,4.46,0,0,0,4.46,4.47H41.36A4.47,4.47,0,0,0,45.82,41V19.22A4.46,4.46,0,0,0,41.36,14.76ZM37.11,32.32h-4.3a.05.05,0,0,0-.06.06v4.13a2.31,2.31,0,0,1-1.87,2.34,2.19,2.19,0,0,1-2.5-2.17v-4.3a.06.06,0,0,0-.06-.06H24.18a2.3,2.3,0,0,1-2.33-1.87A2.18,2.18,0,0,1,24,28h4.31a.06.06,0,0,0,.06-.06V23.74a2.3,2.3,0,0,1,1.86-2.32,2.19,2.19,0,0,1,2.51,2.16v4.31a.06.06,0,0,0,.06.06H37a2.3,2.3,0,0,1,2.33,1.86A2.19,2.19,0,0,1,37.11,32.32Z"/><path class="cls-1" d="M78.05,14.76H56.46A4.47,4.47,0,0,0,52,19.22V41a4.47,4.47,0,0,0,4.47,4.47H78.05A4.47,4.47,0,0,0,82.51,41V19.22A4.46,4.46,0,0,0,78.05,14.76ZM73.8,32.32H60.86a2.29,2.29,0,0,1-2.32-1.87A2.17,2.17,0,0,1,60.69,28h13A2.31,2.31,0,0,1,76,29.81,2.2,2.2,0,0,1,73.8,32.32Z"/><path class="cls-1" d="M41.29,51.61H19.69a4.46,4.46,0,0,0-4.46,4.46V77.89a4.46,4.46,0,0,0,4.46,4.46h21.6a4.46,4.46,0,0,0,4.46-4.46V56.07A4.46,4.46,0,0,0,41.29,51.61ZM36.54,70a2.28,2.28,0,0,1,.33,3,2.17,2.17,0,0,1-3.29.23l-3-3a.06.06,0,0,0-.08,0L27.52,73a2.31,2.31,0,0,1-3,.33,2.18,2.18,0,0,1-.24-3.3l3.05-3a.06.06,0,0,0,0-.08L24.42,64a2.29,2.29,0,0,1-.32-3,2.18,2.18,0,0,1,3.3-.25l3.05,3.05a.06.06,0,0,0,.08,0l2.93-2.93a2.3,2.3,0,0,1,3-.33,2.19,2.19,0,0,1,.25,3.3l-3.05,3a.06.06,0,0,0,0,.08Z"/><path class="cls-1" d="M78.05,51.61H56.46A4.46,4.46,0,0,0,52,56.07V77.89a4.47,4.47,0,0,0,4.47,4.46H78.05a4.46,4.46,0,0,0,4.46-4.46V56.07A4.46,4.46,0,0,0,78.05,51.61ZM60.69,61.52H73.63A2.31,2.31,0,0,1,76,63.39a2.19,2.19,0,0,1-2.17,2.49H60.86A2.28,2.28,0,0,1,58.54,64,2.18,2.18,0,0,1,60.69,61.52ZM73.8,72.44H60.86a2.29,2.29,0,0,1-2.32-1.86,2.18,2.18,0,0,1,2.15-2.51H73.63A2.31,2.31,0,0,1,76,69.94,2.19,2.19,0,0,1,73.8,72.44Z"/></svg>