<svg id="Layer_1" data-name="Layer 1" xmlns="http://www.w3.org/2000/svg" viewBox="0 0 100 100"><defs><style>.cls-1{fill:#8292a6;}</style></defs><title>Header Icons</title><path class="cls-1" d="M96.19,60.47A17.73,17.73,0,0,0,84.33,46.18,17.53,17.53,0,0,0,77,45.32l-5-17.7h3.24a3.2,3.2,0,0,0,0-6.39H59a3.2,3.2,0,1,0,0,6.39h6.23L66.51,32H41.63l-1.07-4.35h4.31a3.2,3.2,0,0,0,0-6.39H28.74a3.2,3.2,0,1,0,0,6.39H34l1.75,7.05-8,12A17.69,17.69,0,0,0,7.93,75.11a17.55,17.55,0,0,0,12.84,5.52,17.83,17.83,0,0,0,17.4-14.49h9.25L69.27,41.65l1.55,5.43A17.69,17.69,0,1,0,96.19,60.47ZM79.8,66.87a3.24,3.24,0,0,0,1.94-1.56A3.2,3.2,0,0,0,82,62.85l-3.24-11.2a11.29,11.29,0,1,1-.56,22.57A11.44,11.44,0,0,1,67.38,63.15a11.26,11.26,0,0,1,5.17-9.69l3.23,11.18A3.25,3.25,0,0,0,79.8,66.87ZM41.89,59.73H38.17a17.72,17.72,0,0,0-5.11-9.51l4.72-7.11Zm-10.3,0H26.8l2.7-3.93A11.39,11.39,0,0,1,31.59,59.73ZM15.71,64.4a3.26,3.26,0,0,0,.84,4.52,3.22,3.22,0,0,0,2.43.51,3.17,3.17,0,0,0,2.08-1.35l1.34-1.94h9.19a11.29,11.29,0,0,1-22.1-3.62A11.41,11.41,0,0,1,20.56,51.65h.21a11.26,11.26,0,0,1,3.32.49Zm47.89-26-16,17.89L43.21,38.38Z"/></svg>