<svg id="Layer_1" data-name="Layer 1" xmlns="http://www.w3.org/2000/svg" viewBox="0 0 100 100"><defs><style>.cls-1{fill:#8292a6;}</style></defs><title>Header Icons</title><rect class="cls-1" x="46.85" y="51.16" width="5.56" height="7.55" transform="translate(-0.37 0.34) rotate(-0.39)"/><path class="cls-1" d="M81.09,25.84l-13.52.09,0-4.92c0-3-2.45-4.22-3.9-5l-.26-.13A3,3,0,0,0,62,15.58l-25.55.17a3,3,0,0,0-1.42.36l-.26.14c-1.44.75-3.85,2-3.83,5l0,4.92-13.52.09a9.74,9.74,0,0,0-9.66,9.8L8,74.72a9.74,9.74,0,0,0,9.8,9.66L81.48,84a9.75,9.75,0,0,0,9.67-9.8l-.26-38.64A9.75,9.75,0,0,0,81.09,25.84ZM36.41,21.61l.62-.35,24.36-.16c.23.11.46.24.64.34l0,4.31-25.61.17ZM85.55,57.45,58,57.64v2.49a2.41,2.41,0,0,1-.05.54,4.28,4.28,0,0,1-4.1,3.53l-8.23,0a4.28,4.28,0,0,1-4.21-4.15l0-2.38-.24,0-28.69.19a2.76,2.76,0,1,1,0-5.51l28.69-.2.25,0,0-2.38a4.28,4.28,0,0,1,4.15-4.21l8.24-.05a4.27,4.27,0,0,1,4.2,4.14l0,2.36,27.61-.19a2.76,2.76,0,0,1,0,5.52Z"/></svg>