<svg id="Layer_1" data-name="Layer 1" xmlns="http://www.w3.org/2000/svg" viewBox="0 0 100 100"><defs><style>.cls-1{fill:#8292a6;}</style></defs><title>Header Icons</title><path class="cls-1" d="M75.89,27.25h-7V40.73a4.16,4.16,0,0,1-1.49,3.2,4.21,4.21,0,0,1-2.69,1,4.62,4.62,0,0,1-.74-.06,4.26,4.26,0,0,1-3.42-4.29V27.25H37.17v13.3a4.33,4.33,0,0,1-3.42,4.29,4.24,4.24,0,0,1-3.43-.91,4.16,4.16,0,0,1-1.49-3.2V27.25h-7a9.15,9.15,0,0,0-8.93,11.13l9.43,34.46A9.16,9.16,0,0,0,31.29,80H66.81a9.14,9.14,0,0,0,8.94-7.23l9.09-34.46A9.15,9.15,0,0,0,75.89,27.25Z"/><path class="cls-1" d="M63,13.91A13.26,13.26,0,0,0,53.55,10H45.69c-8.2,0-14.86,6-14.86,13.28V40.73a2.17,2.17,0,0,0,2.57,2.14,2.31,2.31,0,0,0,1.77-2.32V23.28c0-5.52,5.46-8.93,10.52-8.93h7.86a9,9,0,0,1,9,9v17.2a2.31,2.31,0,0,0,1.77,2.32,2.17,2.17,0,0,0,2.57-2.14V23.35A13.28,13.28,0,0,0,63,13.91Z"/></svg>